<?xml version="1.0" encoding="utf-8" standalone="no"?>
<!DOCTYPE svg PUBLIC "-//W3C//DTD SVG 1.1//EN"
  "http://www.w3.org/Graphics/SVG/1.1/DTD/svg11.dtd">
<svg height="301.392pt" version="1.1" viewBox="0 0 387.792 301.392" width="387.792pt" xmlns="http://www.w3.org/2000/svg" xmlns:xlink="http://www.w3.org/1999/xlink">
 <metadata>
  <rdf:RDF xmlns:cc="http://creativecommons.org/ns#" xmlns:dc="http://purl.org/dc/elements/1.1/" xmlns:rdf="http://www.w3.org/1999/02/22-rdf-syntax-ns#">
   <cc:Work>
    <dc:type rdf:resource="http://purl.org/dc/dcmitype/StillImage"/>
    <dc:date>2022-01-28T12:09:08.105543</dc:date>
    <dc:format>image/svg+xml</dc:format>
    <dc:creator>
     <cc:Agent>
      <dc:title>Matplotlib v3.4.2, https://matplotlib.org/</dc:title>
     </cc:Agent>
    </dc:creator>
   </cc:Work>
  </rdf:RDF>
 </metadata>
 <defs>
  <style type="text/css">*{stroke-linecap:butt;stroke-linejoin:round;}</style>
 </defs>
 <g id="figure_1">
  <g id="patch_1">
   <path d="M 0 301.392 
L 387.792 301.392 
L 387.792 0 
L 0 0 
z
" style="fill:none;"/>
  </g>
  <g id="axes_1">
   <g id="patch_2">
    <path d="M 51.096177 255.741178 
L 372.708082 255.741178 
L 372.708082 23.511323 
L 51.096177 23.511323 
z
" style="fill:none;"/>
   </g>
   <g id="matplotlib.axis_1">
    <g id="xtick_1">
     <g id="line2d_1">
      <defs>
       <path d="M 0 0 
L 0 6 
" id="m2c6df206df" style="stroke:#262626;stroke-width:1.25;"/>
      </defs>
      <g>
       <use style="fill:#262626;stroke:#262626;stroke-width:1.25;" x="51.096177" xlink:href="#m2c6df206df" y="255.741178"/>
      </g>
     </g>
     <g id="text_1">
      <!-- $\mathdefault{0.0}$ -->
      <g style="fill:#262626;" transform="translate(43.212259 273.993057)scale(0.1265 -0.1265)">
       <defs>
        <path d="M 2688 2025 
C 2688 2416 2682 3080 2413 3591 
C 2176 4039 1798 4198 1466 4198 
C 1158 4198 768 4058 525 3597 
C 269 3118 243 2524 243 2025 
C 243 1661 250 1106 448 619 
C 723 -39 1216 -128 1466 -128 
C 1760 -128 2208 -7 2470 600 
C 2662 1042 2688 1559 2688 2025 
z
M 1466 -26 
C 1056 -26 813 325 723 812 
C 653 1188 653 1738 653 2096 
C 653 2588 653 2997 736 3387 
C 858 3929 1216 4096 1466 4096 
C 1728 4096 2067 3923 2189 3400 
C 2272 3036 2278 2607 2278 2096 
C 2278 1680 2278 1169 2202 792 
C 2067 95 1690 -26 1466 -26 
z
" id="CMR17-30" transform="scale(0.015625)"/>
        <path d="M 1178 307 
C 1178 492 1024 619 870 619 
C 685 619 557 466 557 313 
C 557 128 710 0 864 0 
C 1050 0 1178 153 1178 307 
z
" id="CMMI12-3a" transform="scale(0.015625)"/>
       </defs>
       <use transform="scale(0.996264)" xlink:href="#CMR17-30"/>
       <use transform="translate(45.690477 0)scale(0.996264)" xlink:href="#CMMI12-3a"/>
       <use transform="translate(72.787654 0)scale(0.996264)" xlink:href="#CMR17-30"/>
      </g>
     </g>
    </g>
    <g id="xtick_2">
     <g id="line2d_2">
      <g>
       <use style="fill:#262626;stroke:#262626;stroke-width:1.25;" x="115.418558" xlink:href="#m2c6df206df" y="255.741178"/>
      </g>
     </g>
     <g id="text_2">
      <!-- $\mathdefault{0.2}$ -->
      <g style="fill:#262626;" transform="translate(107.53464 273.993057)scale(0.1265 -0.1265)">
       <defs>
        <path d="M 2669 989 
L 2554 989 
C 2490 536 2438 459 2413 420 
C 2381 369 1920 369 1830 369 
L 602 369 
C 832 619 1280 1072 1824 1597 
C 2214 1967 2669 2402 2669 3035 
C 2669 3790 2067 4224 1395 4224 
C 691 4224 262 3604 262 3030 
C 262 2780 448 2748 525 2748 
C 589 2748 781 2787 781 3010 
C 781 3207 614 3264 525 3264 
C 486 3264 448 3258 422 3245 
C 544 3790 915 4058 1306 4058 
C 1862 4058 2227 3617 2227 3035 
C 2227 2479 1901 2000 1536 1584 
L 262 146 
L 262 0 
L 2515 0 
L 2669 989 
z
" id="CMR17-32" transform="scale(0.015625)"/>
       </defs>
       <use transform="scale(0.996264)" xlink:href="#CMR17-30"/>
       <use transform="translate(45.690477 0)scale(0.996264)" xlink:href="#CMMI12-3a"/>
       <use transform="translate(72.787654 0)scale(0.996264)" xlink:href="#CMR17-32"/>
      </g>
     </g>
    </g>
    <g id="xtick_3">
     <g id="line2d_3">
      <g>
       <use style="fill:#262626;stroke:#262626;stroke-width:1.25;" x="179.740939" xlink:href="#m2c6df206df" y="255.741178"/>
      </g>
     </g>
     <g id="text_3">
      <!-- $\mathdefault{0.4}$ -->
      <g style="fill:#262626;" transform="translate(171.857021 273.993057)scale(0.1265 -0.1265)">
       <defs>
        <path d="M 2150 4122 
C 2150 4256 2144 4256 2029 4256 
L 128 1254 
L 128 1088 
L 1779 1088 
L 1779 457 
C 1779 224 1766 160 1318 160 
L 1197 160 
L 1197 0 
C 1402 0 1747 0 1965 0 
C 2182 0 2528 0 2733 0 
L 2733 160 
L 2611 160 
C 2163 160 2150 224 2150 457 
L 2150 1088 
L 2803 1088 
L 2803 1254 
L 2150 1254 
L 2150 4122 
z
M 1798 3703 
L 1798 1254 
L 256 1254 
L 1798 3703 
z
" id="CMR17-34" transform="scale(0.015625)"/>
       </defs>
       <use transform="scale(0.996264)" xlink:href="#CMR17-30"/>
       <use transform="translate(45.690477 0)scale(0.996264)" xlink:href="#CMMI12-3a"/>
       <use transform="translate(72.787654 0)scale(0.996264)" xlink:href="#CMR17-34"/>
      </g>
     </g>
    </g>
    <g id="xtick_4">
     <g id="line2d_4">
      <g>
       <use style="fill:#262626;stroke:#262626;stroke-width:1.25;" x="244.06332" xlink:href="#m2c6df206df" y="255.741178"/>
      </g>
     </g>
     <g id="text_4">
      <!-- $\mathdefault{0.6}$ -->
      <g style="fill:#262626;" transform="translate(236.179402 273.993057)scale(0.1265 -0.1265)">
       <defs>
        <path d="M 678 2176 
C 678 3690 1395 4032 1811 4032 
C 1946 4032 2272 4009 2400 3776 
C 2298 3776 2106 3776 2106 3553 
C 2106 3381 2246 3323 2336 3323 
C 2394 3323 2566 3348 2566 3560 
C 2566 3954 2246 4179 1805 4179 
C 1043 4179 243 3390 243 1984 
C 243 253 966 -128 1478 -128 
C 2099 -128 2688 427 2688 1283 
C 2688 2081 2170 2662 1517 2662 
C 1126 2662 838 2407 678 1960 
L 678 2176 
z
M 1478 25 
C 691 25 691 1200 691 1436 
C 691 1896 909 2560 1504 2560 
C 1613 2560 1926 2560 2138 2120 
C 2253 1870 2253 1609 2253 1289 
C 2253 944 2253 690 2118 434 
C 1978 171 1773 25 1478 25 
z
" id="CMR17-36" transform="scale(0.015625)"/>
       </defs>
       <use transform="scale(0.996264)" xlink:href="#CMR17-30"/>
       <use transform="translate(45.690477 0)scale(0.996264)" xlink:href="#CMMI12-3a"/>
       <use transform="translate(72.787654 0)scale(0.996264)" xlink:href="#CMR17-36"/>
      </g>
     </g>
    </g>
    <g id="xtick_5">
     <g id="line2d_5">
      <g>
       <use style="fill:#262626;stroke:#262626;stroke-width:1.25;" x="308.385701" xlink:href="#m2c6df206df" y="255.741178"/>
      </g>
     </g>
     <g id="text_5">
      <!-- $\mathdefault{0.8}$ -->
      <g style="fill:#262626;" transform="translate(300.501783 273.993057)scale(0.1265 -0.1265)">
       <defs>
        <path d="M 1741 2264 
C 2144 2467 2554 2773 2554 3263 
C 2554 3841 1990 4179 1472 4179 
C 890 4179 378 3759 378 3180 
C 378 3021 416 2747 666 2505 
C 730 2442 998 2251 1171 2130 
C 883 1983 211 1634 211 934 
C 211 279 838 -128 1459 -128 
C 2144 -128 2720 362 2720 1010 
C 2720 1590 2330 1857 2074 2029 
L 1741 2264 
z
M 902 2822 
C 851 2854 595 3051 595 3351 
C 595 3739 998 4032 1459 4032 
C 1965 4032 2336 3676 2336 3262 
C 2336 2669 1670 2331 1638 2331 
C 1632 2331 1626 2331 1574 2370 
L 902 2822 
z
M 2080 1519 
C 2176 1449 2483 1240 2483 851 
C 2483 381 2010 25 1472 25 
C 890 25 448 438 448 940 
C 448 1443 838 1862 1280 2060 
L 2080 1519 
z
" id="CMR17-38" transform="scale(0.015625)"/>
       </defs>
       <use transform="scale(0.996264)" xlink:href="#CMR17-30"/>
       <use transform="translate(45.690477 0)scale(0.996264)" xlink:href="#CMMI12-3a"/>
       <use transform="translate(72.787654 0)scale(0.996264)" xlink:href="#CMR17-38"/>
      </g>
     </g>
    </g>
    <g id="xtick_6">
     <g id="line2d_6">
      <g>
       <use style="fill:#262626;stroke:#262626;stroke-width:1.25;" x="372.708082" xlink:href="#m2c6df206df" y="255.741178"/>
      </g>
     </g>
     <g id="text_6">
      <!-- $\mathdefault{1.0}$ -->
      <g style="fill:#262626;" transform="translate(364.824164 273.993057)scale(0.1265 -0.1265)">
       <defs>
        <path d="M 1702 4058 
C 1702 4192 1696 4192 1606 4192 
C 1357 3916 979 3827 621 3827 
C 602 3827 570 3827 563 3808 
C 557 3795 557 3782 557 3648 
C 755 3648 1088 3686 1344 3839 
L 1344 461 
C 1344 236 1331 160 781 160 
L 589 160 
L 589 0 
C 896 0 1216 0 1523 0 
C 1830 0 2150 0 2458 0 
L 2458 160 
L 2266 160 
C 1715 160 1702 230 1702 458 
L 1702 4058 
z
" id="CMR17-31" transform="scale(0.015625)"/>
       </defs>
       <use transform="scale(0.996264)" xlink:href="#CMR17-31"/>
       <use transform="translate(45.690477 0)scale(0.996264)" xlink:href="#CMMI12-3a"/>
       <use transform="translate(72.787654 0)scale(0.996264)" xlink:href="#CMR17-30"/>
      </g>
     </g>
    </g>
    <g id="text_7">
     <!-- $m/n$ -->
     <g style="fill:#262626;" transform="translate(198.631217 290.754892)scale(0.138 -0.138)">
      <defs>
       <path d="M 1318 1871 
C 1331 1910 1491 2229 1728 2433 
C 1894 2586 2112 2689 2362 2689 
C 2618 2689 2707 2497 2707 2242 
C 2707 2203 2707 2076 2630 1775 
L 2470 1118 
C 2419 926 2298 453 2285 383 
C 2259 287 2221 121 2221 96 
C 2221 6 2291 -64 2387 -64 
C 2579 -64 2611 83 2669 313 
L 3053 1839 
C 3066 1890 3398 2689 4102 2689 
C 4358 2689 4448 2497 4448 2242 
C 4448 1884 4198 1188 4058 805 
C 4000 651 3968 568 3968 453 
C 3968 166 4166 -64 4474 -64 
C 5069 -64 5293 875 5293 913 
C 5293 945 5267 971 5229 971 
C 5171 971 5165 952 5133 843 
C 4986 332 4749 64 4493 64 
C 4429 64 4326 64 4326 269 
C 4326 436 4403 640 4429 710 
C 4544 1018 4832 1773 4832 2145 
C 4832 2528 4608 2816 4122 2816 
C 3693 2816 3347 2574 3091 2197 
C 3072 2542 2861 2816 2381 2816 
C 1811 2816 1510 2415 1395 2255 
C 1376 2618 1114 2816 832 2816 
C 646 2816 499 2727 378 2484 
C 262 2254 173 1865 173 1839 
C 173 1814 198 1782 243 1782 
C 294 1782 301 1788 339 1935 
C 435 2312 557 2689 813 2689 
C 960 2689 1011 2586 1011 2395 
C 1011 2254 947 2005 902 1807 
L 723 1118 
C 698 996 627 709 595 594 
C 550 428 480 128 480 96 
C 480 6 550 -64 646 -64 
C 723 -64 813 -26 864 70 
C 877 102 934 326 966 453 
L 1107 1028 
L 1318 1871 
z
" id="CMMI12-6d" transform="scale(0.015625)"/>
       <path d="M 2746 4562 
C 2746 4569 2784 4666 2784 4678 
C 2784 4755 2720 4800 2669 4800 
C 2637 4800 2579 4800 2528 4659 
L 384 -1363 
C 384 -1370 346 -1465 346 -1478 
C 346 -1555 410 -1600 461 -1600 
C 499 -1600 557 -1593 602 -1459 
L 2746 4562 
z
" id="CMMI12-3d" transform="scale(0.015625)"/>
       <path d="M 1318 1871 
C 1331 1910 1491 2229 1728 2433 
C 1894 2586 2112 2689 2362 2689 
C 2618 2689 2707 2497 2707 2242 
C 2707 1878 2445 1150 2317 805 
C 2259 651 2227 568 2227 453 
C 2227 166 2426 -64 2733 -64 
C 3328 -64 3552 875 3552 913 
C 3552 945 3526 971 3488 971 
C 3430 971 3424 952 3392 843 
C 3245 319 3002 64 2752 64 
C 2688 64 2586 64 2586 269 
C 2586 429 2656 621 2694 710 
C 2822 1063 3091 1780 3091 2145 
C 3091 2528 2867 2816 2381 2816 
C 1811 2816 1510 2415 1395 2255 
C 1376 2618 1114 2816 832 2816 
C 627 2816 486 2695 378 2478 
C 262 2248 173 1865 173 1839 
C 173 1814 198 1782 243 1782 
C 294 1782 301 1788 339 1935 
C 442 2325 557 2689 813 2689 
C 960 2689 1011 2586 1011 2395 
C 1011 2254 947 2005 902 1807 
L 723 1118 
C 698 996 627 709 595 594 
C 550 428 480 128 480 96 
C 480 6 550 -64 646 -64 
C 723 -64 813 -26 864 70 
C 877 102 934 326 966 453 
L 1107 1028 
L 1318 1871 
z
" id="CMMI12-6e" transform="scale(0.015625)"/>
      </defs>
      <use transform="scale(0.996264)" xlink:href="#CMMI12-6d"/>
      <use transform="translate(85.327224 0)scale(0.996264)" xlink:href="#CMMI12-3d"/>
      <use transform="translate(134.102143 0)scale(0.996264)" xlink:href="#CMMI12-6e"/>
     </g>
    </g>
   </g>
   <g id="matplotlib.axis_2">
    <g id="ytick_1">
     <g id="line2d_7">
      <path clip-path="url(#p3553eeb17e)" d="M 51.096177 255.741178 
L 372.708082 255.741178 
" style="fill:none;stroke:#cccccc;stroke-linecap:round;"/>
     </g>
     <g id="line2d_8">
      <defs>
       <path d="M 0 0 
L -6 0 
" id="m0a063196c8" style="stroke:#262626;stroke-width:1.25;"/>
      </defs>
      <g>
       <use style="fill:#262626;stroke:#262626;stroke-width:1.25;" x="51.096177" xlink:href="#m0a063196c8" y="255.741178"/>
      </g>
     </g>
     <g id="text_8">
      <!-- $\mathdefault{0.0}$ -->
      <g style="fill:#262626;" transform="translate(25.828341 260.117117)scale(0.1265 -0.1265)">
       <use transform="scale(0.996264)" xlink:href="#CMR17-30"/>
       <use transform="translate(45.690477 0)scale(0.996264)" xlink:href="#CMMI12-3a"/>
       <use transform="translate(72.787654 0)scale(0.996264)" xlink:href="#CMR17-30"/>
      </g>
     </g>
    </g>
    <g id="ytick_2">
     <g id="line2d_9">
      <path clip-path="url(#p3553eeb17e)" d="M 51.096177 229.937861 
L 372.708082 229.937861 
" style="fill:none;stroke:#cccccc;stroke-linecap:round;"/>
     </g>
     <g id="line2d_10">
      <g>
       <use style="fill:#262626;stroke:#262626;stroke-width:1.25;" x="51.096177" xlink:href="#m0a063196c8" y="229.937861"/>
      </g>
     </g>
     <g id="text_9">
      <!-- $\mathdefault{0.5}$ -->
      <g style="fill:#262626;" transform="translate(25.828341 234.3138)scale(0.1265 -0.1265)">
       <defs>
        <path d="M 730 3692 
C 794 3666 1056 3584 1325 3584 
C 1920 3584 2246 3911 2432 4100 
C 2432 4157 2432 4192 2394 4192 
C 2387 4192 2374 4192 2323 4163 
C 2099 4058 1837 3973 1517 3973 
C 1325 3973 1037 3999 723 4139 
C 653 4171 640 4171 634 4171 
C 602 4171 595 4164 595 4037 
L 595 2203 
C 595 2089 595 2057 659 2057 
C 691 2057 704 2070 736 2114 
C 941 2401 1222 2522 1542 2522 
C 1766 2522 2246 2382 2246 1289 
C 2246 1085 2246 715 2054 421 
C 1894 159 1645 25 1370 25 
C 947 25 518 320 403 814 
C 429 807 480 795 506 795 
C 589 795 749 840 749 1038 
C 749 1210 627 1280 506 1280 
C 358 1280 262 1190 262 1011 
C 262 454 704 -128 1382 -128 
C 2042 -128 2669 440 2669 1264 
C 2669 2030 2170 2624 1549 2624 
C 1222 2624 947 2503 730 2274 
L 730 3692 
z
" id="CMR17-35" transform="scale(0.015625)"/>
       </defs>
       <use transform="scale(0.996264)" xlink:href="#CMR17-30"/>
       <use transform="translate(45.690477 0)scale(0.996264)" xlink:href="#CMMI12-3a"/>
       <use transform="translate(72.787654 0)scale(0.996264)" xlink:href="#CMR17-35"/>
      </g>
     </g>
    </g>
    <g id="ytick_3">
     <g id="line2d_11">
      <path clip-path="url(#p3553eeb17e)" d="M 51.096177 204.134543 
L 372.708082 204.134543 
" style="fill:none;stroke:#cccccc;stroke-linecap:round;"/>
     </g>
     <g id="line2d_12">
      <g>
       <use style="fill:#262626;stroke:#262626;stroke-width:1.25;" x="51.096177" xlink:href="#m0a063196c8" y="204.134543"/>
      </g>
     </g>
     <g id="text_10">
      <!-- $\mathdefault{1.0}$ -->
      <g style="fill:#262626;" transform="translate(25.828341 208.510483)scale(0.1265 -0.1265)">
       <use transform="scale(0.996264)" xlink:href="#CMR17-31"/>
       <use transform="translate(45.690477 0)scale(0.996264)" xlink:href="#CMMI12-3a"/>
       <use transform="translate(72.787654 0)scale(0.996264)" xlink:href="#CMR17-30"/>
      </g>
     </g>
    </g>
    <g id="ytick_4">
     <g id="line2d_13">
      <path clip-path="url(#p3553eeb17e)" d="M 51.096177 178.331226 
L 372.708082 178.331226 
" style="fill:none;stroke:#cccccc;stroke-linecap:round;"/>
     </g>
     <g id="line2d_14">
      <g>
       <use style="fill:#262626;stroke:#262626;stroke-width:1.25;" x="51.096177" xlink:href="#m0a063196c8" y="178.331226"/>
      </g>
     </g>
     <g id="text_11">
      <!-- $\mathdefault{1.5}$ -->
      <g style="fill:#262626;" transform="translate(25.828341 182.707166)scale(0.1265 -0.1265)">
       <use transform="scale(0.996264)" xlink:href="#CMR17-31"/>
       <use transform="translate(45.690477 0)scale(0.996264)" xlink:href="#CMMI12-3a"/>
       <use transform="translate(72.787654 0)scale(0.996264)" xlink:href="#CMR17-35"/>
      </g>
     </g>
    </g>
    <g id="ytick_5">
     <g id="line2d_15">
      <path clip-path="url(#p3553eeb17e)" d="M 51.096177 152.527909 
L 372.708082 152.527909 
" style="fill:none;stroke:#cccccc;stroke-linecap:round;"/>
     </g>
     <g id="line2d_16">
      <g>
       <use style="fill:#262626;stroke:#262626;stroke-width:1.25;" x="51.096177" xlink:href="#m0a063196c8" y="152.527909"/>
      </g>
     </g>
     <g id="text_12">
      <!-- $\mathdefault{2.0}$ -->
      <g style="fill:#262626;" transform="translate(25.828341 156.903849)scale(0.1265 -0.1265)">
       <use transform="scale(0.996264)" xlink:href="#CMR17-32"/>
       <use transform="translate(45.690477 0)scale(0.996264)" xlink:href="#CMMI12-3a"/>
       <use transform="translate(72.787654 0)scale(0.996264)" xlink:href="#CMR17-30"/>
      </g>
     </g>
    </g>
    <g id="ytick_6">
     <g id="line2d_17">
      <path clip-path="url(#p3553eeb17e)" d="M 51.096177 126.724592 
L 372.708082 126.724592 
" style="fill:none;stroke:#cccccc;stroke-linecap:round;"/>
     </g>
     <g id="line2d_18">
      <g>
       <use style="fill:#262626;stroke:#262626;stroke-width:1.25;" x="51.096177" xlink:href="#m0a063196c8" y="126.724592"/>
      </g>
     </g>
     <g id="text_13">
      <!-- $\mathdefault{2.5}$ -->
      <g style="fill:#262626;" transform="translate(25.828341 131.100531)scale(0.1265 -0.1265)">
       <use transform="scale(0.996264)" xlink:href="#CMR17-32"/>
       <use transform="translate(45.690477 0)scale(0.996264)" xlink:href="#CMMI12-3a"/>
       <use transform="translate(72.787654 0)scale(0.996264)" xlink:href="#CMR17-35"/>
      </g>
     </g>
    </g>
    <g id="ytick_7">
     <g id="line2d_19">
      <path clip-path="url(#p3553eeb17e)" d="M 51.096177 100.921275 
L 372.708082 100.921275 
" style="fill:none;stroke:#cccccc;stroke-linecap:round;"/>
     </g>
     <g id="line2d_20">
      <g>
       <use style="fill:#262626;stroke:#262626;stroke-width:1.25;" x="51.096177" xlink:href="#m0a063196c8" y="100.921275"/>
      </g>
     </g>
     <g id="text_14">
      <!-- $\mathdefault{3.0}$ -->
      <g style="fill:#262626;" transform="translate(25.828341 105.297214)scale(0.1265 -0.1265)">
       <defs>
        <path d="M 1414 2157 
C 1984 2157 2234 1662 2234 1090 
C 2234 320 1824 25 1453 25 
C 1114 25 563 194 390 693 
C 422 680 454 680 486 680 
C 640 680 755 782 755 948 
C 755 1133 614 1216 486 1216 
C 378 1216 211 1165 211 926 
C 211 335 787 -128 1466 -128 
C 2176 -128 2720 430 2720 1085 
C 2720 1707 2208 2157 1600 2227 
C 2086 2328 2554 2756 2554 3329 
C 2554 3820 2048 4179 1472 4179 
C 890 4179 378 3829 378 3329 
C 378 3110 544 3072 627 3072 
C 762 3072 877 3155 877 3321 
C 877 3486 762 3569 627 3569 
C 602 3569 570 3569 544 3557 
C 730 3959 1235 4032 1459 4032 
C 1683 4032 2106 3925 2106 3320 
C 2106 3143 2080 2828 1862 2550 
C 1670 2304 1453 2304 1242 2284 
C 1210 2284 1062 2269 1037 2269 
C 992 2263 966 2257 966 2208 
C 966 2163 973 2157 1101 2157 
L 1414 2157 
z
" id="CMR17-33" transform="scale(0.015625)"/>
       </defs>
       <use transform="scale(0.996264)" xlink:href="#CMR17-33"/>
       <use transform="translate(45.690477 0)scale(0.996264)" xlink:href="#CMMI12-3a"/>
       <use transform="translate(72.787654 0)scale(0.996264)" xlink:href="#CMR17-30"/>
      </g>
     </g>
    </g>
    <g id="ytick_8">
     <g id="line2d_21">
      <path clip-path="url(#p3553eeb17e)" d="M 51.096177 75.117958 
L 372.708082 75.117958 
" style="fill:none;stroke:#cccccc;stroke-linecap:round;"/>
     </g>
     <g id="line2d_22">
      <g>
       <use style="fill:#262626;stroke:#262626;stroke-width:1.25;" x="51.096177" xlink:href="#m0a063196c8" y="75.117958"/>
      </g>
     </g>
     <g id="text_15">
      <!-- $\mathdefault{3.5}$ -->
      <g style="fill:#262626;" transform="translate(25.828341 79.493897)scale(0.1265 -0.1265)">
       <use transform="scale(0.996264)" xlink:href="#CMR17-33"/>
       <use transform="translate(45.690477 0)scale(0.996264)" xlink:href="#CMMI12-3a"/>
       <use transform="translate(72.787654 0)scale(0.996264)" xlink:href="#CMR17-35"/>
      </g>
     </g>
    </g>
    <g id="ytick_9">
     <g id="line2d_23">
      <path clip-path="url(#p3553eeb17e)" d="M 51.096177 49.314641 
L 372.708082 49.314641 
" style="fill:none;stroke:#cccccc;stroke-linecap:round;"/>
     </g>
     <g id="line2d_24">
      <g>
       <use style="fill:#262626;stroke:#262626;stroke-width:1.25;" x="51.096177" xlink:href="#m0a063196c8" y="49.314641"/>
      </g>
     </g>
     <g id="text_16">
      <!-- $\mathdefault{4.0}$ -->
      <g style="fill:#262626;" transform="translate(25.828341 53.69058)scale(0.1265 -0.1265)">
       <use transform="scale(0.996264)" xlink:href="#CMR17-34"/>
       <use transform="translate(45.690477 0)scale(0.996264)" xlink:href="#CMMI12-3a"/>
       <use transform="translate(72.787654 0)scale(0.996264)" xlink:href="#CMR17-30"/>
      </g>
     </g>
    </g>
    <g id="ytick_10">
     <g id="line2d_25">
      <path clip-path="url(#p3553eeb17e)" d="M 51.096177 23.511323 
L 372.708082 23.511323 
" style="fill:none;stroke:#cccccc;stroke-linecap:round;"/>
     </g>
     <g id="line2d_26">
      <g>
       <use style="fill:#262626;stroke:#262626;stroke-width:1.25;" x="51.096177" xlink:href="#m0a063196c8" y="23.511323"/>
      </g>
     </g>
     <g id="text_17">
      <!-- $\mathdefault{4.5}$ -->
      <g style="fill:#262626;" transform="translate(25.828341 27.887263)scale(0.1265 -0.1265)">
       <use transform="scale(0.996264)" xlink:href="#CMR17-34"/>
       <use transform="translate(45.690477 0)scale(0.996264)" xlink:href="#CMMI12-3a"/>
       <use transform="translate(72.787654 0)scale(0.996264)" xlink:href="#CMR17-35"/>
      </g>
     </g>
    </g>
    <g id="text_18">
     <!-- FLOPs/$n^3$ -->
     <g style="fill:#262626;" transform="translate(18.391233 170.550378)rotate(-90)scale(0.138 -0.138)">
      <defs>
       <path d="M 3482 4325 
L 326 4325 
L 326 4160 
C 768 4160 838 4160 838 3874 
L 838 446 
C 838 160 768 160 326 160 
L 326 0 
C 512 0 870 0 1069 0 
C 1331 0 1638 0 1901 0 
L 1901 160 
L 1760 160 
C 1274 160 1261 223 1261 452 
L 1261 2075 
L 1837 2075 
C 2432 2075 2490 1865 2490 1332 
L 2605 1332 
L 2605 2987 
L 2490 2987 
C 2490 2450 2432 2240 1837 2240 
L 1261 2240 
L 1261 3911 
C 1261 4128 1274 4160 1530 4160 
L 2355 4160 
C 3322 4160 3430 3765 3520 2916 
L 3635 2916 
L 3482 4325 
z
" id="CMR17-46" transform="scale(0.015625)"/>
       <path d="M 3469 1615 
L 3354 1615 
C 3302 983 3219 166 2125 166 
L 1530 166 
C 1274 166 1261 197 1261 414 
L 1261 3898 
C 1261 4129 1274 4192 1760 4192 
L 1901 4192 
L 1901 4352 
C 1638 4352 1331 4352 1069 4352 
C 870 4352 512 4352 326 4352 
L 326 4192 
C 768 4192 838 4192 838 3905 
L 838 452 
C 838 166 768 166 326 166 
L 326 0 
L 3315 0 
L 3469 1615 
z
" id="CMR17-4c" transform="scale(0.015625)"/>
       <path d="M 4307 2135 
C 4307 3437 3366 4416 2304 4416 
C 1216 4416 294 3424 294 2135 
C 294 845 1229 -128 2298 -128 
C 3392 -128 4307 864 4307 2135 
z
M 2304 -13 
C 1574 -13 781 711 781 2217 
C 781 3716 1651 4301 2298 4301 
C 2976 4301 3821 3698 3821 2217 
C 3821 686 3008 -13 2304 -13 
z
" id="CMR17-4f" transform="scale(0.015625)"/>
       <path d="M 1267 2042 
L 2291 2042 
C 3117 2042 3718 2578 3718 3184 
C 3718 3791 3130 4352 2291 4352 
L 333 4352 
L 333 4186 
C 774 4186 845 4186 845 3899 
L 845 446 
C 845 160 774 160 333 160 
L 333 0 
C 518 0 858 0 1056 0 
C 1254 0 1594 0 1779 0 
L 1779 160 
C 1338 160 1267 160 1267 446 
L 1267 2042 
z
M 1254 2176 
L 1254 3938 
C 1254 4155 1267 4186 1523 4186 
L 2170 4186 
C 2995 4186 3232 3714 3232 3184 
C 3232 2604 2950 2176 2170 2176 
L 1254 2176 
z
" id="CMR17-50" transform="scale(0.015625)"/>
       <path d="M 1978 2697 
C 1978 2813 1971 2819 1933 2819 
C 1907 2819 1901 2813 1824 2717 
C 1805 2691 1747 2626 1728 2601 
C 1523 2819 1235 2819 1126 2819 
C 416 2819 160 2447 160 2076 
C 160 1498 813 1365 998 1325 
C 1402 1243 1542 1217 1677 1101 
C 1760 1025 1901 884 1901 654 
C 1901 384 1747 38 1158 38 
C 602 38 403 460 288 1021 
C 269 1110 269 1117 218 1117 
C 166 1117 160 1110 160 983 
L 160 63 
C 160 -51 166 -58 205 -58 
C 237 -58 243 -51 275 0 
C 314 57 410 211 448 276 
C 576 103 800 -64 1158 -64 
C 1792 -64 2131 283 2131 784 
C 2131 1112 1958 1285 1875 1362 
C 1683 1561 1459 1606 1190 1657 
C 838 1735 390 1825 390 2217 
C 390 2383 480 2737 1126 2737 
C 1811 2737 1850 2094 1862 1888 
C 1869 1856 1901 1849 1920 1849 
C 1978 1849 1978 1869 1978 1978 
L 1978 2697 
z
" id="CMR17-73" transform="scale(0.015625)"/>
       <path d="M 2605 4545 
C 2637 4627 2637 4640 2637 4653 
C 2637 4729 2579 4768 2528 4768 
C 2451 4768 2426 4717 2400 4640 
L 326 -1377 
C 294 -1460 294 -1473 294 -1486 
C 294 -1562 352 -1600 403 -1600 
C 480 -1600 506 -1549 531 -1473 
L 2605 4545 
z
" id="CMR17-2f" transform="scale(0.015625)"/>
      </defs>
      <use transform="scale(0.996264)" xlink:href="#CMR17-46"/>
      <use transform="translate(59.983847 0)scale(0.996264)" xlink:href="#CMR17-4c"/>
      <use transform="translate(117.365254 0)scale(0.996264)" xlink:href="#CMR17-4f"/>
      <use transform="translate(189.080043 0)scale(0.996264)" xlink:href="#CMR17-50"/>
      <use transform="translate(251.666343 0)scale(0.996264)" xlink:href="#CMR17-73"/>
      <use transform="translate(287.467681 0)scale(0.996264)" xlink:href="#CMR17-2f"/>
      <use transform="translate(333.158158 0)scale(0.996264)" xlink:href="#CMMI12-6e"/>
      <use transform="translate(391.388205 36.153639)scale(0.697382)" xlink:href="#CMR17-33"/>
     </g>
    </g>
   </g>
   <g id="line2d_27">
    <defs>
     <path d="M 0 1.5 
C 0.397805 1.5 0.77937 1.341951 1.06066 1.06066 
C 1.341951 0.77937 1.5 0.397805 1.5 0 
C 1.5 -0.397805 1.341951 -0.77937 1.06066 -1.06066 
C 0.77937 -1.341951 0.397805 -1.5 0 -1.5 
C -0.397805 -1.5 -0.77937 -1.341951 -1.06066 -1.06066 
C -1.341951 -0.77937 -1.5 -0.397805 -1.5 0 
C -1.5 0.397805 -1.341951 0.77937 -1.06066 1.06066 
C -0.77937 1.341951 -0.397805 1.5 0 1.5 
z
" id="meb7b11724f" style="stroke:#9acd32;"/>
    </defs>
    <g clip-path="url(#p3553eeb17e)">
     <use style="fill:#9acd32;stroke:#9acd32;" x="188.975795" xlink:href="#meb7b11724f" y="171.848253"/>
     <use style="fill:#9acd32;stroke:#9acd32;" x="97.270457" xlink:href="#meb7b11724f" y="206.549175"/>
     <use style="fill:#9acd32;stroke:#9acd32;" x="143.123126" xlink:href="#meb7b11724f" y="190.975977"/>
     <use style="fill:#9acd32;stroke:#9acd32;" x="280.681133" xlink:href="#meb7b11724f" y="120.40615"/>
     <use style="fill:#9acd32;stroke:#9acd32;" x="84.169695" xlink:href="#meb7b11724f" y="210.459882"/>
     <use style="fill:#9acd32;stroke:#9acd32;" x="339.634564" xlink:href="#meb7b11724f" y="76.073474"/>
     <use style="fill:#9acd32;stroke:#9acd32;" x="110.37122" xlink:href="#meb7b11724f" y="202.396511"/>
     <use style="fill:#9acd32;stroke:#9acd32;" x="156.223889" xlink:href="#meb7b11724f" y="185.865407"/>
     <use style="fill:#9acd32;stroke:#9acd32;" x="130.022364" xlink:href="#meb7b11724f" y="195.792399"/>
     <use style="fill:#9acd32;stroke:#9acd32;" x="326.533801" xlink:href="#meb7b11724f" y="86.830206"/>
     <use style="fill:#9acd32;stroke:#9acd32;" x="71.068932" xlink:href="#meb7b11724f" y="214.143645"/>
     <use style="fill:#9acd32;stroke:#9acd32;" x="64.518551" xlink:href="#meb7b11724f" y="215.822423"/>
     <use style="fill:#9acd32;stroke:#9acd32;" x="175.875032" xlink:href="#meb7b11724f" y="177.751832"/>
     <use style="fill:#9acd32;stroke:#9acd32;" x="202.076557" xlink:href="#meb7b11724f" y="165.598337"/>
     <use style="fill:#9acd32;stroke:#9acd32;" x="293.781895" xlink:href="#meb7b11724f" y="111.333105"/>
     <use style="fill:#9acd32;stroke:#9acd32;" x="221.727701" xlink:href="#meb7b11724f" y="155.707409"/>
     <use style="fill:#9acd32;stroke:#9acd32;" x="247.929226" xlink:href="#meb7b11724f" y="140.96448"/>
     <use style="fill:#9acd32;stroke:#9acd32;" x="57.96817" xlink:href="#meb7b11724f" y="217.615495"/>
     <use style="fill:#9acd32;stroke:#9acd32;" x="77.619314" xlink:href="#meb7b11724f" y="212.241435"/>
     <use style="fill:#9acd32;stroke:#9acd32;" x="123.471982" xlink:href="#meb7b11724f" y="197.986893"/>
     <use style="fill:#9acd32;stroke:#9acd32;" x="116.921601" xlink:href="#meb7b11724f" y="200.329662"/>
     <use style="fill:#9acd32;stroke:#9acd32;" x="267.58037" xlink:href="#meb7b11724f" y="129.028412"/>
     <use style="fill:#9acd32;stroke:#9acd32;" x="169.324651" xlink:href="#meb7b11724f" y="180.445675"/>
     <use style="fill:#9acd32;stroke:#9acd32;" x="162.77427" xlink:href="#meb7b11724f" y="183.32406"/>
     <use style="fill:#9acd32;stroke:#9acd32;" x="103.820839" xlink:href="#meb7b11724f" y="204.60281"/>
     <use style="fill:#9acd32;stroke:#9acd32;" x="90.720076" xlink:href="#meb7b11724f" y="208.440659"/>
     <use style="fill:#9acd32;stroke:#9acd32;" x="372.38647" xlink:href="#meb7b11724f" y="47.17658"/>
     <use style="fill:#9acd32;stroke:#9acd32;" x="208.626939" xlink:href="#meb7b11724f" y="162.496095"/>
     <use style="fill:#9acd32;stroke:#9acd32;" x="215.17732" xlink:href="#meb7b11724f" y="158.987046"/>
     <use style="fill:#9acd32;stroke:#9acd32;" x="313.433039" xlink:href="#meb7b11724f" y="97.083994"/>
     <use style="fill:#9acd32;stroke:#9acd32;" x="352.735326" xlink:href="#meb7b11724f" y="64.798677"/>
     <use style="fill:#9acd32;stroke:#9acd32;" x="136.572745" xlink:href="#meb7b11724f" y="193.30528"/>
     <use style="fill:#9acd32;stroke:#9acd32;" x="261.029989" xlink:href="#meb7b11724f" y="132.980178"/>
     <use style="fill:#9acd32;stroke:#9acd32;" x="149.673507" xlink:href="#meb7b11724f" y="188.579985"/>
     <use style="fill:#9acd32;stroke:#9acd32;" x="306.882658" xlink:href="#meb7b11724f" y="101.794326"/>
     <use style="fill:#9acd32;stroke:#9acd32;" x="254.479608" xlink:href="#meb7b11724f" y="137.21494"/>
     <use style="fill:#9acd32;stroke:#9acd32;" x="182.425414" xlink:href="#meb7b11724f" y="174.701764"/>
     <use style="fill:#9acd32;stroke:#9acd32;" x="195.526176" xlink:href="#meb7b11724f" y="168.916221"/>
     <use style="fill:#9acd32;stroke:#9acd32;" x="228.278082" xlink:href="#meb7b11724f" y="151.999336"/>
     <use style="fill:#9acd32;stroke:#9acd32;" x="300.332276" xlink:href="#meb7b11724f" y="106.84984"/>
     <use style="fill:#9acd32;stroke:#9acd32;" x="359.285708" xlink:href="#meb7b11724f" y="59.243363"/>
     <use style="fill:#9acd32;stroke:#9acd32;" x="241.378845" xlink:href="#meb7b11724f" y="144.980736"/>
     <use style="fill:#9acd32;stroke:#9acd32;" x="274.130751" xlink:href="#meb7b11724f" y="124.567283"/>
    </g>
   </g>
   <g id="line2d_28">
    <path clip-path="url(#p3553eeb17e)" d="M 51.096177 219.288758 
L 57.659685 217.635024 
L 64.223193 215.932569 
L 70.786702 214.17954 
L 77.35021 212.374087 
L 83.913718 210.514358 
L 90.477226 208.598502 
L 97.040735 206.624668 
L 103.604243 204.591003 
L 110.167751 202.495656 
L 116.731259 200.336776 
L 123.294768 198.112512 
L 129.858276 195.821012 
L 136.421784 193.460424 
L 142.985293 191.028897 
L 149.548801 188.52458 
L 156.112309 185.945621 
L 162.675817 183.290169 
L 169.239326 180.556372 
L 175.802834 177.742379 
L 182.366342 174.846338 
L 188.92985 171.866398 
L 195.493359 168.800707 
L 202.056867 165.647415 
L 208.620375 162.404669 
L 215.183883 159.070618 
L 221.747392 155.643411 
L 228.3109 152.121196 
L 234.874408 148.502121 
L 241.437917 144.784336 
L 248.001425 140.965989 
L 254.564933 137.045228 
L 261.128441 133.020202 
L 267.69195 128.889059 
L 274.255458 124.649948 
L 280.818966 120.301018 
L 287.382474 115.840417 
L 293.945983 111.266294 
L 300.509491 106.576797 
L 307.072999 101.770074 
L 313.636508 96.844275 
L 320.200016 91.797548 
L 326.763524 86.628041 
L 333.327032 81.333903 
L 339.890541 75.913282 
L 346.454049 70.364327 
L 353.017557 64.685187 
L 359.581065 58.87401 
L 366.144574 52.928945 
L 372.708082 46.848139 
" style="fill:none;stroke:#9acd32;stroke-linecap:round;stroke-width:1.5;"/>
   </g>
   <g id="line2d_29">
    <defs>
     <path d="M 0 1.5 
C 0.397805 1.5 0.77937 1.341951 1.06066 1.06066 
C 1.341951 0.77937 1.5 0.397805 1.5 0 
C 1.5 -0.397805 1.341951 -0.77937 1.06066 -1.06066 
C 0.77937 -1.341951 0.397805 -1.5 0 -1.5 
C -0.397805 -1.5 -0.77937 -1.341951 -1.06066 -1.06066 
C -1.341951 -0.77937 -1.5 -0.397805 -1.5 0 
C -1.5 0.397805 -1.341951 0.77937 -1.06066 1.06066 
C -0.77937 1.341951 -0.397805 1.5 0 1.5 
z
" id="m33a743053d" style="stroke:#556b2f;"/>
    </defs>
    <g clip-path="url(#p3553eeb17e)">
     <use style="fill:#556b2f;stroke:#556b2f;" x="97.270457" xlink:href="#m33a743053d" y="235.936874"/>
     <use style="fill:#556b2f;stroke:#556b2f;" x="188.975795" xlink:href="#m33a743053d" y="219.229025"/>
     <use style="fill:#556b2f;stroke:#556b2f;" x="339.634564" xlink:href="#m33a743053d" y="175.542057"/>
     <use style="fill:#556b2f;stroke:#556b2f;" x="234.828464" xlink:href="#m33a743053d" y="208.338055"/>
     <use style="fill:#556b2f;stroke:#556b2f;" x="84.169695" xlink:href="#m33a743053d" y="237.866236"/>
     <use style="fill:#556b2f;stroke:#556b2f;" x="293.781895" xlink:href="#m33a743053d" y="191.339973"/>
     <use style="fill:#556b2f;stroke:#556b2f;" x="280.681133" xlink:href="#m33a743053d" y="195.449764"/>
     <use style="fill:#556b2f;stroke:#556b2f;" x="130.022364" xlink:href="#m33a743053d" y="230.681603"/>
     <use style="fill:#556b2f;stroke:#556b2f;" x="247.929226" xlink:href="#m33a743053d" y="204.845128"/>
     <use style="fill:#556b2f;stroke:#556b2f;" x="110.37122" xlink:href="#m33a743053d" y="233.899205"/>
     <use style="fill:#556b2f;stroke:#556b2f;" x="156.223889" xlink:href="#m33a743053d" y="225.895408"/>
     <use style="fill:#556b2f;stroke:#556b2f;" x="202.076557" xlink:href="#m33a743053d" y="216.287268"/>
     <use style="fill:#556b2f;stroke:#556b2f;" x="64.518551" xlink:href="#m33a743053d" y="240.527893"/>
     <use style="fill:#556b2f;stroke:#556b2f;" x="71.068932" xlink:href="#m33a743053d" y="239.692702"/>
     <use style="fill:#556b2f;stroke:#556b2f;" x="175.875032" xlink:href="#m33a743053d" y="222.024572"/>
     <use style="fill:#556b2f;stroke:#556b2f;" x="326.533801" xlink:href="#m33a743053d" y="180.335039"/>
     <use style="fill:#556b2f;stroke:#556b2f;" x="221.727701" xlink:href="#m33a743053d" y="211.665564"/>
     <use style="fill:#556b2f;stroke:#556b2f;" x="116.921601" xlink:href="#m33a743053d" y="232.889213"/>
     <use style="fill:#556b2f;stroke:#556b2f;" x="57.96817" xlink:href="#m33a743053d" y="241.42178"/>
     <use style="fill:#556b2f;stroke:#556b2f;" x="77.619314" xlink:href="#m33a743053d" y="238.748481"/>
     <use style="fill:#556b2f;stroke:#556b2f;" x="123.471982" xlink:href="#m33a743053d" y="231.747695"/>
     <use style="fill:#556b2f;stroke:#556b2f;" x="169.324651" xlink:href="#m33a743053d" y="223.305927"/>
     <use style="fill:#556b2f;stroke:#556b2f;" x="162.77427" xlink:href="#m33a743053d" y="224.679195"/>
     <use style="fill:#556b2f;stroke:#556b2f;" x="352.735326" xlink:href="#m33a743053d" y="170.540538"/>
     <use style="fill:#556b2f;stroke:#556b2f;" x="267.58037" xlink:href="#m33a743053d" y="199.375457"/>
     <use style="fill:#556b2f;stroke:#556b2f;" x="215.17732" xlink:href="#m33a743053d" y="213.193627"/>
     <use style="fill:#556b2f;stroke:#556b2f;" x="372.38647" xlink:href="#m33a743053d" y="162.764123"/>
     <use style="fill:#556b2f;stroke:#556b2f;" x="103.820839" xlink:href="#m33a743053d" y="234.980391"/>
     <use style="fill:#556b2f;stroke:#556b2f;" x="261.029989" xlink:href="#m33a743053d" y="201.181607"/>
     <use style="fill:#556b2f;stroke:#556b2f;" x="306.882658" xlink:href="#m33a743053d" y="187.040288"/>
     <use style="fill:#556b2f;stroke:#556b2f;" x="90.720076" xlink:href="#m33a743053d" y="236.868789"/>
     <use style="fill:#556b2f;stroke:#556b2f;" x="208.626939" xlink:href="#m33a743053d" y="214.833381"/>
     <use style="fill:#556b2f;stroke:#556b2f;" x="136.572745" xlink:href="#m33a743053d" y="229.476998"/>
     <use style="fill:#556b2f;stroke:#556b2f;" x="149.673507" xlink:href="#m33a743053d" y="227.198538"/>
     <use style="fill:#556b2f;stroke:#556b2f;" x="313.433039" xlink:href="#m33a743053d" y="184.924584"/>
     <use style="fill:#556b2f;stroke:#556b2f;" x="182.425414" xlink:href="#m33a743053d" y="220.578127"/>
     <use style="fill:#556b2f;stroke:#556b2f;" x="254.479608" xlink:href="#m33a743053d" y="203.122197"/>
     <use style="fill:#556b2f;stroke:#556b2f;" x="228.278082" xlink:href="#m33a743053d" y="209.942901"/>
     <use style="fill:#556b2f;stroke:#556b2f;" x="195.526176" xlink:href="#m33a743053d" y="217.846747"/>
     <use style="fill:#556b2f;stroke:#556b2f;" x="274.130751" xlink:href="#m33a743053d" y="197.341741"/>
     <use style="fill:#556b2f;stroke:#556b2f;" x="359.285708" xlink:href="#m33a743053d" y="168.083917"/>
     <use style="fill:#556b2f;stroke:#556b2f;" x="319.98342" xlink:href="#m33a743053d" y="182.545603"/>
     <use style="fill:#556b2f;stroke:#556b2f;" x="365.836089" xlink:href="#m33a743053d" y="165.324671"/>
    </g>
   </g>
   <g id="line2d_30">
    <path clip-path="url(#p3553eeb17e)" d="M 51.096177 242.254832 
L 57.659685 241.429618 
L 64.223193 240.581557 
L 70.786702 239.709978 
L 77.35021 238.814209 
L 83.913718 237.89358 
L 90.477226 236.947421 
L 97.040735 235.975061 
L 103.604243 234.975829 
L 110.167751 233.949053 
L 116.731259 232.894065 
L 123.294768 231.810192 
L 129.858276 230.696764 
L 136.421784 229.55311 
L 142.985293 228.37856 
L 149.548801 227.172442 
L 156.112309 225.934086 
L 162.675817 224.662822 
L 169.239326 223.357978 
L 175.802834 222.018884 
L 182.366342 220.644869 
L 188.92985 219.235262 
L 195.493359 217.789393 
L 202.056867 216.30659 
L 208.620375 214.786184 
L 215.183883 213.227502 
L 221.747392 211.629876 
L 228.3109 209.992633 
L 234.874408 208.315103 
L 241.437917 206.596615 
L 248.001425 204.836499 
L 254.564933 203.034084 
L 261.128441 201.188698 
L 267.69195 199.299672 
L 274.255458 197.366335 
L 280.818966 195.388015 
L 287.382474 193.364043 
L 293.945983 191.293747 
L 300.509491 189.176456 
L 307.072999 187.0115 
L 313.636508 184.798208 
L 320.200016 182.53591 
L 326.763524 180.223934 
L 333.327032 177.86161 
L 339.890541 175.448267 
L 346.454049 172.983235 
L 353.017557 170.465842 
L 359.581065 167.895417 
L 366.144574 165.271291 
L 372.708082 162.592793 
" style="fill:none;stroke:#556b2f;stroke-linecap:round;stroke-width:1.5;"/>
   </g>
   <g id="line2d_31">
    <defs>
     <path d="M 0 1.5 
C 0.397805 1.5 0.77937 1.341951 1.06066 1.06066 
C 1.341951 0.77937 1.5 0.397805 1.5 0 
C 1.5 -0.397805 1.341951 -0.77937 1.06066 -1.06066 
C 0.77937 -1.341951 0.397805 -1.5 0 -1.5 
C -0.397805 -1.5 -0.77937 -1.341951 -1.06066 -1.06066 
C -1.341951 -0.77937 -1.5 -0.397805 -1.5 0 
C -1.5 0.397805 -1.341951 0.77937 -1.06066 1.06066 
C -0.77937 1.341951 -0.397805 1.5 0 1.5 
z
" id="mb66c002ec7" style="stroke:#cd5c5c;"/>
    </defs>
    <g clip-path="url(#p3553eeb17e)">
     <use style="fill:#cd5c5c;stroke:#cd5c5c;" x="84.169695" xlink:href="#mb66c002ec7" y="207.870105"/>
     <use style="fill:#cd5c5c;stroke:#cd5c5c;" x="103.820839" xlink:href="#mb66c002ec7" y="200.797436"/>
     <use style="fill:#cd5c5c;stroke:#cd5c5c;" x="175.875032" xlink:href="#mb66c002ec7" y="170.204208"/>
     <use style="fill:#cd5c5c;stroke:#cd5c5c;" x="234.828464" xlink:href="#mb66c002ec7" y="139.245859"/>
     <use style="fill:#cd5c5c;stroke:#cd5c5c;" x="254.479608" xlink:href="#mb66c002ec7" y="127.620179"/>
     <use style="fill:#cd5c5c;stroke:#cd5c5c;" x="64.518551" xlink:href="#mb66c002ec7" y="214.39774"/>
     <use style="fill:#cd5c5c;stroke:#cd5c5c;" x="195.526176" xlink:href="#mb66c002ec7" y="160.473211"/>
     <use style="fill:#cd5c5c;stroke:#cd5c5c;" x="215.17732" xlink:href="#mb66c002ec7" y="150.228719"/>
     <use style="fill:#cd5c5c;stroke:#cd5c5c;" x="136.572745" xlink:href="#mb66c002ec7" y="187.884895"/>
     <use style="fill:#cd5c5c;stroke:#cd5c5c;" x="293.781895" xlink:href="#mb66c002ec7" y="102.339229"/>
     <use style="fill:#cd5c5c;stroke:#cd5c5c;" x="346.184945" xlink:href="#mb66c002ec7" y="63.947263"/>
     <use style="fill:#cd5c5c;stroke:#cd5c5c;" x="365.836089" xlink:href="#mb66c002ec7" y="48.183971"/>
     <use style="fill:#cd5c5c;stroke:#cd5c5c;" x="313.433039" xlink:href="#mb66c002ec7" y="88.626817"/>
     <use style="fill:#cd5c5c;stroke:#cd5c5c;" x="71.068932" xlink:href="#mb66c002ec7" y="212.384543"/>
     <use style="fill:#cd5c5c;stroke:#cd5c5c;" x="326.533801" xlink:href="#mb66c002ec7" y="78.894564"/>
     <use style="fill:#cd5c5c;stroke:#cd5c5c;" x="333.084183" xlink:href="#mb66c002ec7" y="74.185772"/>
     <use style="fill:#cd5c5c;stroke:#cd5c5c;" x="77.619314" xlink:href="#mb66c002ec7" y="210.001434"/>
     <use style="fill:#cd5c5c;stroke:#cd5c5c;" x="116.921601" xlink:href="#mb66c002ec7" y="195.680968"/>
     <use style="fill:#cd5c5c;stroke:#cd5c5c;" x="306.882658" xlink:href="#mb66c002ec7" y="93.093423"/>
     <use style="fill:#cd5c5c;stroke:#cd5c5c;" x="274.130751" xlink:href="#mb66c002ec7" y="115.409942"/>
     <use style="fill:#cd5c5c;stroke:#cd5c5c;" x="162.77427" xlink:href="#mb66c002ec7" y="176.472377"/>
     <use style="fill:#cd5c5c;stroke:#cd5c5c;" x="97.270457" xlink:href="#mb66c002ec7" y="203.088942"/>
     <use style="fill:#cd5c5c;stroke:#cd5c5c;" x="228.278082" xlink:href="#mb66c002ec7" y="142.8166"/>
     <use style="fill:#cd5c5c;stroke:#cd5c5c;" x="247.929226" xlink:href="#mb66c002ec7" y="131.410315"/>
     <use style="fill:#cd5c5c;stroke:#cd5c5c;" x="169.324651" xlink:href="#mb66c002ec7" y="173.175381"/>
     <use style="fill:#cd5c5c;stroke:#cd5c5c;" x="143.123126" xlink:href="#mb66c002ec7" y="185.204201"/>
     <use style="fill:#cd5c5c;stroke:#cd5c5c;" x="267.58037" xlink:href="#mb66c002ec7" y="119.311325"/>
     <use style="fill:#cd5c5c;stroke:#cd5c5c;" x="352.735326" xlink:href="#mb66c002ec7" y="59.010763"/>
     <use style="fill:#cd5c5c;stroke:#cd5c5c;" x="188.975795" xlink:href="#mb66c002ec7" y="163.646598"/>
     <use style="fill:#cd5c5c;stroke:#cd5c5c;" x="372.38647" xlink:href="#mb66c002ec7" y="42.996624"/>
     <use style="fill:#cd5c5c;stroke:#cd5c5c;" x="241.378845" xlink:href="#mb66c002ec7" y="135.607388"/>
     <use style="fill:#cd5c5c;stroke:#cd5c5c;" x="221.727701" xlink:href="#mb66c002ec7" y="146.798154"/>
     <use style="fill:#cd5c5c;stroke:#cd5c5c;" x="90.720076" xlink:href="#mb66c002ec7" y="205.348682"/>
     <use style="fill:#cd5c5c;stroke:#cd5c5c;" x="110.37122" xlink:href="#mb66c002ec7" y="198.097023"/>
     <use style="fill:#cd5c5c;stroke:#cd5c5c;" x="300.332276" xlink:href="#mb66c002ec7" y="98.020588"/>
     <use style="fill:#cd5c5c;stroke:#cd5c5c;" x="57.96817" xlink:href="#mb66c002ec7" y="216.761131"/>
     <use style="fill:#cd5c5c;stroke:#cd5c5c;" x="123.471982" xlink:href="#mb66c002ec7" y="193.468762"/>
     <use style="fill:#cd5c5c;stroke:#cd5c5c;" x="149.673507" xlink:href="#mb66c002ec7" y="182.487509"/>
     <use style="fill:#cd5c5c;stroke:#cd5c5c;" x="339.634564" xlink:href="#mb66c002ec7" y="68.818136"/>
     <use style="fill:#cd5c5c;stroke:#cd5c5c;" x="202.076557" xlink:href="#mb66c002ec7" y="157.427964"/>
     <use style="fill:#cd5c5c;stroke:#cd5c5c;" x="319.98342" xlink:href="#mb66c002ec7" y="83.519473"/>
     <use style="fill:#cd5c5c;stroke:#cd5c5c;" x="182.425414" xlink:href="#mb66c002ec7" y="166.756643"/>
     <use style="fill:#cd5c5c;stroke:#cd5c5c;" x="280.681133" xlink:href="#mb66c002ec7" y="111.331674"/>
    </g>
   </g>
   <g id="line2d_32">
    <path clip-path="url(#p3553eeb17e)" d="M 51.096177 218.644104 
L 57.659685 216.61471 
L 64.223193 214.532188 
L 70.786702 212.395767 
L 77.35021 210.204679 
L 83.913718 207.958153 
L 90.477226 205.655419 
L 97.040735 203.295707 
L 103.604243 200.878248 
L 110.167751 198.402272 
L 116.731259 195.867009 
L 123.294768 193.27169 
L 129.858276 190.615543 
L 136.421784 187.8978 
L 142.985293 185.11769 
L 149.548801 182.274445 
L 156.112309 179.367293 
L 162.675817 176.395465 
L 169.239326 173.358192 
L 175.802834 170.254702 
L 182.366342 167.084228 
L 188.92985 163.845998 
L 195.493359 160.539243 
L 202.056867 157.163193 
L 208.620375 153.717079 
L 215.183883 150.20013 
L 221.747392 146.611576 
L 228.3109 142.950648 
L 234.874408 139.216576 
L 241.437917 135.40859 
L 248.001425 131.52592 
L 254.564933 127.567796 
L 261.128441 123.533449 
L 267.69195 119.422108 
L 274.255458 115.233005 
L 280.818966 110.965368 
L 287.382474 106.618428 
L 293.945983 102.191416 
L 300.509491 97.683561 
L 307.072999 93.094094 
L 313.636508 88.422245 
L 320.200016 83.667243 
L 326.763524 78.82832 
L 333.327032 73.904705 
L 339.890541 68.895628 
L 346.454049 63.80032 
L 353.017557 58.618011 
L 359.581065 53.34793 
L 366.144574 47.989309 
L 372.708082 42.541376 
" style="fill:none;stroke:#cd5c5c;stroke-linecap:round;stroke-width:1.5;"/>
   </g>
   <g id="line2d_33">
    <defs>
     <path d="M 0 1.5 
C 0.397805 1.5 0.77937 1.341951 1.06066 1.06066 
C 1.341951 0.77937 1.5 0.397805 1.5 0 
C 1.5 -0.397805 1.341951 -0.77937 1.06066 -1.06066 
C 0.77937 -1.341951 0.397805 -1.5 0 -1.5 
C -0.397805 -1.5 -0.77937 -1.341951 -1.06066 -1.06066 
C -1.341951 -0.77937 -1.5 -0.397805 -1.5 0 
C -1.5 0.397805 -1.341951 0.77937 -1.06066 1.06066 
C -0.77937 1.341951 -0.397805 1.5 0 1.5 
z
" id="m99df0136fc" style="stroke:#800000;"/>
    </defs>
    <g clip-path="url(#p3553eeb17e)">
     <use style="fill:#800000;stroke:#800000;" x="234.828464" xlink:href="#m99df0136fc" y="163.780865"/>
     <use style="fill:#800000;stroke:#800000;" x="156.223889" xlink:href="#m99df0136fc" y="187.157521"/>
     <use style="fill:#800000;stroke:#800000;" x="365.836089" xlink:href="#m99df0136fc" y="124.804696"/>
     <use style="fill:#800000;stroke:#800000;" x="313.433039" xlink:href="#m99df0136fc" y="140.404462"/>
     <use style="fill:#800000;stroke:#800000;" x="77.619314" xlink:href="#m99df0136fc" y="210.534239"/>
     <use style="fill:#800000;stroke:#800000;" x="333.084183" xlink:href="#m99df0136fc" y="134.498951"/>
     <use style="fill:#800000;stroke:#800000;" x="136.572745" xlink:href="#m99df0136fc" y="193.063139"/>
     <use style="fill:#800000;stroke:#800000;" x="254.479608" xlink:href="#m99df0136fc" y="157.875262"/>
     <use style="fill:#800000;stroke:#800000;" x="84.169695" xlink:href="#m99df0136fc" y="208.664104"/>
     <use style="fill:#800000;stroke:#800000;" x="306.882658" xlink:href="#m99df0136fc" y="142.274553"/>
     <use style="fill:#800000;stroke:#800000;" x="215.17732" xlink:href="#m99df0136fc" y="169.686412"/>
     <use style="fill:#800000;stroke:#800000;" x="175.875032" xlink:href="#m99df0136fc" y="181.251922"/>
     <use style="fill:#800000;stroke:#800000;" x="162.77427" xlink:href="#m99df0136fc" y="185.28738"/>
     <use style="fill:#800000;stroke:#800000;" x="228.278082" xlink:href="#m99df0136fc" y="165.650973"/>
     <use style="fill:#800000;stroke:#800000;" x="293.781895" xlink:href="#m99df0136fc" y="146.309942"/>
     <use style="fill:#800000;stroke:#800000;" x="97.270457" xlink:href="#m99df0136fc" y="204.628633"/>
     <use style="fill:#800000;stroke:#800000;" x="241.378845" xlink:href="#m99df0136fc" y="161.91072"/>
     <use style="fill:#800000;stroke:#800000;" x="372.38647" xlink:href="#m99df0136fc" y="122.935021"/>
     <use style="fill:#800000;stroke:#800000;" x="64.518551" xlink:href="#m99df0136fc" y="214.569744"/>
     <use style="fill:#800000;stroke:#800000;" x="326.533801" xlink:href="#m99df0136fc" y="136.369052"/>
     <use style="fill:#800000;stroke:#800000;" x="195.526176" xlink:href="#m99df0136fc" y="175.346299"/>
     <use style="fill:#800000;stroke:#800000;" x="143.123126" xlink:href="#m99df0136fc" y="191.192999"/>
     <use style="fill:#800000;stroke:#800000;" x="247.929226" xlink:href="#m99df0136fc" y="159.745382"/>
     <use style="fill:#800000;stroke:#800000;" x="116.921601" xlink:href="#m99df0136fc" y="198.722988"/>
     <use style="fill:#800000;stroke:#800000;" x="221.727701" xlink:href="#m99df0136fc" y="167.8163"/>
     <use style="fill:#800000;stroke:#800000;" x="169.324651" xlink:href="#m99df0136fc" y="183.122029"/>
     <use style="fill:#800000;stroke:#800000;" x="300.332276" xlink:href="#m99df0136fc" y="144.439865"/>
     <use style="fill:#800000;stroke:#800000;" x="90.720076" xlink:href="#m99df0136fc" y="206.498754"/>
     <use style="fill:#800000;stroke:#800000;" x="346.184945" xlink:href="#m99df0136fc" y="130.463616"/>
     <use style="fill:#800000;stroke:#800000;" x="267.58037" xlink:href="#m99df0136fc" y="153.839841"/>
     <use style="fill:#800000;stroke:#800000;" x="71.068932" xlink:href="#m99df0136fc" y="212.699598"/>
     <use style="fill:#800000;stroke:#800000;" x="319.98342" xlink:href="#m99df0136fc" y="138.239154"/>
     <use style="fill:#800000;stroke:#800000;" x="188.975795" xlink:href="#m99df0136fc" y="177.216436"/>
     <use style="fill:#800000;stroke:#800000;" x="149.673507" xlink:href="#m99df0136fc" y="189.32289"/>
     <use style="fill:#800000;stroke:#800000;" x="274.130751" xlink:href="#m99df0136fc" y="152.29277"/>
     <use style="fill:#800000;stroke:#800000;" x="110.37122" xlink:href="#m99df0136fc" y="200.593125"/>
     <use style="fill:#800000;stroke:#800000;" x="352.735326" xlink:href="#m99df0136fc" y="128.916606"/>
     <use style="fill:#800000;stroke:#800000;" x="339.634564" xlink:href="#m99df0136fc" y="132.33366"/>
     <use style="fill:#800000;stroke:#800000;" x="123.471982" xlink:href="#m99df0136fc" y="197.175921"/>
     <use style="fill:#800000;stroke:#800000;" x="261.029989" xlink:href="#m99df0136fc" y="155.70994"/>
     <use style="fill:#800000;stroke:#800000;" x="202.076557" xlink:href="#m99df0136fc" y="173.799232"/>
     <use style="fill:#800000;stroke:#800000;" x="182.425414" xlink:href="#m99df0136fc" y="179.086593"/>
     <use style="fill:#800000;stroke:#800000;" x="280.681133" xlink:href="#m99df0136fc" y="150.422673"/>
    </g>
   </g>
   <g id="line2d_34">
    <path clip-path="url(#p3553eeb17e)" d="M 51.096177 218.460912 
L 57.659685 216.507091 
L 64.223193 214.553269 
L 70.786702 212.599448 
L 77.35021 210.645626 
L 83.913718 208.691804 
L 90.477226 206.737983 
L 97.040735 204.784161 
L 103.604243 202.830339 
L 110.167751 200.876518 
L 116.731259 198.922696 
L 123.294768 196.968874 
L 129.858276 195.015053 
L 136.421784 193.061231 
L 142.985293 191.107409 
L 149.548801 189.153588 
L 156.112309 187.199766 
L 162.675817 185.245944 
L 169.239326 183.292123 
L 175.802834 181.338301 
L 182.366342 179.384479 
L 188.92985 177.430658 
L 195.493359 175.476836 
L 202.056867 173.523014 
L 208.620375 171.569193 
L 215.183883 169.615371 
L 221.747392 167.661549 
L 228.3109 165.707728 
L 234.874408 163.753906 
L 241.437917 161.800085 
L 248.001425 159.846263 
L 254.564933 157.892441 
L 261.128441 155.93862 
L 267.69195 153.984798 
L 274.255458 152.030976 
L 280.818966 150.077155 
L 287.382474 148.123333 
L 293.945983 146.169511 
L 300.509491 144.21569 
L 307.072999 142.261868 
L 313.636508 140.308046 
L 320.200016 138.354225 
L 326.763524 136.400403 
L 333.327032 134.446581 
L 339.890541 132.49276 
L 346.454049 130.538938 
L 353.017557 128.585116 
L 359.581065 126.631295 
L 366.144574 124.677473 
L 372.708082 122.723651 
" style="fill:none;stroke:#800000;stroke-linecap:round;stroke-width:1.5;"/>
   </g>
   <g id="patch_3">
    <path d="M 51.096177 255.741178 
L 51.096177 23.511323 
" style="fill:none;stroke:#262626;stroke-linecap:square;stroke-linejoin:miter;stroke-width:1.25;"/>
   </g>
   <g id="patch_4">
    <path d="M 372.708082 255.741178 
L 372.708082 23.511323 
" style="fill:none;stroke:#262626;stroke-linecap:square;stroke-linejoin:miter;stroke-width:1.25;"/>
   </g>
   <g id="patch_5">
    <path d="M 51.096177 255.741178 
L 372.708082 255.741178 
" style="fill:none;stroke:#262626;stroke-linecap:square;stroke-linejoin:miter;stroke-width:1.25;"/>
   </g>
   <g id="patch_6">
    <path d="M 51.096177 23.511323 
L 372.708082 23.511323 
" style="fill:none;stroke:#262626;stroke-linecap:square;stroke-linejoin:miter;stroke-width:1.25;"/>
   </g>
   <g id="text_19">
    <!-- (a) With Efficient Matrix Multiplication -->
    <g style="fill:#262626;" transform="translate(93.090707 17.511323)scale(0.138 -0.138)">
     <defs>
      <path d="M 1958 -1561 
C 1958 -1555 1958 -1542 1939 -1523 
C 1645 -1224 858 -407 858 1581 
C 858 3569 1632 4379 1946 4697 
C 1946 4704 1958 4717 1958 4736 
C 1958 4755 1939 4768 1914 4768 
C 1843 4768 1299 4296 986 3594 
C 666 2887 576 2199 576 1588 
C 576 1128 621 351 1005 -471 
C 1312 -1135 1837 -1600 1914 -1600 
C 1946 -1600 1958 -1587 1958 -1561 
z
" id="CMR17-28" transform="scale(0.015625)"/>
      <path d="M 2304 1653 
C 2304 2072 2304 2294 2035 2543 
C 1798 2752 1523 2816 1306 2816 
C 800 2816 435 2407 435 1971 
C 435 1728 627 1728 666 1728 
C 749 1728 896 1778 896 1954 
C 896 2112 774 2181 666 2181 
C 640 2181 608 2174 589 2168 
C 723 2592 1069 2714 1293 2714 
C 1613 2714 1965 2429 1965 1885 
L 1965 1600 
C 1587 1600 1133 1549 774 1357 
C 371 1133 256 813 256 570 
C 256 77 832 -64 1171 -64 
C 1523 -64 1850 139 1990 511 
C 2003 233 2182 -18 2464 -18 
C 2598 -18 2938 70 2938 567 
L 2938 920 
L 2822 920 
L 2822 562 
C 2822 178 2650 128 2566 128 
C 2304 128 2304 458 2304 738 
L 2304 1653 
z
M 1965 870 
C 1965 317 1568 38 1216 38 
C 896 38 646 275 646 570 
C 646 761 730 1100 1101 1305 
C 1408 1478 1760 1504 1965 1504 
L 1965 870 
z
" id="CMR17-61" transform="scale(0.015625)"/>
      <path d="M 1683 1581 
C 1683 2040 1638 2817 1254 3639 
C 947 4303 422 4768 346 4768 
C 326 4768 301 4761 301 4729 
C 301 4717 307 4710 314 4697 
C 621 4378 1402 3568 1402 1584 
C 1402 -407 627 -1217 314 -1537 
C 307 -1549 301 -1556 301 -1568 
C 301 -1600 326 -1600 346 -1600 
C 416 -1600 960 -1128 1274 -426 
C 1594 281 1683 969 1683 1581 
z
" id="CMR17-29" transform="scale(0.015625)"/>
      <path d="M 5523 3764 
C 5581 3936 5677 4160 6048 4160 
L 6048 4326 
C 5939 4326 5715 4326 5600 4326 
C 5440 4326 5158 4326 5005 4332 
L 5005 4160 
C 5293 4160 5414 4000 5414 3847 
C 5414 3802 5408 3777 5382 3707 
L 4390 555 
L 3347 3873 
C 3328 3937 3322 3963 3322 3988 
C 3322 4160 3603 4160 3725 4160 
L 3725 4326 
C 3539 4326 3219 4326 3021 4326 
C 2861 4326 2573 4326 2426 4332 
L 2426 4160 
C 2720 4160 2797 4141 2861 4027 
C 2886 3969 2989 3638 2989 3619 
C 2989 3593 2976 3555 2970 3536 
L 2029 561 
L 986 3867 
C 954 3957 954 3969 954 3982 
C 954 4160 1235 4160 1363 4160 
L 1363 4326 
C 1178 4326 858 4326 659 4326 
C 493 4326 211 4326 58 4332 
L 58 4160 
C 442 4160 467 4122 531 3918 
L 1779 -20 
C 1811 -115 1811 -128 1869 -128 
C 1920 -128 1939 -115 1965 -26 
L 3053 3433 
L 4141 -26 
C 4166 -115 4186 -128 4237 -128 
C 4294 -128 4294 -115 4326 -20 
L 5523 3764 
z
" id="CMR17-57" transform="scale(0.015625)"/>
      <path d="M 992 3909 
C 992 4049 877 4170 730 4170 
C 589 4170 467 4056 467 3909 
C 467 3769 582 3648 730 3648 
C 870 3648 992 3763 992 3909 
z
M 243 2706 
L 243 2541 
C 602 2541 653 2502 653 2197 
L 653 427 
C 653 184 627 153 218 153 
L 218 -13 
C 371 0 646 0 806 0 
C 960 0 1222 0 1370 -13 
L 1370 153 
C 992 153 979 191 979 420 
L 979 2776 
L 243 2706 
z
" id="CMR17-69" transform="scale(0.015625)"/>
      <path d="M 966 2560 
L 1862 2560 
L 1862 2725 
L 966 2725 
L 966 3904 
L 851 3904 
C 838 3245 614 2668 70 2668 
L 70 2560 
L 627 2560 
L 627 771 
C 627 650 627 -64 1370 -64 
C 1747 -64 1965 306 1965 777 
L 1965 1140 
L 1850 1140 
L 1850 783 
C 1850 344 1677 51 1408 51 
C 1222 51 966 178 966 758 
L 966 2560 
z
" id="CMR17-74" transform="scale(0.015625)"/>
      <path d="M 2656 1933 
C 2656 2259 2592 2790 1837 2790 
C 1312 2790 1056 2368 979 2157 
L 973 2157 
L 973 4396 
L 211 4326 
L 211 4160 
C 589 4160 646 4122 646 3817 
L 646 426 
C 646 184 621 153 211 153 
L 211 -13 
C 365 0 646 0 813 0 
C 979 0 1267 0 1421 -13 
L 1421 153 
C 1011 153 986 178 986 428 
L 986 1658 
C 986 2247 1344 2688 1792 2688 
C 2266 2688 2317 2266 2317 1958 
L 2317 428 
C 2317 184 2291 153 1882 153 
L 1882 -13 
C 2035 0 2317 0 2483 0 
C 2650 0 2938 0 3091 -13 
L 3091 153 
C 2682 153 2656 178 2656 428 
L 2656 1933 
z
" id="CMR17-68" transform="scale(0.015625)"/>
      <path d="M 3885 1615 
L 3770 1615 
C 3629 676 3546 166 2419 166 
L 1530 166 
C 1274 166 1261 197 1261 414 
L 1261 2176 
L 1862 2176 
C 2464 2176 2522 1960 2522 1430 
L 2637 1430 
L 2637 3081 
L 2522 3081 
C 2522 2557 2464 2342 1862 2342 
L 1261 2342 
L 1261 3913 
C 1261 4128 1274 4160 1530 4160 
L 2406 4160 
C 3398 4160 3514 3769 3603 2929 
L 3718 2929 
L 3565 4325 
L 326 4325 
L 326 4160 
C 768 4160 838 4160 838 3874 
L 838 451 
C 838 166 768 166 326 166 
L 326 0 
L 3654 0 
L 3885 1615 
z
" id="CMR17-45" transform="scale(0.015625)"/>
      <path d="M 4154 2764 
C 4000 2764 3526 2764 3405 2739 
C 3366 2725 3354 2725 3277 2725 
L 2547 2725 
L 2547 3469 
C 2547 4073 3034 4352 3418 4352 
C 3539 4352 3814 4320 3955 4101 
C 3891 4101 3686 4101 3686 3878 
C 3686 3725 3789 3648 3917 3648 
C 4032 3648 4147 3712 4147 3885 
C 4147 4205 3840 4454 3443 4454 
C 3245 4454 2829 4410 2496 4095 
C 2413 4262 2202 4454 1837 4454 
C 1344 4454 634 4168 634 3469 
L 634 2725 
L 122 2725 
L 122 2560 
L 634 2560 
L 634 427 
C 634 184 608 153 198 153 
L 198 -13 
C 352 0 634 0 794 0 
C 960 0 1242 0 1395 -13 
L 1395 153 
C 986 153 960 178 960 427 
L 960 2560 
L 2234 2560 
L 2234 427 
C 2234 184 2208 153 1798 153 
L 1798 -13 
C 1952 0 2234 0 2394 0 
C 2560 0 2842 0 2995 -13 
L 2995 153 
C 2586 153 2560 178 2560 427 
L 2560 2560 
L 3501 2560 
C 3776 2560 3827 2502 3827 2222 
L 3827 427 
C 3827 184 3802 153 3392 153 
L 3392 -13 
C 3546 0 3827 0 3987 0 
C 4154 0 4435 0 4589 -13 
L 4589 153 
C 4179 153 4154 178 4154 427 
L 4154 2764 
z
M 947 2725 
L 947 3469 
C 947 4067 1421 4352 1818 4352 
C 2042 4352 2259 4256 2355 4101 
C 2291 4101 2080 4101 2080 3878 
C 2080 3762 2144 3686 2246 3654 
C 2234 3596 2234 3471 2234 3465 
L 2234 2725 
L 947 2725 
z
" id="CMR17-e" transform="scale(0.015625)"/>
      <path d="M 2234 2240 
C 2112 2240 1933 2240 1933 2017 
C 1933 1838 2080 1787 2163 1787 
C 2208 1787 2394 1807 2394 2024 
C 2394 2467 1958 2803 1466 2803 
C 787 2803 211 2178 211 1363 
C 211 516 813 -64 1466 -64 
C 2259 -64 2458 677 2458 748 
C 2458 774 2451 793 2406 793 
C 2362 793 2355 787 2330 703 
C 2163 180 1798 51 1523 51 
C 1114 51 621 427 621 1369 
C 621 2338 1094 2688 1472 2688 
C 1722 2688 2093 2573 2234 2240 
z
" id="CMR17-63" transform="scale(0.015625)"/>
      <path d="M 2438 1472 
C 2464 1498 2464 1511 2464 1576 
C 2464 2238 2118 2816 1389 2816 
C 710 2816 173 2169 173 1383 
C 173 551 781 -64 1459 -64 
C 2176 -64 2458 607 2458 740 
C 2458 784 2419 784 2406 784 
C 2362 784 2355 771 2330 696 
C 2189 265 1837 51 1504 51 
C 1229 51 954 203 781 480 
C 582 803 582 1176 582 1472 
L 2438 1472 
z
M 589 1568 
C 634 2505 1126 2714 1382 2714 
C 1818 2714 2112 2297 2118 1568 
L 589 1568 
z
" id="CMR17-65" transform="scale(0.015625)"/>
      <path d="M 2656 1933 
C 2656 2259 2592 2790 1837 2790 
C 1331 2790 1069 2400 973 2144 
L 966 2144 
L 966 2790 
L 211 2720 
L 211 2554 
C 589 2554 646 2515 646 2208 
L 646 428 
C 646 184 621 153 211 153 
L 211 -13 
C 365 0 646 0 813 0 
C 979 0 1267 0 1421 -13 
L 1421 153 
C 1011 153 986 178 986 428 
L 986 1658 
C 986 2247 1344 2688 1792 2688 
C 2266 2688 2317 2266 2317 1958 
L 2317 428 
C 2317 184 2291 153 1882 153 
L 1882 -13 
C 2035 0 2317 0 2483 0 
C 2650 0 2938 0 3091 -13 
L 3091 153 
C 2682 153 2656 178 2656 428 
L 2656 1933 
z
" id="CMR17-6e" transform="scale(0.015625)"/>
      <path d="M 1338 4224 
C 1299 4320 1293 4320 1158 4320 
L 339 4320 
L 339 4160 
C 781 4160 851 4160 851 3875 
L 851 610 
C 851 451 851 153 339 153 
L 339 -13 
C 486 0 755 0 915 0 
C 1075 0 1344 0 1491 -13 
L 1491 153 
C 979 153 979 451 979 610 
L 979 4135 
L 986 4135 
L 2490 89 
C 2515 25 2528 -13 2579 -13 
C 2630 -13 2643 25 2669 89 
L 4186 4166 
L 4192 4166 
L 4192 438 
C 4192 153 4122 153 3680 153 
L 3680 -13 
C 3853 0 4198 0 4384 0 
C 4570 0 4922 0 5094 -13 
L 5094 153 
C 4653 153 4582 153 4582 438 
L 4582 3875 
C 4582 4160 4653 4160 5094 4160 
L 5094 4320 
L 4282 4320 
C 4147 4320 4141 4314 4102 4218 
L 2720 502 
L 1338 4224 
z
" id="CMR17-4d" transform="scale(0.015625)"/>
      <path d="M 960 1497 
C 960 2112 1222 2688 1702 2688 
C 1747 2688 1792 2682 1837 2662 
C 1837 2662 1696 2617 1696 2452 
C 1696 2298 1818 2234 1914 2234 
C 1990 2234 2131 2279 2131 2458 
C 2131 2663 1926 2790 1709 2790 
C 1222 2790 1011 2317 947 2093 
L 941 2093 
L 941 2790 
L 198 2720 
L 198 2554 
C 576 2554 634 2515 634 2208 
L 634 428 
C 634 184 608 153 198 153 
L 198 -13 
C 352 0 646 0 813 0 
C 998 0 1325 0 1498 -13 
L 1498 153 
C 1037 153 960 153 960 440 
L 960 1497 
z
" id="CMR17-72" transform="scale(0.015625)"/>
      <path d="M 1664 1477 
C 1856 1726 2074 2006 2253 2216 
C 2464 2458 2707 2560 2989 2560 
L 2989 2726 
C 2880 2726 2656 2726 2541 2726 
C 2368 2726 2170 2726 2022 2732 
L 2022 2566 
C 2112 2553 2163 2489 2163 2400 
C 2163 2285 2099 2215 2067 2171 
L 1594 1573 
L 1030 2306 
C 973 2376 973 2388 973 2420 
C 973 2497 1037 2560 1146 2560 
L 1146 2732 
C 992 2726 717 2726 557 2726 
C 384 2726 179 2726 38 2732 
L 38 2560 
C 384 2560 461 2534 614 2343 
L 1350 1395 
C 1363 1382 1395 1344 1395 1325 
C 1395 1299 838 619 768 530 
C 480 185 179 160 6 160 
L 6 0 
C 115 0 339 0 454 0 
C 582 0 864 0 979 -6 
L 979 160 
C 941 166 838 179 838 325 
C 838 440 890 510 947 586 
L 1478 1236 
L 2035 512 
C 2086 442 2163 346 2163 301 
C 2163 211 2086 160 1984 160 
L 1984 -6 
C 2138 0 2413 0 2573 0 
C 2746 0 2950 0 3091 -6 
L 3091 160 
C 2771 160 2675 172 2522 370 
L 1664 1477 
z
" id="CMR17-78" transform="scale(0.015625)"/>
      <path d="M 1882 2693 
L 1882 2528 
C 2259 2528 2317 2489 2317 2186 
L 2317 1032 
C 2317 500 2029 38 1555 38 
C 1030 38 986 348 986 678 
L 986 2763 
L 211 2693 
L 211 2528 
C 467 2528 640 2528 646 2274 
L 646 1058 
C 646 633 646 361 813 183 
C 896 101 1056 -64 1517 -64 
C 2061 -64 2272 377 2323 506 
L 2330 506 
L 2330 -63 
L 3091 -63 
L 3091 128 
C 2714 128 2656 166 2656 473 
L 2656 2763 
L 1882 2693 
z
" id="CMR17-75" transform="scale(0.015625)"/>
      <path d="M 979 4396 
L 218 4326 
L 218 4160 
C 595 4160 653 4122 653 3817 
L 653 426 
C 653 184 627 153 218 153 
L 218 -13 
C 371 0 653 0 813 0 
C 979 0 1261 0 1414 -13 
L 1414 153 
C 1005 153 979 178 979 426 
L 979 4396 
z
" id="CMR17-6c" transform="scale(0.015625)"/>
      <path d="M 1408 -1063 
C 998 -1063 973 -1037 973 -789 
L 973 402 
C 1158 134 1427 -38 1766 -38 
C 2406 -38 3053 523 3053 1388 
C 3053 2191 2496 2802 1837 2802 
C 1453 2802 1139 2592 960 2338 
L 960 2802 
L 198 2732 
L 198 2567 
C 576 2567 634 2528 634 2223 
L 634 -789 
C 634 -1031 608 -1063 198 -1063 
L 198 -1228 
C 352 -1216 634 -1216 800 -1216 
C 966 -1216 1254 -1216 1408 -1228 
L 1408 -1063 
z
M 973 2012 
C 973 2102 973 2235 1222 2471 
C 1254 2497 1472 2688 1792 2688 
C 2259 2688 2643 2108 2643 1382 
C 2643 656 2234 64 1728 64 
C 1498 64 1248 172 1056 472 
C 973 612 973 650 973 752 
L 973 2012 
z
" id="CMR17-70" transform="scale(0.015625)"/>
      <path d="M 2758 1356 
C 2758 2176 2163 2816 1466 2816 
C 768 2816 173 2176 173 1356 
C 173 551 768 -64 1466 -64 
C 2163 -64 2758 551 2758 1356 
z
M 1466 51 
C 1165 51 909 230 762 480 
C 602 767 582 1126 582 1408 
C 582 1677 595 2010 762 2298 
C 890 2509 1139 2714 1466 2714 
C 1754 2714 1997 2554 2150 2330 
C 2349 2029 2349 1607 2349 1408 
C 2349 1158 2336 775 2163 467 
C 1984 173 1709 51 1466 51 
z
" id="CMR17-6f" transform="scale(0.015625)"/>
     </defs>
     <use transform="scale(0.996264)" xlink:href="#CMR17-28"/>
     <use transform="translate(35.280768 0)scale(0.996264)" xlink:href="#CMR17-61"/>
     <use transform="translate(80.971245 0)scale(0.996264)" xlink:href="#CMR17-29"/>
     <use transform="translate(146.327979 0)scale(0.996264)" xlink:href="#CMR17-57"/>
     <use transform="translate(241.424629 0)scale(0.996264)" xlink:href="#CMR17-69"/>
     <use transform="translate(266.295687 0)scale(0.996264)" xlink:href="#CMR17-74"/>
     <use transform="translate(301.576455 0)scale(0.996264)" xlink:href="#CMR17-68"/>
     <use transform="translate(382.547791 0)scale(0.996264)" xlink:href="#CMR17-45"/>
     <use transform="translate(445.134092 0)scale(0.996264)" xlink:href="#CMR17-e"/>
     <use transform="translate(519.747374 0)scale(0.996264)" xlink:href="#CMR17-63"/>
     <use transform="translate(560.233034 0)scale(0.996264)" xlink:href="#CMR17-69"/>
     <use transform="translate(585.104093 0)scale(0.996264)" xlink:href="#CMR17-65"/>
     <use transform="translate(625.589753 0)scale(0.996264)" xlink:href="#CMR17-6e"/>
     <use transform="translate(673.882669 0)scale(0.996264)" xlink:href="#CMR17-74"/>
     <use transform="translate(739.239403 0)scale(0.996264)" xlink:href="#CMR17-4d"/>
     <use transform="translate(823.926344 0)scale(0.996264)" xlink:href="#CMR17-61"/>
     <use transform="translate(869.616821 0)scale(0.996264)" xlink:href="#CMR17-74"/>
     <use transform="translate(904.897589 0)scale(0.996264)" xlink:href="#CMR17-72"/>
     <use transform="translate(940.178356 0)scale(0.996264)" xlink:href="#CMR17-69"/>
     <use transform="translate(965.049415 0)scale(0.996264)" xlink:href="#CMR17-78"/>
     <use transform="translate(1043.418297 0)scale(0.996264)" xlink:href="#CMR17-4d"/>
     <use transform="translate(1128.105238 0)scale(0.996264)" xlink:href="#CMR17-75"/>
     <use transform="translate(1179.000607 0)scale(0.996264)" xlink:href="#CMR17-6c"/>
     <use transform="translate(1203.871666 0)scale(0.996264)" xlink:href="#CMR17-74"/>
     <use transform="translate(1239.152434 0)scale(0.996264)" xlink:href="#CMR17-69"/>
     <use transform="translate(1264.023492 0)scale(0.996264)" xlink:href="#CMR17-70"/>
     <use transform="translate(1314.918862 0)scale(0.996264)" xlink:href="#CMR17-6c"/>
     <use transform="translate(1339.78992 0)scale(0.996264)" xlink:href="#CMR17-69"/>
     <use transform="translate(1364.660979 0)scale(0.996264)" xlink:href="#CMR17-63"/>
     <use transform="translate(1405.146639 0)scale(0.996264)" xlink:href="#CMR17-61"/>
     <use transform="translate(1450.837117 0)scale(0.996264)" xlink:href="#CMR17-74"/>
     <use transform="translate(1486.117884 0)scale(0.996264)" xlink:href="#CMR17-69"/>
     <use transform="translate(1510.988943 0)scale(0.996264)" xlink:href="#CMR17-6f"/>
     <use transform="translate(1556.67942 0)scale(0.996264)" xlink:href="#CMR17-6e"/>
    </g>
   </g>
   <g id="legend_1">
    <g id="patch_7">
     <path d="M 57.800217 84.564728 
L 199.327005 84.564728 
Q 201.242445 84.564728 201.242445 82.649288 
L 201.242445 30.215363 
Q 201.242445 28.299923 199.327005 28.299923 
L 57.800217 28.299923 
Q 55.884777 28.299923 55.884777 30.215363 
L 55.884777 82.649288 
Q 55.884777 84.564728 57.800217 84.564728 
z
" style="fill:#ffffff;opacity:0.8;stroke:#cccccc;stroke-linejoin:miter;"/>
    </g>
    <g id="line2d_35"/>
    <g id="line2d_36">
     <g>
      <use style="fill:#9acd32;stroke:#9acd32;" x="69.292857" xlink:href="#meb7b11724f" y="35.482823"/>
     </g>
    </g>
    <g id="text_20">
     <!-- LHS, $\boldsymbol{\Sigma}$ is not SPD -->
     <g style="fill:#262626;" transform="translate(86.531817 38.834843)scale(0.095772 -0.095772)">
      <defs>
       <path d="M 3590 3905 
C 3590 4192 3661 4192 4102 4192 
L 4102 4352 
C 3917 4352 3578 4352 3379 4352 
C 3181 4352 2842 4352 2656 4352 
L 2656 4192 
C 3098 4192 3168 4192 3168 3904 
L 3168 2341 
L 1261 2341 
L 1261 3904 
C 1261 4192 1331 4192 1773 4192 
L 1773 4352 
C 1587 4352 1248 4352 1050 4352 
C 851 4352 512 4352 326 4352 
L 326 4192 
C 768 4192 838 4192 838 3905 
L 838 447 
C 838 160 768 160 326 160 
L 326 0 
C 512 0 851 0 1050 0 
C 1248 0 1587 0 1773 0 
L 1773 160 
C 1331 160 1261 160 1261 446 
L 1261 2176 
L 3168 2176 
L 3168 446 
C 3168 160 3098 160 2656 160 
L 2656 0 
C 2842 0 3181 0 3379 0 
C 3578 0 3917 0 4102 0 
L 4102 160 
C 3661 160 3590 160 3590 447 
L 3590 3905 
z
" id="CMR17-48" transform="scale(0.015625)"/>
       <path d="M 2803 4290 
C 2803 4404 2797 4411 2758 4411 
C 2720 4411 2707 4385 2682 4328 
L 2490 3907 
C 2246 4257 1875 4416 1472 4416 
C 819 4416 294 3901 294 3253 
C 294 3056 339 2776 557 2510 
C 794 2218 1018 2167 1530 2033 
C 1722 1982 2042 1899 2106 1874 
C 2470 1722 2662 1341 2662 985 
C 2662 527 2336 38 1779 38 
C 1094 38 454 419 410 1311 
C 403 1413 397 1419 352 1419 
C 301 1419 294 1413 294 1285 
L 294 -1 
C 294 -115 301 -122 339 -122 
C 384 -122 397 -90 486 108 
C 493 127 493 140 614 381 
C 934 -39 1472 -128 1779 -128 
C 2477 -128 2970 451 2970 1124 
C 2970 1454 2848 1708 2778 1823 
C 2509 2230 2221 2306 1914 2382 
C 1869 2402 1856 2402 1498 2490 
C 1152 2579 1005 2624 845 2796 
C 666 2992 602 3196 602 3399 
C 602 3812 934 4263 1478 4263 
C 2157 4263 2579 3786 2675 2993 
C 2694 2878 2701 2872 2746 2872 
C 2803 2872 2803 2891 2803 2999 
L 2803 4290 
z
" id="CMR17-53" transform="scale(0.015625)"/>
       <path d="M 1011 102 
C 1024 45 1024 25 1024 -77 
C 1024 -463 896 -817 627 -1139 
C 595 -1170 595 -1183 595 -1197 
C 595 -1222 621 -1248 646 -1248 
C 685 -1248 1126 -799 1126 -87 
C 1126 124 1101 522 800 522 
C 659 522 538 427 538 261 
C 538 96 659 0 800 0 
C 877 0 960 32 1011 102 
z
" id="CMR17-2c" transform="scale(0.015625)"/>
       <path d="M 2944 2077 
C 2995 2129 3014 2141 3014 2186 
C 3014 2205 3014 2218 2963 2281 
L 1523 4096 
L 2886 4096 
C 3814 4096 4390 3937 4525 2861 
L 4794 2861 
L 4608 4371 
L 582 4371 
C 403 4371 397 4346 397 4166 
L 2246 1836 
L 467 204 
C 442 178 397 133 397 96 
C 397 0 499 0 582 0 
L 4608 0 
L 4794 1620 
L 4525 1620 
C 4397 517 3770 384 2861 384 
L 1094 384 
L 2944 2077 
z
" id="CMBX12-6" transform="scale(0.015625)"/>
       <path d="M 333 4352 
L 333 4186 
C 774 4186 845 4186 845 3900 
L 845 452 
C 845 166 774 166 333 166 
L 333 0 
L 2368 0 
C 3398 0 4224 943 4224 2141 
C 4224 3346 3411 4352 2368 4352 
L 333 4352 
z
M 1523 166 
C 1267 166 1254 197 1254 414 
L 1254 3938 
C 1254 4155 1267 4186 1523 4186 
L 2240 4186 
C 2771 4186 3750 3874 3750 2141 
C 3750 1242 3488 879 3366 707 
C 3213 510 2848 166 2240 166 
L 1523 166 
z
" id="CMR17-44" transform="scale(0.015625)"/>
      </defs>
      <use transform="scale(0.996264)" xlink:href="#CMR17-4c"/>
      <use transform="translate(57.381408 0)scale(0.996264)" xlink:href="#CMR17-48"/>
      <use transform="translate(126.453838 0)scale(0.996264)" xlink:href="#CMR17-53"/>
      <use transform="translate(177.349207 0)scale(0.996264)" xlink:href="#CMR17-2c"/>
      <use transform="translate(232.296232 0)scale(0.996264)" xlink:href="#CMBX12-6"/>
      <use transform="translate(343.318649 0)scale(0.996264)" xlink:href="#CMR17-69"/>
      <use transform="translate(368.189708 0)scale(0.996264)" xlink:href="#CMR17-73"/>
      <use transform="translate(434.067012 0)scale(0.996264)" xlink:href="#CMR17-6e"/>
      <use transform="translate(484.962382 0)scale(0.996264)" xlink:href="#CMR17-6f"/>
      <use transform="translate(530.652859 0)scale(0.996264)" xlink:href="#CMR17-74"/>
      <use transform="translate(596.009593 0)scale(0.996264)" xlink:href="#CMR17-53"/>
      <use transform="translate(646.904963 0)scale(0.996264)" xlink:href="#CMR17-50"/>
      <use transform="translate(709.491263 0)scale(0.996264)" xlink:href="#CMR17-44"/>
     </g>
    </g>
    <g id="line2d_37"/>
    <g id="line2d_38">
     <g>
      <use style="fill:#556b2f;stroke:#556b2f;" x="69.292857" xlink:href="#m33a743053d" y="48.830735"/>
     </g>
    </g>
    <g id="text_21">
     <!-- LHS, $\boldsymbol{\Sigma}$ is SPD -->
     <g style="fill:#262626;" transform="translate(86.531817 52.182755)scale(0.095772 -0.095772)">
      <use transform="scale(0.996264)" xlink:href="#CMR17-4c"/>
      <use transform="translate(57.381408 0)scale(0.996264)" xlink:href="#CMR17-48"/>
      <use transform="translate(126.453838 0)scale(0.996264)" xlink:href="#CMR17-53"/>
      <use transform="translate(177.349207 0)scale(0.996264)" xlink:href="#CMR17-2c"/>
      <use transform="translate(232.296232 0)scale(0.996264)" xlink:href="#CMBX12-6"/>
      <use transform="translate(343.318649 0)scale(0.996264)" xlink:href="#CMR17-69"/>
      <use transform="translate(368.189708 0)scale(0.996264)" xlink:href="#CMR17-73"/>
      <use transform="translate(434.067012 0)scale(0.996264)" xlink:href="#CMR17-53"/>
      <use transform="translate(484.962382 0)scale(0.996264)" xlink:href="#CMR17-50"/>
      <use transform="translate(547.548682 0)scale(0.996264)" xlink:href="#CMR17-44"/>
     </g>
    </g>
    <g id="line2d_39"/>
    <g id="line2d_40">
     <g>
      <use style="fill:#cd5c5c;stroke:#cd5c5c;" x="69.292857" xlink:href="#mb66c002ec7" y="62.178646"/>
     </g>
    </g>
    <g id="text_22">
     <!-- RHS, $\mathbf{X}$ is not orthogonal -->
     <g style="fill:#262626;" transform="translate(86.531817 65.530666)scale(0.095772 -0.095772)">
      <defs>
       <path d="M 2509 2146 
C 3117 2268 3629 2676 3629 3186 
C 3629 3785 2950 4326 2054 4326 
L 333 4326 
L 333 4160 
C 774 4160 845 4160 845 3873 
L 845 415 
C 845 128 774 128 333 128 
L 333 -26 
C 518 -26 851 -26 1050 -26 
C 1248 -26 1581 -26 1766 -26 
L 1766 128 
C 1325 128 1254 128 1254 417 
L 1254 2112 
L 2003 2112 
C 2368 2112 2573 1964 2662 1881 
C 2918 1632 2918 1459 2918 1024 
C 2918 595 2918 377 3110 160 
C 3354 -102 3680 -128 3821 -128 
C 4294 -128 4365 396 4365 503 
C 4365 540 4365 585 4307 585 
C 4256 585 4250 547 4250 522 
C 4218 112 4032 -26 3834 -26 
C 3482 -26 3443 375 3405 764 
C 3386 898 3373 993 3360 1133 
C 3322 1452 3270 1917 2509 2146 
z
M 1984 2214 
L 1254 2214 
L 1254 3913 
C 1254 4129 1267 4160 1523 4160 
L 1990 4160 
C 2522 4160 3142 3977 3142 3190 
C 3142 2372 2464 2214 1984 2214 
z
" id="CMR17-52" transform="scale(0.015625)"/>
       <path d="M 3008 2514 
L 4090 3957 
C 4154 4040 4179 4053 4390 4072 
C 4557 4091 4582 4091 4768 4091 
L 4934 4091 
L 4934 4365 
C 4787 4352 4275 4352 4096 4352 
C 3898 4352 3341 4352 3181 4365 
L 3181 4091 
C 3258 4091 3571 4091 3763 4014 
L 2829 2763 
L 1875 4091 
L 2406 4091 
L 2406 4352 
C 2176 4352 1574 4352 1312 4352 
C 1094 4352 461 4352 288 4365 
L 288 4091 
L 909 4091 
L 2330 2105 
L 1043 388 
C 986 311 966 292 742 272 
C 582 260 550 260 371 260 
L 198 260 
L 198 -13 
C 346 0 864 0 1043 0 
C 1242 0 1792 0 1952 -13 
L 1952 260 
C 1882 260 1555 260 1370 337 
L 2509 1856 
L 3661 260 
L 3130 260 
L 3130 0 
C 3334 0 3974 0 4218 0 
C 4422 0 5082 0 5242 -13 
L 5242 260 
L 4627 260 
L 3008 2514 
z
" id="CMBX12-58" transform="scale(0.015625)"/>
       <path d="M 710 1164 
C 832 1068 1043 960 1299 960 
C 1805 960 2240 1357 2240 1888 
C 2240 2054 2189 2310 1997 2509 
C 2176 2692 2438 2752 2586 2752 
C 2611 2752 2650 2752 2682 2734 
C 2656 2728 2598 2703 2598 2605 
C 2598 2527 2656 2471 2739 2471 
C 2835 2471 2886 2533 2886 2614 
C 2886 2731 2790 2854 2586 2854 
C 2330 2854 2106 2738 1926 2580 
C 1734 2753 1504 2816 1299 2816 
C 794 2816 358 2419 358 1888 
C 358 1522 570 1292 634 1228 
C 442 1004 442 743 442 711 
C 442 545 506 302 723 168 
C 390 85 128 -169 128 -486 
C 128 -943 736 -1280 1466 -1280 
C 2170 -1280 2803 -956 2803 -479 
C 2803 384 1856 384 1363 384 
C 1216 384 954 384 922 391 
C 723 423 589 602 589 826 
C 589 883 589 1024 710 1164 
z
M 1299 1068 
C 736 1068 736 1760 736 1889 
C 736 2016 736 2708 1299 2708 
C 1862 2708 1862 2016 1862 1889 
C 1862 1760 1862 1068 1299 1068 
z
M 1466 -1171 
C 826 -1171 384 -835 384 -486 
C 384 -289 493 -105 634 -4 
C 794 104 858 104 1293 104 
C 1818 104 2547 104 2547 -486 
C 2547 -835 2106 -1171 1466 -1171 
z
" id="CMR17-67" transform="scale(0.015625)"/>
      </defs>
      <use transform="scale(0.996264)" xlink:href="#CMR17-52"/>
      <use transform="translate(67.791102 0)scale(0.996264)" xlink:href="#CMR17-48"/>
      <use transform="translate(136.863532 0)scale(0.996264)" xlink:href="#CMR17-53"/>
      <use transform="translate(187.758902 0)scale(0.996264)" xlink:href="#CMR17-2c"/>
      <use transform="translate(242.705926 0)scale(0.996264)" xlink:href="#CMBX12-58"/>
      <use transform="translate(357.418287 0)scale(0.996264)" xlink:href="#CMR17-69"/>
      <use transform="translate(382.289346 0)scale(0.996264)" xlink:href="#CMR17-73"/>
      <use transform="translate(448.16665 0)scale(0.996264)" xlink:href="#CMR17-6e"/>
      <use transform="translate(499.06202 0)scale(0.996264)" xlink:href="#CMR17-6f"/>
      <use transform="translate(544.752497 0)scale(0.996264)" xlink:href="#CMR17-74"/>
      <use transform="translate(610.109231 0)scale(0.996264)" xlink:href="#CMR17-6f"/>
      <use transform="translate(655.799708 0)scale(0.996264)" xlink:href="#CMR17-72"/>
      <use transform="translate(691.080476 0)scale(0.996264)" xlink:href="#CMR17-74"/>
      <use transform="translate(726.361244 0)scale(0.996264)" xlink:href="#CMR17-68"/>
      <use transform="translate(777.256613 0)scale(0.996264)" xlink:href="#CMR17-6f"/>
      <use transform="translate(822.947091 0)scale(0.996264)" xlink:href="#CMR17-67"/>
      <use transform="translate(868.637568 0)scale(0.996264)" xlink:href="#CMR17-6f"/>
      <use transform="translate(914.328045 0)scale(0.996264)" xlink:href="#CMR17-6e"/>
      <use transform="translate(965.223415 0)scale(0.996264)" xlink:href="#CMR17-61"/>
      <use transform="translate(1010.913892 0)scale(0.996264)" xlink:href="#CMR17-6c"/>
     </g>
    </g>
    <g id="line2d_41"/>
    <g id="line2d_42">
     <g>
      <use style="fill:#800000;stroke:#800000;" x="69.292857" xlink:href="#m99df0136fc" y="75.526557"/>
     </g>
    </g>
    <g id="text_23">
     <!-- RHS, $\mathbf{X}$ is orthogonal -->
     <g style="fill:#262626;" transform="translate(86.531817 78.878577)scale(0.095772 -0.095772)">
      <use transform="scale(0.996264)" xlink:href="#CMR17-52"/>
      <use transform="translate(67.791102 0)scale(0.996264)" xlink:href="#CMR17-48"/>
      <use transform="translate(136.863532 0)scale(0.996264)" xlink:href="#CMR17-53"/>
      <use transform="translate(187.758902 0)scale(0.996264)" xlink:href="#CMR17-2c"/>
      <use transform="translate(242.705926 0)scale(0.996264)" xlink:href="#CMBX12-58"/>
      <use transform="translate(357.418287 0)scale(0.996264)" xlink:href="#CMR17-69"/>
      <use transform="translate(382.289346 0)scale(0.996264)" xlink:href="#CMR17-73"/>
      <use transform="translate(448.16665 0)scale(0.996264)" xlink:href="#CMR17-6f"/>
      <use transform="translate(493.857127 0)scale(0.996264)" xlink:href="#CMR17-72"/>
      <use transform="translate(529.137895 0)scale(0.996264)" xlink:href="#CMR17-74"/>
      <use transform="translate(564.418663 0)scale(0.996264)" xlink:href="#CMR17-68"/>
      <use transform="translate(615.314032 0)scale(0.996264)" xlink:href="#CMR17-6f"/>
      <use transform="translate(661.004509 0)scale(0.996264)" xlink:href="#CMR17-67"/>
      <use transform="translate(706.694987 0)scale(0.996264)" xlink:href="#CMR17-6f"/>
      <use transform="translate(752.385464 0)scale(0.996264)" xlink:href="#CMR17-6e"/>
      <use transform="translate(803.280833 0)scale(0.996264)" xlink:href="#CMR17-61"/>
      <use transform="translate(848.971311 0)scale(0.996264)" xlink:href="#CMR17-6c"/>
     </g>
    </g>
   </g>
  </g>
 </g>
 <defs>
  <clipPath id="p3553eeb17e">
   <rect height="232.229854" width="321.611905" x="51.096177" y="23.511323"/>
  </clipPath>
 </defs>
</svg>
