<?xml version="1.0" encoding="utf-8" standalone="no"?>
<!DOCTYPE svg PUBLIC "-//W3C//DTD SVG 1.1//EN"
  "http://www.w3.org/Graphics/SVG/1.1/DTD/svg11.dtd">
<svg height="301.392pt" version="1.1" viewBox="0 0 387.792 301.392" width="387.792pt" xmlns="http://www.w3.org/2000/svg" xmlns:xlink="http://www.w3.org/1999/xlink">
 <metadata>
  <rdf:RDF xmlns:cc="http://creativecommons.org/ns#" xmlns:dc="http://purl.org/dc/elements/1.1/" xmlns:rdf="http://www.w3.org/1999/02/22-rdf-syntax-ns#">
   <cc:Work>
    <dc:type rdf:resource="http://purl.org/dc/dcmitype/StillImage"/>
    <dc:date>2022-01-28T12:10:52.800454</dc:date>
    <dc:format>image/svg+xml</dc:format>
    <dc:creator>
     <cc:Agent>
      <dc:title>Matplotlib v3.4.2, https://matplotlib.org/</dc:title>
     </cc:Agent>
    </dc:creator>
   </cc:Work>
  </rdf:RDF>
 </metadata>
 <defs>
  <style type="text/css">*{stroke-linecap:butt;stroke-linejoin:round;}</style>
 </defs>
 <g id="figure_1">
  <g id="patch_1">
   <path d="M 0 301.392 
L 387.792 301.392 
L 387.792 0 
L 0 0 
z
" style="fill:none;"/>
  </g>
  <g id="axes_1">
   <g id="patch_2">
    <path d="M 51.096177 255.741178 
L 372.708082 255.741178 
L 372.708082 23.511323 
L 51.096177 23.511323 
z
" style="fill:none;"/>
   </g>
   <g id="matplotlib.axis_1">
    <g id="xtick_1">
     <g id="line2d_1">
      <defs>
       <path d="M 0 0 
L 0 6 
" id="mbf421b1083" style="stroke:#262626;stroke-width:1.25;"/>
      </defs>
      <g>
       <use style="fill:#262626;stroke:#262626;stroke-width:1.25;" x="51.096177" xlink:href="#mbf421b1083" y="255.741178"/>
      </g>
     </g>
     <g id="text_1">
      <!-- $\mathdefault{0.0}$ -->
      <g style="fill:#262626;" transform="translate(43.212259 273.993057)scale(0.1265 -0.1265)">
       <defs>
        <path d="M 2688 2025 
C 2688 2416 2682 3080 2413 3591 
C 2176 4039 1798 4198 1466 4198 
C 1158 4198 768 4058 525 3597 
C 269 3118 243 2524 243 2025 
C 243 1661 250 1106 448 619 
C 723 -39 1216 -128 1466 -128 
C 1760 -128 2208 -7 2470 600 
C 2662 1042 2688 1559 2688 2025 
z
M 1466 -26 
C 1056 -26 813 325 723 812 
C 653 1188 653 1738 653 2096 
C 653 2588 653 2997 736 3387 
C 858 3929 1216 4096 1466 4096 
C 1728 4096 2067 3923 2189 3400 
C 2272 3036 2278 2607 2278 2096 
C 2278 1680 2278 1169 2202 792 
C 2067 95 1690 -26 1466 -26 
z
" id="CMR17-30" transform="scale(0.015625)"/>
        <path d="M 1178 307 
C 1178 492 1024 619 870 619 
C 685 619 557 466 557 313 
C 557 128 710 0 864 0 
C 1050 0 1178 153 1178 307 
z
" id="CMMI12-3a" transform="scale(0.015625)"/>
       </defs>
       <use transform="scale(0.996264)" xlink:href="#CMR17-30"/>
       <use transform="translate(45.690477 0)scale(0.996264)" xlink:href="#CMMI12-3a"/>
       <use transform="translate(72.787654 0)scale(0.996264)" xlink:href="#CMR17-30"/>
      </g>
     </g>
    </g>
    <g id="xtick_2">
     <g id="line2d_2">
      <g>
       <use style="fill:#262626;stroke:#262626;stroke-width:1.25;" x="115.418558" xlink:href="#mbf421b1083" y="255.741178"/>
      </g>
     </g>
     <g id="text_2">
      <!-- $\mathdefault{0.2}$ -->
      <g style="fill:#262626;" transform="translate(107.53464 273.993057)scale(0.1265 -0.1265)">
       <defs>
        <path d="M 2669 989 
L 2554 989 
C 2490 536 2438 459 2413 420 
C 2381 369 1920 369 1830 369 
L 602 369 
C 832 619 1280 1072 1824 1597 
C 2214 1967 2669 2402 2669 3035 
C 2669 3790 2067 4224 1395 4224 
C 691 4224 262 3604 262 3030 
C 262 2780 448 2748 525 2748 
C 589 2748 781 2787 781 3010 
C 781 3207 614 3264 525 3264 
C 486 3264 448 3258 422 3245 
C 544 3790 915 4058 1306 4058 
C 1862 4058 2227 3617 2227 3035 
C 2227 2479 1901 2000 1536 1584 
L 262 146 
L 262 0 
L 2515 0 
L 2669 989 
z
" id="CMR17-32" transform="scale(0.015625)"/>
       </defs>
       <use transform="scale(0.996264)" xlink:href="#CMR17-30"/>
       <use transform="translate(45.690477 0)scale(0.996264)" xlink:href="#CMMI12-3a"/>
       <use transform="translate(72.787654 0)scale(0.996264)" xlink:href="#CMR17-32"/>
      </g>
     </g>
    </g>
    <g id="xtick_3">
     <g id="line2d_3">
      <g>
       <use style="fill:#262626;stroke:#262626;stroke-width:1.25;" x="179.740939" xlink:href="#mbf421b1083" y="255.741178"/>
      </g>
     </g>
     <g id="text_3">
      <!-- $\mathdefault{0.4}$ -->
      <g style="fill:#262626;" transform="translate(171.857021 273.993057)scale(0.1265 -0.1265)">
       <defs>
        <path d="M 2150 4122 
C 2150 4256 2144 4256 2029 4256 
L 128 1254 
L 128 1088 
L 1779 1088 
L 1779 457 
C 1779 224 1766 160 1318 160 
L 1197 160 
L 1197 0 
C 1402 0 1747 0 1965 0 
C 2182 0 2528 0 2733 0 
L 2733 160 
L 2611 160 
C 2163 160 2150 224 2150 457 
L 2150 1088 
L 2803 1088 
L 2803 1254 
L 2150 1254 
L 2150 4122 
z
M 1798 3703 
L 1798 1254 
L 256 1254 
L 1798 3703 
z
" id="CMR17-34" transform="scale(0.015625)"/>
       </defs>
       <use transform="scale(0.996264)" xlink:href="#CMR17-30"/>
       <use transform="translate(45.690477 0)scale(0.996264)" xlink:href="#CMMI12-3a"/>
       <use transform="translate(72.787654 0)scale(0.996264)" xlink:href="#CMR17-34"/>
      </g>
     </g>
    </g>
    <g id="xtick_4">
     <g id="line2d_4">
      <g>
       <use style="fill:#262626;stroke:#262626;stroke-width:1.25;" x="244.06332" xlink:href="#mbf421b1083" y="255.741178"/>
      </g>
     </g>
     <g id="text_4">
      <!-- $\mathdefault{0.6}$ -->
      <g style="fill:#262626;" transform="translate(236.179402 273.993057)scale(0.1265 -0.1265)">
       <defs>
        <path d="M 678 2176 
C 678 3690 1395 4032 1811 4032 
C 1946 4032 2272 4009 2400 3776 
C 2298 3776 2106 3776 2106 3553 
C 2106 3381 2246 3323 2336 3323 
C 2394 3323 2566 3348 2566 3560 
C 2566 3954 2246 4179 1805 4179 
C 1043 4179 243 3390 243 1984 
C 243 253 966 -128 1478 -128 
C 2099 -128 2688 427 2688 1283 
C 2688 2081 2170 2662 1517 2662 
C 1126 2662 838 2407 678 1960 
L 678 2176 
z
M 1478 25 
C 691 25 691 1200 691 1436 
C 691 1896 909 2560 1504 2560 
C 1613 2560 1926 2560 2138 2120 
C 2253 1870 2253 1609 2253 1289 
C 2253 944 2253 690 2118 434 
C 1978 171 1773 25 1478 25 
z
" id="CMR17-36" transform="scale(0.015625)"/>
       </defs>
       <use transform="scale(0.996264)" xlink:href="#CMR17-30"/>
       <use transform="translate(45.690477 0)scale(0.996264)" xlink:href="#CMMI12-3a"/>
       <use transform="translate(72.787654 0)scale(0.996264)" xlink:href="#CMR17-36"/>
      </g>
     </g>
    </g>
    <g id="xtick_5">
     <g id="line2d_5">
      <g>
       <use style="fill:#262626;stroke:#262626;stroke-width:1.25;" x="308.385701" xlink:href="#mbf421b1083" y="255.741178"/>
      </g>
     </g>
     <g id="text_5">
      <!-- $\mathdefault{0.8}$ -->
      <g style="fill:#262626;" transform="translate(300.501783 273.993057)scale(0.1265 -0.1265)">
       <defs>
        <path d="M 1741 2264 
C 2144 2467 2554 2773 2554 3263 
C 2554 3841 1990 4179 1472 4179 
C 890 4179 378 3759 378 3180 
C 378 3021 416 2747 666 2505 
C 730 2442 998 2251 1171 2130 
C 883 1983 211 1634 211 934 
C 211 279 838 -128 1459 -128 
C 2144 -128 2720 362 2720 1010 
C 2720 1590 2330 1857 2074 2029 
L 1741 2264 
z
M 902 2822 
C 851 2854 595 3051 595 3351 
C 595 3739 998 4032 1459 4032 
C 1965 4032 2336 3676 2336 3262 
C 2336 2669 1670 2331 1638 2331 
C 1632 2331 1626 2331 1574 2370 
L 902 2822 
z
M 2080 1519 
C 2176 1449 2483 1240 2483 851 
C 2483 381 2010 25 1472 25 
C 890 25 448 438 448 940 
C 448 1443 838 1862 1280 2060 
L 2080 1519 
z
" id="CMR17-38" transform="scale(0.015625)"/>
       </defs>
       <use transform="scale(0.996264)" xlink:href="#CMR17-30"/>
       <use transform="translate(45.690477 0)scale(0.996264)" xlink:href="#CMMI12-3a"/>
       <use transform="translate(72.787654 0)scale(0.996264)" xlink:href="#CMR17-38"/>
      </g>
     </g>
    </g>
    <g id="xtick_6">
     <g id="line2d_6">
      <g>
       <use style="fill:#262626;stroke:#262626;stroke-width:1.25;" x="372.708082" xlink:href="#mbf421b1083" y="255.741178"/>
      </g>
     </g>
     <g id="text_6">
      <!-- $\mathdefault{1.0}$ -->
      <g style="fill:#262626;" transform="translate(364.824164 273.993057)scale(0.1265 -0.1265)">
       <defs>
        <path d="M 1702 4058 
C 1702 4192 1696 4192 1606 4192 
C 1357 3916 979 3827 621 3827 
C 602 3827 570 3827 563 3808 
C 557 3795 557 3782 557 3648 
C 755 3648 1088 3686 1344 3839 
L 1344 461 
C 1344 236 1331 160 781 160 
L 589 160 
L 589 0 
C 896 0 1216 0 1523 0 
C 1830 0 2150 0 2458 0 
L 2458 160 
L 2266 160 
C 1715 160 1702 230 1702 458 
L 1702 4058 
z
" id="CMR17-31" transform="scale(0.015625)"/>
       </defs>
       <use transform="scale(0.996264)" xlink:href="#CMR17-31"/>
       <use transform="translate(45.690477 0)scale(0.996264)" xlink:href="#CMMI12-3a"/>
       <use transform="translate(72.787654 0)scale(0.996264)" xlink:href="#CMR17-30"/>
      </g>
     </g>
    </g>
    <g id="text_7">
     <!-- $m/n$ -->
     <g style="fill:#262626;" transform="translate(198.631217 290.754892)scale(0.138 -0.138)">
      <defs>
       <path d="M 1318 1871 
C 1331 1910 1491 2229 1728 2433 
C 1894 2586 2112 2689 2362 2689 
C 2618 2689 2707 2497 2707 2242 
C 2707 2203 2707 2076 2630 1775 
L 2470 1118 
C 2419 926 2298 453 2285 383 
C 2259 287 2221 121 2221 96 
C 2221 6 2291 -64 2387 -64 
C 2579 -64 2611 83 2669 313 
L 3053 1839 
C 3066 1890 3398 2689 4102 2689 
C 4358 2689 4448 2497 4448 2242 
C 4448 1884 4198 1188 4058 805 
C 4000 651 3968 568 3968 453 
C 3968 166 4166 -64 4474 -64 
C 5069 -64 5293 875 5293 913 
C 5293 945 5267 971 5229 971 
C 5171 971 5165 952 5133 843 
C 4986 332 4749 64 4493 64 
C 4429 64 4326 64 4326 269 
C 4326 436 4403 640 4429 710 
C 4544 1018 4832 1773 4832 2145 
C 4832 2528 4608 2816 4122 2816 
C 3693 2816 3347 2574 3091 2197 
C 3072 2542 2861 2816 2381 2816 
C 1811 2816 1510 2415 1395 2255 
C 1376 2618 1114 2816 832 2816 
C 646 2816 499 2727 378 2484 
C 262 2254 173 1865 173 1839 
C 173 1814 198 1782 243 1782 
C 294 1782 301 1788 339 1935 
C 435 2312 557 2689 813 2689 
C 960 2689 1011 2586 1011 2395 
C 1011 2254 947 2005 902 1807 
L 723 1118 
C 698 996 627 709 595 594 
C 550 428 480 128 480 96 
C 480 6 550 -64 646 -64 
C 723 -64 813 -26 864 70 
C 877 102 934 326 966 453 
L 1107 1028 
L 1318 1871 
z
" id="CMMI12-6d" transform="scale(0.015625)"/>
       <path d="M 2746 4562 
C 2746 4569 2784 4666 2784 4678 
C 2784 4755 2720 4800 2669 4800 
C 2637 4800 2579 4800 2528 4659 
L 384 -1363 
C 384 -1370 346 -1465 346 -1478 
C 346 -1555 410 -1600 461 -1600 
C 499 -1600 557 -1593 602 -1459 
L 2746 4562 
z
" id="CMMI12-3d" transform="scale(0.015625)"/>
       <path d="M 1318 1871 
C 1331 1910 1491 2229 1728 2433 
C 1894 2586 2112 2689 2362 2689 
C 2618 2689 2707 2497 2707 2242 
C 2707 1878 2445 1150 2317 805 
C 2259 651 2227 568 2227 453 
C 2227 166 2426 -64 2733 -64 
C 3328 -64 3552 875 3552 913 
C 3552 945 3526 971 3488 971 
C 3430 971 3424 952 3392 843 
C 3245 319 3002 64 2752 64 
C 2688 64 2586 64 2586 269 
C 2586 429 2656 621 2694 710 
C 2822 1063 3091 1780 3091 2145 
C 3091 2528 2867 2816 2381 2816 
C 1811 2816 1510 2415 1395 2255 
C 1376 2618 1114 2816 832 2816 
C 627 2816 486 2695 378 2478 
C 262 2248 173 1865 173 1839 
C 173 1814 198 1782 243 1782 
C 294 1782 301 1788 339 1935 
C 442 2325 557 2689 813 2689 
C 960 2689 1011 2586 1011 2395 
C 1011 2254 947 2005 902 1807 
L 723 1118 
C 698 996 627 709 595 594 
C 550 428 480 128 480 96 
C 480 6 550 -64 646 -64 
C 723 -64 813 -26 864 70 
C 877 102 934 326 966 453 
L 1107 1028 
L 1318 1871 
z
" id="CMMI12-6e" transform="scale(0.015625)"/>
      </defs>
      <use transform="scale(0.996264)" xlink:href="#CMMI12-6d"/>
      <use transform="translate(85.327224 0)scale(0.996264)" xlink:href="#CMMI12-3d"/>
      <use transform="translate(134.102143 0)scale(0.996264)" xlink:href="#CMMI12-6e"/>
     </g>
    </g>
   </g>
   <g id="matplotlib.axis_2">
    <g id="ytick_1">
     <g id="line2d_7">
      <path clip-path="url(#p8083175531)" d="M 51.096177 255.741178 
L 372.708082 255.741178 
" style="fill:none;stroke:#cccccc;stroke-linecap:round;"/>
     </g>
     <g id="line2d_8">
      <defs>
       <path d="M 0 0 
L -6 0 
" id="mf6de4fd53b" style="stroke:#262626;stroke-width:1.25;"/>
      </defs>
      <g>
       <use style="fill:#262626;stroke:#262626;stroke-width:1.25;" x="51.096177" xlink:href="#mf6de4fd53b" y="255.741178"/>
      </g>
     </g>
     <g id="text_8">
      <!-- $\mathdefault{0.0}$ -->
      <g style="fill:#262626;" transform="translate(25.828341 260.117117)scale(0.1265 -0.1265)">
       <use transform="scale(0.996264)" xlink:href="#CMR17-30"/>
       <use transform="translate(45.690477 0)scale(0.996264)" xlink:href="#CMMI12-3a"/>
       <use transform="translate(72.787654 0)scale(0.996264)" xlink:href="#CMR17-30"/>
      </g>
     </g>
    </g>
    <g id="ytick_2">
     <g id="line2d_9">
      <path clip-path="url(#p8083175531)" d="M 51.096177 226.712446 
L 372.708082 226.712446 
" style="fill:none;stroke:#cccccc;stroke-linecap:round;"/>
     </g>
     <g id="line2d_10">
      <g>
       <use style="fill:#262626;stroke:#262626;stroke-width:1.25;" x="51.096177" xlink:href="#mf6de4fd53b" y="226.712446"/>
      </g>
     </g>
     <g id="text_9">
      <!-- $\mathdefault{0.5}$ -->
      <g style="fill:#262626;" transform="translate(25.828341 231.088385)scale(0.1265 -0.1265)">
       <defs>
        <path d="M 730 3692 
C 794 3666 1056 3584 1325 3584 
C 1920 3584 2246 3911 2432 4100 
C 2432 4157 2432 4192 2394 4192 
C 2387 4192 2374 4192 2323 4163 
C 2099 4058 1837 3973 1517 3973 
C 1325 3973 1037 3999 723 4139 
C 653 4171 640 4171 634 4171 
C 602 4171 595 4164 595 4037 
L 595 2203 
C 595 2089 595 2057 659 2057 
C 691 2057 704 2070 736 2114 
C 941 2401 1222 2522 1542 2522 
C 1766 2522 2246 2382 2246 1289 
C 2246 1085 2246 715 2054 421 
C 1894 159 1645 25 1370 25 
C 947 25 518 320 403 814 
C 429 807 480 795 506 795 
C 589 795 749 840 749 1038 
C 749 1210 627 1280 506 1280 
C 358 1280 262 1190 262 1011 
C 262 454 704 -128 1382 -128 
C 2042 -128 2669 440 2669 1264 
C 2669 2030 2170 2624 1549 2624 
C 1222 2624 947 2503 730 2274 
L 730 3692 
z
" id="CMR17-35" transform="scale(0.015625)"/>
       </defs>
       <use transform="scale(0.996264)" xlink:href="#CMR17-30"/>
       <use transform="translate(45.690477 0)scale(0.996264)" xlink:href="#CMMI12-3a"/>
       <use transform="translate(72.787654 0)scale(0.996264)" xlink:href="#CMR17-35"/>
      </g>
     </g>
    </g>
    <g id="ytick_3">
     <g id="line2d_11">
      <path clip-path="url(#p8083175531)" d="M 51.096177 197.683714 
L 372.708082 197.683714 
" style="fill:none;stroke:#cccccc;stroke-linecap:round;"/>
     </g>
     <g id="line2d_12">
      <g>
       <use style="fill:#262626;stroke:#262626;stroke-width:1.25;" x="51.096177" xlink:href="#mf6de4fd53b" y="197.683714"/>
      </g>
     </g>
     <g id="text_10">
      <!-- $\mathdefault{1.0}$ -->
      <g style="fill:#262626;" transform="translate(25.828341 202.059654)scale(0.1265 -0.1265)">
       <use transform="scale(0.996264)" xlink:href="#CMR17-31"/>
       <use transform="translate(45.690477 0)scale(0.996264)" xlink:href="#CMMI12-3a"/>
       <use transform="translate(72.787654 0)scale(0.996264)" xlink:href="#CMR17-30"/>
      </g>
     </g>
    </g>
    <g id="ytick_4">
     <g id="line2d_13">
      <path clip-path="url(#p8083175531)" d="M 51.096177 168.654982 
L 372.708082 168.654982 
" style="fill:none;stroke:#cccccc;stroke-linecap:round;"/>
     </g>
     <g id="line2d_14">
      <g>
       <use style="fill:#262626;stroke:#262626;stroke-width:1.25;" x="51.096177" xlink:href="#mf6de4fd53b" y="168.654982"/>
      </g>
     </g>
     <g id="text_11">
      <!-- $\mathdefault{1.5}$ -->
      <g style="fill:#262626;" transform="translate(25.828341 173.030922)scale(0.1265 -0.1265)">
       <use transform="scale(0.996264)" xlink:href="#CMR17-31"/>
       <use transform="translate(45.690477 0)scale(0.996264)" xlink:href="#CMMI12-3a"/>
       <use transform="translate(72.787654 0)scale(0.996264)" xlink:href="#CMR17-35"/>
      </g>
     </g>
    </g>
    <g id="ytick_5">
     <g id="line2d_15">
      <path clip-path="url(#p8083175531)" d="M 51.096177 139.626251 
L 372.708082 139.626251 
" style="fill:none;stroke:#cccccc;stroke-linecap:round;"/>
     </g>
     <g id="line2d_16">
      <g>
       <use style="fill:#262626;stroke:#262626;stroke-width:1.25;" x="51.096177" xlink:href="#mf6de4fd53b" y="139.626251"/>
      </g>
     </g>
     <g id="text_12">
      <!-- $\mathdefault{2.0}$ -->
      <g style="fill:#262626;" transform="translate(25.828341 144.00219)scale(0.1265 -0.1265)">
       <use transform="scale(0.996264)" xlink:href="#CMR17-32"/>
       <use transform="translate(45.690477 0)scale(0.996264)" xlink:href="#CMMI12-3a"/>
       <use transform="translate(72.787654 0)scale(0.996264)" xlink:href="#CMR17-30"/>
      </g>
     </g>
    </g>
    <g id="ytick_6">
     <g id="line2d_17">
      <path clip-path="url(#p8083175531)" d="M 51.096177 110.597519 
L 372.708082 110.597519 
" style="fill:none;stroke:#cccccc;stroke-linecap:round;"/>
     </g>
     <g id="line2d_18">
      <g>
       <use style="fill:#262626;stroke:#262626;stroke-width:1.25;" x="51.096177" xlink:href="#mf6de4fd53b" y="110.597519"/>
      </g>
     </g>
     <g id="text_13">
      <!-- $\mathdefault{2.5}$ -->
      <g style="fill:#262626;" transform="translate(25.828341 114.973458)scale(0.1265 -0.1265)">
       <use transform="scale(0.996264)" xlink:href="#CMR17-32"/>
       <use transform="translate(45.690477 0)scale(0.996264)" xlink:href="#CMMI12-3a"/>
       <use transform="translate(72.787654 0)scale(0.996264)" xlink:href="#CMR17-35"/>
      </g>
     </g>
    </g>
    <g id="ytick_7">
     <g id="line2d_19">
      <path clip-path="url(#p8083175531)" d="M 51.096177 81.568787 
L 372.708082 81.568787 
" style="fill:none;stroke:#cccccc;stroke-linecap:round;"/>
     </g>
     <g id="line2d_20">
      <g>
       <use style="fill:#262626;stroke:#262626;stroke-width:1.25;" x="51.096177" xlink:href="#mf6de4fd53b" y="81.568787"/>
      </g>
     </g>
     <g id="text_14">
      <!-- $\mathdefault{3.0}$ -->
      <g style="fill:#262626;" transform="translate(25.828341 85.944726)scale(0.1265 -0.1265)">
       <defs>
        <path d="M 1414 2157 
C 1984 2157 2234 1662 2234 1090 
C 2234 320 1824 25 1453 25 
C 1114 25 563 194 390 693 
C 422 680 454 680 486 680 
C 640 680 755 782 755 948 
C 755 1133 614 1216 486 1216 
C 378 1216 211 1165 211 926 
C 211 335 787 -128 1466 -128 
C 2176 -128 2720 430 2720 1085 
C 2720 1707 2208 2157 1600 2227 
C 2086 2328 2554 2756 2554 3329 
C 2554 3820 2048 4179 1472 4179 
C 890 4179 378 3829 378 3329 
C 378 3110 544 3072 627 3072 
C 762 3072 877 3155 877 3321 
C 877 3486 762 3569 627 3569 
C 602 3569 570 3569 544 3557 
C 730 3959 1235 4032 1459 4032 
C 1683 4032 2106 3925 2106 3320 
C 2106 3143 2080 2828 1862 2550 
C 1670 2304 1453 2304 1242 2284 
C 1210 2284 1062 2269 1037 2269 
C 992 2263 966 2257 966 2208 
C 966 2163 973 2157 1101 2157 
L 1414 2157 
z
" id="CMR17-33" transform="scale(0.015625)"/>
       </defs>
       <use transform="scale(0.996264)" xlink:href="#CMR17-33"/>
       <use transform="translate(45.690477 0)scale(0.996264)" xlink:href="#CMMI12-3a"/>
       <use transform="translate(72.787654 0)scale(0.996264)" xlink:href="#CMR17-30"/>
      </g>
     </g>
    </g>
    <g id="ytick_8">
     <g id="line2d_21">
      <path clip-path="url(#p8083175531)" d="M 51.096177 52.540055 
L 372.708082 52.540055 
" style="fill:none;stroke:#cccccc;stroke-linecap:round;"/>
     </g>
     <g id="line2d_22">
      <g>
       <use style="fill:#262626;stroke:#262626;stroke-width:1.25;" x="51.096177" xlink:href="#mf6de4fd53b" y="52.540055"/>
      </g>
     </g>
     <g id="text_15">
      <!-- $\mathdefault{3.5}$ -->
      <g style="fill:#262626;" transform="translate(25.828341 56.915995)scale(0.1265 -0.1265)">
       <use transform="scale(0.996264)" xlink:href="#CMR17-33"/>
       <use transform="translate(45.690477 0)scale(0.996264)" xlink:href="#CMMI12-3a"/>
       <use transform="translate(72.787654 0)scale(0.996264)" xlink:href="#CMR17-35"/>
      </g>
     </g>
    </g>
    <g id="ytick_9">
     <g id="line2d_23">
      <path clip-path="url(#p8083175531)" d="M 51.096177 23.511323 
L 372.708082 23.511323 
" style="fill:none;stroke:#cccccc;stroke-linecap:round;"/>
     </g>
     <g id="line2d_24">
      <g>
       <use style="fill:#262626;stroke:#262626;stroke-width:1.25;" x="51.096177" xlink:href="#mf6de4fd53b" y="23.511323"/>
      </g>
     </g>
     <g id="text_16">
      <!-- $\mathdefault{4.0}$ -->
      <g style="fill:#262626;" transform="translate(25.828341 27.887263)scale(0.1265 -0.1265)">
       <use transform="scale(0.996264)" xlink:href="#CMR17-34"/>
       <use transform="translate(45.690477 0)scale(0.996264)" xlink:href="#CMMI12-3a"/>
       <use transform="translate(72.787654 0)scale(0.996264)" xlink:href="#CMR17-30"/>
      </g>
     </g>
    </g>
    <g id="text_17">
     <!-- FLOPs / $n^3$ -->
     <g style="fill:#262626;" transform="translate(18.391233 175.03767)rotate(-90)scale(0.138 -0.138)">
      <defs>
       <path d="M 3482 4325 
L 326 4325 
L 326 4160 
C 768 4160 838 4160 838 3874 
L 838 446 
C 838 160 768 160 326 160 
L 326 0 
C 512 0 870 0 1069 0 
C 1331 0 1638 0 1901 0 
L 1901 160 
L 1760 160 
C 1274 160 1261 223 1261 452 
L 1261 2075 
L 1837 2075 
C 2432 2075 2490 1865 2490 1332 
L 2605 1332 
L 2605 2987 
L 2490 2987 
C 2490 2450 2432 2240 1837 2240 
L 1261 2240 
L 1261 3911 
C 1261 4128 1274 4160 1530 4160 
L 2355 4160 
C 3322 4160 3430 3765 3520 2916 
L 3635 2916 
L 3482 4325 
z
" id="CMR17-46" transform="scale(0.015625)"/>
       <path d="M 3469 1615 
L 3354 1615 
C 3302 983 3219 166 2125 166 
L 1530 166 
C 1274 166 1261 197 1261 414 
L 1261 3898 
C 1261 4129 1274 4192 1760 4192 
L 1901 4192 
L 1901 4352 
C 1638 4352 1331 4352 1069 4352 
C 870 4352 512 4352 326 4352 
L 326 4192 
C 768 4192 838 4192 838 3905 
L 838 452 
C 838 166 768 166 326 166 
L 326 0 
L 3315 0 
L 3469 1615 
z
" id="CMR17-4c" transform="scale(0.015625)"/>
       <path d="M 4307 2135 
C 4307 3437 3366 4416 2304 4416 
C 1216 4416 294 3424 294 2135 
C 294 845 1229 -128 2298 -128 
C 3392 -128 4307 864 4307 2135 
z
M 2304 -13 
C 1574 -13 781 711 781 2217 
C 781 3716 1651 4301 2298 4301 
C 2976 4301 3821 3698 3821 2217 
C 3821 686 3008 -13 2304 -13 
z
" id="CMR17-4f" transform="scale(0.015625)"/>
       <path d="M 1267 2042 
L 2291 2042 
C 3117 2042 3718 2578 3718 3184 
C 3718 3791 3130 4352 2291 4352 
L 333 4352 
L 333 4186 
C 774 4186 845 4186 845 3899 
L 845 446 
C 845 160 774 160 333 160 
L 333 0 
C 518 0 858 0 1056 0 
C 1254 0 1594 0 1779 0 
L 1779 160 
C 1338 160 1267 160 1267 446 
L 1267 2042 
z
M 1254 2176 
L 1254 3938 
C 1254 4155 1267 4186 1523 4186 
L 2170 4186 
C 2995 4186 3232 3714 3232 3184 
C 3232 2604 2950 2176 2170 2176 
L 1254 2176 
z
" id="CMR17-50" transform="scale(0.015625)"/>
       <path d="M 1978 2697 
C 1978 2813 1971 2819 1933 2819 
C 1907 2819 1901 2813 1824 2717 
C 1805 2691 1747 2626 1728 2601 
C 1523 2819 1235 2819 1126 2819 
C 416 2819 160 2447 160 2076 
C 160 1498 813 1365 998 1325 
C 1402 1243 1542 1217 1677 1101 
C 1760 1025 1901 884 1901 654 
C 1901 384 1747 38 1158 38 
C 602 38 403 460 288 1021 
C 269 1110 269 1117 218 1117 
C 166 1117 160 1110 160 983 
L 160 63 
C 160 -51 166 -58 205 -58 
C 237 -58 243 -51 275 0 
C 314 57 410 211 448 276 
C 576 103 800 -64 1158 -64 
C 1792 -64 2131 283 2131 784 
C 2131 1112 1958 1285 1875 1362 
C 1683 1561 1459 1606 1190 1657 
C 838 1735 390 1825 390 2217 
C 390 2383 480 2737 1126 2737 
C 1811 2737 1850 2094 1862 1888 
C 1869 1856 1901 1849 1920 1849 
C 1978 1849 1978 1869 1978 1978 
L 1978 2697 
z
" id="CMR17-73" transform="scale(0.015625)"/>
       <path d="M 2605 4545 
C 2637 4627 2637 4640 2637 4653 
C 2637 4729 2579 4768 2528 4768 
C 2451 4768 2426 4717 2400 4640 
L 326 -1377 
C 294 -1460 294 -1473 294 -1486 
C 294 -1562 352 -1600 403 -1600 
C 480 -1600 506 -1549 531 -1473 
L 2605 4545 
z
" id="CMR17-2f" transform="scale(0.015625)"/>
      </defs>
      <use transform="scale(0.996264)" xlink:href="#CMR17-46"/>
      <use transform="translate(59.983847 0)scale(0.996264)" xlink:href="#CMR17-4c"/>
      <use transform="translate(117.365254 0)scale(0.996264)" xlink:href="#CMR17-4f"/>
      <use transform="translate(189.080043 0)scale(0.996264)" xlink:href="#CMR17-50"/>
      <use transform="translate(251.666343 0)scale(0.996264)" xlink:href="#CMR17-73"/>
      <use transform="translate(317.543647 0)scale(0.996264)" xlink:href="#CMR17-2f"/>
      <use transform="translate(393.310091 0)scale(0.996264)" xlink:href="#CMMI12-6e"/>
      <use transform="translate(451.540138 36.153639)scale(0.697382)" xlink:href="#CMR17-33"/>
     </g>
    </g>
   </g>
   <g id="line2d_25">
    <path clip-path="url(#p8083175531)" d="M 51.096177 217.036202 
L 57.659685 215.826846 
L 64.223193 214.567156 
L 70.786702 213.255156 
L 77.35021 211.888874 
L 83.913718 210.466334 
L 90.477226 208.985564 
L 97.040735 207.44459 
L 103.604243 205.841437 
L 110.167751 204.174132 
L 116.731259 202.4407 
L 123.294768 200.639168 
L 129.858276 198.767561 
L 136.421784 196.823907 
L 142.985293 194.806231 
L 149.548801 192.712558 
L 156.112309 190.540916 
L 162.675817 188.28933 
L 169.239326 185.955826 
L 175.802834 183.53843 
L 182.366342 181.035169 
L 188.92985 178.444069 
L 195.493359 175.763155 
L 202.056867 172.990454 
L 208.620375 170.123991 
L 215.183883 167.161793 
L 221.747392 164.101886 
L 228.3109 160.942297 
L 234.874408 157.68105 
L 241.437917 154.316172 
L 248.001425 150.84569 
L 254.564933 147.267628 
L 261.128441 143.580015 
L 267.69195 139.780874 
L 274.255458 135.868234 
L 280.818966 131.840118 
L 287.382474 127.694555 
L 293.945983 123.429569 
L 300.509491 119.043187 
L 307.072999 114.533435 
L 313.636508 109.898339 
L 320.200016 105.135926 
L 326.763524 100.24422 
L 333.327032 95.221248 
L 339.890541 90.065037 
L 346.454049 84.773613 
L 353.017557 79.345 
L 359.581065 73.777227 
L 366.144574 68.068317 
L 372.708082 62.216299 
" style="fill:none;stroke:#9acd32;stroke-linecap:round;stroke-width:2;"/>
   </g>
   <g id="line2d_26">
    <path clip-path="url(#p8083175531)" d="M 51.096177 236.38869 
L 57.659685 235.784012 
L 64.223193 235.154167 
L 70.786702 234.498167 
L 77.35021 233.815026 
L 83.913718 233.103756 
L 90.477226 232.363371 
L 97.040735 231.592884 
L 103.604243 230.791307 
L 110.167751 229.957655 
L 116.731259 229.090939 
L 123.294768 228.190173 
L 129.858276 227.25437 
L 136.421784 226.282542 
L 142.985293 225.273704 
L 149.548801 224.226868 
L 156.112309 223.141047 
L 162.675817 222.015254 
L 169.239326 220.848502 
L 175.802834 219.639804 
L 182.366342 218.388174 
L 188.92985 217.092623 
L 195.493359 215.752166 
L 202.056867 214.365816 
L 208.620375 212.932584 
L 215.183883 211.451486 
L 221.747392 209.921532 
L 228.3109 208.341737 
L 234.874408 206.711114 
L 241.437917 205.028675 
L 248.001425 203.293434 
L 254.564933 201.504403 
L 261.128441 199.660596 
L 267.69195 197.761026 
L 274.255458 195.804706 
L 280.818966 193.790648 
L 287.382474 191.717866 
L 293.945983 189.585373 
L 300.509491 187.392183 
L 307.072999 185.137307 
L 313.636508 182.819759 
L 320.200016 180.438552 
L 326.763524 177.992699 
L 333.327032 175.481213 
L 339.890541 172.903108 
L 346.454049 170.257395 
L 353.017557 167.543089 
L 359.581065 164.759202 
L 366.144574 161.904748 
L 372.708082 158.978738 
" style="fill:none;stroke:#556b2f;stroke-linecap:round;stroke-width:2;"/>
   </g>
   <g id="line2d_27">
    <path clip-path="url(#p8083175531)" d="M 51.096177 236.38869 
L 57.659685 235.771922 
L 64.223193 235.105806 
L 70.786702 234.389354 
L 77.35021 233.621581 
L 83.913718 232.801499 
L 90.477226 231.928121 
L 97.040735 231.000461 
L 103.604243 230.01753 
L 110.167751 228.978343 
L 116.731259 227.881912 
L 123.294768 226.72725 
L 129.858276 225.513371 
L 136.421784 224.239287 
L 142.985293 222.904012 
L 149.548801 221.506558 
L 156.112309 220.045938 
L 162.675817 218.521166 
L 169.239326 216.931255 
L 175.802834 215.275218 
L 182.366342 213.552067 
L 188.92985 211.760815 
L 195.493359 209.900477 
L 202.056867 207.970064 
L 208.620375 205.96859 
L 215.183883 203.895068 
L 221.747392 201.748511 
L 228.3109 199.527932 
L 234.874408 197.232344 
L 241.437917 194.86076 
L 248.001425 192.412193 
L 254.564933 189.885656 
L 261.128441 187.280163 
L 267.69195 184.594725 
L 274.255458 181.828357 
L 280.818966 178.980071 
L 287.382474 176.04888 
L 293.945983 173.033798 
L 300.509491 169.933837 
L 307.072999 166.74801 
L 313.636508 163.475331 
L 320.200016 160.114812 
L 326.763524 156.665467 
L 333.327032 153.126309 
L 339.890541 149.49635 
L 346.454049 145.774604 
L 353.017557 141.960083 
L 359.581065 138.051802 
L 366.144574 134.048772 
L 372.708082 129.950007 
" style="fill:none;stroke:#556b2f;stroke-dasharray:7.4,3.2;stroke-dashoffset:0;stroke-width:2;"/>
   </g>
   <g id="line2d_28">
    <path clip-path="url(#p8083175531)" d="M 51.096177 217.036202 
L 57.659685 214.642165 
L 64.223193 212.198779 
L 70.786702 209.705059 
L 77.35021 207.160016 
L 83.913718 204.562665 
L 90.477226 201.912018 
L 97.040735 199.207088 
L 103.604243 196.446888 
L 110.167751 193.630431 
L 116.731259 190.756731 
L 123.294768 187.8248 
L 129.858276 184.833652 
L 136.421784 181.782299 
L 142.985293 178.669754 
L 149.548801 175.495031 
L 156.112309 172.257142 
L 162.675817 168.955101 
L 169.239326 165.58792 
L 175.802834 162.154613 
L 182.366342 158.654193 
L 188.92985 155.085672 
L 195.493359 151.448065 
L 202.056867 147.740383 
L 208.620375 143.961639 
L 215.183883 140.110848 
L 221.747392 136.187022 
L 228.3109 132.189173 
L 234.874408 128.116316 
L 241.437917 123.967463 
L 248.001425 119.741626 
L 254.564933 115.43782 
L 261.128441 111.055057 
L 267.69195 106.59235 
L 274.255458 102.048713 
L 280.818966 97.423158 
L 287.382474 92.714697 
L 293.945983 87.922346 
L 300.509491 83.045116 
L 307.072999 78.08202 
L 313.636508 73.032071 
L 320.200016 67.894283 
L 326.763524 62.667669 
L 333.327032 57.351241 
L 339.890541 51.944013 
L 346.454049 46.444998 
L 353.017557 40.853208 
L 359.581065 35.167657 
L 366.144574 29.387358 
L 372.708082 23.511323 
" style="fill:none;stroke:#cd5c5c;stroke-linecap:round;stroke-width:2;"/>
   </g>
   <g id="line2d_29">
    <path clip-path="url(#p8083175531)" d="M 51.096177 217.036202 
L 57.659685 214.630074 
L 64.223193 212.150418 
L 70.786702 209.596246 
L 77.35021 206.966572 
L 83.913718 204.260408 
L 90.477226 201.476768 
L 97.040735 198.614665 
L 103.604243 195.673111 
L 110.167751 192.65112 
L 116.731259 189.547704 
L 123.294768 186.361878 
L 129.858276 183.092653 
L 136.421784 179.739043 
L 142.985293 176.300061 
L 149.548801 172.77472 
L 156.112309 169.162033 
L 162.675817 165.461013 
L 169.239326 161.670673 
L 175.802834 157.790027 
L 182.366342 153.818086 
L 188.92985 149.753864 
L 195.493359 145.596375 
L 202.056867 141.344631 
L 208.620375 136.997646 
L 215.183883 132.554431 
L 221.747392 128.014001 
L 228.3109 123.375369 
L 234.874408 118.637547 
L 241.437917 113.799548 
L 248.001425 108.860386 
L 254.564933 103.819073 
L 261.128441 98.674624 
L 267.69195 93.426049 
L 274.255458 88.072364 
L 280.818966 82.61258 
L 287.382474 77.045711 
L 293.945983 71.37077 
L 300.509491 65.58677 
L 307.072999 59.692723 
L 313.636508 53.687644 
L 320.200016 47.570544 
L 326.763524 41.340438 
L 333.327032 34.996337 
L 339.890541 28.537256 
L 346.454049 21.962206 
L 353.017557 15.270202 
L 359.581065 8.460257 
L 366.144574 1.531382 
L 368.50168 -1 
" style="fill:none;stroke:#cd5c5c;stroke-dasharray:7.4,3.2;stroke-dashoffset:0;stroke-width:2;"/>
   </g>
   <g id="line2d_30">
    <path clip-path="url(#p8083175531)" d="M 51.096177 217.036202 
L 57.659685 214.66651 
L 64.223193 212.296817 
L 70.786702 209.927125 
L 77.35021 207.557432 
L 83.913718 205.18774 
L 90.477226 202.818048 
L 97.040735 200.448355 
L 103.604243 198.078663 
L 110.167751 195.708971 
L 116.731259 193.339278 
L 123.294768 190.969586 
L 129.858276 188.599893 
L 136.421784 186.230201 
L 142.985293 183.860509 
L 149.548801 181.490816 
L 156.112309 179.121124 
L 162.675817 176.751431 
L 169.239326 174.381739 
L 175.802834 172.012047 
L 182.366342 169.642354 
L 188.92985 167.272662 
L 195.493359 164.902969 
L 202.056867 162.533277 
L 208.620375 160.163585 
L 215.183883 157.793892 
L 221.747392 155.4242 
L 228.3109 153.054507 
L 234.874408 150.684815 
L 241.437917 148.315123 
L 248.001425 145.94543 
L 254.564933 143.575738 
L 261.128441 141.206046 
L 267.69195 138.836353 
L 274.255458 136.466661 
L 280.818966 134.096968 
L 287.382474 131.727276 
L 293.945983 129.357584 
L 300.509491 126.987891 
L 307.072999 124.618199 
L 313.636508 122.248506 
L 320.200016 119.878814 
L 326.763524 117.509122 
L 333.327032 115.139429 
L 339.890541 112.769737 
L 346.454049 110.400044 
L 353.017557 108.030352 
L 359.581065 105.66066 
L 366.144574 103.290967 
L 372.708082 100.921275 
" style="fill:none;stroke:#800000;stroke-linecap:round;stroke-width:2;"/>
   </g>
   <g id="patch_3">
    <path d="M 51.096177 255.741178 
L 51.096177 23.511323 
" style="fill:none;stroke:#262626;stroke-linecap:square;stroke-linejoin:miter;stroke-width:1.25;"/>
   </g>
   <g id="patch_4">
    <path d="M 372.708082 255.741178 
L 372.708082 23.511323 
" style="fill:none;stroke:#262626;stroke-linecap:square;stroke-linejoin:miter;stroke-width:1.25;"/>
   </g>
   <g id="patch_5">
    <path d="M 51.096177 255.741178 
L 372.708082 255.741178 
" style="fill:none;stroke:#262626;stroke-linecap:square;stroke-linejoin:miter;stroke-width:1.25;"/>
   </g>
   <g id="patch_6">
    <path d="M 51.096177 23.511323 
L 372.708082 23.511323 
" style="fill:none;stroke:#262626;stroke-linecap:square;stroke-linejoin:miter;stroke-width:1.25;"/>
   </g>
   <g id="text_18">
    <!-- (b) Computing Log-Determinants of Posterior Function -->
    <g style="fill:#262626;" transform="translate(48.045948 17.511323)scale(0.138 -0.138)">
     <defs>
      <path d="M 1958 -1561 
C 1958 -1555 1958 -1542 1939 -1523 
C 1645 -1224 858 -407 858 1581 
C 858 3569 1632 4379 1946 4697 
C 1946 4704 1958 4717 1958 4736 
C 1958 4755 1939 4768 1914 4768 
C 1843 4768 1299 4296 986 3594 
C 666 2887 576 2199 576 1588 
C 576 1128 621 351 1005 -471 
C 1312 -1135 1837 -1600 1914 -1600 
C 1946 -1600 1958 -1587 1958 -1561 
z
" id="CMR17-28" transform="scale(0.015625)"/>
      <path d="M 960 4396 
L 198 4326 
L 198 4160 
C 576 4160 634 4122 634 3817 
L 634 -13 
L 749 -13 
L 934 441 
C 1120 141 1395 -64 1766 -64 
C 2406 -64 3053 500 3053 1370 
C 3053 2188 2477 2790 1830 2790 
C 1434 2790 1152 2579 960 2330 
L 960 4396 
z
M 973 2004 
C 973 2118 973 2138 1062 2272 
C 1312 2657 1670 2688 1792 2688 
C 1984 2688 2643 2585 2643 1376 
C 2643 108 1888 38 1734 38 
C 1536 38 1248 114 1043 486 
C 973 608 973 621 973 735 
L 973 2004 
z
" id="CMR17-62" transform="scale(0.015625)"/>
      <path d="M 1683 1581 
C 1683 2040 1638 2817 1254 3639 
C 947 4303 422 4768 346 4768 
C 326 4768 301 4761 301 4729 
C 301 4717 307 4710 314 4697 
C 621 4378 1402 3568 1402 1584 
C 1402 -407 627 -1217 314 -1537 
C 307 -1549 301 -1556 301 -1568 
C 301 -1600 326 -1600 346 -1600 
C 416 -1600 960 -1128 1274 -426 
C 1594 281 1683 969 1683 1581 
z
" id="CMR17-29" transform="scale(0.015625)"/>
      <path d="M 3974 4289 
C 3974 4403 3968 4410 3930 4410 
C 3904 4410 3898 4403 3853 4327 
L 3571 3792 
C 3258 4187 2874 4416 2381 4416 
C 1286 4416 294 3456 294 2148 
C 294 826 1286 -128 2387 -128 
C 3366 -128 3974 730 3974 1461 
C 3974 1524 3974 1550 3917 1550 
C 3866 1550 3866 1531 3859 1474 
C 3808 585 3168 38 2477 38 
C 1824 38 781 495 781 2147 
C 781 3805 1843 4250 2464 4250 
C 3187 4250 3712 3628 3834 2745 
C 3846 2668 3846 2655 3904 2655 
C 3974 2655 3974 2668 3974 2783 
L 3974 4289 
z
" id="CMR17-43" transform="scale(0.015625)"/>
      <path d="M 2758 1356 
C 2758 2176 2163 2816 1466 2816 
C 768 2816 173 2176 173 1356 
C 173 551 768 -64 1466 -64 
C 2163 -64 2758 551 2758 1356 
z
M 1466 51 
C 1165 51 909 230 762 480 
C 602 767 582 1126 582 1408 
C 582 1677 595 2010 762 2298 
C 890 2509 1139 2714 1466 2714 
C 1754 2714 1997 2554 2150 2330 
C 2349 2029 2349 1607 2349 1408 
C 2349 1158 2336 775 2163 467 
C 1984 173 1709 51 1466 51 
z
" id="CMR17-6f" transform="scale(0.015625)"/>
      <path d="M 4326 1933 
C 4326 2252 4269 2790 3507 2790 
C 3072 2790 2771 2496 2656 2151 
L 2650 2151 
C 2573 2676 2195 2790 1837 2790 
C 1331 2790 1069 2400 973 2144 
L 966 2144 
L 966 2790 
L 211 2720 
L 211 2554 
C 589 2554 646 2515 646 2208 
L 646 428 
C 646 184 621 153 211 153 
L 211 -13 
C 365 0 646 0 813 0 
C 979 0 1267 0 1421 -13 
L 1421 153 
C 1011 153 986 178 986 428 
L 986 1658 
C 986 2247 1344 2688 1792 2688 
C 2266 2688 2317 2266 2317 1958 
L 2317 428 
C 2317 184 2291 153 1882 153 
L 1882 -13 
C 2035 0 2317 0 2483 0 
C 2650 0 2938 0 3091 -13 
L 3091 153 
C 2682 153 2656 178 2656 428 
L 2656 1658 
C 2656 2247 3014 2688 3462 2688 
C 3936 2688 3987 2266 3987 1958 
L 3987 428 
C 3987 184 3962 153 3552 153 
L 3552 -13 
C 3706 0 3987 0 4154 0 
C 4320 0 4608 0 4762 -13 
L 4762 153 
C 4352 153 4326 178 4326 428 
L 4326 1933 
z
" id="CMR17-6d" transform="scale(0.015625)"/>
      <path d="M 1408 -1063 
C 998 -1063 973 -1037 973 -789 
L 973 402 
C 1158 134 1427 -38 1766 -38 
C 2406 -38 3053 523 3053 1388 
C 3053 2191 2496 2802 1837 2802 
C 1453 2802 1139 2592 960 2338 
L 960 2802 
L 198 2732 
L 198 2567 
C 576 2567 634 2528 634 2223 
L 634 -789 
C 634 -1031 608 -1063 198 -1063 
L 198 -1228 
C 352 -1216 634 -1216 800 -1216 
C 966 -1216 1254 -1216 1408 -1228 
L 1408 -1063 
z
M 973 2012 
C 973 2102 973 2235 1222 2471 
C 1254 2497 1472 2688 1792 2688 
C 2259 2688 2643 2108 2643 1382 
C 2643 656 2234 64 1728 64 
C 1498 64 1248 172 1056 472 
C 973 612 973 650 973 752 
L 973 2012 
z
" id="CMR17-70" transform="scale(0.015625)"/>
      <path d="M 1882 2693 
L 1882 2528 
C 2259 2528 2317 2489 2317 2186 
L 2317 1032 
C 2317 500 2029 38 1555 38 
C 1030 38 986 348 986 678 
L 986 2763 
L 211 2693 
L 211 2528 
C 467 2528 640 2528 646 2274 
L 646 1058 
C 646 633 646 361 813 183 
C 896 101 1056 -64 1517 -64 
C 2061 -64 2272 377 2323 506 
L 2330 506 
L 2330 -63 
L 3091 -63 
L 3091 128 
C 2714 128 2656 166 2656 473 
L 2656 2763 
L 1882 2693 
z
" id="CMR17-75" transform="scale(0.015625)"/>
      <path d="M 966 2560 
L 1862 2560 
L 1862 2725 
L 966 2725 
L 966 3904 
L 851 3904 
C 838 3245 614 2668 70 2668 
L 70 2560 
L 627 2560 
L 627 771 
C 627 650 627 -64 1370 -64 
C 1747 -64 1965 306 1965 777 
L 1965 1140 
L 1850 1140 
L 1850 783 
C 1850 344 1677 51 1408 51 
C 1222 51 966 178 966 758 
L 966 2560 
z
" id="CMR17-74" transform="scale(0.015625)"/>
      <path d="M 992 3909 
C 992 4049 877 4170 730 4170 
C 589 4170 467 4056 467 3909 
C 467 3769 582 3648 730 3648 
C 870 3648 992 3763 992 3909 
z
M 243 2706 
L 243 2541 
C 602 2541 653 2502 653 2197 
L 653 427 
C 653 184 627 153 218 153 
L 218 -13 
C 371 0 646 0 806 0 
C 960 0 1222 0 1370 -13 
L 1370 153 
C 992 153 979 191 979 420 
L 979 2776 
L 243 2706 
z
" id="CMR17-69" transform="scale(0.015625)"/>
      <path d="M 2656 1933 
C 2656 2259 2592 2790 1837 2790 
C 1331 2790 1069 2400 973 2144 
L 966 2144 
L 966 2790 
L 211 2720 
L 211 2554 
C 589 2554 646 2515 646 2208 
L 646 428 
C 646 184 621 153 211 153 
L 211 -13 
C 365 0 646 0 813 0 
C 979 0 1267 0 1421 -13 
L 1421 153 
C 1011 153 986 178 986 428 
L 986 1658 
C 986 2247 1344 2688 1792 2688 
C 2266 2688 2317 2266 2317 1958 
L 2317 428 
C 2317 184 2291 153 1882 153 
L 1882 -13 
C 2035 0 2317 0 2483 0 
C 2650 0 2938 0 3091 -13 
L 3091 153 
C 2682 153 2656 178 2656 428 
L 2656 1933 
z
" id="CMR17-6e" transform="scale(0.015625)"/>
      <path d="M 710 1164 
C 832 1068 1043 960 1299 960 
C 1805 960 2240 1357 2240 1888 
C 2240 2054 2189 2310 1997 2509 
C 2176 2692 2438 2752 2586 2752 
C 2611 2752 2650 2752 2682 2734 
C 2656 2728 2598 2703 2598 2605 
C 2598 2527 2656 2471 2739 2471 
C 2835 2471 2886 2533 2886 2614 
C 2886 2731 2790 2854 2586 2854 
C 2330 2854 2106 2738 1926 2580 
C 1734 2753 1504 2816 1299 2816 
C 794 2816 358 2419 358 1888 
C 358 1522 570 1292 634 1228 
C 442 1004 442 743 442 711 
C 442 545 506 302 723 168 
C 390 85 128 -169 128 -486 
C 128 -943 736 -1280 1466 -1280 
C 2170 -1280 2803 -956 2803 -479 
C 2803 384 1856 384 1363 384 
C 1216 384 954 384 922 391 
C 723 423 589 602 589 826 
C 589 883 589 1024 710 1164 
z
M 1299 1068 
C 736 1068 736 1760 736 1889 
C 736 2016 736 2708 1299 2708 
C 1862 2708 1862 2016 1862 1889 
C 1862 1760 1862 1068 1299 1068 
z
M 1466 -1171 
C 826 -1171 384 -835 384 -486 
C 384 -289 493 -105 634 -4 
C 794 104 858 104 1293 104 
C 1818 104 2547 104 2547 -486 
C 2547 -835 2106 -1171 1466 -1171 
z
" id="CMR17-67" transform="scale(0.015625)"/>
      <path d="M 1632 1216 
L 1632 1496 
L 26 1496 
L 26 1216 
L 1632 1216 
z
" id="CMR17-2d" transform="scale(0.015625)"/>
      <path d="M 333 4352 
L 333 4186 
C 774 4186 845 4186 845 3900 
L 845 452 
C 845 166 774 166 333 166 
L 333 0 
L 2368 0 
C 3398 0 4224 943 4224 2141 
C 4224 3346 3411 4352 2368 4352 
L 333 4352 
z
M 1523 166 
C 1267 166 1254 197 1254 414 
L 1254 3938 
C 1254 4155 1267 4186 1523 4186 
L 2240 4186 
C 2771 4186 3750 3874 3750 2141 
C 3750 1242 3488 879 3366 707 
C 3213 510 2848 166 2240 166 
L 1523 166 
z
" id="CMR17-44" transform="scale(0.015625)"/>
      <path d="M 2438 1472 
C 2464 1498 2464 1511 2464 1576 
C 2464 2238 2118 2816 1389 2816 
C 710 2816 173 2169 173 1383 
C 173 551 781 -64 1459 -64 
C 2176 -64 2458 607 2458 740 
C 2458 784 2419 784 2406 784 
C 2362 784 2355 771 2330 696 
C 2189 265 1837 51 1504 51 
C 1229 51 954 203 781 480 
C 582 803 582 1176 582 1472 
L 2438 1472 
z
M 589 1568 
C 634 2505 1126 2714 1382 2714 
C 1818 2714 2112 2297 2118 1568 
L 589 1568 
z
" id="CMR17-65" transform="scale(0.015625)"/>
      <path d="M 960 1497 
C 960 2112 1222 2688 1702 2688 
C 1747 2688 1792 2682 1837 2662 
C 1837 2662 1696 2617 1696 2452 
C 1696 2298 1818 2234 1914 2234 
C 1990 2234 2131 2279 2131 2458 
C 2131 2663 1926 2790 1709 2790 
C 1222 2790 1011 2317 947 2093 
L 941 2093 
L 941 2790 
L 198 2720 
L 198 2554 
C 576 2554 634 2515 634 2208 
L 634 428 
C 634 184 608 153 198 153 
L 198 -13 
C 352 0 646 0 813 0 
C 998 0 1325 0 1498 -13 
L 1498 153 
C 1037 153 960 153 960 440 
L 960 1497 
z
" id="CMR17-72" transform="scale(0.015625)"/>
      <path d="M 2304 1653 
C 2304 2072 2304 2294 2035 2543 
C 1798 2752 1523 2816 1306 2816 
C 800 2816 435 2407 435 1971 
C 435 1728 627 1728 666 1728 
C 749 1728 896 1778 896 1954 
C 896 2112 774 2181 666 2181 
C 640 2181 608 2174 589 2168 
C 723 2592 1069 2714 1293 2714 
C 1613 2714 1965 2429 1965 1885 
L 1965 1600 
C 1587 1600 1133 1549 774 1357 
C 371 1133 256 813 256 570 
C 256 77 832 -64 1171 -64 
C 1523 -64 1850 139 1990 511 
C 2003 233 2182 -18 2464 -18 
C 2598 -18 2938 70 2938 567 
L 2938 920 
L 2822 920 
L 2822 562 
C 2822 178 2650 128 2566 128 
C 2304 128 2304 458 2304 738 
L 2304 1653 
z
M 1965 870 
C 1965 317 1568 38 1216 38 
C 896 38 646 275 646 570 
C 646 761 730 1100 1101 1305 
C 1408 1478 1760 1504 1965 1504 
L 1965 870 
z
" id="CMR17-61" transform="scale(0.015625)"/>
      <path d="M 979 2560 
L 1709 2560 
L 1709 2725 
L 966 2725 
L 966 3494 
C 966 4022 1235 4352 1510 4352 
C 1594 4352 1690 4327 1754 4282 
C 1702 4269 1568 4225 1568 4067 
C 1568 3901 1696 3850 1786 3850 
C 1875 3850 2003 3901 2003 4067 
C 2003 4308 1773 4454 1517 4454 
C 1152 4454 653 4156 653 3481 
L 653 2725 
L 141 2725 
L 141 2560 
L 653 2560 
L 653 427 
C 653 184 627 153 218 153 
L 218 -13 
C 371 0 666 0 832 0 
C 1018 0 1344 0 1517 -13 
L 1517 153 
C 1056 153 979 153 979 439 
L 979 2560 
z
" id="CMR17-66" transform="scale(0.015625)"/>
      <path d="M 2234 2240 
C 2112 2240 1933 2240 1933 2017 
C 1933 1838 2080 1787 2163 1787 
C 2208 1787 2394 1807 2394 2024 
C 2394 2467 1958 2803 1466 2803 
C 787 2803 211 2178 211 1363 
C 211 516 813 -64 1466 -64 
C 2259 -64 2458 677 2458 748 
C 2458 774 2451 793 2406 793 
C 2362 793 2355 787 2330 703 
C 2163 180 1798 51 1523 51 
C 1114 51 621 427 621 1369 
C 621 2338 1094 2688 1472 2688 
C 1722 2688 2093 2573 2234 2240 
z
" id="CMR17-63" transform="scale(0.015625)"/>
     </defs>
     <use transform="scale(0.996264)" xlink:href="#CMR17-28"/>
     <use transform="translate(35.280768 0)scale(0.996264)" xlink:href="#CMR17-62"/>
     <use transform="translate(86.176138 0)scale(0.996264)" xlink:href="#CMR17-29"/>
     <use transform="translate(151.532872 0)scale(0.996264)" xlink:href="#CMR17-43"/>
     <use transform="translate(218.042752 0)scale(0.996264)" xlink:href="#CMR17-6f"/>
     <use transform="translate(263.733229 0)scale(0.996264)" xlink:href="#CMR17-6d"/>
     <use transform="translate(340.652819 0)scale(0.996264)" xlink:href="#CMR17-70"/>
     <use transform="translate(391.548189 0)scale(0.996264)" xlink:href="#CMR17-75"/>
     <use transform="translate(442.443559 0)scale(0.996264)" xlink:href="#CMR17-74"/>
     <use transform="translate(477.724327 0)scale(0.996264)" xlink:href="#CMR17-69"/>
     <use transform="translate(502.595385 0)scale(0.996264)" xlink:href="#CMR17-6e"/>
     <use transform="translate(553.490755 0)scale(0.996264)" xlink:href="#CMR17-67"/>
     <use transform="translate(629.257198 0)scale(0.996264)" xlink:href="#CMR17-4c"/>
     <use transform="translate(686.638606 0)scale(0.996264)" xlink:href="#CMR17-6f"/>
     <use transform="translate(732.329083 0)scale(0.996264)" xlink:href="#CMR17-67"/>
     <use transform="translate(778.01956 0)scale(0.996264)" xlink:href="#CMR17-2d"/>
     <use transform="translate(808.095527 0)scale(0.996264)" xlink:href="#CMR17-44"/>
     <use transform="translate(878.489083 0)scale(0.996264)" xlink:href="#CMR17-65"/>
     <use transform="translate(918.974743 0)scale(0.996264)" xlink:href="#CMR17-74"/>
     <use transform="translate(954.255511 0)scale(0.996264)" xlink:href="#CMR17-65"/>
     <use transform="translate(994.741171 0)scale(0.996264)" xlink:href="#CMR17-72"/>
     <use transform="translate(1030.021939 0)scale(0.996264)" xlink:href="#CMR17-6d"/>
     <use transform="translate(1106.941529 0)scale(0.996264)" xlink:href="#CMR17-69"/>
     <use transform="translate(1131.812588 0)scale(0.996264)" xlink:href="#CMR17-6e"/>
     <use transform="translate(1182.707957 0)scale(0.996264)" xlink:href="#CMR17-61"/>
     <use transform="translate(1228.398434 0)scale(0.996264)" xlink:href="#CMR17-6e"/>
     <use transform="translate(1276.69135 0)scale(0.996264)" xlink:href="#CMR17-74"/>
     <use transform="translate(1311.972118 0)scale(0.996264)" xlink:href="#CMR17-73"/>
     <use transform="translate(1377.849422 0)scale(0.996264)" xlink:href="#CMR17-6f"/>
     <use transform="translate(1423.539899 0)scale(0.996264)" xlink:href="#CMR17-66"/>
     <use transform="translate(1481.089378 0)scale(0.996264)" xlink:href="#CMR17-50"/>
     <use transform="translate(1541.073225 0)scale(0.996264)" xlink:href="#CMR17-6f"/>
     <use transform="translate(1586.763702 0)scale(0.996264)" xlink:href="#CMR17-73"/>
     <use transform="translate(1622.565039 0)scale(0.996264)" xlink:href="#CMR17-74"/>
     <use transform="translate(1657.845807 0)scale(0.996264)" xlink:href="#CMR17-65"/>
     <use transform="translate(1698.331468 0)scale(0.996264)" xlink:href="#CMR17-72"/>
     <use transform="translate(1733.612235 0)scale(0.996264)" xlink:href="#CMR17-69"/>
     <use transform="translate(1758.483294 0)scale(0.996264)" xlink:href="#CMR17-6f"/>
     <use transform="translate(1804.173771 0)scale(0.996264)" xlink:href="#CMR17-72"/>
     <use transform="translate(1869.530505 0)scale(0.996264)" xlink:href="#CMR17-46"/>
     <use transform="translate(1921.707096 0)scale(0.996264)" xlink:href="#CMR17-75"/>
     <use transform="translate(1972.602466 0)scale(0.996264)" xlink:href="#CMR17-6e"/>
     <use transform="translate(2023.497836 0)scale(0.996264)" xlink:href="#CMR17-63"/>
     <use transform="translate(2063.983496 0)scale(0.996264)" xlink:href="#CMR17-74"/>
     <use transform="translate(2099.264264 0)scale(0.996264)" xlink:href="#CMR17-69"/>
     <use transform="translate(2124.135323 0)scale(0.996264)" xlink:href="#CMR17-6f"/>
     <use transform="translate(2169.8258 0)scale(0.996264)" xlink:href="#CMR17-6e"/>
    </g>
   </g>
   <g id="legend_1">
    <g id="patch_7">
     <path d="M 57.800217 113.224725 
L 235.436544 113.224725 
Q 237.351984 113.224725 237.351984 111.309285 
L 237.351984 30.215363 
Q 237.351984 28.299923 235.436544 28.299923 
L 57.800217 28.299923 
Q 55.884777 28.299923 55.884777 30.215363 
L 55.884777 111.309285 
Q 55.884777 113.224725 57.800217 113.224725 
z
" style="fill:#ffffff;opacity:0.8;stroke:#cccccc;stroke-linejoin:miter;"/>
    </g>
    <g id="line2d_31">
     <path d="M 59.715657 35.482823 
L 78.870057 35.482823 
" style="fill:none;stroke:#9acd32;stroke-linecap:round;stroke-width:2;"/>
    </g>
    <g id="line2d_32"/>
    <g id="text_19">
     <!-- LHS, $\boldsymbol{\Sigma}$ is not SPD -->
     <g style="fill:#262626;" transform="translate(86.531817 38.834843)scale(0.095772 -0.095772)">
      <defs>
       <path d="M 3590 3905 
C 3590 4192 3661 4192 4102 4192 
L 4102 4352 
C 3917 4352 3578 4352 3379 4352 
C 3181 4352 2842 4352 2656 4352 
L 2656 4192 
C 3098 4192 3168 4192 3168 3904 
L 3168 2341 
L 1261 2341 
L 1261 3904 
C 1261 4192 1331 4192 1773 4192 
L 1773 4352 
C 1587 4352 1248 4352 1050 4352 
C 851 4352 512 4352 326 4352 
L 326 4192 
C 768 4192 838 4192 838 3905 
L 838 447 
C 838 160 768 160 326 160 
L 326 0 
C 512 0 851 0 1050 0 
C 1248 0 1587 0 1773 0 
L 1773 160 
C 1331 160 1261 160 1261 446 
L 1261 2176 
L 3168 2176 
L 3168 446 
C 3168 160 3098 160 2656 160 
L 2656 0 
C 2842 0 3181 0 3379 0 
C 3578 0 3917 0 4102 0 
L 4102 160 
C 3661 160 3590 160 3590 447 
L 3590 3905 
z
" id="CMR17-48" transform="scale(0.015625)"/>
       <path d="M 2803 4290 
C 2803 4404 2797 4411 2758 4411 
C 2720 4411 2707 4385 2682 4328 
L 2490 3907 
C 2246 4257 1875 4416 1472 4416 
C 819 4416 294 3901 294 3253 
C 294 3056 339 2776 557 2510 
C 794 2218 1018 2167 1530 2033 
C 1722 1982 2042 1899 2106 1874 
C 2470 1722 2662 1341 2662 985 
C 2662 527 2336 38 1779 38 
C 1094 38 454 419 410 1311 
C 403 1413 397 1419 352 1419 
C 301 1419 294 1413 294 1285 
L 294 -1 
C 294 -115 301 -122 339 -122 
C 384 -122 397 -90 486 108 
C 493 127 493 140 614 381 
C 934 -39 1472 -128 1779 -128 
C 2477 -128 2970 451 2970 1124 
C 2970 1454 2848 1708 2778 1823 
C 2509 2230 2221 2306 1914 2382 
C 1869 2402 1856 2402 1498 2490 
C 1152 2579 1005 2624 845 2796 
C 666 2992 602 3196 602 3399 
C 602 3812 934 4263 1478 4263 
C 2157 4263 2579 3786 2675 2993 
C 2694 2878 2701 2872 2746 2872 
C 2803 2872 2803 2891 2803 2999 
L 2803 4290 
z
" id="CMR17-53" transform="scale(0.015625)"/>
       <path d="M 1011 102 
C 1024 45 1024 25 1024 -77 
C 1024 -463 896 -817 627 -1139 
C 595 -1170 595 -1183 595 -1197 
C 595 -1222 621 -1248 646 -1248 
C 685 -1248 1126 -799 1126 -87 
C 1126 124 1101 522 800 522 
C 659 522 538 427 538 261 
C 538 96 659 0 800 0 
C 877 0 960 32 1011 102 
z
" id="CMR17-2c" transform="scale(0.015625)"/>
       <path d="M 2944 2077 
C 2995 2129 3014 2141 3014 2186 
C 3014 2205 3014 2218 2963 2281 
L 1523 4096 
L 2886 4096 
C 3814 4096 4390 3937 4525 2861 
L 4794 2861 
L 4608 4371 
L 582 4371 
C 403 4371 397 4346 397 4166 
L 2246 1836 
L 467 204 
C 442 178 397 133 397 96 
C 397 0 499 0 582 0 
L 4608 0 
L 4794 1620 
L 4525 1620 
C 4397 517 3770 384 2861 384 
L 1094 384 
L 2944 2077 
z
" id="CMBX12-6" transform="scale(0.015625)"/>
      </defs>
      <use transform="scale(0.996264)" xlink:href="#CMR17-4c"/>
      <use transform="translate(57.381408 0)scale(0.996264)" xlink:href="#CMR17-48"/>
      <use transform="translate(126.453838 0)scale(0.996264)" xlink:href="#CMR17-53"/>
      <use transform="translate(177.349207 0)scale(0.996264)" xlink:href="#CMR17-2c"/>
      <use transform="translate(232.296232 0)scale(0.996264)" xlink:href="#CMBX12-6"/>
      <use transform="translate(343.318649 0)scale(0.996264)" xlink:href="#CMR17-69"/>
      <use transform="translate(368.189708 0)scale(0.996264)" xlink:href="#CMR17-73"/>
      <use transform="translate(434.067012 0)scale(0.996264)" xlink:href="#CMR17-6e"/>
      <use transform="translate(484.962382 0)scale(0.996264)" xlink:href="#CMR17-6f"/>
      <use transform="translate(530.652859 0)scale(0.996264)" xlink:href="#CMR17-74"/>
      <use transform="translate(596.009593 0)scale(0.996264)" xlink:href="#CMR17-53"/>
      <use transform="translate(646.904963 0)scale(0.996264)" xlink:href="#CMR17-50"/>
      <use transform="translate(709.491263 0)scale(0.996264)" xlink:href="#CMR17-44"/>
     </g>
    </g>
    <g id="line2d_33">
     <path d="M 59.715657 49.282751 
L 78.870057 49.282751 
" style="fill:none;stroke:#556b2f;stroke-linecap:round;stroke-width:2;"/>
    </g>
    <g id="line2d_34"/>
    <g id="text_20">
     <!-- LHS, $\boldsymbol{\Sigma}$ is SPD, $\gamma = \sfrac{1}{2}$ -->
     <g style="fill:#262626;" transform="translate(86.531817 52.634771)scale(0.095772 -0.095772)">
      <defs>
       <path d="M 2419 760 
C 2406 1071 2394 1561 2150 2133 
C 2022 2452 1805 2788 1338 2788 
C 550 2788 122 1790 122 1625 
C 122 1567 166 1567 186 1567 
C 243 1567 243 1580 275 1663 
C 410 2057 819 2368 1261 2368 
C 2150 2368 2278 1383 2278 754 
C 2278 352 2234 220 2195 92 
C 2074 -302 1862 -1090 1862 -1268 
C 1862 -1319 1882 -1376 1933 -1376 
C 2029 -1376 2086 -1166 2157 -912 
C 2310 -353 2349 -73 2381 181 
C 2400 334 2765 1384 3270 2382 
C 3315 2483 3405 2655 3405 2674 
C 3405 2680 3398 2725 3341 2725 
C 3328 2725 3296 2725 3283 2699 
C 3270 2687 3046 2254 2854 1822 
C 2758 1606 2630 1320 2419 760 
z
" id="CMMI12-d" transform="scale(0.015625)"/>
       <path d="M 4115 2017 
C 4211 2017 4307 2017 4307 2125 
C 4307 2240 4198 2240 4090 2240 
L 512 2240 
C 403 2240 294 2240 294 2125 
C 294 2017 390 2017 486 2017 
L 4115 2017 
z
M 4090 896 
C 4198 896 4307 896 4307 1011 
C 4307 1119 4211 1119 4115 1119 
L 486 1119 
C 390 1119 294 1119 294 1011 
C 294 896 403 896 512 896 
L 4090 896 
z
" id="CMR17-3d" transform="scale(0.015625)"/>
      </defs>
      <use transform="scale(0.996264)" xlink:href="#CMR17-4c"/>
      <use transform="translate(57.381408 0)scale(0.996264)" xlink:href="#CMR17-48"/>
      <use transform="translate(126.453838 0)scale(0.996264)" xlink:href="#CMR17-53"/>
      <use transform="translate(177.349207 0)scale(0.996264)" xlink:href="#CMR17-2c"/>
      <use transform="translate(232.296232 0)scale(0.996264)" xlink:href="#CMBX12-6"/>
      <use transform="translate(343.318649 0)scale(0.996264)" xlink:href="#CMR17-69"/>
      <use transform="translate(368.189708 0)scale(0.996264)" xlink:href="#CMR17-73"/>
      <use transform="translate(434.067012 0)scale(0.996264)" xlink:href="#CMR17-53"/>
      <use transform="translate(484.962382 0)scale(0.996264)" xlink:href="#CMR17-50"/>
      <use transform="translate(547.548682 0)scale(0.996264)" xlink:href="#CMR17-44"/>
      <use transform="translate(617.942238 0)scale(0.996264)" xlink:href="#CMR17-2c"/>
      <use transform="translate(672.889263 0)scale(0.996264)" xlink:href="#CMMI12-d"/>
      <use transform="translate(756.58184 0)scale(0.996264)" xlink:href="#CMR17-3d"/>
      <use transform="translate(855.970637 22.569463)scale(0.696174)" xlink:href="#CMR17-31"/>
      <use transform="translate(882.363607 0)scale(0.996264)" xlink:href="#CMMI12-3d"/>
      <use transform="translate(920.068922 0)scale(0.696174)" xlink:href="#CMR17-32"/>
     </g>
    </g>
    <g id="line2d_35">
     <path d="M 59.715657 63.160733 
L 78.870057 63.160733 
" style="fill:none;stroke:#556b2f;stroke-dasharray:7.4,3.2;stroke-dashoffset:0;stroke-width:2;"/>
    </g>
    <g id="line2d_36"/>
    <g id="text_21">
     <!-- LHS, $\boldsymbol{\Sigma}$ is SPD, $\gamma = 1$ -->
     <g style="fill:#262626;" transform="translate(86.531817 66.512753)scale(0.095772 -0.095772)">
      <use transform="scale(0.996264)" xlink:href="#CMR17-4c"/>
      <use transform="translate(57.381408 0)scale(0.996264)" xlink:href="#CMR17-48"/>
      <use transform="translate(126.453838 0)scale(0.996264)" xlink:href="#CMR17-53"/>
      <use transform="translate(177.349207 0)scale(0.996264)" xlink:href="#CMR17-2c"/>
      <use transform="translate(232.296232 0)scale(0.996264)" xlink:href="#CMBX12-6"/>
      <use transform="translate(343.318649 0)scale(0.996264)" xlink:href="#CMR17-69"/>
      <use transform="translate(368.189708 0)scale(0.996264)" xlink:href="#CMR17-73"/>
      <use transform="translate(434.067012 0)scale(0.996264)" xlink:href="#CMR17-53"/>
      <use transform="translate(484.962382 0)scale(0.996264)" xlink:href="#CMR17-50"/>
      <use transform="translate(547.548682 0)scale(0.996264)" xlink:href="#CMR17-44"/>
      <use transform="translate(617.942238 0)scale(0.996264)" xlink:href="#CMR17-2c"/>
      <use transform="translate(672.889263 0)scale(0.996264)" xlink:href="#CMMI12-d"/>
      <use transform="translate(756.58184 0)scale(0.996264)" xlink:href="#CMR17-3d"/>
      <use transform="translate(855.970637 0)scale(0.996264)" xlink:href="#CMR17-31"/>
     </g>
    </g>
    <g id="line2d_37">
     <path d="M 59.715657 76.960661 
L 78.870057 76.960661 
" style="fill:none;stroke:#cd5c5c;stroke-linecap:round;stroke-width:2;"/>
    </g>
    <g id="line2d_38"/>
    <g id="text_22">
     <!-- RHS, $\mathbf{X}$ is not orthogonal, $\gamma = \sfrac{1}{2}$ -->
     <g style="fill:#262626;" transform="translate(86.531817 80.312681)scale(0.095772 -0.095772)">
      <defs>
       <path d="M 2509 2146 
C 3117 2268 3629 2676 3629 3186 
C 3629 3785 2950 4326 2054 4326 
L 333 4326 
L 333 4160 
C 774 4160 845 4160 845 3873 
L 845 415 
C 845 128 774 128 333 128 
L 333 -26 
C 518 -26 851 -26 1050 -26 
C 1248 -26 1581 -26 1766 -26 
L 1766 128 
C 1325 128 1254 128 1254 417 
L 1254 2112 
L 2003 2112 
C 2368 2112 2573 1964 2662 1881 
C 2918 1632 2918 1459 2918 1024 
C 2918 595 2918 377 3110 160 
C 3354 -102 3680 -128 3821 -128 
C 4294 -128 4365 396 4365 503 
C 4365 540 4365 585 4307 585 
C 4256 585 4250 547 4250 522 
C 4218 112 4032 -26 3834 -26 
C 3482 -26 3443 375 3405 764 
C 3386 898 3373 993 3360 1133 
C 3322 1452 3270 1917 2509 2146 
z
M 1984 2214 
L 1254 2214 
L 1254 3913 
C 1254 4129 1267 4160 1523 4160 
L 1990 4160 
C 2522 4160 3142 3977 3142 3190 
C 3142 2372 2464 2214 1984 2214 
z
" id="CMR17-52" transform="scale(0.015625)"/>
       <path d="M 3008 2514 
L 4090 3957 
C 4154 4040 4179 4053 4390 4072 
C 4557 4091 4582 4091 4768 4091 
L 4934 4091 
L 4934 4365 
C 4787 4352 4275 4352 4096 4352 
C 3898 4352 3341 4352 3181 4365 
L 3181 4091 
C 3258 4091 3571 4091 3763 4014 
L 2829 2763 
L 1875 4091 
L 2406 4091 
L 2406 4352 
C 2176 4352 1574 4352 1312 4352 
C 1094 4352 461 4352 288 4365 
L 288 4091 
L 909 4091 
L 2330 2105 
L 1043 388 
C 986 311 966 292 742 272 
C 582 260 550 260 371 260 
L 198 260 
L 198 -13 
C 346 0 864 0 1043 0 
C 1242 0 1792 0 1952 -13 
L 1952 260 
C 1882 260 1555 260 1370 337 
L 2509 1856 
L 3661 260 
L 3130 260 
L 3130 0 
C 3334 0 3974 0 4218 0 
C 4422 0 5082 0 5242 -13 
L 5242 260 
L 4627 260 
L 3008 2514 
z
" id="CMBX12-58" transform="scale(0.015625)"/>
       <path d="M 2656 1933 
C 2656 2259 2592 2790 1837 2790 
C 1312 2790 1056 2368 979 2157 
L 973 2157 
L 973 4396 
L 211 4326 
L 211 4160 
C 589 4160 646 4122 646 3817 
L 646 426 
C 646 184 621 153 211 153 
L 211 -13 
C 365 0 646 0 813 0 
C 979 0 1267 0 1421 -13 
L 1421 153 
C 1011 153 986 178 986 428 
L 986 1658 
C 986 2247 1344 2688 1792 2688 
C 2266 2688 2317 2266 2317 1958 
L 2317 428 
C 2317 184 2291 153 1882 153 
L 1882 -13 
C 2035 0 2317 0 2483 0 
C 2650 0 2938 0 3091 -13 
L 3091 153 
C 2682 153 2656 178 2656 428 
L 2656 1933 
z
" id="CMR17-68" transform="scale(0.015625)"/>
       <path d="M 979 4396 
L 218 4326 
L 218 4160 
C 595 4160 653 4122 653 3817 
L 653 426 
C 653 184 627 153 218 153 
L 218 -13 
C 371 0 653 0 813 0 
C 979 0 1261 0 1414 -13 
L 1414 153 
C 1005 153 979 178 979 426 
L 979 4396 
z
" id="CMR17-6c" transform="scale(0.015625)"/>
      </defs>
      <use transform="scale(0.996264)" xlink:href="#CMR17-52"/>
      <use transform="translate(67.791102 0)scale(0.996264)" xlink:href="#CMR17-48"/>
      <use transform="translate(136.863532 0)scale(0.996264)" xlink:href="#CMR17-53"/>
      <use transform="translate(187.758902 0)scale(0.996264)" xlink:href="#CMR17-2c"/>
      <use transform="translate(242.705926 0)scale(0.996264)" xlink:href="#CMBX12-58"/>
      <use transform="translate(357.418287 0)scale(0.996264)" xlink:href="#CMR17-69"/>
      <use transform="translate(382.289346 0)scale(0.996264)" xlink:href="#CMR17-73"/>
      <use transform="translate(448.16665 0)scale(0.996264)" xlink:href="#CMR17-6e"/>
      <use transform="translate(499.06202 0)scale(0.996264)" xlink:href="#CMR17-6f"/>
      <use transform="translate(544.752497 0)scale(0.996264)" xlink:href="#CMR17-74"/>
      <use transform="translate(610.109231 0)scale(0.996264)" xlink:href="#CMR17-6f"/>
      <use transform="translate(655.799708 0)scale(0.996264)" xlink:href="#CMR17-72"/>
      <use transform="translate(691.080476 0)scale(0.996264)" xlink:href="#CMR17-74"/>
      <use transform="translate(726.361244 0)scale(0.996264)" xlink:href="#CMR17-68"/>
      <use transform="translate(777.256613 0)scale(0.996264)" xlink:href="#CMR17-6f"/>
      <use transform="translate(822.947091 0)scale(0.996264)" xlink:href="#CMR17-67"/>
      <use transform="translate(868.637568 0)scale(0.996264)" xlink:href="#CMR17-6f"/>
      <use transform="translate(914.328045 0)scale(0.996264)" xlink:href="#CMR17-6e"/>
      <use transform="translate(965.223415 0)scale(0.996264)" xlink:href="#CMR17-61"/>
      <use transform="translate(1010.913892 0)scale(0.996264)" xlink:href="#CMR17-6c"/>
      <use transform="translate(1035.78495 0)scale(0.996264)" xlink:href="#CMR17-2c"/>
      <use transform="translate(1090.731975 0)scale(0.996264)" xlink:href="#CMMI12-d"/>
      <use transform="translate(1174.424552 0)scale(0.996264)" xlink:href="#CMR17-3d"/>
      <use transform="translate(1273.813349 22.569463)scale(0.696174)" xlink:href="#CMR17-31"/>
      <use transform="translate(1300.206319 0)scale(0.996264)" xlink:href="#CMMI12-3d"/>
      <use transform="translate(1337.911634 0)scale(0.696174)" xlink:href="#CMR17-32"/>
     </g>
    </g>
    <g id="line2d_39">
     <path d="M 59.715657 90.838643 
L 78.870057 90.838643 
" style="fill:none;stroke:#cd5c5c;stroke-dasharray:7.4,3.2;stroke-dashoffset:0;stroke-width:2;"/>
    </g>
    <g id="line2d_40"/>
    <g id="text_23">
     <!-- RHS, $\mathbf{X}$ is not orthogonal, $\gamma = 1$ -->
     <g style="fill:#262626;" transform="translate(86.531817 94.190663)scale(0.095772 -0.095772)">
      <use transform="scale(0.996264)" xlink:href="#CMR17-52"/>
      <use transform="translate(67.791102 0)scale(0.996264)" xlink:href="#CMR17-48"/>
      <use transform="translate(136.863532 0)scale(0.996264)" xlink:href="#CMR17-53"/>
      <use transform="translate(187.758902 0)scale(0.996264)" xlink:href="#CMR17-2c"/>
      <use transform="translate(242.705926 0)scale(0.996264)" xlink:href="#CMBX12-58"/>
      <use transform="translate(357.418287 0)scale(0.996264)" xlink:href="#CMR17-69"/>
      <use transform="translate(382.289346 0)scale(0.996264)" xlink:href="#CMR17-73"/>
      <use transform="translate(448.16665 0)scale(0.996264)" xlink:href="#CMR17-6e"/>
      <use transform="translate(499.06202 0)scale(0.996264)" xlink:href="#CMR17-6f"/>
      <use transform="translate(544.752497 0)scale(0.996264)" xlink:href="#CMR17-74"/>
      <use transform="translate(610.109231 0)scale(0.996264)" xlink:href="#CMR17-6f"/>
      <use transform="translate(655.799708 0)scale(0.996264)" xlink:href="#CMR17-72"/>
      <use transform="translate(691.080476 0)scale(0.996264)" xlink:href="#CMR17-74"/>
      <use transform="translate(726.361244 0)scale(0.996264)" xlink:href="#CMR17-68"/>
      <use transform="translate(777.256613 0)scale(0.996264)" xlink:href="#CMR17-6f"/>
      <use transform="translate(822.947091 0)scale(0.996264)" xlink:href="#CMR17-67"/>
      <use transform="translate(868.637568 0)scale(0.996264)" xlink:href="#CMR17-6f"/>
      <use transform="translate(914.328045 0)scale(0.996264)" xlink:href="#CMR17-6e"/>
      <use transform="translate(965.223415 0)scale(0.996264)" xlink:href="#CMR17-61"/>
      <use transform="translate(1010.913892 0)scale(0.996264)" xlink:href="#CMR17-6c"/>
      <use transform="translate(1035.78495 0)scale(0.996264)" xlink:href="#CMR17-2c"/>
      <use transform="translate(1090.731975 0)scale(0.996264)" xlink:href="#CMMI12-d"/>
      <use transform="translate(1174.424552 0)scale(0.996264)" xlink:href="#CMR17-3d"/>
      <use transform="translate(1273.813349 0)scale(0.996264)" xlink:href="#CMR17-31"/>
     </g>
    </g>
    <g id="line2d_41">
     <path d="M 59.715657 104.186554 
L 78.870057 104.186554 
" style="fill:none;stroke:#800000;stroke-linecap:round;stroke-width:2;"/>
    </g>
    <g id="line2d_42"/>
    <g id="text_24">
     <!-- RHS, $\mathbf{X}$ is orthogonal -->
     <g style="fill:#262626;" transform="translate(86.531817 107.538574)scale(0.095772 -0.095772)">
      <use transform="scale(0.996264)" xlink:href="#CMR17-52"/>
      <use transform="translate(67.791102 0)scale(0.996264)" xlink:href="#CMR17-48"/>
      <use transform="translate(136.863532 0)scale(0.996264)" xlink:href="#CMR17-53"/>
      <use transform="translate(187.758902 0)scale(0.996264)" xlink:href="#CMR17-2c"/>
      <use transform="translate(242.705926 0)scale(0.996264)" xlink:href="#CMBX12-58"/>
      <use transform="translate(357.418287 0)scale(0.996264)" xlink:href="#CMR17-69"/>
      <use transform="translate(382.289346 0)scale(0.996264)" xlink:href="#CMR17-73"/>
      <use transform="translate(448.16665 0)scale(0.996264)" xlink:href="#CMR17-6f"/>
      <use transform="translate(493.857127 0)scale(0.996264)" xlink:href="#CMR17-72"/>
      <use transform="translate(529.137895 0)scale(0.996264)" xlink:href="#CMR17-74"/>
      <use transform="translate(564.418663 0)scale(0.996264)" xlink:href="#CMR17-68"/>
      <use transform="translate(615.314032 0)scale(0.996264)" xlink:href="#CMR17-6f"/>
      <use transform="translate(661.004509 0)scale(0.996264)" xlink:href="#CMR17-67"/>
      <use transform="translate(706.694987 0)scale(0.996264)" xlink:href="#CMR17-6f"/>
      <use transform="translate(752.385464 0)scale(0.996264)" xlink:href="#CMR17-6e"/>
      <use transform="translate(803.280833 0)scale(0.996264)" xlink:href="#CMR17-61"/>
      <use transform="translate(848.971311 0)scale(0.996264)" xlink:href="#CMR17-6c"/>
     </g>
    </g>
   </g>
  </g>
 </g>
 <defs>
  <clipPath id="p8083175531">
   <rect height="232.229854" width="321.611905" x="51.096177" y="23.511323"/>
  </clipPath>
 </defs>
</svg>
