<?xml version="1.0" encoding="utf-8" standalone="no"?>
<!DOCTYPE svg PUBLIC "-//W3C//DTD SVG 1.1//EN"
  "http://www.w3.org/Graphics/SVG/1.1/DTD/svg11.dtd">
<svg height="301.392pt" version="1.1" viewBox="0 0 387.792 301.392" width="387.792pt" xmlns="http://www.w3.org/2000/svg" xmlns:xlink="http://www.w3.org/1999/xlink">
 <metadata>
  <rdf:RDF xmlns:cc="http://creativecommons.org/ns#" xmlns:dc="http://purl.org/dc/elements/1.1/" xmlns:rdf="http://www.w3.org/1999/02/22-rdf-syntax-ns#">
   <cc:Work>
    <dc:type rdf:resource="http://purl.org/dc/dcmitype/StillImage"/>
    <dc:date>2022-02-21T16:02:54.675498</dc:date>
    <dc:format>image/svg+xml</dc:format>
    <dc:creator>
     <cc:Agent>
      <dc:title>Matplotlib v3.4.2, https://matplotlib.org/</dc:title>
     </cc:Agent>
    </dc:creator>
   </cc:Work>
  </rdf:RDF>
 </metadata>
 <defs>
  <style type="text/css">*{stroke-linecap:butt;stroke-linejoin:round;}</style>
 </defs>
 <g id="figure_1">
  <g id="patch_1">
   <path d="M 0 301.392 
L 387.792 301.392 
L 387.792 0 
L 0 0 
z
" style="fill:none;"/>
  </g>
  <g id="axes_1">
   <g id="patch_2">
    <path d="M 52.958501 255.741178 
L 372.708082 255.741178 
L 372.708082 23.511323 
L 52.958501 23.511323 
z
" style="fill:none;"/>
   </g>
   <g id="matplotlib.axis_1">
    <g id="xtick_1">
     <g id="line2d_1">
      <defs>
       <path d="M 0 0 
L 0 6 
" id="m4caa9dda45" style="stroke:#262626;stroke-width:1.25;"/>
      </defs>
      <g>
       <use style="fill:#262626;stroke:#262626;stroke-width:1.25;" x="52.958501" xlink:href="#m4caa9dda45" y="255.741178"/>
      </g>
     </g>
     <g id="text_1">
      <!-- $\mathdefault{0.0}$ -->
      <g style="fill:#262626;" transform="translate(45.074583 273.993057)scale(0.1265 -0.1265)">
       <defs>
        <path d="M 2688 2025 
C 2688 2416 2682 3080 2413 3591 
C 2176 4039 1798 4198 1466 4198 
C 1158 4198 768 4058 525 3597 
C 269 3118 243 2524 243 2025 
C 243 1661 250 1106 448 619 
C 723 -39 1216 -128 1466 -128 
C 1760 -128 2208 -7 2470 600 
C 2662 1042 2688 1559 2688 2025 
z
M 1466 -26 
C 1056 -26 813 325 723 812 
C 653 1188 653 1738 653 2096 
C 653 2588 653 2997 736 3387 
C 858 3929 1216 4096 1466 4096 
C 1728 4096 2067 3923 2189 3400 
C 2272 3036 2278 2607 2278 2096 
C 2278 1680 2278 1169 2202 792 
C 2067 95 1690 -26 1466 -26 
z
" id="CMR17-30" transform="scale(0.015625)"/>
        <path d="M 1178 307 
C 1178 492 1024 619 870 619 
C 685 619 557 466 557 313 
C 557 128 710 0 864 0 
C 1050 0 1178 153 1178 307 
z
" id="CMMI12-3a" transform="scale(0.015625)"/>
       </defs>
       <use transform="scale(0.996264)" xlink:href="#CMR17-30"/>
       <use transform="translate(45.690477 0)scale(0.996264)" xlink:href="#CMMI12-3a"/>
       <use transform="translate(72.787654 0)scale(0.996264)" xlink:href="#CMR17-30"/>
      </g>
     </g>
    </g>
    <g id="xtick_2">
     <g id="line2d_2">
      <g>
       <use style="fill:#262626;stroke:#262626;stroke-width:1.25;" x="116.908418" xlink:href="#m4caa9dda45" y="255.741178"/>
      </g>
     </g>
     <g id="text_2">
      <!-- $\mathdefault{0.2}$ -->
      <g style="fill:#262626;" transform="translate(109.0245 273.993057)scale(0.1265 -0.1265)">
       <defs>
        <path d="M 2669 989 
L 2554 989 
C 2490 536 2438 459 2413 420 
C 2381 369 1920 369 1830 369 
L 602 369 
C 832 619 1280 1072 1824 1597 
C 2214 1967 2669 2402 2669 3035 
C 2669 3790 2067 4224 1395 4224 
C 691 4224 262 3604 262 3030 
C 262 2780 448 2748 525 2748 
C 589 2748 781 2787 781 3010 
C 781 3207 614 3264 525 3264 
C 486 3264 448 3258 422 3245 
C 544 3790 915 4058 1306 4058 
C 1862 4058 2227 3617 2227 3035 
C 2227 2479 1901 2000 1536 1584 
L 262 146 
L 262 0 
L 2515 0 
L 2669 989 
z
" id="CMR17-32" transform="scale(0.015625)"/>
       </defs>
       <use transform="scale(0.996264)" xlink:href="#CMR17-30"/>
       <use transform="translate(45.690477 0)scale(0.996264)" xlink:href="#CMMI12-3a"/>
       <use transform="translate(72.787654 0)scale(0.996264)" xlink:href="#CMR17-32"/>
      </g>
     </g>
    </g>
    <g id="xtick_3">
     <g id="line2d_3">
      <g>
       <use style="fill:#262626;stroke:#262626;stroke-width:1.25;" x="180.858334" xlink:href="#m4caa9dda45" y="255.741178"/>
      </g>
     </g>
     <g id="text_3">
      <!-- $\mathdefault{0.4}$ -->
      <g style="fill:#262626;" transform="translate(172.974416 273.993057)scale(0.1265 -0.1265)">
       <defs>
        <path d="M 2150 4122 
C 2150 4256 2144 4256 2029 4256 
L 128 1254 
L 128 1088 
L 1779 1088 
L 1779 457 
C 1779 224 1766 160 1318 160 
L 1197 160 
L 1197 0 
C 1402 0 1747 0 1965 0 
C 2182 0 2528 0 2733 0 
L 2733 160 
L 2611 160 
C 2163 160 2150 224 2150 457 
L 2150 1088 
L 2803 1088 
L 2803 1254 
L 2150 1254 
L 2150 4122 
z
M 1798 3703 
L 1798 1254 
L 256 1254 
L 1798 3703 
z
" id="CMR17-34" transform="scale(0.015625)"/>
       </defs>
       <use transform="scale(0.996264)" xlink:href="#CMR17-30"/>
       <use transform="translate(45.690477 0)scale(0.996264)" xlink:href="#CMMI12-3a"/>
       <use transform="translate(72.787654 0)scale(0.996264)" xlink:href="#CMR17-34"/>
      </g>
     </g>
    </g>
    <g id="xtick_4">
     <g id="line2d_4">
      <g>
       <use style="fill:#262626;stroke:#262626;stroke-width:1.25;" x="244.80825" xlink:href="#m4caa9dda45" y="255.741178"/>
      </g>
     </g>
     <g id="text_4">
      <!-- $\mathdefault{0.6}$ -->
      <g style="fill:#262626;" transform="translate(236.924332 273.993057)scale(0.1265 -0.1265)">
       <defs>
        <path d="M 678 2176 
C 678 3690 1395 4032 1811 4032 
C 1946 4032 2272 4009 2400 3776 
C 2298 3776 2106 3776 2106 3553 
C 2106 3381 2246 3323 2336 3323 
C 2394 3323 2566 3348 2566 3560 
C 2566 3954 2246 4179 1805 4179 
C 1043 4179 243 3390 243 1984 
C 243 253 966 -128 1478 -128 
C 2099 -128 2688 427 2688 1283 
C 2688 2081 2170 2662 1517 2662 
C 1126 2662 838 2407 678 1960 
L 678 2176 
z
M 1478 25 
C 691 25 691 1200 691 1436 
C 691 1896 909 2560 1504 2560 
C 1613 2560 1926 2560 2138 2120 
C 2253 1870 2253 1609 2253 1289 
C 2253 944 2253 690 2118 434 
C 1978 171 1773 25 1478 25 
z
" id="CMR17-36" transform="scale(0.015625)"/>
       </defs>
       <use transform="scale(0.996264)" xlink:href="#CMR17-30"/>
       <use transform="translate(45.690477 0)scale(0.996264)" xlink:href="#CMMI12-3a"/>
       <use transform="translate(72.787654 0)scale(0.996264)" xlink:href="#CMR17-36"/>
      </g>
     </g>
    </g>
    <g id="xtick_5">
     <g id="line2d_5">
      <g>
       <use style="fill:#262626;stroke:#262626;stroke-width:1.25;" x="308.758166" xlink:href="#m4caa9dda45" y="255.741178"/>
      </g>
     </g>
     <g id="text_5">
      <!-- $\mathdefault{0.8}$ -->
      <g style="fill:#262626;" transform="translate(300.874248 273.993057)scale(0.1265 -0.1265)">
       <defs>
        <path d="M 1741 2264 
C 2144 2467 2554 2773 2554 3263 
C 2554 3841 1990 4179 1472 4179 
C 890 4179 378 3759 378 3180 
C 378 3021 416 2747 666 2505 
C 730 2442 998 2251 1171 2130 
C 883 1983 211 1634 211 934 
C 211 279 838 -128 1459 -128 
C 2144 -128 2720 362 2720 1010 
C 2720 1590 2330 1857 2074 2029 
L 1741 2264 
z
M 902 2822 
C 851 2854 595 3051 595 3351 
C 595 3739 998 4032 1459 4032 
C 1965 4032 2336 3676 2336 3262 
C 2336 2669 1670 2331 1638 2331 
C 1632 2331 1626 2331 1574 2370 
L 902 2822 
z
M 2080 1519 
C 2176 1449 2483 1240 2483 851 
C 2483 381 2010 25 1472 25 
C 890 25 448 438 448 940 
C 448 1443 838 1862 1280 2060 
L 2080 1519 
z
" id="CMR17-38" transform="scale(0.015625)"/>
       </defs>
       <use transform="scale(0.996264)" xlink:href="#CMR17-30"/>
       <use transform="translate(45.690477 0)scale(0.996264)" xlink:href="#CMMI12-3a"/>
       <use transform="translate(72.787654 0)scale(0.996264)" xlink:href="#CMR17-38"/>
      </g>
     </g>
    </g>
    <g id="xtick_6">
     <g id="line2d_6">
      <g>
       <use style="fill:#262626;stroke:#262626;stroke-width:1.25;" x="372.708082" xlink:href="#m4caa9dda45" y="255.741178"/>
      </g>
     </g>
     <g id="text_6">
      <!-- $\mathdefault{1.0}$ -->
      <g style="fill:#262626;" transform="translate(364.824164 273.993057)scale(0.1265 -0.1265)">
       <defs>
        <path d="M 1702 4058 
C 1702 4192 1696 4192 1606 4192 
C 1357 3916 979 3827 621 3827 
C 602 3827 570 3827 563 3808 
C 557 3795 557 3782 557 3648 
C 755 3648 1088 3686 1344 3839 
L 1344 461 
C 1344 236 1331 160 781 160 
L 589 160 
L 589 0 
C 896 0 1216 0 1523 0 
C 1830 0 2150 0 2458 0 
L 2458 160 
L 2266 160 
C 1715 160 1702 230 1702 458 
L 1702 4058 
z
" id="CMR17-31" transform="scale(0.015625)"/>
       </defs>
       <use transform="scale(0.996264)" xlink:href="#CMR17-31"/>
       <use transform="translate(45.690477 0)scale(0.996264)" xlink:href="#CMMI12-3a"/>
       <use transform="translate(72.787654 0)scale(0.996264)" xlink:href="#CMR17-30"/>
      </g>
     </g>
    </g>
    <g id="text_7">
     <!-- $m/n$ -->
     <g style="fill:#262626;" transform="translate(199.562379 290.754892)scale(0.138 -0.138)">
      <defs>
       <path d="M 1318 1871 
C 1331 1910 1491 2229 1728 2433 
C 1894 2586 2112 2689 2362 2689 
C 2618 2689 2707 2497 2707 2242 
C 2707 2203 2707 2076 2630 1775 
L 2470 1118 
C 2419 926 2298 453 2285 383 
C 2259 287 2221 121 2221 96 
C 2221 6 2291 -64 2387 -64 
C 2579 -64 2611 83 2669 313 
L 3053 1839 
C 3066 1890 3398 2689 4102 2689 
C 4358 2689 4448 2497 4448 2242 
C 4448 1884 4198 1188 4058 805 
C 4000 651 3968 568 3968 453 
C 3968 166 4166 -64 4474 -64 
C 5069 -64 5293 875 5293 913 
C 5293 945 5267 971 5229 971 
C 5171 971 5165 952 5133 843 
C 4986 332 4749 64 4493 64 
C 4429 64 4326 64 4326 269 
C 4326 436 4403 640 4429 710 
C 4544 1018 4832 1773 4832 2145 
C 4832 2528 4608 2816 4122 2816 
C 3693 2816 3347 2574 3091 2197 
C 3072 2542 2861 2816 2381 2816 
C 1811 2816 1510 2415 1395 2255 
C 1376 2618 1114 2816 832 2816 
C 646 2816 499 2727 378 2484 
C 262 2254 173 1865 173 1839 
C 173 1814 198 1782 243 1782 
C 294 1782 301 1788 339 1935 
C 435 2312 557 2689 813 2689 
C 960 2689 1011 2586 1011 2395 
C 1011 2254 947 2005 902 1807 
L 723 1118 
C 698 996 627 709 595 594 
C 550 428 480 128 480 96 
C 480 6 550 -64 646 -64 
C 723 -64 813 -26 864 70 
C 877 102 934 326 966 453 
L 1107 1028 
L 1318 1871 
z
" id="CMMI12-6d" transform="scale(0.015625)"/>
       <path d="M 2746 4562 
C 2746 4569 2784 4666 2784 4678 
C 2784 4755 2720 4800 2669 4800 
C 2637 4800 2579 4800 2528 4659 
L 384 -1363 
C 384 -1370 346 -1465 346 -1478 
C 346 -1555 410 -1600 461 -1600 
C 499 -1600 557 -1593 602 -1459 
L 2746 4562 
z
" id="CMMI12-3d" transform="scale(0.015625)"/>
       <path d="M 1318 1871 
C 1331 1910 1491 2229 1728 2433 
C 1894 2586 2112 2689 2362 2689 
C 2618 2689 2707 2497 2707 2242 
C 2707 1878 2445 1150 2317 805 
C 2259 651 2227 568 2227 453 
C 2227 166 2426 -64 2733 -64 
C 3328 -64 3552 875 3552 913 
C 3552 945 3526 971 3488 971 
C 3430 971 3424 952 3392 843 
C 3245 319 3002 64 2752 64 
C 2688 64 2586 64 2586 269 
C 2586 429 2656 621 2694 710 
C 2822 1063 3091 1780 3091 2145 
C 3091 2528 2867 2816 2381 2816 
C 1811 2816 1510 2415 1395 2255 
C 1376 2618 1114 2816 832 2816 
C 627 2816 486 2695 378 2478 
C 262 2248 173 1865 173 1839 
C 173 1814 198 1782 243 1782 
C 294 1782 301 1788 339 1935 
C 442 2325 557 2689 813 2689 
C 960 2689 1011 2586 1011 2395 
C 1011 2254 947 2005 902 1807 
L 723 1118 
C 698 996 627 709 595 594 
C 550 428 480 128 480 96 
C 480 6 550 -64 646 -64 
C 723 -64 813 -26 864 70 
C 877 102 934 326 966 453 
L 1107 1028 
L 1318 1871 
z
" id="CMMI12-6e" transform="scale(0.015625)"/>
      </defs>
      <use transform="scale(0.996264)" xlink:href="#CMMI12-6d"/>
      <use transform="translate(85.327224 0)scale(0.996264)" xlink:href="#CMMI12-3d"/>
      <use transform="translate(134.102143 0)scale(0.996264)" xlink:href="#CMMI12-6e"/>
     </g>
    </g>
   </g>
   <g id="matplotlib.axis_2">
    <g id="ytick_1">
     <g id="line2d_7">
      <path clip-path="url(#p08e4975416)" d="M 52.958501 255.741178 
L 372.708082 255.741178 
" style="fill:none;stroke:#cccccc;stroke-linecap:round;"/>
     </g>
     <g id="line2d_8">
      <defs>
       <path d="M 0 0 
L -6 0 
" id="m063172220d" style="stroke:#262626;stroke-width:1.25;"/>
      </defs>
      <g>
       <use style="fill:#262626;stroke:#262626;stroke-width:1.25;" x="52.958501" xlink:href="#m063172220d" y="255.741178"/>
      </g>
     </g>
     <g id="text_8">
      <!-- $\mathdefault{0}$ -->
      <g style="fill:#262626;" transform="translate(37.288478 260.117117)scale(0.1265 -0.1265)">
       <use transform="scale(0.996264)" xlink:href="#CMR17-30"/>
      </g>
     </g>
    </g>
    <g id="ytick_2">
     <g id="line2d_9">
      <path clip-path="url(#p08e4975416)" d="M 52.958501 209.295207 
L 372.708082 209.295207 
" style="fill:none;stroke:#cccccc;stroke-linecap:round;"/>
     </g>
     <g id="line2d_10">
      <g>
       <use style="fill:#262626;stroke:#262626;stroke-width:1.25;" x="52.958501" xlink:href="#m063172220d" y="209.295207"/>
      </g>
     </g>
     <g id="text_9">
      <!-- $\mathdefault{100}$ -->
      <g style="fill:#262626;" transform="translate(24.948431 213.671146)scale(0.1265 -0.1265)">
       <use transform="scale(0.996264)" xlink:href="#CMR17-31"/>
       <use transform="translate(45.690477 0)scale(0.996264)" xlink:href="#CMR17-30"/>
       <use transform="translate(91.380954 0)scale(0.996264)" xlink:href="#CMR17-30"/>
      </g>
     </g>
    </g>
    <g id="ytick_3">
     <g id="line2d_11">
      <path clip-path="url(#p08e4975416)" d="M 52.958501 162.849236 
L 372.708082 162.849236 
" style="fill:none;stroke:#cccccc;stroke-linecap:round;"/>
     </g>
     <g id="line2d_12">
      <g>
       <use style="fill:#262626;stroke:#262626;stroke-width:1.25;" x="52.958501" xlink:href="#m063172220d" y="162.849236"/>
      </g>
     </g>
     <g id="text_10">
      <!-- $\mathdefault{200}$ -->
      <g style="fill:#262626;" transform="translate(24.948431 167.225175)scale(0.1265 -0.1265)">
       <use transform="scale(0.996264)" xlink:href="#CMR17-32"/>
       <use transform="translate(45.690477 0)scale(0.996264)" xlink:href="#CMR17-30"/>
       <use transform="translate(91.380954 0)scale(0.996264)" xlink:href="#CMR17-30"/>
      </g>
     </g>
    </g>
    <g id="ytick_4">
     <g id="line2d_13">
      <path clip-path="url(#p08e4975416)" d="M 52.958501 116.403265 
L 372.708082 116.403265 
" style="fill:none;stroke:#cccccc;stroke-linecap:round;"/>
     </g>
     <g id="line2d_14">
      <g>
       <use style="fill:#262626;stroke:#262626;stroke-width:1.25;" x="52.958501" xlink:href="#m063172220d" y="116.403265"/>
      </g>
     </g>
     <g id="text_11">
      <!-- $\mathdefault{300}$ -->
      <g style="fill:#262626;" transform="translate(24.948431 120.779205)scale(0.1265 -0.1265)">
       <defs>
        <path d="M 1414 2157 
C 1984 2157 2234 1662 2234 1090 
C 2234 320 1824 25 1453 25 
C 1114 25 563 194 390 693 
C 422 680 454 680 486 680 
C 640 680 755 782 755 948 
C 755 1133 614 1216 486 1216 
C 378 1216 211 1165 211 926 
C 211 335 787 -128 1466 -128 
C 2176 -128 2720 430 2720 1085 
C 2720 1707 2208 2157 1600 2227 
C 2086 2328 2554 2756 2554 3329 
C 2554 3820 2048 4179 1472 4179 
C 890 4179 378 3829 378 3329 
C 378 3110 544 3072 627 3072 
C 762 3072 877 3155 877 3321 
C 877 3486 762 3569 627 3569 
C 602 3569 570 3569 544 3557 
C 730 3959 1235 4032 1459 4032 
C 1683 4032 2106 3925 2106 3320 
C 2106 3143 2080 2828 1862 2550 
C 1670 2304 1453 2304 1242 2284 
C 1210 2284 1062 2269 1037 2269 
C 992 2263 966 2257 966 2208 
C 966 2163 973 2157 1101 2157 
L 1414 2157 
z
" id="CMR17-33" transform="scale(0.015625)"/>
       </defs>
       <use transform="scale(0.996264)" xlink:href="#CMR17-33"/>
       <use transform="translate(45.690477 0)scale(0.996264)" xlink:href="#CMR17-30"/>
       <use transform="translate(91.380954 0)scale(0.996264)" xlink:href="#CMR17-30"/>
      </g>
     </g>
    </g>
    <g id="ytick_5">
     <g id="line2d_15">
      <path clip-path="url(#p08e4975416)" d="M 52.958501 69.957294 
L 372.708082 69.957294 
" style="fill:none;stroke:#cccccc;stroke-linecap:round;"/>
     </g>
     <g id="line2d_16">
      <g>
       <use style="fill:#262626;stroke:#262626;stroke-width:1.25;" x="52.958501" xlink:href="#m063172220d" y="69.957294"/>
      </g>
     </g>
     <g id="text_12">
      <!-- $\mathdefault{400}$ -->
      <g style="fill:#262626;" transform="translate(24.948431 74.333234)scale(0.1265 -0.1265)">
       <use transform="scale(0.996264)" xlink:href="#CMR17-34"/>
       <use transform="translate(45.690477 0)scale(0.996264)" xlink:href="#CMR17-30"/>
       <use transform="translate(91.380954 0)scale(0.996264)" xlink:href="#CMR17-30"/>
      </g>
     </g>
    </g>
    <g id="ytick_6">
     <g id="line2d_17">
      <path clip-path="url(#p08e4975416)" d="M 52.958501 23.511323 
L 372.708082 23.511323 
" style="fill:none;stroke:#cccccc;stroke-linecap:round;"/>
     </g>
     <g id="line2d_18">
      <g>
       <use style="fill:#262626;stroke:#262626;stroke-width:1.25;" x="52.958501" xlink:href="#m063172220d" y="23.511323"/>
      </g>
     </g>
     <g id="text_13">
      <!-- $\mathdefault{500}$ -->
      <g style="fill:#262626;" transform="translate(24.948431 27.887263)scale(0.1265 -0.1265)">
       <defs>
        <path d="M 730 3692 
C 794 3666 1056 3584 1325 3584 
C 1920 3584 2246 3911 2432 4100 
C 2432 4157 2432 4192 2394 4192 
C 2387 4192 2374 4192 2323 4163 
C 2099 4058 1837 3973 1517 3973 
C 1325 3973 1037 3999 723 4139 
C 653 4171 640 4171 634 4171 
C 602 4171 595 4164 595 4037 
L 595 2203 
C 595 2089 595 2057 659 2057 
C 691 2057 704 2070 736 2114 
C 941 2401 1222 2522 1542 2522 
C 1766 2522 2246 2382 2246 1289 
C 2246 1085 2246 715 2054 421 
C 1894 159 1645 25 1370 25 
C 947 25 518 320 403 814 
C 429 807 480 795 506 795 
C 589 795 749 840 749 1038 
C 749 1210 627 1280 506 1280 
C 358 1280 262 1190 262 1011 
C 262 454 704 -128 1382 -128 
C 2042 -128 2669 440 2669 1264 
C 2669 2030 2170 2624 1549 2624 
C 1222 2624 947 2503 730 2274 
L 730 3692 
z
" id="CMR17-35" transform="scale(0.015625)"/>
       </defs>
       <use transform="scale(0.996264)" xlink:href="#CMR17-35"/>
       <use transform="translate(45.690477 0)scale(0.996264)" xlink:href="#CMR17-30"/>
       <use transform="translate(91.380954 0)scale(0.996264)" xlink:href="#CMR17-30"/>
      </g>
     </g>
    </g>
    <g id="text_14">
     <!-- Process Time (ms) -->
     <g style="fill:#262626;" transform="translate(17.511323 194.987015)rotate(-90)scale(0.138 -0.138)">
      <defs>
       <path d="M 1267 2042 
L 2291 2042 
C 3117 2042 3718 2578 3718 3184 
C 3718 3791 3130 4352 2291 4352 
L 333 4352 
L 333 4186 
C 774 4186 845 4186 845 3899 
L 845 446 
C 845 160 774 160 333 160 
L 333 0 
C 518 0 858 0 1056 0 
C 1254 0 1594 0 1779 0 
L 1779 160 
C 1338 160 1267 160 1267 446 
L 1267 2042 
z
M 1254 2176 
L 1254 3938 
C 1254 4155 1267 4186 1523 4186 
L 2170 4186 
C 2995 4186 3232 3714 3232 3184 
C 3232 2604 2950 2176 2170 2176 
L 1254 2176 
z
" id="CMR17-50" transform="scale(0.015625)"/>
       <path d="M 960 1497 
C 960 2112 1222 2688 1702 2688 
C 1747 2688 1792 2682 1837 2662 
C 1837 2662 1696 2617 1696 2452 
C 1696 2298 1818 2234 1914 2234 
C 1990 2234 2131 2279 2131 2458 
C 2131 2663 1926 2790 1709 2790 
C 1222 2790 1011 2317 947 2093 
L 941 2093 
L 941 2790 
L 198 2720 
L 198 2554 
C 576 2554 634 2515 634 2208 
L 634 428 
C 634 184 608 153 198 153 
L 198 -13 
C 352 0 646 0 813 0 
C 998 0 1325 0 1498 -13 
L 1498 153 
C 1037 153 960 153 960 440 
L 960 1497 
z
" id="CMR17-72" transform="scale(0.015625)"/>
       <path d="M 2758 1356 
C 2758 2176 2163 2816 1466 2816 
C 768 2816 173 2176 173 1356 
C 173 551 768 -64 1466 -64 
C 2163 -64 2758 551 2758 1356 
z
M 1466 51 
C 1165 51 909 230 762 480 
C 602 767 582 1126 582 1408 
C 582 1677 595 2010 762 2298 
C 890 2509 1139 2714 1466 2714 
C 1754 2714 1997 2554 2150 2330 
C 2349 2029 2349 1607 2349 1408 
C 2349 1158 2336 775 2163 467 
C 1984 173 1709 51 1466 51 
z
" id="CMR17-6f" transform="scale(0.015625)"/>
       <path d="M 2234 2240 
C 2112 2240 1933 2240 1933 2017 
C 1933 1838 2080 1787 2163 1787 
C 2208 1787 2394 1807 2394 2024 
C 2394 2467 1958 2803 1466 2803 
C 787 2803 211 2178 211 1363 
C 211 516 813 -64 1466 -64 
C 2259 -64 2458 677 2458 748 
C 2458 774 2451 793 2406 793 
C 2362 793 2355 787 2330 703 
C 2163 180 1798 51 1523 51 
C 1114 51 621 427 621 1369 
C 621 2338 1094 2688 1472 2688 
C 1722 2688 2093 2573 2234 2240 
z
" id="CMR17-63" transform="scale(0.015625)"/>
       <path d="M 2438 1472 
C 2464 1498 2464 1511 2464 1576 
C 2464 2238 2118 2816 1389 2816 
C 710 2816 173 2169 173 1383 
C 173 551 781 -64 1459 -64 
C 2176 -64 2458 607 2458 740 
C 2458 784 2419 784 2406 784 
C 2362 784 2355 771 2330 696 
C 2189 265 1837 51 1504 51 
C 1229 51 954 203 781 480 
C 582 803 582 1176 582 1472 
L 2438 1472 
z
M 589 1568 
C 634 2505 1126 2714 1382 2714 
C 1818 2714 2112 2297 2118 1568 
L 589 1568 
z
" id="CMR17-65" transform="scale(0.015625)"/>
       <path d="M 1978 2697 
C 1978 2813 1971 2819 1933 2819 
C 1907 2819 1901 2813 1824 2717 
C 1805 2691 1747 2626 1728 2601 
C 1523 2819 1235 2819 1126 2819 
C 416 2819 160 2447 160 2076 
C 160 1498 813 1365 998 1325 
C 1402 1243 1542 1217 1677 1101 
C 1760 1025 1901 884 1901 654 
C 1901 384 1747 38 1158 38 
C 602 38 403 460 288 1021 
C 269 1110 269 1117 218 1117 
C 166 1117 160 1110 160 983 
L 160 63 
C 160 -51 166 -58 205 -58 
C 237 -58 243 -51 275 0 
C 314 57 410 211 448 276 
C 576 103 800 -64 1158 -64 
C 1792 -64 2131 283 2131 784 
C 2131 1112 1958 1285 1875 1362 
C 1683 1561 1459 1606 1190 1657 
C 838 1735 390 1825 390 2217 
C 390 2383 480 2737 1126 2737 
C 1811 2737 1850 2094 1862 1888 
C 1869 1856 1901 1849 1920 1849 
C 1978 1849 1978 1869 1978 1978 
L 1978 2697 
z
" id="CMR17-73" transform="scale(0.015625)"/>
       <path d="M 3981 4326 
L 288 4326 
L 179 2918 
L 294 2918 
C 378 3976 467 4160 1453 4160 
C 1568 4160 1754 4160 1805 4154 
C 1926 4135 1926 4058 1926 3912 
L 1926 459 
C 1926 230 1907 160 1376 160 
L 1197 160 
L 1197 0 
C 1504 0 1824 0 2138 0 
C 2451 0 2771 0 3078 0 
L 3078 160 
L 2899 160 
C 2368 160 2349 230 2349 459 
L 2349 3912 
C 2349 4052 2349 4129 2464 4154 
C 2515 4160 2701 4160 2816 4160 
C 3795 4160 3891 3976 3974 2918 
L 4090 2918 
L 3981 4326 
z
" id="CMR17-54" transform="scale(0.015625)"/>
       <path d="M 992 3909 
C 992 4049 877 4170 730 4170 
C 589 4170 467 4056 467 3909 
C 467 3769 582 3648 730 3648 
C 870 3648 992 3763 992 3909 
z
M 243 2706 
L 243 2541 
C 602 2541 653 2502 653 2197 
L 653 427 
C 653 184 627 153 218 153 
L 218 -13 
C 371 0 646 0 806 0 
C 960 0 1222 0 1370 -13 
L 1370 153 
C 992 153 979 191 979 420 
L 979 2776 
L 243 2706 
z
" id="CMR17-69" transform="scale(0.015625)"/>
       <path d="M 4326 1933 
C 4326 2252 4269 2790 3507 2790 
C 3072 2790 2771 2496 2656 2151 
L 2650 2151 
C 2573 2676 2195 2790 1837 2790 
C 1331 2790 1069 2400 973 2144 
L 966 2144 
L 966 2790 
L 211 2720 
L 211 2554 
C 589 2554 646 2515 646 2208 
L 646 428 
C 646 184 621 153 211 153 
L 211 -13 
C 365 0 646 0 813 0 
C 979 0 1267 0 1421 -13 
L 1421 153 
C 1011 153 986 178 986 428 
L 986 1658 
C 986 2247 1344 2688 1792 2688 
C 2266 2688 2317 2266 2317 1958 
L 2317 428 
C 2317 184 2291 153 1882 153 
L 1882 -13 
C 2035 0 2317 0 2483 0 
C 2650 0 2938 0 3091 -13 
L 3091 153 
C 2682 153 2656 178 2656 428 
L 2656 1658 
C 2656 2247 3014 2688 3462 2688 
C 3936 2688 3987 2266 3987 1958 
L 3987 428 
C 3987 184 3962 153 3552 153 
L 3552 -13 
C 3706 0 3987 0 4154 0 
C 4320 0 4608 0 4762 -13 
L 4762 153 
C 4352 153 4326 178 4326 428 
L 4326 1933 
z
" id="CMR17-6d" transform="scale(0.015625)"/>
       <path d="M 1958 -1561 
C 1958 -1555 1958 -1542 1939 -1523 
C 1645 -1224 858 -407 858 1581 
C 858 3569 1632 4379 1946 4697 
C 1946 4704 1958 4717 1958 4736 
C 1958 4755 1939 4768 1914 4768 
C 1843 4768 1299 4296 986 3594 
C 666 2887 576 2199 576 1588 
C 576 1128 621 351 1005 -471 
C 1312 -1135 1837 -1600 1914 -1600 
C 1946 -1600 1958 -1587 1958 -1561 
z
" id="CMR17-28" transform="scale(0.015625)"/>
       <path d="M 1683 1581 
C 1683 2040 1638 2817 1254 3639 
C 947 4303 422 4768 346 4768 
C 326 4768 301 4761 301 4729 
C 301 4717 307 4710 314 4697 
C 621 4378 1402 3568 1402 1584 
C 1402 -407 627 -1217 314 -1537 
C 307 -1549 301 -1556 301 -1568 
C 301 -1600 326 -1600 346 -1600 
C 416 -1600 960 -1128 1274 -426 
C 1594 281 1683 969 1683 1581 
z
" id="CMR17-29" transform="scale(0.015625)"/>
      </defs>
      <use transform="scale(0.996264)" xlink:href="#CMR17-50"/>
      <use transform="translate(62.586301 0)scale(0.996264)" xlink:href="#CMR17-72"/>
      <use transform="translate(97.867068 0)scale(0.996264)" xlink:href="#CMR17-6f"/>
      <use transform="translate(146.159984 0)scale(0.996264)" xlink:href="#CMR17-63"/>
      <use transform="translate(186.645645 0)scale(0.996264)" xlink:href="#CMR17-65"/>
      <use transform="translate(227.131305 0)scale(0.996264)" xlink:href="#CMR17-73"/>
      <use transform="translate(262.932643 0)scale(0.996264)" xlink:href="#CMR17-73"/>
      <use transform="translate(328.809947 0)scale(0.996264)" xlink:href="#CMR17-54"/>
      <use transform="translate(395.319827 0)scale(0.996264)" xlink:href="#CMR17-69"/>
      <use transform="translate(420.190886 0)scale(0.996264)" xlink:href="#CMR17-6d"/>
      <use transform="translate(497.110476 0)scale(0.996264)" xlink:href="#CMR17-65"/>
      <use transform="translate(567.672102 0)scale(0.996264)" xlink:href="#CMR17-28"/>
      <use transform="translate(602.95287 0)scale(0.996264)" xlink:href="#CMR17-6d"/>
      <use transform="translate(679.87246 0)scale(0.996264)" xlink:href="#CMR17-73"/>
      <use transform="translate(715.673798 0)scale(0.996264)" xlink:href="#CMR17-29"/>
     </g>
    </g>
   </g>
   <g id="line2d_19">
    <defs>
     <path d="M 0 1.5 
C 0.397805 1.5 0.77937 1.341951 1.06066 1.06066 
C 1.341951 0.77937 1.5 0.397805 1.5 0 
C 1.5 -0.397805 1.341951 -0.77937 1.06066 -1.06066 
C 0.77937 -1.341951 0.397805 -1.5 0 -1.5 
C -0.397805 -1.5 -0.77937 -1.341951 -1.06066 -1.06066 
C -1.341951 -0.77937 -1.5 -0.397805 -1.5 0 
C -1.5 0.397805 -1.341951 0.77937 -1.06066 1.06066 
C -0.77937 1.341951 -0.397805 1.5 0 1.5 
z
" id="m9a5b1c5d5c" style="stroke:#9acd32;"/>
    </defs>
    <g clip-path="url(#p08e4975416)">
     <use style="fill:#9acd32;stroke:#9acd32;" x="124.915208" xlink:href="#m9a5b1c5d5c" y="219.841288"/>
     <use style="fill:#9acd32;stroke:#9acd32;" x="209.577066" xlink:href="#m9a5b1c5d5c" y="185.072557"/>
     <use style="fill:#9acd32;stroke:#9acd32;" x="79.328054" xlink:href="#m9a5b1c5d5c" y="232.017827"/>
     <use style="fill:#9acd32;stroke:#9acd32;" x="216.089517" xlink:href="#m9a5b1c5d5c" y="181.578869"/>
     <use style="fill:#9acd32;stroke:#9acd32;" x="118.402757" xlink:href="#m9a5b1c5d5c" y="221.953468"/>
     <use style="fill:#9acd32;stroke:#9acd32;" x="72.815603" xlink:href="#m9a5b1c5d5c" y="233.540603"/>
     <use style="fill:#9acd32;stroke:#9acd32;" x="85.840504" xlink:href="#m9a5b1c5d5c" y="230.504202"/>
     <use style="fill:#9acd32;stroke:#9acd32;" x="66.303152" xlink:href="#m9a5b1c5d5c" y="234.88437"/>
     <use style="fill:#9acd32;stroke:#9acd32;" x="144.45256" xlink:href="#m9a5b1c5d5c" y="213.404498"/>
     <use style="fill:#9acd32;stroke:#9acd32;" x="307.263826" xlink:href="#m9a5b1c5d5c" y="122.25116"/>
     <use style="fill:#9acd32;stroke:#9acd32;" x="131.427659" xlink:href="#m9a5b1c5d5c" y="217.893306"/>
     <use style="fill:#9acd32;stroke:#9acd32;" x="339.826079" xlink:href="#m9a5b1c5d5c" y="95.66803"/>
     <use style="fill:#9acd32;stroke:#9acd32;" x="137.940109" xlink:href="#m9a5b1c5d5c" y="215.4101"/>
     <use style="fill:#9acd32;stroke:#9acd32;" x="242.13932" xlink:href="#m9a5b1c5d5c" y="166.80478"/>
     <use style="fill:#9acd32;stroke:#9acd32;" x="255.164221" xlink:href="#m9a5b1c5d5c" y="159.178388"/>
     <use style="fill:#9acd32;stroke:#9acd32;" x="59.790702" xlink:href="#m9a5b1c5d5c" y="236.240508"/>
     <use style="fill:#9acd32;stroke:#9acd32;" x="98.865406" xlink:href="#m9a5b1c5d5c" y="227.130829"/>
     <use style="fill:#9acd32;stroke:#9acd32;" x="92.352955" xlink:href="#m9a5b1c5d5c" y="228.779203"/>
     <use style="fill:#9acd32;stroke:#9acd32;" x="294.238925" xlink:href="#m9a5b1c5d5c" y="132.48529"/>
     <use style="fill:#9acd32;stroke:#9acd32;" x="320.288727" xlink:href="#m9a5b1c5d5c" y="112.267516"/>
     <use style="fill:#9acd32;stroke:#9acd32;" x="170.502363" xlink:href="#m9a5b1c5d5c" y="203.514658"/>
     <use style="fill:#9acd32;stroke:#9acd32;" x="150.965011" xlink:href="#m9a5b1c5d5c" y="211.240655"/>
     <use style="fill:#9acd32;stroke:#9acd32;" x="105.377856" xlink:href="#m9a5b1c5d5c" y="225.301627"/>
     <use style="fill:#9acd32;stroke:#9acd32;" x="157.477461" xlink:href="#m9a5b1c5d5c" y="208.789322"/>
     <use style="fill:#9acd32;stroke:#9acd32;" x="235.626869" xlink:href="#m9a5b1c5d5c" y="170.468641"/>
     <use style="fill:#9acd32;stroke:#9acd32;" x="229.114418" xlink:href="#m9a5b1c5d5c" y="174.186293"/>
     <use style="fill:#9acd32;stroke:#9acd32;" x="268.189122" xlink:href="#m9a5b1c5d5c" y="150.189868"/>
     <use style="fill:#9acd32;stroke:#9acd32;" x="163.989912" xlink:href="#m9a5b1c5d5c" y="206.276848"/>
     <use style="fill:#9acd32;stroke:#9acd32;" x="274.701573" xlink:href="#m9a5b1c5d5c" y="145.682876"/>
     <use style="fill:#9acd32;stroke:#9acd32;" x="287.726474" xlink:href="#m9a5b1c5d5c" y="137.465161"/>
     <use style="fill:#9acd32;stroke:#9acd32;" x="300.751375" xlink:href="#m9a5b1c5d5c" y="127.840737"/>
     <use style="fill:#9acd32;stroke:#9acd32;" x="111.890307" xlink:href="#m9a5b1c5d5c" y="223.313099"/>
     <use style="fill:#9acd32;stroke:#9acd32;" x="177.014813" xlink:href="#m9a5b1c5d5c" y="200.989427"/>
     <use style="fill:#9acd32;stroke:#9acd32;" x="190.039714" xlink:href="#m9a5b1c5d5c" y="195.193361"/>
     <use style="fill:#9acd32;stroke:#9acd32;" x="313.776277" xlink:href="#m9a5b1c5d5c" y="117.985424"/>
     <use style="fill:#9acd32;stroke:#9acd32;" x="281.214023" xlink:href="#m9a5b1c5d5c" y="140.852311"/>
     <use style="fill:#9acd32;stroke:#9acd32;" x="248.65177" xlink:href="#m9a5b1c5d5c" y="162.200611"/>
     <use style="fill:#9acd32;stroke:#9acd32;" x="261.676672" xlink:href="#m9a5b1c5d5c" y="153.903603"/>
     <use style="fill:#9acd32;stroke:#9acd32;" x="365.875882" xlink:href="#m9a5b1c5d5c" y="70.739629"/>
     <use style="fill:#9acd32;stroke:#9acd32;" x="196.552165" xlink:href="#m9a5b1c5d5c" y="192.567214"/>
     <use style="fill:#9acd32;stroke:#9acd32;" x="359.363431" xlink:href="#m9a5b1c5d5c" y="76.731434"/>
     <use style="fill:#9acd32;stroke:#9acd32;" x="326.801178" xlink:href="#m9a5b1c5d5c" y="107.91095"/>
     <use style="fill:#9acd32;stroke:#9acd32;" x="346.33853" xlink:href="#m9a5b1c5d5c" y="91.057177"/>
    </g>
   </g>
   <g id="line2d_20">
    <path clip-path="url(#p08e4975416)" d="M 52.958501 237.200073 
L 59.484003 236.052086 
L 66.009505 234.82366 
L 72.535006 233.513638 
L 79.060508 232.120863 
L 85.58601 230.644178 
L 92.111511 229.082427 
L 98.637013 227.434452 
L 105.162515 225.699096 
L 111.688016 223.875202 
L 118.213518 221.961614 
L 124.73902 219.957174 
L 131.264521 217.860726 
L 137.790023 215.671113 
L 144.315524 213.387177 
L 150.841026 211.007762 
L 157.366528 208.53171 
L 163.892029 205.957866 
L 170.417531 203.285071 
L 176.943033 200.512169 
L 183.468534 197.638003 
L 189.994036 194.661416 
L 196.519538 191.581252 
L 203.045039 188.396352 
L 209.570541 185.105561 
L 216.096043 181.707721 
L 222.621544 178.201675 
L 229.147046 174.586267 
L 235.672547 170.860339 
L 242.198049 167.022734 
L 248.723551 163.072296 
L 255.249052 159.007868 
L 261.774554 154.828292 
L 268.300056 150.532412 
L 274.825557 146.11907 
L 281.351059 141.587111 
L 287.876561 136.935376 
L 294.402062 132.162709 
L 300.927564 127.267954 
L 307.453066 122.249952 
L 313.978567 117.107547 
L 320.504069 111.839583 
L 327.029571 106.444901 
L 333.555072 100.922346 
L 340.080574 95.27076 
L 346.606075 89.488987 
L 353.131577 83.575868 
L 359.657079 77.530249 
L 366.18258 71.350971 
L 372.708082 65.036877 
" style="fill:none;stroke:#9acd32;stroke-linecap:round;stroke-width:1.5;"/>
   </g>
   <g id="line2d_21">
    <defs>
     <path d="M 0 1.5 
C 0.397805 1.5 0.77937 1.341951 1.06066 1.06066 
C 1.341951 0.77937 1.5 0.397805 1.5 0 
C 1.5 -0.397805 1.341951 -0.77937 1.06066 -1.06066 
C 0.77937 -1.341951 0.397805 -1.5 0 -1.5 
C -0.397805 -1.5 -0.77937 -1.341951 -1.06066 -1.06066 
C -1.341951 -0.77937 -1.5 -0.397805 -1.5 0 
C -1.5 0.397805 -1.341951 0.77937 -1.06066 1.06066 
C -0.77937 1.341951 -0.397805 1.5 0 1.5 
z
" id="m9e4abbe76c" style="stroke:#556b2f;"/>
    </defs>
    <g clip-path="url(#p08e4975416)">
     <use style="fill:#556b2f;stroke:#556b2f;" x="85.840504" xlink:href="#m9e4abbe76c" y="242.024187"/>
     <use style="fill:#556b2f;stroke:#556b2f;" x="79.328054" xlink:href="#m9e4abbe76c" y="242.915707"/>
     <use style="fill:#556b2f;stroke:#556b2f;" x="59.790702" xlink:href="#m9e4abbe76c" y="245.201898"/>
     <use style="fill:#556b2f;stroke:#556b2f;" x="118.402757" xlink:href="#m9e4abbe76c" y="236.324484"/>
     <use style="fill:#556b2f;stroke:#556b2f;" x="66.303152" xlink:href="#m9e4abbe76c" y="244.498471"/>
     <use style="fill:#556b2f;stroke:#556b2f;" x="307.263826" xlink:href="#m9e4abbe76c" y="159.156733"/>
     <use style="fill:#556b2f;stroke:#556b2f;" x="137.940109" xlink:href="#m9e4abbe76c" y="231.939592"/>
     <use style="fill:#556b2f;stroke:#556b2f;" x="255.164221" xlink:href="#m9e4abbe76c" y="189.010485"/>
     <use style="fill:#556b2f;stroke:#556b2f;" x="124.915208" xlink:href="#m9e4abbe76c" y="235.1112"/>
     <use style="fill:#556b2f;stroke:#556b2f;" x="209.577066" xlink:href="#m9e4abbe76c" y="209.208773"/>
     <use style="fill:#556b2f;stroke:#556b2f;" x="183.527264" xlink:href="#m9e4abbe76c" y="219.015333"/>
     <use style="fill:#556b2f;stroke:#556b2f;" x="92.352955" xlink:href="#m9e4abbe76c" y="240.870819"/>
     <use style="fill:#556b2f;stroke:#556b2f;" x="105.377856" xlink:href="#m9e4abbe76c" y="238.681179"/>
     <use style="fill:#556b2f;stroke:#556b2f;" x="300.751375" xlink:href="#m9e4abbe76c" y="163.501087"/>
     <use style="fill:#556b2f;stroke:#556b2f;" x="242.13932" xlink:href="#m9e4abbe76c" y="195.069191"/>
     <use style="fill:#556b2f;stroke:#556b2f;" x="216.089517" xlink:href="#m9e4abbe76c" y="206.535978"/>
     <use style="fill:#556b2f;stroke:#556b2f;" x="131.427659" xlink:href="#m9e4abbe76c" y="233.766954"/>
     <use style="fill:#556b2f;stroke:#556b2f;" x="98.865406" xlink:href="#m9e4abbe76c" y="239.749481"/>
     <use style="fill:#556b2f;stroke:#556b2f;" x="294.238925" xlink:href="#m9e4abbe76c" y="167.558583"/>
     <use style="fill:#556b2f;stroke:#556b2f;" x="320.288727" xlink:href="#m9e4abbe76c" y="150.90939"/>
     <use style="fill:#556b2f;stroke:#556b2f;" x="144.45256" xlink:href="#m9e4abbe76c" y="230.652691"/>
     <use style="fill:#556b2f;stroke:#556b2f;" x="111.890307" xlink:href="#m9e4abbe76c" y="237.349521"/>
     <use style="fill:#556b2f;stroke:#556b2f;" x="287.726474" xlink:href="#m9e4abbe76c" y="171.492069"/>
     <use style="fill:#556b2f;stroke:#556b2f;" x="170.502363" xlink:href="#m9e4abbe76c" y="223.386393"/>
     <use style="fill:#556b2f;stroke:#556b2f;" x="150.965011" xlink:href="#m9e4abbe76c" y="229.018806"/>
     <use style="fill:#556b2f;stroke:#556b2f;" x="229.114418" xlink:href="#m9e4abbe76c" y="200.844507"/>
     <use style="fill:#556b2f;stroke:#556b2f;" x="157.477461" xlink:href="#m9e4abbe76c" y="227.317693"/>
     <use style="fill:#556b2f;stroke:#556b2f;" x="235.626869" xlink:href="#m9e4abbe76c" y="197.817129"/>
     <use style="fill:#556b2f;stroke:#556b2f;" x="163.989912" xlink:href="#m9e4abbe76c" y="225.517696"/>
     <use style="fill:#556b2f;stroke:#556b2f;" x="248.65177" xlink:href="#m9e4abbe76c" y="191.620475"/>
     <use style="fill:#556b2f;stroke:#556b2f;" x="261.676672" xlink:href="#m9e4abbe76c" y="185.030389"/>
     <use style="fill:#556b2f;stroke:#556b2f;" x="268.189122" xlink:href="#m9e4abbe76c" y="181.590085"/>
     <use style="fill:#556b2f;stroke:#556b2f;" x="274.701573" xlink:href="#m9e4abbe76c" y="178.021179"/>
     <use style="fill:#556b2f;stroke:#556b2f;" x="313.776277" xlink:href="#m9e4abbe76c" y="155.622853"/>
     <use style="fill:#556b2f;stroke:#556b2f;" x="177.014813" xlink:href="#m9e4abbe76c" y="221.699171"/>
     <use style="fill:#556b2f;stroke:#556b2f;" x="339.826079" xlink:href="#m9e4abbe76c" y="137.660095"/>
     <use style="fill:#556b2f;stroke:#556b2f;" x="222.601968" xlink:href="#m9e4abbe76c" y="203.271721"/>
     <use style="fill:#556b2f;stroke:#556b2f;" x="190.039714" xlink:href="#m9e4abbe76c" y="217.383509"/>
     <use style="fill:#556b2f;stroke:#556b2f;" x="196.552165" xlink:href="#m9e4abbe76c" y="215.347371"/>
     <use style="fill:#556b2f;stroke:#556b2f;" x="365.875882" xlink:href="#m9e4abbe76c" y="115.793733"/>
     <use style="fill:#556b2f;stroke:#556b2f;" x="326.801178" xlink:href="#m9e4abbe76c" y="147.455192"/>
     <use style="fill:#556b2f;stroke:#556b2f;" x="359.363431" xlink:href="#m9e4abbe76c" y="120.439887"/>
     <use style="fill:#556b2f;stroke:#556b2f;" x="346.33853" xlink:href="#m9e4abbe76c" y="133.802828"/>
    </g>
   </g>
   <g id="line2d_22">
    <path clip-path="url(#p08e4975416)" d="M 52.958501 245.780933 
L 59.484003 245.179773 
L 66.009505 244.508051 
L 72.535006 243.76457 
L 79.060508 242.948132 
L 85.58601 242.057541 
L 92.111511 241.091599 
L 98.637013 240.04911 
L 105.162515 238.928876 
L 111.688016 237.729702 
L 118.213518 236.450388 
L 124.73902 235.08974 
L 131.264521 233.646559 
L 137.790023 232.119649 
L 144.315524 230.507813 
L 150.841026 228.809853 
L 157.366528 227.024574 
L 163.892029 225.150777 
L 170.417531 223.187266 
L 176.943033 221.132844 
L 183.468534 218.986313 
L 189.994036 216.746478 
L 196.519538 214.41214 
L 203.045039 211.982103 
L 209.570541 209.455171 
L 216.096043 206.830145 
L 222.621544 204.105829 
L 229.147046 201.281026 
L 235.672547 198.35454 
L 242.198049 195.325172 
L 248.723551 192.191726 
L 255.249052 188.953006 
L 261.774554 185.607813 
L 268.300056 182.154952 
L 274.825557 178.593225 
L 281.351059 174.921435 
L 287.876561 171.138385 
L 294.402062 167.242878 
L 300.927564 163.233718 
L 307.453066 159.109707 
L 313.978567 154.869648 
L 320.504069 150.512344 
L 327.029571 146.036599 
L 333.555072 141.441215 
L 340.080574 136.724995 
L 346.606075 131.886742 
L 353.131577 126.92526 
L 359.657079 121.839352 
L 366.18258 116.62782 
L 372.708082 111.289467 
" style="fill:none;stroke:#556b2f;stroke-linecap:round;stroke-width:1.5;"/>
   </g>
   <g id="line2d_23">
    <defs>
     <path d="M 0 1.5 
C 0.397805 1.5 0.77937 1.341951 1.06066 1.06066 
C 1.341951 0.77937 1.5 0.397805 1.5 0 
C 1.5 -0.397805 1.341951 -0.77937 1.06066 -1.06066 
C 0.77937 -1.341951 0.397805 -1.5 0 -1.5 
C -0.397805 -1.5 -0.77937 -1.341951 -1.06066 -1.06066 
C -1.341951 -0.77937 -1.5 -0.397805 -1.5 0 
C -1.5 0.397805 -1.341951 0.77937 -1.06066 1.06066 
C -0.77937 1.341951 -0.397805 1.5 0 1.5 
z
" id="m3d15a20bce" style="stroke:#cd5c5c;"/>
    </defs>
    <g clip-path="url(#p08e4975416)">
     <use style="fill:#cd5c5c;stroke:#cd5c5c;" x="157.477461" xlink:href="#m3d15a20bce" y="195.261188"/>
     <use style="fill:#cd5c5c;stroke:#cd5c5c;" x="242.13932" xlink:href="#m3d15a20bce" y="140.108234"/>
     <use style="fill:#cd5c5c;stroke:#cd5c5c;" x="131.427659" xlink:href="#m3d15a20bce" y="208.394449"/>
     <use style="fill:#cd5c5c;stroke:#cd5c5c;" x="365.875882" xlink:href="#m3d15a20bce" y="27.877364"/>
     <use style="fill:#cd5c5c;stroke:#cd5c5c;" x="248.65177" xlink:href="#m3d15a20bce" y="135.051695"/>
     <use style="fill:#cd5c5c;stroke:#cd5c5c;" x="177.014813" xlink:href="#m3d15a20bce" y="184.277327"/>
     <use style="fill:#cd5c5c;stroke:#cd5c5c;" x="163.989912" xlink:href="#m3d15a20bce" y="191.786929"/>
     <use style="fill:#cd5c5c;stroke:#cd5c5c;" x="229.114418" xlink:href="#m3d15a20bce" y="149.946748"/>
     <use style="fill:#cd5c5c;stroke:#cd5c5c;" x="294.238925" xlink:href="#m3d15a20bce" y="97.457889"/>
     <use style="fill:#cd5c5c;stroke:#cd5c5c;" x="66.303152" xlink:href="#m3d15a20bce" y="233.463324"/>
     <use style="fill:#cd5c5c;stroke:#cd5c5c;" x="79.328054" xlink:href="#m3d15a20bce" y="229.506389"/>
     <use style="fill:#cd5c5c;stroke:#cd5c5c;" x="59.790702" xlink:href="#m3d15a20bce" y="235.355808"/>
     <use style="fill:#cd5c5c;stroke:#cd5c5c;" x="261.676672" xlink:href="#m3d15a20bce" y="124.46333"/>
     <use style="fill:#cd5c5c;stroke:#cd5c5c;" x="150.965011" xlink:href="#m3d15a20bce" y="198.295605"/>
     <use style="fill:#cd5c5c;stroke:#cd5c5c;" x="105.377856" xlink:href="#m3d15a20bce" y="219.279084"/>
     <use style="fill:#cd5c5c;stroke:#cd5c5c;" x="300.751375" xlink:href="#m3d15a20bce" y="90.99771"/>
     <use style="fill:#cd5c5c;stroke:#cd5c5c;" x="170.502363" xlink:href="#m3d15a20bce" y="187.316659"/>
     <use style="fill:#cd5c5c;stroke:#cd5c5c;" x="346.33853" xlink:href="#m3d15a20bce" y="47.325327"/>
     <use style="fill:#cd5c5c;stroke:#cd5c5c;" x="274.701573" xlink:href="#m3d15a20bce" y="114.841094"/>
     <use style="fill:#cd5c5c;stroke:#cd5c5c;" x="359.363431" xlink:href="#m3d15a20bce" y="35.599647"/>
     <use style="fill:#cd5c5c;stroke:#cd5c5c;" x="216.089517" xlink:href="#m3d15a20bce" y="159.946533"/>
     <use style="fill:#cd5c5c;stroke:#cd5c5c;" x="313.776277" xlink:href="#m3d15a20bce" y="80.468625"/>
     <use style="fill:#cd5c5c;stroke:#cd5c5c;" x="203.064616" xlink:href="#m3d15a20bce" y="166.913395"/>
     <use style="fill:#cd5c5c;stroke:#cd5c5c;" x="98.865406" xlink:href="#m3d15a20bce" y="223.259052"/>
     <use style="fill:#cd5c5c;stroke:#cd5c5c;" x="287.726474" xlink:href="#m3d15a20bce" y="103.967737"/>
     <use style="fill:#cd5c5c;stroke:#cd5c5c;" x="72.815603" xlink:href="#m3d15a20bce" y="232.244933"/>
     <use style="fill:#cd5c5c;stroke:#cd5c5c;" x="137.940109" xlink:href="#m3d15a20bce" y="204.316058"/>
     <use style="fill:#cd5c5c;stroke:#cd5c5c;" x="209.577066" xlink:href="#m3d15a20bce" y="164.536708"/>
     <use style="fill:#cd5c5c;stroke:#cd5c5c;" x="124.915208" xlink:href="#m3d15a20bce" y="210.354916"/>
     <use style="fill:#cd5c5c;stroke:#cd5c5c;" x="372.388332" xlink:href="#m3d15a20bce" y="22.171233"/>
     <use style="fill:#cd5c5c;stroke:#cd5c5c;" x="118.402757" xlink:href="#m3d15a20bce" y="213.187686"/>
     <use style="fill:#cd5c5c;stroke:#cd5c5c;" x="183.527264" xlink:href="#m3d15a20bce" y="179.107289"/>
     <use style="fill:#cd5c5c;stroke:#cd5c5c;" x="111.890307" xlink:href="#m3d15a20bce" y="215.910368"/>
     <use style="fill:#cd5c5c;stroke:#cd5c5c;" x="92.352955" xlink:href="#m3d15a20bce" y="223.523794"/>
     <use style="fill:#cd5c5c;stroke:#cd5c5c;" x="196.552165" xlink:href="#m3d15a20bce" y="173.381115"/>
     <use style="fill:#cd5c5c;stroke:#cd5c5c;" x="281.214023" xlink:href="#m3d15a20bce" y="107.197053"/>
     <use style="fill:#cd5c5c;stroke:#cd5c5c;" x="352.850981" xlink:href="#m3d15a20bce" y="39.835"/>
     <use style="fill:#cd5c5c;stroke:#cd5c5c;" x="307.263826" xlink:href="#m3d15a20bce" y="83.895497"/>
     <use style="fill:#cd5c5c;stroke:#cd5c5c;" x="255.164221" xlink:href="#m3d15a20bce" y="131.73451"/>
     <use style="fill:#cd5c5c;stroke:#cd5c5c;" x="320.288727" xlink:href="#m3d15a20bce" y="71.6984"/>
     <use style="fill:#cd5c5c;stroke:#cd5c5c;" x="268.189122" xlink:href="#m3d15a20bce" y="117.660553"/>
     <use style="fill:#cd5c5c;stroke:#cd5c5c;" x="190.039714" xlink:href="#m3d15a20bce" y="178.234518"/>
     <use style="fill:#cd5c5c;stroke:#cd5c5c;" x="326.801178" xlink:href="#m3d15a20bce" y="69.311327"/>
    </g>
   </g>
   <g id="line2d_24">
    <path clip-path="url(#p08e4975416)" d="M 52.958501 236.929517 
L 59.484003 235.189598 
L 66.009505 233.331465 
L 72.535006 231.355551 
L 79.060508 229.26229 
L 85.58601 227.052115 
L 92.111511 224.725458 
L 98.637013 222.282755 
L 105.162515 219.724437 
L 111.688016 217.050938 
L 118.213518 214.262691 
L 124.73902 211.36013 
L 131.264521 208.343688 
L 137.790023 205.213799 
L 144.315524 201.970895 
L 150.841026 198.61541 
L 157.366528 195.147777 
L 163.892029 191.56843 
L 170.417531 187.877801 
L 176.943033 184.076325 
L 183.468534 180.164435 
L 189.994036 176.142563 
L 196.519538 172.011143 
L 203.045039 167.770609 
L 209.570541 163.421393 
L 216.096043 158.96393 
L 222.621544 154.398652 
L 229.147046 149.725992 
L 235.672547 144.946385 
L 242.198049 140.060263 
L 248.723551 135.068059 
L 255.249052 129.970208 
L 261.774554 124.767141 
L 268.300056 119.459294 
L 274.825557 114.047098 
L 281.351059 108.530987 
L 287.876561 102.911394 
L 294.402062 97.188754 
L 300.927564 91.363498 
L 307.453066 85.436061 
L 313.978567 79.406876 
L 320.504069 73.276376 
L 327.029571 67.044994 
L 333.555072 60.713164 
L 340.080574 54.281318 
L 346.606075 47.749891 
L 353.131577 41.119316 
L 359.657079 34.390025 
L 366.18258 27.562453 
L 372.708082 20.637032 
" style="fill:none;stroke:#cd5c5c;stroke-linecap:round;stroke-width:1.5;"/>
   </g>
   <g id="line2d_25">
    <defs>
     <path d="M 0 1.5 
C 0.397805 1.5 0.77937 1.341951 1.06066 1.06066 
C 1.341951 0.77937 1.5 0.397805 1.5 0 
C 1.5 -0.397805 1.341951 -0.77937 1.06066 -1.06066 
C 0.77937 -1.341951 0.397805 -1.5 0 -1.5 
C -0.397805 -1.5 -0.77937 -1.341951 -1.06066 -1.06066 
C -1.341951 -0.77937 -1.5 -0.397805 -1.5 0 
C -1.5 0.397805 -1.341951 0.77937 -1.06066 1.06066 
C -0.77937 1.341951 -0.397805 1.5 0 1.5 
z
" id="m836f6793d6" style="stroke:#800000;"/>
    </defs>
    <g clip-path="url(#p08e4975416)">
     <use style="fill:#800000;stroke:#800000;" x="346.33853" xlink:href="#m836f6793d6" y="159.073339"/>
     <use style="fill:#800000;stroke:#800000;" x="274.701573" xlink:href="#m836f6793d6" y="178.232319"/>
     <use style="fill:#800000;stroke:#800000;" x="352.850981" xlink:href="#m836f6793d6" y="157.525383"/>
     <use style="fill:#800000;stroke:#800000;" x="216.089517" xlink:href="#m836f6793d6" y="193.559786"/>
     <use style="fill:#800000;stroke:#800000;" x="255.164221" xlink:href="#m836f6793d6" y="183.58129"/>
     <use style="fill:#800000;stroke:#800000;" x="131.427659" xlink:href="#m836f6793d6" y="216.415774"/>
     <use style="fill:#800000;stroke:#800000;" x="157.477461" xlink:href="#m836f6793d6" y="208.97367"/>
     <use style="fill:#800000;stroke:#800000;" x="177.014813" xlink:href="#m836f6793d6" y="203.770155"/>
     <use style="fill:#800000;stroke:#800000;" x="85.840504" xlink:href="#m836f6793d6" y="228.566896"/>
     <use style="fill:#800000;stroke:#800000;" x="209.577066" xlink:href="#m836f6793d6" y="195.74255"/>
     <use style="fill:#800000;stroke:#800000;" x="287.726474" xlink:href="#m836f6793d6" y="174.340478"/>
     <use style="fill:#800000;stroke:#800000;" x="313.776277" xlink:href="#m836f6793d6" y="168.14065"/>
     <use style="fill:#800000;stroke:#800000;" x="163.989912" xlink:href="#m836f6793d6" y="207.126404"/>
     <use style="fill:#800000;stroke:#800000;" x="150.965011" xlink:href="#m836f6793d6" y="210.553981"/>
     <use style="fill:#800000;stroke:#800000;" x="66.303152" xlink:href="#m836f6793d6" y="233.901823"/>
     <use style="fill:#800000;stroke:#800000;" x="59.790702" xlink:href="#m836f6793d6" y="235.666026"/>
     <use style="fill:#800000;stroke:#800000;" x="196.552165" xlink:href="#m836f6793d6" y="199.39547"/>
     <use style="fill:#800000;stroke:#800000;" x="137.940109" xlink:href="#m836f6793d6" y="213.890018"/>
     <use style="fill:#800000;stroke:#800000;" x="79.328054" xlink:href="#m836f6793d6" y="230.61559"/>
     <use style="fill:#800000;stroke:#800000;" x="92.352955" xlink:href="#m836f6793d6" y="225.873419"/>
     <use style="fill:#800000;stroke:#800000;" x="111.890307" xlink:href="#m836f6793d6" y="220.688009"/>
     <use style="fill:#800000;stroke:#800000;" x="124.915208" xlink:href="#m836f6793d6" y="217.230529"/>
     <use style="fill:#800000;stroke:#800000;" x="118.402757" xlink:href="#m836f6793d6" y="218.90374"/>
     <use style="fill:#800000;stroke:#800000;" x="170.502363" xlink:href="#m836f6793d6" y="205.037883"/>
     <use style="fill:#800000;stroke:#800000;" x="300.751375" xlink:href="#m836f6793d6" y="170.454139"/>
     <use style="fill:#800000;stroke:#800000;" x="294.238925" xlink:href="#m836f6793d6" y="172.141978"/>
     <use style="fill:#800000;stroke:#800000;" x="229.114418" xlink:href="#m836f6793d6" y="189.390449"/>
     <use style="fill:#800000;stroke:#800000;" x="281.214023" xlink:href="#m836f6793d6" y="177.482617"/>
     <use style="fill:#800000;stroke:#800000;" x="320.288727" xlink:href="#m836f6793d6" y="164.840538"/>
     <use style="fill:#800000;stroke:#800000;" x="242.13932" xlink:href="#m836f6793d6" y="185.551147"/>
     <use style="fill:#800000;stroke:#800000;" x="72.815603" xlink:href="#m836f6793d6" y="232.97395"/>
     <use style="fill:#800000;stroke:#800000;" x="261.676672" xlink:href="#m836f6793d6" y="180.266351"/>
     <use style="fill:#800000;stroke:#800000;" x="248.65177" xlink:href="#m836f6793d6" y="183.71914"/>
     <use style="fill:#800000;stroke:#800000;" x="190.039714" xlink:href="#m836f6793d6" y="201.94994"/>
     <use style="fill:#800000;stroke:#800000;" x="183.527264" xlink:href="#m836f6793d6" y="200.930652"/>
     <use style="fill:#800000;stroke:#800000;" x="98.865406" xlink:href="#m836f6793d6" y="226.228845"/>
     <use style="fill:#800000;stroke:#800000;" x="365.875882" xlink:href="#m836f6793d6" y="155.544627"/>
     <use style="fill:#800000;stroke:#800000;" x="203.064616" xlink:href="#m836f6793d6" y="195.332421"/>
     <use style="fill:#800000;stroke:#800000;" x="268.189122" xlink:href="#m836f6793d6" y="177.788589"/>
     <use style="fill:#800000;stroke:#800000;" x="307.263826" xlink:href="#m836f6793d6" y="167.401733"/>
     <use style="fill:#800000;stroke:#800000;" x="359.363431" xlink:href="#m836f6793d6" y="157.844376"/>
     <use style="fill:#800000;stroke:#800000;" x="222.601968" xlink:href="#m836f6793d6" y="194.207224"/>
     <use style="fill:#800000;stroke:#800000;" x="144.45256" xlink:href="#m836f6793d6" y="214.970918"/>
    </g>
   </g>
   <g id="line2d_26">
    <path clip-path="url(#p08e4975416)" d="M 52.958501 237.085051 
L 59.484003 235.34542 
L 66.009505 233.605788 
L 72.535006 231.866157 
L 79.060508 230.126526 
L 85.58601 228.386894 
L 92.111511 226.647263 
L 98.637013 224.907632 
L 105.162515 223.168 
L 111.688016 221.428369 
L 118.213518 219.688738 
L 124.73902 217.949106 
L 131.264521 216.209475 
L 137.790023 214.469844 
L 144.315524 212.730213 
L 150.841026 210.990581 
L 157.366528 209.25095 
L 163.892029 207.511319 
L 170.417531 205.771687 
L 176.943033 204.032056 
L 183.468534 202.292425 
L 189.994036 200.552793 
L 196.519538 198.813162 
L 203.045039 197.073531 
L 209.570541 195.333899 
L 216.096043 193.594268 
L 222.621544 191.854637 
L 229.147046 190.115005 
L 235.672547 188.375374 
L 242.198049 186.635743 
L 248.723551 184.896111 
L 255.249052 183.15648 
L 261.774554 181.416849 
L 268.300056 179.677217 
L 274.825557 177.937586 
L 281.351059 176.197955 
L 287.876561 174.458323 
L 294.402062 172.718692 
L 300.927564 170.979061 
L 307.453066 169.239429 
L 313.978567 167.499798 
L 320.504069 165.760167 
L 327.029571 164.020535 
L 333.555072 162.280904 
L 340.080574 160.541273 
L 346.606075 158.801641 
L 353.131577 157.06201 
L 359.657079 155.322379 
L 366.18258 153.582747 
L 372.708082 151.843116 
" style="fill:none;stroke:#800000;stroke-linecap:round;stroke-width:1.5;"/>
   </g>
   <g id="patch_3">
    <path d="M 52.958501 255.741178 
L 52.958501 23.511323 
" style="fill:none;stroke:#262626;stroke-linecap:square;stroke-linejoin:miter;stroke-width:1.25;"/>
   </g>
   <g id="patch_4">
    <path d="M 372.708082 255.741178 
L 372.708082 23.511323 
" style="fill:none;stroke:#262626;stroke-linecap:square;stroke-linejoin:miter;stroke-width:1.25;"/>
   </g>
   <g id="patch_5">
    <path d="M 52.958501 255.741178 
L 372.708082 255.741178 
" style="fill:none;stroke:#262626;stroke-linecap:square;stroke-linejoin:miter;stroke-width:1.25;"/>
   </g>
   <g id="patch_6">
    <path d="M 52.958501 23.511323 
L 372.708082 23.511323 
" style="fill:none;stroke:#262626;stroke-linecap:square;stroke-linejoin:miter;stroke-width:1.25;"/>
   </g>
   <g id="text_15">
    <!-- (d) $\operatorname{logdet}(\mathbf{A}, \mathbf{X})$, with full matrix multiplication -->
    <g style="fill:#262626;" transform="translate(69.689334 17.511323)scale(0.138 -0.138)">
     <defs>
      <path d="M 1869 4326 
L 1869 4160 
C 2246 4160 2304 4122 2304 3820 
L 2304 2345 
C 2278 2377 2016 2790 1498 2790 
C 845 2790 211 2208 211 1364 
C 211 525 806 -64 1434 -64 
C 1978 -64 2259 337 2291 380 
L 2291 -63 
L 3066 -63 
L 3066 128 
C 2688 128 2630 166 2630 473 
L 2630 4396 
L 1869 4326 
z
M 2291 755 
C 2291 563 2176 390 2029 262 
C 1811 70 1594 38 1472 38 
C 1286 38 621 134 621 1356 
C 621 2612 1363 2688 1530 2688 
C 1824 2688 2061 2522 2208 2291 
C 2291 2157 2291 2138 2291 2023 
L 2291 755 
z
" id="CMR17-64" transform="scale(0.015625)"/>
      <path d="M 979 4396 
L 218 4326 
L 218 4160 
C 595 4160 653 4122 653 3817 
L 653 426 
C 653 184 627 153 218 153 
L 218 -13 
C 371 0 653 0 813 0 
C 979 0 1261 0 1414 -13 
L 1414 153 
C 1005 153 979 178 979 426 
L 979 4396 
z
" id="CMR17-6c" transform="scale(0.015625)"/>
      <path d="M 710 1164 
C 832 1068 1043 960 1299 960 
C 1805 960 2240 1357 2240 1888 
C 2240 2054 2189 2310 1997 2509 
C 2176 2692 2438 2752 2586 2752 
C 2611 2752 2650 2752 2682 2734 
C 2656 2728 2598 2703 2598 2605 
C 2598 2527 2656 2471 2739 2471 
C 2835 2471 2886 2533 2886 2614 
C 2886 2731 2790 2854 2586 2854 
C 2330 2854 2106 2738 1926 2580 
C 1734 2753 1504 2816 1299 2816 
C 794 2816 358 2419 358 1888 
C 358 1522 570 1292 634 1228 
C 442 1004 442 743 442 711 
C 442 545 506 302 723 168 
C 390 85 128 -169 128 -486 
C 128 -943 736 -1280 1466 -1280 
C 2170 -1280 2803 -956 2803 -479 
C 2803 384 1856 384 1363 384 
C 1216 384 954 384 922 391 
C 723 423 589 602 589 826 
C 589 883 589 1024 710 1164 
z
M 1299 1068 
C 736 1068 736 1760 736 1889 
C 736 2016 736 2708 1299 2708 
C 1862 2708 1862 2016 1862 1889 
C 1862 1760 1862 1068 1299 1068 
z
M 1466 -1171 
C 826 -1171 384 -835 384 -486 
C 384 -289 493 -105 634 -4 
C 794 104 858 104 1293 104 
C 1818 104 2547 104 2547 -486 
C 2547 -835 2106 -1171 1466 -1171 
z
" id="CMR17-67" transform="scale(0.015625)"/>
      <path d="M 966 2560 
L 1862 2560 
L 1862 2725 
L 966 2725 
L 966 3904 
L 851 3904 
C 838 3245 614 2668 70 2668 
L 70 2560 
L 627 2560 
L 627 771 
C 627 650 627 -64 1370 -64 
C 1747 -64 1965 306 1965 777 
L 1965 1140 
L 1850 1140 
L 1850 783 
C 1850 344 1677 51 1408 51 
C 1222 51 966 178 966 758 
L 966 2560 
z
" id="CMR17-74" transform="scale(0.015625)"/>
      <path d="M 2931 4301 
C 2886 4416 2874 4448 2720 4448 
C 2560 4448 2547 4416 2502 4301 
L 915 413 
C 870 311 870 299 691 279 
C 531 260 506 260 365 260 
L 250 260 
L 250 -13 
C 416 0 800 0 986 0 
C 1158 0 1626 0 1773 -13 
L 1773 260 
C 1632 260 1389 260 1210 331 
C 1229 390 1229 402 1242 428 
L 1581 1262 
L 3296 1262 
L 3699 260 
L 3098 260 
L 3098 0 
C 3302 0 3923 0 4166 0 
C 4371 0 5024 0 5184 -13 
L 5184 260 
L 4576 260 
L 2931 4301 
z
M 2438 3367 
L 3181 1536 
L 1690 1536 
L 2438 3367 
z
" id="CMBX12-41" transform="scale(0.015625)"/>
      <path d="M 1248 -31 
C 1248 343 1126 619 864 619 
C 659 619 557 453 557 313 
C 557 172 653 0 870 0 
C 954 0 1024 26 1082 83 
C 1094 96 1101 96 1107 96 
C 1120 96 1120 5 1120 -27 
C 1120 -240 1082 -659 710 -1080 
C 640 -1157 640 -1170 640 -1183 
C 640 -1216 672 -1248 704 -1248 
C 755 -1248 1248 -771 1248 -31 
z
" id="CMMI12-3b" transform="scale(0.015625)"/>
      <path d="M 3008 2514 
L 4090 3957 
C 4154 4040 4179 4053 4390 4072 
C 4557 4091 4582 4091 4768 4091 
L 4934 4091 
L 4934 4365 
C 4787 4352 4275 4352 4096 4352 
C 3898 4352 3341 4352 3181 4365 
L 3181 4091 
C 3258 4091 3571 4091 3763 4014 
L 2829 2763 
L 1875 4091 
L 2406 4091 
L 2406 4352 
C 2176 4352 1574 4352 1312 4352 
C 1094 4352 461 4352 288 4365 
L 288 4091 
L 909 4091 
L 2330 2105 
L 1043 388 
C 986 311 966 292 742 272 
C 582 260 550 260 371 260 
L 198 260 
L 198 -13 
C 346 0 864 0 1043 0 
C 1242 0 1792 0 1952 -13 
L 1952 260 
C 1882 260 1555 260 1370 337 
L 2509 1856 
L 3661 260 
L 3130 260 
L 3130 0 
C 3334 0 3974 0 4218 0 
C 4422 0 5082 0 5242 -13 
L 5242 260 
L 4627 260 
L 3008 2514 
z
" id="CMBX12-58" transform="scale(0.015625)"/>
      <path d="M 1011 102 
C 1024 45 1024 25 1024 -77 
C 1024 -463 896 -817 627 -1139 
C 595 -1170 595 -1183 595 -1197 
C 595 -1222 621 -1248 646 -1248 
C 685 -1248 1126 -799 1126 -87 
C 1126 124 1101 522 800 522 
C 659 522 538 427 538 261 
C 538 96 659 0 800 0 
C 877 0 960 32 1011 102 
z
" id="CMR17-2c" transform="scale(0.015625)"/>
      <path d="M 3725 2183 
C 3853 2560 4109 2560 4205 2560 
L 4205 2732 
C 4077 2732 3949 2732 3821 2732 
C 3699 2732 3424 2732 3315 2738 
L 3315 2560 
C 3514 2560 3622 2445 3622 2286 
C 3622 2241 3610 2184 3597 2140 
L 2995 407 
L 2342 2275 
C 2330 2319 2310 2370 2310 2395 
C 2310 2560 2528 2560 2630 2560 
L 2630 2738 
C 2483 2732 2214 2732 2061 2732 
C 1901 2732 1734 2732 1587 2738 
L 1587 2560 
C 1939 2560 1939 2547 2074 2149 
L 1485 451 
L 851 2281 
C 819 2363 819 2376 819 2395 
C 819 2560 1037 2560 1139 2560 
L 1139 2738 
C 986 2732 717 2732 557 2732 
C 416 2732 198 2732 64 2738 
L 64 2560 
C 346 2560 416 2541 486 2331 
L 1274 49 
C 1299 -33 1318 -52 1370 -52 
C 1414 -52 1440 -39 1472 56 
L 2131 1980 
L 2797 56 
C 2829 -39 2854 -52 2899 -52 
C 2950 -52 2970 -33 2995 50 
L 3725 2183 
z
" id="CMR17-77" transform="scale(0.015625)"/>
      <path d="M 2656 1933 
C 2656 2259 2592 2790 1837 2790 
C 1312 2790 1056 2368 979 2157 
L 973 2157 
L 973 4396 
L 211 4326 
L 211 4160 
C 589 4160 646 4122 646 3817 
L 646 426 
C 646 184 621 153 211 153 
L 211 -13 
C 365 0 646 0 813 0 
C 979 0 1267 0 1421 -13 
L 1421 153 
C 1011 153 986 178 986 428 
L 986 1658 
C 986 2247 1344 2688 1792 2688 
C 2266 2688 2317 2266 2317 1958 
L 2317 428 
C 2317 184 2291 153 1882 153 
L 1882 -13 
C 2035 0 2317 0 2483 0 
C 2650 0 2938 0 3091 -13 
L 3091 153 
C 2682 153 2656 178 2656 428 
L 2656 1933 
z
" id="CMR17-68" transform="scale(0.015625)"/>
      <path d="M 979 2560 
L 1709 2560 
L 1709 2725 
L 966 2725 
L 966 3494 
C 966 4022 1235 4352 1510 4352 
C 1594 4352 1690 4327 1754 4282 
C 1702 4269 1568 4225 1568 4067 
C 1568 3901 1696 3850 1786 3850 
C 1875 3850 2003 3901 2003 4067 
C 2003 4308 1773 4454 1517 4454 
C 1152 4454 653 4156 653 3481 
L 653 2725 
L 141 2725 
L 141 2560 
L 653 2560 
L 653 427 
C 653 184 627 153 218 153 
L 218 -13 
C 371 0 666 0 832 0 
C 1018 0 1344 0 1517 -13 
L 1517 153 
C 1056 153 979 153 979 439 
L 979 2560 
z
" id="CMR17-66" transform="scale(0.015625)"/>
      <path d="M 1882 2693 
L 1882 2528 
C 2259 2528 2317 2489 2317 2186 
L 2317 1032 
C 2317 500 2029 38 1555 38 
C 1030 38 986 348 986 678 
L 986 2763 
L 211 2693 
L 211 2528 
C 467 2528 640 2528 646 2274 
L 646 1058 
C 646 633 646 361 813 183 
C 896 101 1056 -64 1517 -64 
C 2061 -64 2272 377 2323 506 
L 2330 506 
L 2330 -63 
L 3091 -63 
L 3091 128 
C 2714 128 2656 166 2656 473 
L 2656 2763 
L 1882 2693 
z
" id="CMR17-75" transform="scale(0.015625)"/>
      <path d="M 2304 1653 
C 2304 2072 2304 2294 2035 2543 
C 1798 2752 1523 2816 1306 2816 
C 800 2816 435 2407 435 1971 
C 435 1728 627 1728 666 1728 
C 749 1728 896 1778 896 1954 
C 896 2112 774 2181 666 2181 
C 640 2181 608 2174 589 2168 
C 723 2592 1069 2714 1293 2714 
C 1613 2714 1965 2429 1965 1885 
L 1965 1600 
C 1587 1600 1133 1549 774 1357 
C 371 1133 256 813 256 570 
C 256 77 832 -64 1171 -64 
C 1523 -64 1850 139 1990 511 
C 2003 233 2182 -18 2464 -18 
C 2598 -18 2938 70 2938 567 
L 2938 920 
L 2822 920 
L 2822 562 
C 2822 178 2650 128 2566 128 
C 2304 128 2304 458 2304 738 
L 2304 1653 
z
M 1965 870 
C 1965 317 1568 38 1216 38 
C 896 38 646 275 646 570 
C 646 761 730 1100 1101 1305 
C 1408 1478 1760 1504 1965 1504 
L 1965 870 
z
" id="CMR17-61" transform="scale(0.015625)"/>
      <path d="M 1664 1477 
C 1856 1726 2074 2006 2253 2216 
C 2464 2458 2707 2560 2989 2560 
L 2989 2726 
C 2880 2726 2656 2726 2541 2726 
C 2368 2726 2170 2726 2022 2732 
L 2022 2566 
C 2112 2553 2163 2489 2163 2400 
C 2163 2285 2099 2215 2067 2171 
L 1594 1573 
L 1030 2306 
C 973 2376 973 2388 973 2420 
C 973 2497 1037 2560 1146 2560 
L 1146 2732 
C 992 2726 717 2726 557 2726 
C 384 2726 179 2726 38 2732 
L 38 2560 
C 384 2560 461 2534 614 2343 
L 1350 1395 
C 1363 1382 1395 1344 1395 1325 
C 1395 1299 838 619 768 530 
C 480 185 179 160 6 160 
L 6 0 
C 115 0 339 0 454 0 
C 582 0 864 0 979 -6 
L 979 160 
C 941 166 838 179 838 325 
C 838 440 890 510 947 586 
L 1478 1236 
L 2035 512 
C 2086 442 2163 346 2163 301 
C 2163 211 2086 160 1984 160 
L 1984 -6 
C 2138 0 2413 0 2573 0 
C 2746 0 2950 0 3091 -6 
L 3091 160 
C 2771 160 2675 172 2522 370 
L 1664 1477 
z
" id="CMR17-78" transform="scale(0.015625)"/>
      <path d="M 1408 -1063 
C 998 -1063 973 -1037 973 -789 
L 973 402 
C 1158 134 1427 -38 1766 -38 
C 2406 -38 3053 523 3053 1388 
C 3053 2191 2496 2802 1837 2802 
C 1453 2802 1139 2592 960 2338 
L 960 2802 
L 198 2732 
L 198 2567 
C 576 2567 634 2528 634 2223 
L 634 -789 
C 634 -1031 608 -1063 198 -1063 
L 198 -1228 
C 352 -1216 634 -1216 800 -1216 
C 966 -1216 1254 -1216 1408 -1228 
L 1408 -1063 
z
M 973 2012 
C 973 2102 973 2235 1222 2471 
C 1254 2497 1472 2688 1792 2688 
C 2259 2688 2643 2108 2643 1382 
C 2643 656 2234 64 1728 64 
C 1498 64 1248 172 1056 472 
C 973 612 973 650 973 752 
L 973 2012 
z
" id="CMR17-70" transform="scale(0.015625)"/>
      <path d="M 2656 1933 
C 2656 2259 2592 2790 1837 2790 
C 1331 2790 1069 2400 973 2144 
L 966 2144 
L 966 2790 
L 211 2720 
L 211 2554 
C 589 2554 646 2515 646 2208 
L 646 428 
C 646 184 621 153 211 153 
L 211 -13 
C 365 0 646 0 813 0 
C 979 0 1267 0 1421 -13 
L 1421 153 
C 1011 153 986 178 986 428 
L 986 1658 
C 986 2247 1344 2688 1792 2688 
C 2266 2688 2317 2266 2317 1958 
L 2317 428 
C 2317 184 2291 153 1882 153 
L 1882 -13 
C 2035 0 2317 0 2483 0 
C 2650 0 2938 0 3091 -13 
L 3091 153 
C 2682 153 2656 178 2656 428 
L 2656 1933 
z
" id="CMR17-6e" transform="scale(0.015625)"/>
     </defs>
     <use transform="scale(0.996264)" xlink:href="#CMR17-28"/>
     <use transform="translate(35.280768 0)scale(0.996264)" xlink:href="#CMR17-64"/>
     <use transform="translate(86.176138 0)scale(0.996264)" xlink:href="#CMR17-29"/>
     <use transform="translate(151.532872 0)scale(0.996264)" xlink:href="#CMR17-6c"/>
     <use transform="translate(176.40393 0)scale(0.996264)" xlink:href="#CMR17-6f"/>
     <use transform="translate(222.094407 0)scale(0.996264)" xlink:href="#CMR17-67"/>
     <use transform="translate(267.784884 0)scale(0.996264)" xlink:href="#CMR17-64"/>
     <use transform="translate(318.680254 0)scale(0.996264)" xlink:href="#CMR17-65"/>
     <use transform="translate(359.165915 0)scale(0.996264)" xlink:href="#CMR17-74"/>
     <use transform="translate(394.446682 0)scale(0.996264)" xlink:href="#CMR17-28"/>
     <use transform="translate(429.72745 0)scale(0.996264)" xlink:href="#CMBX12-41"/>
     <use transform="translate(514.363845 0)scale(0.996264)" xlink:href="#CMMI12-3b"/>
     <use transform="translate(558.065427 0)scale(0.996264)" xlink:href="#CMBX12-58"/>
     <use transform="translate(642.701822 0)scale(0.996264)" xlink:href="#CMR17-29"/>
     <use transform="translate(677.98259 0)scale(0.996264)" xlink:href="#CMR17-2c"/>
     <use transform="translate(732.929615 0)scale(0.996264)" xlink:href="#CMR17-77"/>
     <use transform="translate(799.439495 0)scale(0.996264)" xlink:href="#CMR17-69"/>
     <use transform="translate(824.310554 0)scale(0.996264)" xlink:href="#CMR17-74"/>
     <use transform="translate(859.591321 0)scale(0.996264)" xlink:href="#CMR17-68"/>
     <use transform="translate(940.562657 0)scale(0.996264)" xlink:href="#CMR17-66"/>
     <use transform="translate(968.03617 0)scale(0.996264)" xlink:href="#CMR17-75"/>
     <use transform="translate(1018.93154 0)scale(0.996264)" xlink:href="#CMR17-6c"/>
     <use transform="translate(1043.802598 0)scale(0.996264)" xlink:href="#CMR17-6c"/>
     <use transform="translate(1098.749623 0)scale(0.996264)" xlink:href="#CMR17-6d"/>
     <use transform="translate(1175.669213 0)scale(0.996264)" xlink:href="#CMR17-61"/>
     <use transform="translate(1221.35969 0)scale(0.996264)" xlink:href="#CMR17-74"/>
     <use transform="translate(1256.640458 0)scale(0.996264)" xlink:href="#CMR17-72"/>
     <use transform="translate(1291.921226 0)scale(0.996264)" xlink:href="#CMR17-69"/>
     <use transform="translate(1316.792284 0)scale(0.996264)" xlink:href="#CMR17-78"/>
     <use transform="translate(1395.161166 0)scale(0.996264)" xlink:href="#CMR17-6d"/>
     <use transform="translate(1469.478302 0)scale(0.996264)" xlink:href="#CMR17-75"/>
     <use transform="translate(1520.373672 0)scale(0.996264)" xlink:href="#CMR17-6c"/>
     <use transform="translate(1545.24473 0)scale(0.996264)" xlink:href="#CMR17-74"/>
     <use transform="translate(1580.525498 0)scale(0.996264)" xlink:href="#CMR17-69"/>
     <use transform="translate(1605.396557 0)scale(0.996264)" xlink:href="#CMR17-70"/>
     <use transform="translate(1656.291927 0)scale(0.996264)" xlink:href="#CMR17-6c"/>
     <use transform="translate(1681.162985 0)scale(0.996264)" xlink:href="#CMR17-69"/>
     <use transform="translate(1706.034043 0)scale(0.996264)" xlink:href="#CMR17-63"/>
     <use transform="translate(1746.519704 0)scale(0.996264)" xlink:href="#CMR17-61"/>
     <use transform="translate(1792.210181 0)scale(0.996264)" xlink:href="#CMR17-74"/>
     <use transform="translate(1827.490949 0)scale(0.996264)" xlink:href="#CMR17-69"/>
     <use transform="translate(1852.362007 0)scale(0.996264)" xlink:href="#CMR17-6f"/>
     <use transform="translate(1898.052484 0)scale(0.996264)" xlink:href="#CMR17-6e"/>
    </g>
   </g>
   <g id="legend_1">
    <g id="patch_7">
     <path d="M 61.005281 112.814361 
L 248.272579 112.814361 
Q 250.571659 112.814361 250.571659 110.515281 
L 250.571659 31.558103 
Q 250.571659 29.259023 248.272579 29.259023 
L 61.005281 29.259023 
Q 58.706201 29.259023 58.706201 31.558103 
L 58.706201 110.515281 
Q 58.706201 112.814361 61.005281 112.814361 
z
" style="fill:#ffffff;opacity:0.8;stroke:#cccccc;stroke-linejoin:miter;"/>
    </g>
    <g id="patch_8">
     <path d="M 63.304361 41.903963 
L 86.295161 41.903963 
L 86.295161 33.857183 
L 63.304361 33.857183 
z
" style="fill:none;"/>
    </g>
    <g id="line2d_27"/>
    <g id="line2d_28">
     <g>
      <use style="fill:#9acd32;stroke:#9acd32;" x="74.799761" xlink:href="#m9a5b1c5d5c" y="53.901917"/>
     </g>
    </g>
    <g id="line2d_29"/>
    <g id="line2d_30">
     <g>
      <use style="fill:#556b2f;stroke:#556b2f;" x="74.799761" xlink:href="#m9e4abbe76c" y="69.92326"/>
     </g>
    </g>
    <g id="line2d_31"/>
    <g id="line2d_32">
     <g>
      <use style="fill:#cd5c5c;stroke:#cd5c5c;" x="74.799761" xlink:href="#m3d15a20bce" y="85.944604"/>
     </g>
    </g>
    <g id="line2d_33"/>
    <g id="line2d_34">
     <g>
      <use style="fill:#800000;stroke:#800000;" x="74.799761" xlink:href="#m836f6793d6" y="101.965947"/>
     </g>
    </g>
    <g id="patch_9">
     <path d="M 74.799761 41.903963 
L 97.790561 41.903963 
L 97.790561 33.857183 
L 74.799761 33.857183 
z
" style="fill:none;"/>
    </g>
    <g id="text_16">
     <!-- Func. -->
     <g style="fill:#262626;" transform="translate(92.042861 41.903963)scale(0.114954 -0.114954)">
      <defs>
       <path d="M 3482 4325 
L 326 4325 
L 326 4160 
C 768 4160 838 4160 838 3874 
L 838 446 
C 838 160 768 160 326 160 
L 326 0 
C 512 0 870 0 1069 0 
C 1331 0 1638 0 1901 0 
L 1901 160 
L 1760 160 
C 1274 160 1261 223 1261 452 
L 1261 2075 
L 1837 2075 
C 2432 2075 2490 1865 2490 1332 
L 2605 1332 
L 2605 2987 
L 2490 2987 
C 2490 2450 2432 2240 1837 2240 
L 1261 2240 
L 1261 3911 
C 1261 4128 1274 4160 1530 4160 
L 2355 4160 
C 3322 4160 3430 3765 3520 2916 
L 3635 2916 
L 3482 4325 
z
" id="CMR17-46" transform="scale(0.015625)"/>
       <path d="M 1062 261 
C 1062 420 934 522 800 522 
C 672 522 538 420 538 261 
C 538 102 666 0 800 0 
C 928 0 1062 102 1062 261 
z
" id="CMR17-2e" transform="scale(0.015625)"/>
      </defs>
      <use transform="scale(0.996264)" xlink:href="#CMR17-46"/>
      <use transform="translate(52.176591 0)scale(0.996264)" xlink:href="#CMR17-75"/>
      <use transform="translate(103.071961 0)scale(0.996264)" xlink:href="#CMR17-6e"/>
      <use transform="translate(153.967331 0)scale(0.996264)" xlink:href="#CMR17-63"/>
      <use transform="translate(194.452991 0)scale(0.996264)" xlink:href="#CMR17-2e"/>
     </g>
    </g>
    <g id="patch_10">
     <path d="M 74.799761 57.925307 
L 97.790561 57.925307 
L 97.790561 49.878527 
L 74.799761 49.878527 
z
" style="fill:none;"/>
    </g>
    <g id="text_17">
     <!-- LHS -->
     <g style="fill:#262626;" transform="translate(92.042861 57.925307)scale(0.114954 -0.114954)">
      <defs>
       <path d="M 3469 1615 
L 3354 1615 
C 3302 983 3219 166 2125 166 
L 1530 166 
C 1274 166 1261 197 1261 414 
L 1261 3898 
C 1261 4129 1274 4192 1760 4192 
L 1901 4192 
L 1901 4352 
C 1638 4352 1331 4352 1069 4352 
C 870 4352 512 4352 326 4352 
L 326 4192 
C 768 4192 838 4192 838 3905 
L 838 452 
C 838 166 768 166 326 166 
L 326 0 
L 3315 0 
L 3469 1615 
z
" id="CMR17-4c" transform="scale(0.015625)"/>
       <path d="M 3590 3905 
C 3590 4192 3661 4192 4102 4192 
L 4102 4352 
C 3917 4352 3578 4352 3379 4352 
C 3181 4352 2842 4352 2656 4352 
L 2656 4192 
C 3098 4192 3168 4192 3168 3904 
L 3168 2341 
L 1261 2341 
L 1261 3904 
C 1261 4192 1331 4192 1773 4192 
L 1773 4352 
C 1587 4352 1248 4352 1050 4352 
C 851 4352 512 4352 326 4352 
L 326 4192 
C 768 4192 838 4192 838 3905 
L 838 447 
C 838 160 768 160 326 160 
L 326 0 
C 512 0 851 0 1050 0 
C 1248 0 1587 0 1773 0 
L 1773 160 
C 1331 160 1261 160 1261 446 
L 1261 2176 
L 3168 2176 
L 3168 446 
C 3168 160 3098 160 2656 160 
L 2656 0 
C 2842 0 3181 0 3379 0 
C 3578 0 3917 0 4102 0 
L 4102 160 
C 3661 160 3590 160 3590 447 
L 3590 3905 
z
" id="CMR17-48" transform="scale(0.015625)"/>
       <path d="M 2803 4290 
C 2803 4404 2797 4411 2758 4411 
C 2720 4411 2707 4385 2682 4328 
L 2490 3907 
C 2246 4257 1875 4416 1472 4416 
C 819 4416 294 3901 294 3253 
C 294 3056 339 2776 557 2510 
C 794 2218 1018 2167 1530 2033 
C 1722 1982 2042 1899 2106 1874 
C 2470 1722 2662 1341 2662 985 
C 2662 527 2336 38 1779 38 
C 1094 38 454 419 410 1311 
C 403 1413 397 1419 352 1419 
C 301 1419 294 1413 294 1285 
L 294 -1 
C 294 -115 301 -122 339 -122 
C 384 -122 397 -90 486 108 
C 493 127 493 140 614 381 
C 934 -39 1472 -128 1779 -128 
C 2477 -128 2970 451 2970 1124 
C 2970 1454 2848 1708 2778 1823 
C 2509 2230 2221 2306 1914 2382 
C 1869 2402 1856 2402 1498 2490 
C 1152 2579 1005 2624 845 2796 
C 666 2992 602 3196 602 3399 
C 602 3812 934 4263 1478 4263 
C 2157 4263 2579 3786 2675 2993 
C 2694 2878 2701 2872 2746 2872 
C 2803 2872 2803 2891 2803 2999 
L 2803 4290 
z
" id="CMR17-53" transform="scale(0.015625)"/>
      </defs>
      <use transform="scale(0.996264)" xlink:href="#CMR17-4c"/>
      <use transform="translate(57.381408 0)scale(0.996264)" xlink:href="#CMR17-48"/>
      <use transform="translate(126.453838 0)scale(0.996264)" xlink:href="#CMR17-53"/>
     </g>
    </g>
    <g id="patch_11">
     <path d="M 74.799761 73.94665 
L 97.790561 73.94665 
L 97.790561 65.89987 
L 74.799761 65.89987 
z
" style="fill:none;"/>
    </g>
    <g id="text_18">
     <!-- LHS -->
     <g style="fill:#262626;" transform="translate(92.042861 73.94665)scale(0.114954 -0.114954)">
      <use transform="scale(0.996264)" xlink:href="#CMR17-4c"/>
      <use transform="translate(57.381408 0)scale(0.996264)" xlink:href="#CMR17-48"/>
      <use transform="translate(126.453838 0)scale(0.996264)" xlink:href="#CMR17-53"/>
     </g>
    </g>
    <g id="patch_12">
     <path d="M 74.799761 89.967994 
L 97.790561 89.967994 
L 97.790561 81.921214 
L 74.799761 81.921214 
z
" style="fill:none;"/>
    </g>
    <g id="text_19">
     <!-- RHS -->
     <g style="fill:#262626;" transform="translate(92.042861 89.967994)scale(0.114954 -0.114954)">
      <defs>
       <path d="M 2509 2146 
C 3117 2268 3629 2676 3629 3186 
C 3629 3785 2950 4326 2054 4326 
L 333 4326 
L 333 4160 
C 774 4160 845 4160 845 3873 
L 845 415 
C 845 128 774 128 333 128 
L 333 -26 
C 518 -26 851 -26 1050 -26 
C 1248 -26 1581 -26 1766 -26 
L 1766 128 
C 1325 128 1254 128 1254 417 
L 1254 2112 
L 2003 2112 
C 2368 2112 2573 1964 2662 1881 
C 2918 1632 2918 1459 2918 1024 
C 2918 595 2918 377 3110 160 
C 3354 -102 3680 -128 3821 -128 
C 4294 -128 4365 396 4365 503 
C 4365 540 4365 585 4307 585 
C 4256 585 4250 547 4250 522 
C 4218 112 4032 -26 3834 -26 
C 3482 -26 3443 375 3405 764 
C 3386 898 3373 993 3360 1133 
C 3322 1452 3270 1917 2509 2146 
z
M 1984 2214 
L 1254 2214 
L 1254 3913 
C 1254 4129 1267 4160 1523 4160 
L 1990 4160 
C 2522 4160 3142 3977 3142 3190 
C 3142 2372 2464 2214 1984 2214 
z
" id="CMR17-52" transform="scale(0.015625)"/>
      </defs>
      <use transform="scale(0.996264)" xlink:href="#CMR17-52"/>
      <use transform="translate(67.791102 0)scale(0.996264)" xlink:href="#CMR17-48"/>
      <use transform="translate(136.863532 0)scale(0.996264)" xlink:href="#CMR17-53"/>
     </g>
    </g>
    <g id="patch_13">
     <path d="M 74.799761 105.989337 
L 97.790561 105.989337 
L 97.790561 97.942557 
L 74.799761 97.942557 
z
" style="fill:none;"/>
    </g>
    <g id="text_20">
     <!-- RHS -->
     <g style="fill:#262626;" transform="translate(92.042861 105.989337)scale(0.114954 -0.114954)">
      <use transform="scale(0.996264)" xlink:href="#CMR17-52"/>
      <use transform="translate(67.791102 0)scale(0.996264)" xlink:href="#CMR17-48"/>
      <use transform="translate(136.863532 0)scale(0.996264)" xlink:href="#CMR17-53"/>
     </g>
    </g>
    <g id="patch_14">
     <path d="M 113.812926 41.903963 
L 136.803726 41.903963 
L 136.803726 33.857183 
L 113.812926 33.857183 
z
" style="fill:none;"/>
    </g>
    <g id="text_21">
     <!-- $\mathbf{A}$ is SPD -->
     <g style="fill:#262626;" transform="translate(131.056026 41.903963)scale(0.114954 -0.114954)">
      <defs>
       <path d="M 333 4352 
L 333 4186 
C 774 4186 845 4186 845 3900 
L 845 452 
C 845 166 774 166 333 166 
L 333 0 
L 2368 0 
C 3398 0 4224 943 4224 2141 
C 4224 3346 3411 4352 2368 4352 
L 333 4352 
z
M 1523 166 
C 1267 166 1254 197 1254 414 
L 1254 3938 
C 1254 4155 1267 4186 1523 4186 
L 2240 4186 
C 2771 4186 3750 3874 3750 2141 
C 3750 1242 3488 879 3366 707 
C 3213 510 2848 166 2240 166 
L 1523 166 
z
" id="CMR17-44" transform="scale(0.015625)"/>
      </defs>
      <use transform="scale(0.996264)" xlink:href="#CMBX12-41"/>
      <use transform="translate(114.712361 0)scale(0.996264)" xlink:href="#CMR17-69"/>
      <use transform="translate(139.583419 0)scale(0.996264)" xlink:href="#CMR17-73"/>
      <use transform="translate(205.460723 0)scale(0.996264)" xlink:href="#CMR17-53"/>
      <use transform="translate(256.356093 0)scale(0.996264)" xlink:href="#CMR17-50"/>
      <use transform="translate(318.942394 0)scale(0.996264)" xlink:href="#CMR17-44"/>
     </g>
    </g>
    <g id="patch_15">
     <path d="M 113.812926 57.925307 
L 136.803726 57.925307 
L 136.803726 49.878527 
L 113.812926 49.878527 
z
" style="fill:none;"/>
    </g>
    <g id="text_22">
     <!-- No -->
     <g style="fill:#262626;" transform="translate(131.056026 57.925307)scale(0.114954 -0.114954)">
      <defs>
       <path d="M 1312 4250 
C 1267 4320 1261 4320 1139 4320 
L 326 4320 
L 326 4160 
L 448 4160 
C 704 4160 819 4129 838 4122 
L 838 610 
C 838 451 838 153 326 153 
L 326 -13 
C 474 0 742 0 902 0 
C 1062 0 1331 0 1478 -13 
L 1478 153 
C 966 153 966 451 966 610 
L 966 4033 
C 1011 3995 1011 3982 1056 3919 
L 3430 76 
C 3475 0 3494 0 3526 0 
C 3590 0 3590 19 3590 139 
L 3590 3705 
C 3590 3863 3590 4160 4102 4160 
L 4102 4326 
C 3955 4320 3686 4320 3526 4320 
C 3366 4320 3098 4320 2950 4326 
L 2950 4160 
C 3462 4160 3462 3862 3462 3703 
L 3462 763 
L 1312 4250 
z
" id="CMR17-4e" transform="scale(0.015625)"/>
      </defs>
      <use transform="scale(0.996264)" xlink:href="#CMR17-4e"/>
      <use transform="translate(69.07243 0)scale(0.996264)" xlink:href="#CMR17-6f"/>
     </g>
    </g>
    <g id="patch_16">
     <path d="M 113.812926 73.94665 
L 136.803726 73.94665 
L 136.803726 65.89987 
L 113.812926 65.89987 
z
" style="fill:none;"/>
    </g>
    <g id="text_23">
     <!-- Yes -->
     <g style="fill:#262626;" transform="translate(131.056026 73.94665)scale(0.114954 -0.114954)">
      <defs>
       <path d="M 3706 3766 
C 3955 4160 4301 4160 4416 4160 
L 4416 4332 
C 4269 4319 4102 4319 3942 4319 
C 3782 4319 3526 4319 3373 4332 
L 3373 4160 
C 3533 4160 3616 4077 3616 3957 
C 3616 3881 3584 3830 3533 3747 
L 2381 1912 
L 1120 3912 
C 1075 3988 1069 3994 1069 4039 
C 1069 4160 1293 4160 1382 4160 
L 1382 4319 
C 1178 4319 864 4319 653 4319 
C 486 4319 166 4319 13 4332 
L 13 4160 
C 378 4160 480 4141 595 3958 
L 2010 1728 
L 2010 445 
C 2010 160 1939 160 1498 160 
L 1498 0 
C 1683 0 2016 0 2214 0 
C 2413 0 2752 0 2938 0 
L 2938 160 
C 2477 160 2419 160 2419 471 
L 2419 1728 
L 3706 3766 
z
" id="CMR17-59" transform="scale(0.015625)"/>
      </defs>
      <use transform="scale(0.996264)" xlink:href="#CMR17-59"/>
      <use transform="translate(61.265174 0)scale(0.996264)" xlink:href="#CMR17-65"/>
      <use transform="translate(101.750835 0)scale(0.996264)" xlink:href="#CMR17-73"/>
     </g>
    </g>
    <g id="patch_17">
     <path d="M 113.812926 89.967994 
L 136.803726 89.967994 
L 136.803726 81.921214 
L 113.812926 81.921214 
z
" style="fill:none;"/>
    </g>
    <g id="text_24">
     <!-- - - - -->
     <g style="fill:#262626;" transform="translate(131.056026 89.967994)scale(0.114954 -0.114954)">
      <defs>
       <path d="M 5939 1664 
L 5939 1766 
L -77 1766 
L -77 1664 
L 5939 1664 
z
" id="CMR17-7c" transform="scale(0.015625)"/>
      </defs>
      <use transform="scale(0.996264)" xlink:href="#CMR17-7c"/>
     </g>
    </g>
    <g id="patch_18">
     <path d="M 113.812926 105.989337 
L 136.803726 105.989337 
L 136.803726 97.942557 
L 113.812926 97.942557 
z
" style="fill:none;"/>
    </g>
    <g id="text_25">
     <!-- - - - -->
     <g style="fill:#262626;" transform="translate(131.056026 105.989337)scale(0.114954 -0.114954)">
      <use transform="scale(0.996264)" xlink:href="#CMR17-7c"/>
     </g>
    </g>
    <g id="patch_19">
     <path d="M 173.504088 41.903963 
L 196.494888 41.903963 
L 196.494888 33.857183 
L 173.504088 33.857183 
z
" style="fill:none;"/>
    </g>
    <g id="text_26">
     <!-- $\mathbf{X}$ is ortho. -->
     <g style="fill:#262626;" transform="translate(190.747188 41.903963)scale(0.114954 -0.114954)">
      <use transform="scale(0.996264)" xlink:href="#CMBX12-58"/>
      <use transform="translate(114.712361 0)scale(0.996264)" xlink:href="#CMR17-69"/>
      <use transform="translate(139.583419 0)scale(0.996264)" xlink:href="#CMR17-73"/>
      <use transform="translate(205.460723 0)scale(0.996264)" xlink:href="#CMR17-6f"/>
      <use transform="translate(251.151201 0)scale(0.996264)" xlink:href="#CMR17-72"/>
      <use transform="translate(286.431968 0)scale(0.996264)" xlink:href="#CMR17-74"/>
      <use transform="translate(321.712736 0)scale(0.996264)" xlink:href="#CMR17-68"/>
      <use transform="translate(372.608106 0)scale(0.996264)" xlink:href="#CMR17-6f"/>
      <use transform="translate(418.298583 0)scale(0.996264)" xlink:href="#CMR17-2e"/>
     </g>
    </g>
    <g id="patch_20">
     <path d="M 173.504088 57.925307 
L 196.494888 57.925307 
L 196.494888 49.878527 
L 173.504088 49.878527 
z
" style="fill:none;"/>
    </g>
    <g id="text_27">
     <!-- - - - -->
     <g style="fill:#262626;" transform="translate(190.747188 57.925307)scale(0.114954 -0.114954)">
      <use transform="scale(0.996264)" xlink:href="#CMR17-7c"/>
     </g>
    </g>
    <g id="patch_21">
     <path d="M 173.504088 73.94665 
L 196.494888 73.94665 
L 196.494888 65.89987 
L 173.504088 65.89987 
z
" style="fill:none;"/>
    </g>
    <g id="text_28">
     <!-- - - - -->
     <g style="fill:#262626;" transform="translate(190.747188 73.94665)scale(0.114954 -0.114954)">
      <use transform="scale(0.996264)" xlink:href="#CMR17-7c"/>
     </g>
    </g>
    <g id="patch_22">
     <path d="M 173.504088 89.967994 
L 196.494888 89.967994 
L 196.494888 81.921214 
L 173.504088 81.921214 
z
" style="fill:none;"/>
    </g>
    <g id="text_29">
     <!-- No -->
     <g style="fill:#262626;" transform="translate(190.747188 89.967994)scale(0.114954 -0.114954)">
      <use transform="scale(0.996264)" xlink:href="#CMR17-4e"/>
      <use transform="translate(69.07243 0)scale(0.996264)" xlink:href="#CMR17-6f"/>
     </g>
    </g>
    <g id="patch_23">
     <path d="M 173.504088 105.989337 
L 196.494888 105.989337 
L 196.494888 97.942557 
L 173.504088 97.942557 
z
" style="fill:none;"/>
    </g>
    <g id="text_30">
     <!-- Yes -->
     <g style="fill:#262626;" transform="translate(190.747188 105.989337)scale(0.114954 -0.114954)">
      <use transform="scale(0.996264)" xlink:href="#CMR17-59"/>
      <use transform="translate(61.265174 0)scale(0.996264)" xlink:href="#CMR17-65"/>
      <use transform="translate(101.750835 0)scale(0.996264)" xlink:href="#CMR17-73"/>
     </g>
    </g>
   </g>
  </g>
 </g>
 <defs>
  <clipPath id="p08e4975416">
   <rect height="232.229854" width="319.749581" x="52.958501" y="23.511323"/>
  </clipPath>
 </defs>
</svg>
