<?xml version="1.0" encoding="utf-8" standalone="no"?>
<!DOCTYPE svg PUBLIC "-//W3C//DTD SVG 1.1//EN"
  "http://www.w3.org/Graphics/SVG/1.1/DTD/svg11.dtd">
<svg height="301.392pt" version="1.1" viewBox="0 0 676.778255 301.392" width="676.778255pt" xmlns="http://www.w3.org/2000/svg" xmlns:xlink="http://www.w3.org/1999/xlink">
 <metadata>
  <rdf:RDF xmlns:cc="http://creativecommons.org/ns#" xmlns:dc="http://purl.org/dc/elements/1.1/" xmlns:rdf="http://www.w3.org/1999/02/22-rdf-syntax-ns#">
   <cc:Work>
    <dc:type rdf:resource="http://purl.org/dc/dcmitype/StillImage"/>
    <dc:date>2022-07-02T17:45:41.065953</dc:date>
    <dc:format>image/svg+xml</dc:format>
    <dc:creator>
     <cc:Agent>
      <dc:title>Matplotlib v3.4.2, https://matplotlib.org/</dc:title>
     </cc:Agent>
    </dc:creator>
   </cc:Work>
  </rdf:RDF>
 </metadata>
 <defs>
  <style type="text/css">*{stroke-linecap:butt;stroke-linejoin:round;}</style>
 </defs>
 <g id="figure_1">
  <g id="patch_1">
   <path d="M 0 301.392 
L 676.778255 301.392 
L 676.778255 0 
L 0 0 
z
" style="fill:none;"/>
  </g>
  <g id="axes_1">
   <g id="patch_2">
    <path d="M 41.498364 255.741178 
L 516.708082 255.741178 
L 516.708082 11.575939 
L 41.498364 11.575939 
z
" style="fill:none;"/>
   </g>
   <g id="matplotlib.axis_1">
    <g id="xtick_1">
     <g id="line2d_1">
      <defs>
       <path d="M 0 0 
L 0 6 
" id="mc9800c28ad" style="stroke:#262626;stroke-width:1.25;"/>
      </defs>
      <g>
       <use style="fill:#262626;stroke:#262626;stroke-width:1.25;" x="41.498364" xlink:href="#mc9800c28ad" y="255.741178"/>
      </g>
     </g>
     <g id="text_1">
      <!-- $\mathdefault{0.0}$ -->
      <g style="fill:#262626;" transform="translate(33.614446 273.993057)scale(0.1265 -0.1265)">
       <defs>
        <path d="M 2688 2025 
C 2688 2416 2682 3080 2413 3591 
C 2176 4039 1798 4198 1466 4198 
C 1158 4198 768 4058 525 3597 
C 269 3118 243 2524 243 2025 
C 243 1661 250 1106 448 619 
C 723 -39 1216 -128 1466 -128 
C 1760 -128 2208 -7 2470 600 
C 2662 1042 2688 1559 2688 2025 
z
M 1466 -26 
C 1056 -26 813 325 723 812 
C 653 1188 653 1738 653 2096 
C 653 2588 653 2997 736 3387 
C 858 3929 1216 4096 1466 4096 
C 1728 4096 2067 3923 2189 3400 
C 2272 3036 2278 2607 2278 2096 
C 2278 1680 2278 1169 2202 792 
C 2067 95 1690 -26 1466 -26 
z
" id="CMR17-30" transform="scale(0.015625)"/>
        <path d="M 1178 307 
C 1178 492 1024 619 870 619 
C 685 619 557 466 557 313 
C 557 128 710 0 864 0 
C 1050 0 1178 153 1178 307 
z
" id="CMMI12-3a" transform="scale(0.015625)"/>
       </defs>
       <use transform="scale(0.996264)" xlink:href="#CMR17-30"/>
       <use transform="translate(45.690477 0)scale(0.996264)" xlink:href="#CMMI12-3a"/>
       <use transform="translate(72.787654 0)scale(0.996264)" xlink:href="#CMR17-30"/>
      </g>
     </g>
    </g>
    <g id="xtick_2">
     <g id="line2d_2">
      <g>
       <use style="fill:#262626;stroke:#262626;stroke-width:1.25;" x="136.540308" xlink:href="#mc9800c28ad" y="255.741178"/>
      </g>
     </g>
     <g id="text_2">
      <!-- $\mathdefault{0.2}$ -->
      <g style="fill:#262626;" transform="translate(128.65639 273.993057)scale(0.1265 -0.1265)">
       <defs>
        <path d="M 2669 989 
L 2554 989 
C 2490 536 2438 459 2413 420 
C 2381 369 1920 369 1830 369 
L 602 369 
C 832 619 1280 1072 1824 1597 
C 2214 1967 2669 2402 2669 3035 
C 2669 3790 2067 4224 1395 4224 
C 691 4224 262 3604 262 3030 
C 262 2780 448 2748 525 2748 
C 589 2748 781 2787 781 3010 
C 781 3207 614 3264 525 3264 
C 486 3264 448 3258 422 3245 
C 544 3790 915 4058 1306 4058 
C 1862 4058 2227 3617 2227 3035 
C 2227 2479 1901 2000 1536 1584 
L 262 146 
L 262 0 
L 2515 0 
L 2669 989 
z
" id="CMR17-32" transform="scale(0.015625)"/>
       </defs>
       <use transform="scale(0.996264)" xlink:href="#CMR17-30"/>
       <use transform="translate(45.690477 0)scale(0.996264)" xlink:href="#CMMI12-3a"/>
       <use transform="translate(72.787654 0)scale(0.996264)" xlink:href="#CMR17-32"/>
      </g>
     </g>
    </g>
    <g id="xtick_3">
     <g id="line2d_3">
      <g>
       <use style="fill:#262626;stroke:#262626;stroke-width:1.25;" x="231.582251" xlink:href="#mc9800c28ad" y="255.741178"/>
      </g>
     </g>
     <g id="text_3">
      <!-- $\mathdefault{0.4}$ -->
      <g style="fill:#262626;" transform="translate(223.698333 273.993057)scale(0.1265 -0.1265)">
       <defs>
        <path d="M 2150 4122 
C 2150 4256 2144 4256 2029 4256 
L 128 1254 
L 128 1088 
L 1779 1088 
L 1779 457 
C 1779 224 1766 160 1318 160 
L 1197 160 
L 1197 0 
C 1402 0 1747 0 1965 0 
C 2182 0 2528 0 2733 0 
L 2733 160 
L 2611 160 
C 2163 160 2150 224 2150 457 
L 2150 1088 
L 2803 1088 
L 2803 1254 
L 2150 1254 
L 2150 4122 
z
M 1798 3703 
L 1798 1254 
L 256 1254 
L 1798 3703 
z
" id="CMR17-34" transform="scale(0.015625)"/>
       </defs>
       <use transform="scale(0.996264)" xlink:href="#CMR17-30"/>
       <use transform="translate(45.690477 0)scale(0.996264)" xlink:href="#CMMI12-3a"/>
       <use transform="translate(72.787654 0)scale(0.996264)" xlink:href="#CMR17-34"/>
      </g>
     </g>
    </g>
    <g id="xtick_4">
     <g id="line2d_4">
      <g>
       <use style="fill:#262626;stroke:#262626;stroke-width:1.25;" x="326.624195" xlink:href="#mc9800c28ad" y="255.741178"/>
      </g>
     </g>
     <g id="text_4">
      <!-- $\mathdefault{0.6}$ -->
      <g style="fill:#262626;" transform="translate(318.740277 273.993057)scale(0.1265 -0.1265)">
       <defs>
        <path d="M 678 2176 
C 678 3690 1395 4032 1811 4032 
C 1946 4032 2272 4009 2400 3776 
C 2298 3776 2106 3776 2106 3553 
C 2106 3381 2246 3323 2336 3323 
C 2394 3323 2566 3348 2566 3560 
C 2566 3954 2246 4179 1805 4179 
C 1043 4179 243 3390 243 1984 
C 243 253 966 -128 1478 -128 
C 2099 -128 2688 427 2688 1283 
C 2688 2081 2170 2662 1517 2662 
C 1126 2662 838 2407 678 1960 
L 678 2176 
z
M 1478 25 
C 691 25 691 1200 691 1436 
C 691 1896 909 2560 1504 2560 
C 1613 2560 1926 2560 2138 2120 
C 2253 1870 2253 1609 2253 1289 
C 2253 944 2253 690 2118 434 
C 1978 171 1773 25 1478 25 
z
" id="CMR17-36" transform="scale(0.015625)"/>
       </defs>
       <use transform="scale(0.996264)" xlink:href="#CMR17-30"/>
       <use transform="translate(45.690477 0)scale(0.996264)" xlink:href="#CMMI12-3a"/>
       <use transform="translate(72.787654 0)scale(0.996264)" xlink:href="#CMR17-36"/>
      </g>
     </g>
    </g>
    <g id="xtick_5">
     <g id="line2d_5">
      <g>
       <use style="fill:#262626;stroke:#262626;stroke-width:1.25;" x="421.666138" xlink:href="#mc9800c28ad" y="255.741178"/>
      </g>
     </g>
     <g id="text_5">
      <!-- $\mathdefault{0.8}$ -->
      <g style="fill:#262626;" transform="translate(413.78222 273.993057)scale(0.1265 -0.1265)">
       <defs>
        <path d="M 1741 2264 
C 2144 2467 2554 2773 2554 3263 
C 2554 3841 1990 4179 1472 4179 
C 890 4179 378 3759 378 3180 
C 378 3021 416 2747 666 2505 
C 730 2442 998 2251 1171 2130 
C 883 1983 211 1634 211 934 
C 211 279 838 -128 1459 -128 
C 2144 -128 2720 362 2720 1010 
C 2720 1590 2330 1857 2074 2029 
L 1741 2264 
z
M 902 2822 
C 851 2854 595 3051 595 3351 
C 595 3739 998 4032 1459 4032 
C 1965 4032 2336 3676 2336 3262 
C 2336 2669 1670 2331 1638 2331 
C 1632 2331 1626 2331 1574 2370 
L 902 2822 
z
M 2080 1519 
C 2176 1449 2483 1240 2483 851 
C 2483 381 2010 25 1472 25 
C 890 25 448 438 448 940 
C 448 1443 838 1862 1280 2060 
L 2080 1519 
z
" id="CMR17-38" transform="scale(0.015625)"/>
       </defs>
       <use transform="scale(0.996264)" xlink:href="#CMR17-30"/>
       <use transform="translate(45.690477 0)scale(0.996264)" xlink:href="#CMMI12-3a"/>
       <use transform="translate(72.787654 0)scale(0.996264)" xlink:href="#CMR17-38"/>
      </g>
     </g>
    </g>
    <g id="xtick_6">
     <g id="line2d_6">
      <g>
       <use style="fill:#262626;stroke:#262626;stroke-width:1.25;" x="516.708082" xlink:href="#mc9800c28ad" y="255.741178"/>
      </g>
     </g>
     <g id="text_6">
      <!-- $\mathdefault{1.0}$ -->
      <g style="fill:#262626;" transform="translate(508.824164 273.993057)scale(0.1265 -0.1265)">
       <defs>
        <path d="M 1702 4058 
C 1702 4192 1696 4192 1606 4192 
C 1357 3916 979 3827 621 3827 
C 602 3827 570 3827 563 3808 
C 557 3795 557 3782 557 3648 
C 755 3648 1088 3686 1344 3839 
L 1344 461 
C 1344 236 1331 160 781 160 
L 589 160 
L 589 0 
C 896 0 1216 0 1523 0 
C 1830 0 2150 0 2458 0 
L 2458 160 
L 2266 160 
C 1715 160 1702 230 1702 458 
L 1702 4058 
z
" id="CMR17-31" transform="scale(0.015625)"/>
       </defs>
       <use transform="scale(0.996264)" xlink:href="#CMR17-31"/>
       <use transform="translate(45.690477 0)scale(0.996264)" xlink:href="#CMMI12-3a"/>
       <use transform="translate(72.787654 0)scale(0.996264)" xlink:href="#CMR17-30"/>
      </g>
     </g>
    </g>
    <g id="text_7">
     <!-- $p/n$ -->
     <g style="fill:#262626;" transform="translate(268.341684 290.754892)scale(0.138 -0.138)">
      <defs>
       <path d="M 275 -789 
C 230 -980 205 -1031 -58 -1031 
C -134 -1031 -198 -1031 -198 -1152 
C -198 -1165 -192 -1216 -122 -1216 
C -38 -1216 51 -1216 134 -1216 
L 410 -1216 
C 544 -1216 870 -1216 1005 -1216 
C 1043 -1216 1120 -1216 1120 -1101 
C 1120 -1031 1075 -1031 966 -1031 
C 672 -1031 653 -987 653 -937 
C 653 -861 941 219 979 364 
C 1050 185 1222 -64 1555 -64 
C 2278 -64 3059 875 3059 1814 
C 3059 2401 2726 2816 2246 2816 
C 1837 2816 1491 2420 1421 2331 
C 1370 2650 1120 2816 864 2816 
C 678 2816 531 2727 410 2484 
C 294 2254 205 1865 205 1839 
C 205 1814 230 1782 275 1782 
C 326 1782 333 1788 371 1935 
C 467 2312 589 2689 845 2689 
C 992 2689 1043 2587 1043 2397 
C 1043 2245 1024 2181 998 2067 
L 275 -789 
z
M 1382 1993 
C 1427 2171 1606 2357 1709 2446 
C 1779 2510 1990 2689 2234 2689 
C 2515 2689 2643 2408 2643 2076 
C 2643 1769 2464 1047 2304 715 
C 2144 370 1850 64 1555 64 
C 1120 64 1050 613 1050 639 
C 1050 658 1062 709 1069 741 
L 1382 1993 
z
" id="CMMI12-70" transform="scale(0.015625)"/>
       <path d="M 2746 4562 
C 2746 4569 2784 4666 2784 4678 
C 2784 4755 2720 4800 2669 4800 
C 2637 4800 2579 4800 2528 4659 
L 384 -1363 
C 384 -1370 346 -1465 346 -1478 
C 346 -1555 410 -1600 461 -1600 
C 499 -1600 557 -1593 602 -1459 
L 2746 4562 
z
" id="CMMI12-3d" transform="scale(0.015625)"/>
       <path d="M 1318 1871 
C 1331 1910 1491 2229 1728 2433 
C 1894 2586 2112 2689 2362 2689 
C 2618 2689 2707 2497 2707 2242 
C 2707 1878 2445 1150 2317 805 
C 2259 651 2227 568 2227 453 
C 2227 166 2426 -64 2733 -64 
C 3328 -64 3552 875 3552 913 
C 3552 945 3526 971 3488 971 
C 3430 971 3424 952 3392 843 
C 3245 319 3002 64 2752 64 
C 2688 64 2586 64 2586 269 
C 2586 429 2656 621 2694 710 
C 2822 1063 3091 1780 3091 2145 
C 3091 2528 2867 2816 2381 2816 
C 1811 2816 1510 2415 1395 2255 
C 1376 2618 1114 2816 832 2816 
C 627 2816 486 2695 378 2478 
C 262 2248 173 1865 173 1839 
C 173 1814 198 1782 243 1782 
C 294 1782 301 1788 339 1935 
C 442 2325 557 2689 813 2689 
C 960 2689 1011 2586 1011 2395 
C 1011 2254 947 2005 902 1807 
L 723 1118 
C 698 996 627 709 595 594 
C 550 428 480 128 480 96 
C 480 6 550 -64 646 -64 
C 723 -64 813 -26 864 70 
C 877 102 934 326 966 453 
L 1107 1028 
L 1318 1871 
z
" id="CMMI12-6e" transform="scale(0.015625)"/>
      </defs>
      <use transform="scale(0.996264)" xlink:href="#CMMI12-70"/>
      <use transform="translate(48.959514 0)scale(0.996264)" xlink:href="#CMMI12-3d"/>
      <use transform="translate(97.734433 0)scale(0.996264)" xlink:href="#CMMI12-6e"/>
     </g>
    </g>
   </g>
   <g id="matplotlib.axis_2">
    <g id="ytick_1">
     <g id="line2d_7">
      <path clip-path="url(#p2cf03f8be8)" d="M 41.498364 255.741178 
L 516.708082 255.741178 
" style="fill:none;stroke:#cccccc;stroke-linecap:round;"/>
     </g>
     <g id="line2d_8">
      <defs>
       <path d="M 0 0 
L -6 0 
" id="m21f710c8ec" style="stroke:#262626;stroke-width:1.25;"/>
      </defs>
      <g>
       <use style="fill:#262626;stroke:#262626;stroke-width:1.25;" x="41.498364" xlink:href="#m21f710c8ec" y="255.741178"/>
      </g>
     </g>
     <g id="text_8">
      <!-- $\mathdefault{0}$ -->
      <g style="fill:#262626;" transform="translate(25.828341 260.117117)scale(0.1265 -0.1265)">
       <use transform="scale(0.996264)" xlink:href="#CMR17-30"/>
      </g>
     </g>
    </g>
    <g id="ytick_2">
     <g id="line2d_9">
      <path clip-path="url(#p2cf03f8be8)" d="M 41.498364 206.90813 
L 516.708082 206.90813 
" style="fill:none;stroke:#cccccc;stroke-linecap:round;"/>
     </g>
     <g id="line2d_10">
      <g>
       <use style="fill:#262626;stroke:#262626;stroke-width:1.25;" x="41.498364" xlink:href="#m21f710c8ec" y="206.90813"/>
      </g>
     </g>
     <g id="text_9">
      <!-- $\mathdefault{1}$ -->
      <g style="fill:#262626;" transform="translate(25.828341 211.28407)scale(0.1265 -0.1265)">
       <use transform="scale(0.996264)" xlink:href="#CMR17-31"/>
      </g>
     </g>
    </g>
    <g id="ytick_3">
     <g id="line2d_11">
      <path clip-path="url(#p2cf03f8be8)" d="M 41.498364 158.075082 
L 516.708082 158.075082 
" style="fill:none;stroke:#cccccc;stroke-linecap:round;"/>
     </g>
     <g id="line2d_12">
      <g>
       <use style="fill:#262626;stroke:#262626;stroke-width:1.25;" x="41.498364" xlink:href="#m21f710c8ec" y="158.075082"/>
      </g>
     </g>
     <g id="text_10">
      <!-- $\mathdefault{2}$ -->
      <g style="fill:#262626;" transform="translate(25.828341 162.451022)scale(0.1265 -0.1265)">
       <use transform="scale(0.996264)" xlink:href="#CMR17-32"/>
      </g>
     </g>
    </g>
    <g id="ytick_4">
     <g id="line2d_13">
      <path clip-path="url(#p2cf03f8be8)" d="M 41.498364 109.242035 
L 516.708082 109.242035 
" style="fill:none;stroke:#cccccc;stroke-linecap:round;"/>
     </g>
     <g id="line2d_14">
      <g>
       <use style="fill:#262626;stroke:#262626;stroke-width:1.25;" x="41.498364" xlink:href="#m21f710c8ec" y="109.242035"/>
      </g>
     </g>
     <g id="text_11">
      <!-- $\mathdefault{3}$ -->
      <g style="fill:#262626;" transform="translate(25.828341 113.617974)scale(0.1265 -0.1265)">
       <defs>
        <path d="M 1414 2157 
C 1984 2157 2234 1662 2234 1090 
C 2234 320 1824 25 1453 25 
C 1114 25 563 194 390 693 
C 422 680 454 680 486 680 
C 640 680 755 782 755 948 
C 755 1133 614 1216 486 1216 
C 378 1216 211 1165 211 926 
C 211 335 787 -128 1466 -128 
C 2176 -128 2720 430 2720 1085 
C 2720 1707 2208 2157 1600 2227 
C 2086 2328 2554 2756 2554 3329 
C 2554 3820 2048 4179 1472 4179 
C 890 4179 378 3829 378 3329 
C 378 3110 544 3072 627 3072 
C 762 3072 877 3155 877 3321 
C 877 3486 762 3569 627 3569 
C 602 3569 570 3569 544 3557 
C 730 3959 1235 4032 1459 4032 
C 1683 4032 2106 3925 2106 3320 
C 2106 3143 2080 2828 1862 2550 
C 1670 2304 1453 2304 1242 2284 
C 1210 2284 1062 2269 1037 2269 
C 992 2263 966 2257 966 2208 
C 966 2163 973 2157 1101 2157 
L 1414 2157 
z
" id="CMR17-33" transform="scale(0.015625)"/>
       </defs>
       <use transform="scale(0.996264)" xlink:href="#CMR17-33"/>
      </g>
     </g>
    </g>
    <g id="ytick_5">
     <g id="line2d_15">
      <path clip-path="url(#p2cf03f8be8)" d="M 41.498364 60.408987 
L 516.708082 60.408987 
" style="fill:none;stroke:#cccccc;stroke-linecap:round;"/>
     </g>
     <g id="line2d_16">
      <g>
       <use style="fill:#262626;stroke:#262626;stroke-width:1.25;" x="41.498364" xlink:href="#m21f710c8ec" y="60.408987"/>
      </g>
     </g>
     <g id="text_12">
      <!-- $\mathdefault{4}$ -->
      <g style="fill:#262626;" transform="translate(25.828341 64.784927)scale(0.1265 -0.1265)">
       <use transform="scale(0.996264)" xlink:href="#CMR17-34"/>
      </g>
     </g>
    </g>
    <g id="ytick_6">
     <g id="line2d_17">
      <path clip-path="url(#p2cf03f8be8)" d="M 41.498364 11.575939 
L 516.708082 11.575939 
" style="fill:none;stroke:#cccccc;stroke-linecap:round;"/>
     </g>
     <g id="line2d_18">
      <g>
       <use style="fill:#262626;stroke:#262626;stroke-width:1.25;" x="41.498364" xlink:href="#m21f710c8ec" y="11.575939"/>
      </g>
     </g>
     <g id="text_13">
      <!-- $\mathdefault{5}$ -->
      <g style="fill:#262626;" transform="translate(25.828341 15.951879)scale(0.1265 -0.1265)">
       <defs>
        <path d="M 730 3692 
C 794 3666 1056 3584 1325 3584 
C 1920 3584 2246 3911 2432 4100 
C 2432 4157 2432 4192 2394 4192 
C 2387 4192 2374 4192 2323 4163 
C 2099 4058 1837 3973 1517 3973 
C 1325 3973 1037 3999 723 4139 
C 653 4171 640 4171 634 4171 
C 602 4171 595 4164 595 4037 
L 595 2203 
C 595 2089 595 2057 659 2057 
C 691 2057 704 2070 736 2114 
C 941 2401 1222 2522 1542 2522 
C 1766 2522 2246 2382 2246 1289 
C 2246 1085 2246 715 2054 421 
C 1894 159 1645 25 1370 25 
C 947 25 518 320 403 814 
C 429 807 480 795 506 795 
C 589 795 749 840 749 1038 
C 749 1210 627 1280 506 1280 
C 358 1280 262 1190 262 1011 
C 262 454 704 -128 1382 -128 
C 2042 -128 2669 440 2669 1264 
C 2669 2030 2170 2624 1549 2624 
C 1222 2624 947 2503 730 2274 
L 730 3692 
z
" id="CMR17-35" transform="scale(0.015625)"/>
       </defs>
       <use transform="scale(0.996264)" xlink:href="#CMR17-35"/>
      </g>
     </g>
    </g>
    <g id="text_14">
     <!-- Complexity / $n^3$ -->
     <g style="fill:#262626;" transform="translate(18.391233 181.843625)rotate(-90)scale(0.138 -0.138)">
      <defs>
       <path d="M 3974 4289 
C 3974 4403 3968 4410 3930 4410 
C 3904 4410 3898 4403 3853 4327 
L 3571 3792 
C 3258 4187 2874 4416 2381 4416 
C 1286 4416 294 3456 294 2148 
C 294 826 1286 -128 2387 -128 
C 3366 -128 3974 730 3974 1461 
C 3974 1524 3974 1550 3917 1550 
C 3866 1550 3866 1531 3859 1474 
C 3808 585 3168 38 2477 38 
C 1824 38 781 495 781 2147 
C 781 3805 1843 4250 2464 4250 
C 3187 4250 3712 3628 3834 2745 
C 3846 2668 3846 2655 3904 2655 
C 3974 2655 3974 2668 3974 2783 
L 3974 4289 
z
" id="CMR17-43" transform="scale(0.015625)"/>
       <path d="M 2758 1356 
C 2758 2176 2163 2816 1466 2816 
C 768 2816 173 2176 173 1356 
C 173 551 768 -64 1466 -64 
C 2163 -64 2758 551 2758 1356 
z
M 1466 51 
C 1165 51 909 230 762 480 
C 602 767 582 1126 582 1408 
C 582 1677 595 2010 762 2298 
C 890 2509 1139 2714 1466 2714 
C 1754 2714 1997 2554 2150 2330 
C 2349 2029 2349 1607 2349 1408 
C 2349 1158 2336 775 2163 467 
C 1984 173 1709 51 1466 51 
z
" id="CMR17-6f" transform="scale(0.015625)"/>
       <path d="M 4326 1933 
C 4326 2252 4269 2790 3507 2790 
C 3072 2790 2771 2496 2656 2151 
L 2650 2151 
C 2573 2676 2195 2790 1837 2790 
C 1331 2790 1069 2400 973 2144 
L 966 2144 
L 966 2790 
L 211 2720 
L 211 2554 
C 589 2554 646 2515 646 2208 
L 646 428 
C 646 184 621 153 211 153 
L 211 -13 
C 365 0 646 0 813 0 
C 979 0 1267 0 1421 -13 
L 1421 153 
C 1011 153 986 178 986 428 
L 986 1658 
C 986 2247 1344 2688 1792 2688 
C 2266 2688 2317 2266 2317 1958 
L 2317 428 
C 2317 184 2291 153 1882 153 
L 1882 -13 
C 2035 0 2317 0 2483 0 
C 2650 0 2938 0 3091 -13 
L 3091 153 
C 2682 153 2656 178 2656 428 
L 2656 1658 
C 2656 2247 3014 2688 3462 2688 
C 3936 2688 3987 2266 3987 1958 
L 3987 428 
C 3987 184 3962 153 3552 153 
L 3552 -13 
C 3706 0 3987 0 4154 0 
C 4320 0 4608 0 4762 -13 
L 4762 153 
C 4352 153 4326 178 4326 428 
L 4326 1933 
z
" id="CMR17-6d" transform="scale(0.015625)"/>
       <path d="M 1408 -1063 
C 998 -1063 973 -1037 973 -789 
L 973 402 
C 1158 134 1427 -38 1766 -38 
C 2406 -38 3053 523 3053 1388 
C 3053 2191 2496 2802 1837 2802 
C 1453 2802 1139 2592 960 2338 
L 960 2802 
L 198 2732 
L 198 2567 
C 576 2567 634 2528 634 2223 
L 634 -789 
C 634 -1031 608 -1063 198 -1063 
L 198 -1228 
C 352 -1216 634 -1216 800 -1216 
C 966 -1216 1254 -1216 1408 -1228 
L 1408 -1063 
z
M 973 2012 
C 973 2102 973 2235 1222 2471 
C 1254 2497 1472 2688 1792 2688 
C 2259 2688 2643 2108 2643 1382 
C 2643 656 2234 64 1728 64 
C 1498 64 1248 172 1056 472 
C 973 612 973 650 973 752 
L 973 2012 
z
" id="CMR17-70" transform="scale(0.015625)"/>
       <path d="M 979 4396 
L 218 4326 
L 218 4160 
C 595 4160 653 4122 653 3817 
L 653 426 
C 653 184 627 153 218 153 
L 218 -13 
C 371 0 653 0 813 0 
C 979 0 1261 0 1414 -13 
L 1414 153 
C 1005 153 979 178 979 426 
L 979 4396 
z
" id="CMR17-6c" transform="scale(0.015625)"/>
       <path d="M 2438 1472 
C 2464 1498 2464 1511 2464 1576 
C 2464 2238 2118 2816 1389 2816 
C 710 2816 173 2169 173 1383 
C 173 551 781 -64 1459 -64 
C 2176 -64 2458 607 2458 740 
C 2458 784 2419 784 2406 784 
C 2362 784 2355 771 2330 696 
C 2189 265 1837 51 1504 51 
C 1229 51 954 203 781 480 
C 582 803 582 1176 582 1472 
L 2438 1472 
z
M 589 1568 
C 634 2505 1126 2714 1382 2714 
C 1818 2714 2112 2297 2118 1568 
L 589 1568 
z
" id="CMR17-65" transform="scale(0.015625)"/>
       <path d="M 1664 1477 
C 1856 1726 2074 2006 2253 2216 
C 2464 2458 2707 2560 2989 2560 
L 2989 2726 
C 2880 2726 2656 2726 2541 2726 
C 2368 2726 2170 2726 2022 2732 
L 2022 2566 
C 2112 2553 2163 2489 2163 2400 
C 2163 2285 2099 2215 2067 2171 
L 1594 1573 
L 1030 2306 
C 973 2376 973 2388 973 2420 
C 973 2497 1037 2560 1146 2560 
L 1146 2732 
C 992 2726 717 2726 557 2726 
C 384 2726 179 2726 38 2732 
L 38 2560 
C 384 2560 461 2534 614 2343 
L 1350 1395 
C 1363 1382 1395 1344 1395 1325 
C 1395 1299 838 619 768 530 
C 480 185 179 160 6 160 
L 6 0 
C 115 0 339 0 454 0 
C 582 0 864 0 979 -6 
L 979 160 
C 941 166 838 179 838 325 
C 838 440 890 510 947 586 
L 1478 1236 
L 2035 512 
C 2086 442 2163 346 2163 301 
C 2163 211 2086 160 1984 160 
L 1984 -6 
C 2138 0 2413 0 2573 0 
C 2746 0 2950 0 3091 -6 
L 3091 160 
C 2771 160 2675 172 2522 370 
L 1664 1477 
z
" id="CMR17-78" transform="scale(0.015625)"/>
       <path d="M 992 3909 
C 992 4049 877 4170 730 4170 
C 589 4170 467 4056 467 3909 
C 467 3769 582 3648 730 3648 
C 870 3648 992 3763 992 3909 
z
M 243 2706 
L 243 2541 
C 602 2541 653 2502 653 2197 
L 653 427 
C 653 184 627 153 218 153 
L 218 -13 
C 371 0 646 0 806 0 
C 960 0 1222 0 1370 -13 
L 1370 153 
C 992 153 979 191 979 420 
L 979 2776 
L 243 2706 
z
" id="CMR17-69" transform="scale(0.015625)"/>
       <path d="M 966 2560 
L 1862 2560 
L 1862 2725 
L 966 2725 
L 966 3904 
L 851 3904 
C 838 3245 614 2668 70 2668 
L 70 2560 
L 627 2560 
L 627 771 
C 627 650 627 -64 1370 -64 
C 1747 -64 1965 306 1965 777 
L 1965 1140 
L 1850 1140 
L 1850 783 
C 1850 344 1677 51 1408 51 
C 1222 51 966 178 966 758 
L 966 2560 
z
" id="CMR17-74" transform="scale(0.015625)"/>
       <path d="M 2496 2197 
C 2656 2586 2944 2586 3034 2586 
L 3034 2752 
C 2912 2752 2752 2752 2630 2752 
C 2496 2752 2285 2752 2157 2758 
L 2157 2592 
C 2400 2573 2406 2394 2406 2343 
C 2406 2280 2394 2248 2362 2171 
L 1664 449 
L 902 2306 
C 870 2382 870 2426 870 2433 
C 870 2573 1018 2586 1171 2586 
L 1171 2758 
C 1018 2752 742 2752 582 2752 
C 410 2752 205 2752 64 2758 
L 64 2586 
C 410 2586 448 2554 531 2350 
L 1485 15 
C 1197 -738 1030 -1178 627 -1178 
C 557 -1178 397 -1159 282 -1044 
C 429 -1031 493 -942 493 -833 
C 493 -725 416 -629 288 -629 
C 147 -629 77 -725 77 -840 
C 77 -1095 339 -1280 627 -1280 
C 998 -1280 1229 -922 1357 -604 
L 2496 2197 
z
" id="CMR17-79" transform="scale(0.015625)"/>
       <path d="M 2605 4545 
C 2637 4627 2637 4640 2637 4653 
C 2637 4729 2579 4768 2528 4768 
C 2451 4768 2426 4717 2400 4640 
L 326 -1377 
C 294 -1460 294 -1473 294 -1486 
C 294 -1562 352 -1600 403 -1600 
C 480 -1600 506 -1549 531 -1473 
L 2605 4545 
z
" id="CMR17-2f" transform="scale(0.015625)"/>
      </defs>
      <use transform="scale(0.996264)" xlink:href="#CMR17-43"/>
      <use transform="translate(66.509881 0)scale(0.996264)" xlink:href="#CMR17-6f"/>
      <use transform="translate(112.200358 0)scale(0.996264)" xlink:href="#CMR17-6d"/>
      <use transform="translate(189.119948 0)scale(0.996264)" xlink:href="#CMR17-70"/>
      <use transform="translate(240.015317 0)scale(0.996264)" xlink:href="#CMR17-6c"/>
      <use transform="translate(264.886376 0)scale(0.996264)" xlink:href="#CMR17-65"/>
      <use transform="translate(305.372036 0)scale(0.996264)" xlink:href="#CMR17-78"/>
      <use transform="translate(353.664952 0)scale(0.996264)" xlink:href="#CMR17-69"/>
      <use transform="translate(378.536011 0)scale(0.996264)" xlink:href="#CMR17-74"/>
      <use transform="translate(411.214324 0)scale(0.996264)" xlink:href="#CMR17-79"/>
      <use transform="translate(489.583207 0)scale(0.996264)" xlink:href="#CMR17-2f"/>
      <use transform="translate(565.34965 0)scale(0.996264)" xlink:href="#CMMI12-6e"/>
      <use transform="translate(623.579697 36.153639)scale(0.697382)" xlink:href="#CMR17-33"/>
     </g>
    </g>
   </g>
   <g id="line2d_19">
    <path clip-path="url(#p2cf03f8be8)" d="M 41.498364 223.185813 
L 51.196522 222.168605 
L 60.894679 221.109059 
L 70.592837 220.005515 
L 80.290994 218.856314 
L 89.989152 217.659793 
L 99.687309 216.414295 
L 109.385467 215.118157 
L 119.083624 213.769719 
L 128.781782 212.367322 
L 138.479939 210.909306 
L 148.178097 209.394009 
L 157.876254 207.819771 
L 167.574412 206.184933 
L 177.272569 204.487833 
L 186.970727 202.726812 
L 196.668884 200.90021 
L 206.367042 199.006365 
L 216.065199 197.043618 
L 225.763357 195.010309 
L 235.461514 192.904777 
L 245.159672 190.725361 
L 254.857829 188.470402 
L 264.555987 186.138239 
L 274.254144 183.727213 
L 283.952302 181.235661 
L 293.650459 178.661925 
L 303.348617 176.004345 
L 313.046774 173.261259 
L 322.744932 170.431007 
L 332.443089 167.511929 
L 342.141247 164.502366 
L 351.839404 161.400656 
L 361.537562 158.205139 
L 371.235719 154.914155 
L 380.933877 151.526044 
L 390.632034 148.039145 
L 400.330192 144.451798 
L 410.028349 140.762344 
L 419.726507 136.96912 
L 429.424664 133.070468 
L 439.122822 129.064726 
L 448.820979 124.950236 
L 458.519137 120.725335 
L 468.217294 116.388365 
L 477.915452 111.937664 
L 487.61361 107.371573 
L 497.311767 102.688431 
L 507.009925 97.886577 
L 516.708082 92.964352 
" style="fill:none;stroke:#9acd32;stroke-linecap:round;stroke-width:2;"/>
   </g>
   <g id="line2d_20">
    <path clip-path="url(#p2cf03f8be8)" d="M 41.498364 239.463495 
L 51.196522 238.954891 
L 60.894679 238.425118 
L 70.592837 237.873347 
L 80.290994 237.298746 
L 89.989152 236.700486 
L 99.687309 236.077736 
L 109.385467 235.429667 
L 119.083624 234.755449 
L 128.781782 234.05425 
L 138.479939 233.325242 
L 148.178097 232.567593 
L 157.876254 231.780474 
L 167.574412 230.963055 
L 177.272569 230.114506 
L 186.970727 229.233995 
L 196.668884 228.320694 
L 206.367042 227.373772 
L 216.065199 226.392398 
L 225.763357 225.375743 
L 235.461514 224.322977 
L 245.159672 223.233269 
L 254.857829 222.10579 
L 264.555987 220.939709 
L 274.254144 219.734195 
L 283.952302 218.48842 
L 293.650459 217.201552 
L 303.348617 215.872761 
L 313.046774 214.501218 
L 322.744932 213.086092 
L 332.443089 211.626554 
L 342.141247 210.121772 
L 351.839404 208.570917 
L 361.537562 206.973158 
L 371.235719 205.327666 
L 380.933877 203.633611 
L 390.632034 201.890161 
L 400.330192 200.096488 
L 410.028349 198.251761 
L 419.726507 196.355149 
L 429.424664 194.405823 
L 439.122822 192.402952 
L 448.820979 190.345707 
L 458.519137 188.233257 
L 468.217294 186.064771 
L 477.915452 183.839421 
L 487.61361 181.556375 
L 497.311767 179.214804 
L 507.009925 176.813877 
L 516.708082 174.352765 
" style="fill:none;stroke:#556b2f;stroke-linecap:round;stroke-width:2;"/>
   </g>
   <g id="line2d_21">
    <path clip-path="url(#p2cf03f8be8)" d="M 41.498364 239.463495 
L 51.196522 238.944722 
L 60.894679 238.384441 
L 70.592837 237.781823 
L 80.290994 237.136037 
L 89.989152 236.446253 
L 99.687309 235.711641 
L 109.385467 234.931371 
L 119.083624 234.104612 
L 128.781782 233.230536 
L 138.479939 232.30831 
L 148.178097 231.337106 
L 157.876254 230.316093 
L 167.574412 229.244441 
L 177.272569 228.12132 
L 186.970727 226.945899 
L 196.668884 225.717349 
L 206.367042 224.43484 
L 216.065199 223.09754 
L 225.763357 221.704621 
L 235.461514 220.255251 
L 245.159672 218.748602 
L 254.857829 217.183842 
L 264.555987 215.560141 
L 274.254144 213.87667 
L 283.952302 212.132598 
L 293.650459 210.327095 
L 303.348617 208.459331 
L 313.046774 206.528476 
L 322.744932 204.533699 
L 332.443089 202.474171 
L 342.141247 200.349061 
L 351.839404 198.157539 
L 361.537562 195.898775 
L 371.235719 193.571939 
L 380.933877 191.176201 
L 390.632034 188.71073 
L 400.330192 186.174697 
L 410.028349 183.567271 
L 419.726507 180.887622 
L 429.424664 178.13492 
L 439.122822 175.308335 
L 448.820979 172.407036 
L 458.519137 169.430194 
L 468.217294 166.376979 
L 477.915452 163.246559 
L 487.61361 160.038106 
L 497.311767 156.750789 
L 507.009925 153.383777 
L 516.708082 149.936241 
" style="fill:none;stroke:#556b2f;stroke-dasharray:7.4,3.2;stroke-dashoffset:0;stroke-width:2;"/>
   </g>
   <g id="line2d_22">
    <path clip-path="url(#p2cf03f8be8)" d="M 41.498364 223.185813 
L 51.196522 221.17215 
L 60.894679 219.11698 
L 70.592837 217.019472 
L 80.290994 214.878797 
L 89.989152 212.694124 
L 99.687309 210.464623 
L 109.385467 208.189464 
L 119.083624 205.867816 
L 128.781782 203.49885 
L 138.479939 201.081736 
L 148.178097 198.615642 
L 157.876254 196.09974 
L 167.574412 193.533199 
L 177.272569 190.915188 
L 186.970727 188.244879 
L 196.668884 185.521439 
L 206.367042 182.74404 
L 216.065199 179.911852 
L 225.763357 177.024043 
L 235.461514 174.079785 
L 245.159672 171.078246 
L 254.857829 168.018597 
L 264.555987 164.900007 
L 274.254144 161.721646 
L 283.952302 158.482685 
L 293.650459 155.182293 
L 303.348617 151.81964 
L 313.046774 148.393895 
L 322.744932 144.904229 
L 332.443089 141.349812 
L 342.141247 137.729813 
L 351.839404 134.043401 
L 361.537562 130.289748 
L 371.235719 126.468023 
L 380.933877 122.577396 
L 390.632034 118.617036 
L 400.330192 114.586113 
L 410.028349 110.483798 
L 419.726507 106.30926 
L 429.424664 102.061669 
L 439.122822 97.740194 
L 448.820979 93.344007 
L 458.519137 88.872275 
L 468.217294 84.324171 
L 477.915452 79.698862 
L 487.61361 74.99552 
L 497.311767 70.213313 
L 507.009925 65.351412 
L 516.708082 60.408987 
" style="fill:none;stroke:#cd5c5c;stroke-linecap:round;stroke-width:2;"/>
   </g>
   <g id="line2d_23">
    <path clip-path="url(#p2cf03f8be8)" d="M 41.498364 223.185813 
L 51.196522 221.161981 
L 60.894679 219.076303 
L 70.592837 216.927949 
L 80.290994 214.716088 
L 89.989152 212.439891 
L 99.687309 210.098528 
L 109.385467 207.691167 
L 119.083624 205.21698 
L 128.781782 202.675136 
L 138.479939 200.064804 
L 148.178097 197.385155 
L 157.876254 194.635359 
L 167.574412 191.814585 
L 177.272569 188.922003 
L 186.970727 185.956783 
L 196.668884 182.918095 
L 206.367042 179.805109 
L 216.065199 176.616994 
L 225.763357 173.352921 
L 235.461514 170.012059 
L 245.159672 166.593578 
L 254.857829 163.096648 
L 264.555987 159.520439 
L 274.254144 155.864121 
L 283.952302 152.126864 
L 293.650459 148.307836 
L 303.348617 144.40621 
L 313.046774 140.421153 
L 322.744932 136.351836 
L 332.443089 132.197429 
L 342.141247 127.957101 
L 351.839404 123.630024 
L 361.537562 119.215365 
L 371.235719 114.712296 
L 380.933877 110.119986 
L 390.632034 105.437604 
L 400.330192 100.664322 
L 410.028349 95.799308 
L 419.726507 90.841733 
L 429.424664 85.790766 
L 439.122822 80.645577 
L 448.820979 75.405336 
L 458.519137 70.069213 
L 468.217294 64.636378 
L 477.915452 59.106 
L 487.61361 53.47725 
L 497.311767 47.749298 
L 507.009925 41.921312 
L 516.708082 35.992463 
" style="fill:none;stroke:#cd5c5c;stroke-dasharray:7.4,3.2;stroke-dashoffset:0;stroke-width:2;"/>
   </g>
   <g id="line2d_24">
    <path clip-path="url(#p2cf03f8be8)" d="M 41.498364 223.185813 
L 51.196522 221.192627 
L 60.894679 219.199441 
L 70.592837 217.206256 
L 80.290994 215.21307 
L 89.989152 213.219885 
L 99.687309 211.226699 
L 109.385467 209.233513 
L 119.083624 207.240328 
L 128.781782 205.247142 
L 138.479939 203.253956 
L 148.178097 201.260771 
L 157.876254 199.267585 
L 167.574412 197.2744 
L 177.272569 195.281214 
L 186.970727 193.288028 
L 196.668884 191.294843 
L 206.367042 189.301657 
L 216.065199 187.308472 
L 225.763357 185.315286 
L 235.461514 183.3221 
L 245.159672 181.328915 
L 254.857829 179.335729 
L 264.555987 177.342543 
L 274.254144 175.349358 
L 283.952302 173.356172 
L 293.650459 171.362987 
L 303.348617 169.369801 
L 313.046774 167.376615 
L 322.744932 165.38343 
L 332.443089 163.390244 
L 342.141247 161.397058 
L 351.839404 159.403873 
L 361.537562 157.410687 
L 371.235719 155.417502 
L 380.933877 153.424316 
L 390.632034 151.43113 
L 400.330192 149.437945 
L 410.028349 147.444759 
L 419.726507 145.451574 
L 429.424664 143.458388 
L 439.122822 141.465202 
L 448.820979 139.472017 
L 458.519137 137.478831 
L 468.217294 135.485645 
L 477.915452 133.49246 
L 487.61361 131.499274 
L 497.311767 129.506089 
L 507.009925 127.512903 
L 516.708082 125.519717 
" style="fill:none;stroke:#800000;stroke-linecap:round;stroke-width:2;"/>
   </g>
   <g id="line2d_25">
    <path clip-path="url(#p2cf03f8be8)" d="M 41.498364 27.853622 
L 51.196522 32.775847 
L 60.894679 37.5777 
L 70.592837 42.260843 
L 80.290994 46.826934 
L 89.989152 51.277635 
L 99.687309 55.614605 
L 109.385467 59.839506 
L 119.083624 63.953996 
L 128.781782 67.959738 
L 138.479939 71.85839 
L 148.178097 75.651613 
L 157.876254 79.341068 
L 167.574412 82.928415 
L 177.272569 86.415314 
L 186.970727 89.803425 
L 196.668884 93.094409 
L 206.367042 96.289926 
L 216.065199 99.391636 
L 225.763357 102.401199 
L 235.461514 105.320277 
L 245.159672 108.150528 
L 254.857829 110.893614 
L 264.555987 113.551195 
L 274.254144 116.124931 
L 283.952302 118.616482 
L 293.650459 121.027509 
L 303.348617 123.359672 
L 313.046774 125.614631 
L 322.744932 127.794046 
L 332.443089 129.899579 
L 342.141247 131.932888 
L 351.839404 133.895635 
L 361.537562 135.78948 
L 371.235719 137.616082 
L 380.933877 139.377103 
L 390.632034 141.074203 
L 400.330192 142.709041 
L 410.028349 144.283278 
L 419.726507 145.798575 
L 429.424664 147.256592 
L 439.122822 148.658989 
L 448.820979 150.007426 
L 458.519137 151.303564 
L 468.217294 152.549063 
L 477.915452 153.745583 
L 487.61361 154.894785 
L 497.311767 155.998329 
L 507.009925 157.057874 
L 516.708082 158.075082 
" style="fill:none;stroke:#00008b;stroke-linecap:round;stroke-width:2;"/>
   </g>
   <g id="line2d_26">
    <path clip-path="url(#p2cf03f8be8)" d="M 41.498364 68.547828 
L 51.196522 71.507237 
L 60.894679 74.40646 
L 70.592837 77.246328 
L 80.290994 80.02767 
L 89.989152 82.751317 
L 99.687309 85.418098 
L 109.385467 88.028845 
L 119.083624 90.584387 
L 128.781782 93.085554 
L 138.479939 95.533176 
L 148.178097 97.928085 
L 157.876254 100.271108 
L 167.574412 102.563078 
L 177.272569 104.804824 
L 186.970727 106.997176 
L 196.668884 109.140964 
L 206.367042 111.237019 
L 216.065199 113.28617 
L 225.763357 115.289249 
L 235.461514 117.247084 
L 245.159672 119.160506 
L 254.857829 121.030346 
L 264.555987 122.857432 
L 274.254144 124.642597 
L 283.952302 126.386669 
L 293.650459 128.090479 
L 303.348617 129.754856 
L 313.046774 131.380632 
L 322.744932 132.968636 
L 332.443089 134.519699 
L 342.141247 136.03465 
L 351.839404 137.51432 
L 361.537562 138.959539 
L 371.235719 140.371136 
L 380.933877 141.749943 
L 390.632034 143.096789 
L 400.330192 144.412505 
L 410.028349 145.69792 
L 419.726507 146.953865 
L 429.424664 148.18117 
L 439.122822 149.380665 
L 448.820979 150.55318 
L 458.519137 151.699545 
L 468.217294 152.820591 
L 477.915452 153.917147 
L 487.61361 154.990045 
L 497.311767 156.040113 
L 507.009925 157.068182 
L 516.708082 158.075082 
" style="fill:none;stroke:#6495ed;stroke-linecap:round;stroke-width:2;"/>
   </g>
   <g id="line2d_27">
    <path clip-path="url(#p2cf03f8be8)" d="M 41.498364 44.131305 
L 51.196522 48.077137 
L 60.894679 51.942445 
L 70.592837 55.728059 
L 80.290994 59.434808 
L 89.989152 63.063524 
L 99.687309 66.615036 
L 109.385467 70.090174 
L 119.083624 73.489769 
L 128.781782 76.814651 
L 138.479939 80.065649 
L 148.178097 83.243595 
L 157.876254 86.349317 
L 167.574412 89.383647 
L 177.272569 92.347414 
L 186.970727 95.241449 
L 196.668884 98.066581 
L 206.367042 100.823641 
L 216.065199 103.513459 
L 225.763357 106.136866 
L 235.461514 108.69469 
L 245.159672 111.187764 
L 254.857829 113.616915 
L 264.555987 115.982976 
L 274.254144 118.286775 
L 283.952302 120.529144 
L 293.650459 122.710911 
L 303.348617 124.832908 
L 313.046774 126.895965 
L 322.744932 128.900911 
L 332.443089 130.848576 
L 342.141247 132.739792 
L 351.839404 134.575388 
L 361.537562 136.356194 
L 371.235719 138.083041 
L 380.933877 139.756757 
L 390.632034 141.378175 
L 400.330192 142.948124 
L 410.028349 144.467433 
L 419.726507 145.936933 
L 429.424664 147.357455 
L 439.122822 148.729828 
L 448.820979 150.054883 
L 458.519137 151.33345 
L 468.217294 152.566358 
L 477.915452 153.754438 
L 487.61361 154.898521 
L 497.311767 155.999435 
L 507.009925 157.058013 
L 516.708082 158.075082 
" style="fill:none;stroke:#6495ed;stroke-dasharray:7.4,3.2;stroke-dashoffset:0;stroke-width:2;"/>
   </g>
   <g id="line2d_28">
    <path clip-path="url(#p2cf03f8be8)" d="M 41.498364 27.853622 
L 51.196522 32.816524 
L 60.894679 37.740409 
L 70.592837 42.626938 
L 80.290994 47.47777 
L 89.989152 52.294566 
L 99.687309 57.078986 
L 109.385467 61.832691 
L 119.083624 66.557341 
L 128.781782 71.254596 
L 138.479939 75.926116 
L 148.178097 80.573562 
L 157.876254 85.198593 
L 167.574412 89.802872 
L 177.272569 94.388056 
L 186.970727 98.955808 
L 196.668884 103.507787 
L 206.367042 108.045653 
L 216.065199 112.571067 
L 225.763357 117.085689 
L 235.461514 121.59118 
L 245.159672 126.089199 
L 254.857829 130.581407 
L 264.555987 135.069465 
L 274.254144 139.555031 
L 283.952302 144.039768 
L 293.650459 148.525335 
L 303.348617 153.013393 
L 313.046774 157.505601 
L 322.744932 162.00362 
L 332.443089 166.509111 
L 342.141247 171.023733 
L 351.839404 175.549147 
L 361.537562 180.087013 
L 371.235719 184.638992 
L 380.933877 189.206744 
L 390.632034 193.791928 
L 400.330192 198.396206 
L 410.028349 203.021238 
L 419.726507 207.668684 
L 429.424664 212.340204 
L 439.122822 217.037459 
L 448.820979 221.762109 
L 458.519137 226.515813 
L 468.217294 231.300234 
L 477.915452 236.11703 
L 487.61361 240.967862 
L 497.311767 245.85439 
L 507.009925 250.778276 
L 516.708082 255.741178 
" style="fill:none;stroke:#daa520;stroke-linecap:round;stroke-width:2;"/>
   </g>
   <g id="line2d_29">
    <path clip-path="url(#p2cf03f8be8)" d="M 41.498364 68.547828 
L 51.196522 71.547915 
L 60.894679 74.569169 
L 70.592837 77.612423 
L 80.290994 80.678506 
L 89.989152 83.768248 
L 99.687309 86.88248 
L 109.385467 90.022031 
L 119.083624 93.187731 
L 128.781782 96.380412 
L 138.479939 99.600902 
L 148.178097 102.850033 
L 157.876254 106.128633 
L 167.574412 109.437535 
L 177.272569 112.777566 
L 186.970727 116.149559 
L 196.668884 119.554342 
L 206.367042 122.992746 
L 216.065199 126.465602 
L 225.763357 129.973739 
L 235.461514 133.517987 
L 245.159672 137.099177 
L 254.857829 140.718138 
L 264.555987 144.375702 
L 274.254144 148.072697 
L 283.952302 151.809955 
L 293.650459 155.588305 
L 303.348617 159.408577 
L 313.046774 163.271602 
L 322.744932 167.17821 
L 332.443089 171.129231 
L 342.141247 175.125495 
L 351.839404 179.167832 
L 361.537562 183.257072 
L 371.235719 187.394046 
L 380.933877 191.579584 
L 390.632034 195.814515 
L 400.330192 200.09967 
L 410.028349 204.43588 
L 419.726507 208.823974 
L 429.424664 213.264782 
L 439.122822 217.759134 
L 448.820979 222.307862 
L 458.519137 226.911794 
L 468.217294 231.571761 
L 477.915452 236.288594 
L 487.61361 241.063121 
L 497.311767 245.896175 
L 507.009925 250.788583 
L 516.708082 255.741178 
" style="fill:none;stroke:#ffd700;stroke-linecap:round;stroke-width:2;"/>
   </g>
   <g id="line2d_30">
    <path clip-path="url(#p2cf03f8be8)" d="M 41.498364 44.131305 
L 51.196522 48.117814 
L 60.894679 52.105154 
L 70.592837 56.094154 
L 80.290994 60.085644 
L 89.989152 64.080456 
L 99.687309 68.079417 
L 109.385467 72.08336 
L 119.083624 76.093114 
L 128.781782 80.109509 
L 138.479939 84.133375 
L 148.178097 88.165543 
L 157.876254 92.206842 
L 167.574412 96.258103 
L 177.272569 100.320156 
L 186.970727 104.393831 
L 196.668884 108.479959 
L 206.367042 112.579369 
L 216.065199 116.692891 
L 225.763357 120.821356 
L 235.461514 124.965593 
L 245.159672 129.126434 
L 254.857829 133.304708 
L 264.555987 137.501245 
L 274.254144 141.716876 
L 283.952302 145.95243 
L 293.650459 150.208737 
L 303.348617 154.486629 
L 313.046774 158.786934 
L 322.744932 163.110484 
L 332.443089 167.458108 
L 342.141247 171.830637 
L 351.839404 176.2289 
L 361.537562 180.653728 
L 371.235719 185.10595 
L 380.933877 189.586398 
L 390.632034 194.095901 
L 400.330192 198.635289 
L 410.028349 203.205393 
L 419.726507 207.807042 
L 429.424664 212.441067 
L 439.122822 217.108298 
L 448.820979 221.809565 
L 458.519137 226.545699 
L 468.217294 231.317528 
L 477.915452 236.125885 
L 487.61361 240.971598 
L 497.311767 245.855497 
L 507.009925 250.778414 
L 516.708082 255.741178 
" style="fill:none;stroke:#ffd700;stroke-dasharray:7.4,3.2;stroke-dashoffset:0;stroke-width:2;"/>
   </g>
   <g id="patch_3">
    <path d="M 41.498364 255.741178 
L 41.498364 11.575939 
" style="fill:none;stroke:#262626;stroke-linecap:square;stroke-linejoin:miter;stroke-width:1.25;"/>
   </g>
   <g id="patch_4">
    <path d="M 516.708082 255.741178 
L 516.708082 11.575939 
" style="fill:none;stroke:#262626;stroke-linecap:square;stroke-linejoin:miter;stroke-width:1.25;"/>
   </g>
   <g id="patch_5">
    <path d="M 41.498364 255.741178 
L 516.708082 255.741178 
" style="fill:none;stroke:#262626;stroke-linecap:square;stroke-linejoin:miter;stroke-width:1.25;"/>
   </g>
   <g id="patch_6">
    <path d="M 41.498364 11.575939 
L 516.708082 11.575939 
" style="fill:none;stroke:#262626;stroke-linecap:square;stroke-linejoin:miter;stroke-width:1.25;"/>
   </g>
   <g id="legend_1">
    <g id="patch_7">
     <path d="M 523.412122 191.80559 
L 667.662815 191.80559 
Q 669.578255 191.80559 669.578255 189.89015 
L 669.578255 13.396675 
Q 669.578255 11.481235 667.662815 11.481235 
L 523.412122 11.481235 
Q 521.496682 11.481235 521.496682 13.396675 
L 521.496682 189.89015 
Q 521.496682 191.80559 523.412122 191.80559 
z
" style="fill:#ffffff;opacity:0.8;stroke:#cccccc;stroke-linejoin:miter;"/>
    </g>
    <g id="patch_8">
     <path d="M 525.327562 22.016155 
L 544.481962 22.016155 
L 544.481962 15.312115 
L 525.327562 15.312115 
z
" style="fill:none;"/>
    </g>
    <g id="line2d_31">
     <path d="M 525.327562 32.012046 
L 544.481962 32.012046 
" style="fill:none;stroke:#9acd32;stroke-linecap:round;stroke-width:2;"/>
    </g>
    <g id="line2d_32"/>
    <g id="line2d_33">
     <path d="M 525.327562 45.359957 
L 544.481962 45.359957 
" style="fill:none;stroke:#556b2f;stroke-linecap:round;stroke-width:2;"/>
    </g>
    <g id="line2d_34"/>
    <g id="line2d_35">
     <path d="M 525.327562 58.707868 
L 544.481962 58.707868 
" style="fill:none;stroke:#556b2f;stroke-dasharray:7.4,3.2;stroke-dashoffset:0;stroke-width:2;"/>
    </g>
    <g id="line2d_36"/>
    <g id="line2d_37">
     <path d="M 525.327562 72.055779 
L 544.481962 72.055779 
" style="fill:none;stroke:#cd5c5c;stroke-linecap:round;stroke-width:2;"/>
    </g>
    <g id="line2d_38"/>
    <g id="line2d_39">
     <path d="M 525.327562 85.40369 
L 544.481962 85.40369 
" style="fill:none;stroke:#cd5c5c;stroke-dasharray:7.4,3.2;stroke-dashoffset:0;stroke-width:2;"/>
    </g>
    <g id="line2d_40"/>
    <g id="line2d_41">
     <path d="M 525.327562 98.751601 
L 544.481962 98.751601 
" style="fill:none;stroke:#800000;stroke-linecap:round;stroke-width:2;"/>
    </g>
    <g id="line2d_42"/>
    <g id="line2d_43">
     <path d="M 525.327562 112.099513 
L 544.481962 112.099513 
" style="fill:none;stroke:#00008b;stroke-linecap:round;stroke-width:2;"/>
    </g>
    <g id="line2d_44"/>
    <g id="line2d_45">
     <path d="M 525.327562 125.447424 
L 544.481962 125.447424 
" style="fill:none;stroke:#6495ed;stroke-linecap:round;stroke-width:2;"/>
    </g>
    <g id="line2d_46"/>
    <g id="line2d_47">
     <path d="M 525.327562 138.795335 
L 544.481962 138.795335 
" style="fill:none;stroke:#6495ed;stroke-dasharray:7.4,3.2;stroke-dashoffset:0;stroke-width:2;"/>
    </g>
    <g id="line2d_48"/>
    <g id="line2d_49">
     <path d="M 525.327562 152.143246 
L 544.481962 152.143246 
" style="fill:none;stroke:#daa520;stroke-linecap:round;stroke-width:2;"/>
    </g>
    <g id="line2d_50"/>
    <g id="line2d_51">
     <path d="M 525.327562 165.491157 
L 544.481962 165.491157 
" style="fill:none;stroke:#ffd700;stroke-linecap:round;stroke-width:2;"/>
    </g>
    <g id="line2d_52"/>
    <g id="line2d_53">
     <path d="M 525.327562 178.839068 
L 544.481962 178.839068 
" style="fill:none;stroke:#ffd700;stroke-dasharray:7.4,3.2;stroke-dashoffset:0;stroke-width:2;"/>
    </g>
    <g id="line2d_54"/>
    <g id="patch_9">
     <path d="M 535.862482 22.016155 
L 555.016882 22.016155 
L 555.016882 15.312115 
L 535.862482 15.312115 
z
" style="fill:none;"/>
    </g>
    <g id="text_15">
     <!-- Func. -->
     <g style="fill:#262626;" transform="translate(551.186002 22.016155)scale(0.095772 -0.095772)">
      <defs>
       <path d="M 3482 4325 
L 326 4325 
L 326 4160 
C 768 4160 838 4160 838 3874 
L 838 446 
C 838 160 768 160 326 160 
L 326 0 
C 512 0 870 0 1069 0 
C 1331 0 1638 0 1901 0 
L 1901 160 
L 1760 160 
C 1274 160 1261 223 1261 452 
L 1261 2075 
L 1837 2075 
C 2432 2075 2490 1865 2490 1332 
L 2605 1332 
L 2605 2987 
L 2490 2987 
C 2490 2450 2432 2240 1837 2240 
L 1261 2240 
L 1261 3911 
C 1261 4128 1274 4160 1530 4160 
L 2355 4160 
C 3322 4160 3430 3765 3520 2916 
L 3635 2916 
L 3482 4325 
z
" id="CMR17-46" transform="scale(0.015625)"/>
       <path d="M 1882 2693 
L 1882 2528 
C 2259 2528 2317 2489 2317 2186 
L 2317 1032 
C 2317 500 2029 38 1555 38 
C 1030 38 986 348 986 678 
L 986 2763 
L 211 2693 
L 211 2528 
C 467 2528 640 2528 646 2274 
L 646 1058 
C 646 633 646 361 813 183 
C 896 101 1056 -64 1517 -64 
C 2061 -64 2272 377 2323 506 
L 2330 506 
L 2330 -63 
L 3091 -63 
L 3091 128 
C 2714 128 2656 166 2656 473 
L 2656 2763 
L 1882 2693 
z
" id="CMR17-75" transform="scale(0.015625)"/>
       <path d="M 2656 1933 
C 2656 2259 2592 2790 1837 2790 
C 1331 2790 1069 2400 973 2144 
L 966 2144 
L 966 2790 
L 211 2720 
L 211 2554 
C 589 2554 646 2515 646 2208 
L 646 428 
C 646 184 621 153 211 153 
L 211 -13 
C 365 0 646 0 813 0 
C 979 0 1267 0 1421 -13 
L 1421 153 
C 1011 153 986 178 986 428 
L 986 1658 
C 986 2247 1344 2688 1792 2688 
C 2266 2688 2317 2266 2317 1958 
L 2317 428 
C 2317 184 2291 153 1882 153 
L 1882 -13 
C 2035 0 2317 0 2483 0 
C 2650 0 2938 0 3091 -13 
L 3091 153 
C 2682 153 2656 178 2656 428 
L 2656 1933 
z
" id="CMR17-6e" transform="scale(0.015625)"/>
       <path d="M 2234 2240 
C 2112 2240 1933 2240 1933 2017 
C 1933 1838 2080 1787 2163 1787 
C 2208 1787 2394 1807 2394 2024 
C 2394 2467 1958 2803 1466 2803 
C 787 2803 211 2178 211 1363 
C 211 516 813 -64 1466 -64 
C 2259 -64 2458 677 2458 748 
C 2458 774 2451 793 2406 793 
C 2362 793 2355 787 2330 703 
C 2163 180 1798 51 1523 51 
C 1114 51 621 427 621 1369 
C 621 2338 1094 2688 1472 2688 
C 1722 2688 2093 2573 2234 2240 
z
" id="CMR17-63" transform="scale(0.015625)"/>
       <path d="M 1062 261 
C 1062 420 934 522 800 522 
C 672 522 538 420 538 261 
C 538 102 666 0 800 0 
C 928 0 1062 102 1062 261 
z
" id="CMR17-2e" transform="scale(0.015625)"/>
      </defs>
      <use transform="scale(0.996264)" xlink:href="#CMR17-46"/>
      <use transform="translate(52.176591 0)scale(0.996264)" xlink:href="#CMR17-75"/>
      <use transform="translate(103.071961 0)scale(0.996264)" xlink:href="#CMR17-6e"/>
      <use transform="translate(153.967331 0)scale(0.996264)" xlink:href="#CMR17-63"/>
      <use transform="translate(194.452991 0)scale(0.996264)" xlink:href="#CMR17-2e"/>
     </g>
    </g>
    <g id="patch_10">
     <path d="M 535.862482 35.364066 
L 555.016882 35.364066 
L 555.016882 28.660026 
L 535.862482 28.660026 
z
" style="fill:none;"/>
    </g>
    <g id="text_16">
     <!-- LD1 -->
     <g style="fill:#262626;" transform="translate(551.186002 35.364066)scale(0.095772 -0.095772)">
      <defs>
       <path d="M 3469 1615 
L 3354 1615 
C 3302 983 3219 166 2125 166 
L 1530 166 
C 1274 166 1261 197 1261 414 
L 1261 3898 
C 1261 4129 1274 4192 1760 4192 
L 1901 4192 
L 1901 4352 
C 1638 4352 1331 4352 1069 4352 
C 870 4352 512 4352 326 4352 
L 326 4192 
C 768 4192 838 4192 838 3905 
L 838 452 
C 838 166 768 166 326 166 
L 326 0 
L 3315 0 
L 3469 1615 
z
" id="CMR17-4c" transform="scale(0.015625)"/>
       <path d="M 333 4352 
L 333 4186 
C 774 4186 845 4186 845 3900 
L 845 452 
C 845 166 774 166 333 166 
L 333 0 
L 2368 0 
C 3398 0 4224 943 4224 2141 
C 4224 3346 3411 4352 2368 4352 
L 333 4352 
z
M 1523 166 
C 1267 166 1254 197 1254 414 
L 1254 3938 
C 1254 4155 1267 4186 1523 4186 
L 2240 4186 
C 2771 4186 3750 3874 3750 2141 
C 3750 1242 3488 879 3366 707 
C 3213 510 2848 166 2240 166 
L 1523 166 
z
" id="CMR17-44" transform="scale(0.015625)"/>
      </defs>
      <use transform="scale(0.996264)" xlink:href="#CMR17-4c"/>
      <use transform="translate(57.381408 0)scale(0.996264)" xlink:href="#CMR17-44"/>
      <use transform="translate(127.774964 0)scale(0.996264)" xlink:href="#CMR17-31"/>
     </g>
    </g>
    <g id="patch_11">
     <path d="M 535.862482 48.711977 
L 555.016882 48.711977 
L 555.016882 42.007937 
L 535.862482 42.007937 
z
" style="fill:none;"/>
    </g>
    <g id="text_17">
     <!-- LD1 -->
     <g style="fill:#262626;" transform="translate(551.186002 48.711977)scale(0.095772 -0.095772)">
      <use transform="scale(0.996264)" xlink:href="#CMR17-4c"/>
      <use transform="translate(57.381408 0)scale(0.996264)" xlink:href="#CMR17-44"/>
      <use transform="translate(127.774964 0)scale(0.996264)" xlink:href="#CMR17-31"/>
     </g>
    </g>
    <g id="patch_12">
     <path d="M 535.862482 62.059888 
L 555.016882 62.059888 
L 555.016882 55.355848 
L 535.862482 55.355848 
z
" style="fill:none;"/>
    </g>
    <g id="text_18">
     <!-- LD1 -->
     <g style="fill:#262626;" transform="translate(551.186002 62.059888)scale(0.095772 -0.095772)">
      <use transform="scale(0.996264)" xlink:href="#CMR17-4c"/>
      <use transform="translate(57.381408 0)scale(0.996264)" xlink:href="#CMR17-44"/>
      <use transform="translate(127.774964 0)scale(0.996264)" xlink:href="#CMR17-31"/>
     </g>
    </g>
    <g id="patch_13">
     <path d="M 535.862482 75.407799 
L 555.016882 75.407799 
L 555.016882 68.703759 
L 535.862482 68.703759 
z
" style="fill:none;"/>
    </g>
    <g id="text_19">
     <!-- LD2 -->
     <g style="fill:#262626;" transform="translate(551.186002 75.407799)scale(0.095772 -0.095772)">
      <use transform="scale(0.996264)" xlink:href="#CMR17-4c"/>
      <use transform="translate(57.381408 0)scale(0.996264)" xlink:href="#CMR17-44"/>
      <use transform="translate(127.774964 0)scale(0.996264)" xlink:href="#CMR17-32"/>
     </g>
    </g>
    <g id="patch_14">
     <path d="M 535.862482 88.75571 
L 555.016882 88.75571 
L 555.016882 82.05167 
L 535.862482 82.05167 
z
" style="fill:none;"/>
    </g>
    <g id="text_20">
     <!-- LD2 -->
     <g style="fill:#262626;" transform="translate(551.186002 88.75571)scale(0.095772 -0.095772)">
      <use transform="scale(0.996264)" xlink:href="#CMR17-4c"/>
      <use transform="translate(57.381408 0)scale(0.996264)" xlink:href="#CMR17-44"/>
      <use transform="translate(127.774964 0)scale(0.996264)" xlink:href="#CMR17-32"/>
     </g>
    </g>
    <g id="patch_15">
     <path d="M 535.862482 102.103621 
L 555.016882 102.103621 
L 555.016882 95.399581 
L 535.862482 95.399581 
z
" style="fill:none;"/>
    </g>
    <g id="text_21">
     <!-- LD2 -->
     <g style="fill:#262626;" transform="translate(551.186002 102.103621)scale(0.095772 -0.095772)">
      <use transform="scale(0.996264)" xlink:href="#CMR17-4c"/>
      <use transform="translate(57.381408 0)scale(0.996264)" xlink:href="#CMR17-44"/>
      <use transform="translate(127.774964 0)scale(0.996264)" xlink:href="#CMR17-32"/>
     </g>
    </g>
    <g id="patch_16">
     <path d="M 535.862482 115.451533 
L 555.016882 115.451533 
L 555.016882 108.747493 
L 535.862482 108.747493 
z
" style="fill:none;"/>
    </g>
    <g id="text_22">
     <!-- LD3 -->
     <g style="fill:#262626;" transform="translate(551.186002 115.451533)scale(0.095772 -0.095772)">
      <use transform="scale(0.996264)" xlink:href="#CMR17-4c"/>
      <use transform="translate(57.381408 0)scale(0.996264)" xlink:href="#CMR17-44"/>
      <use transform="translate(127.774964 0)scale(0.996264)" xlink:href="#CMR17-33"/>
     </g>
    </g>
    <g id="patch_17">
     <path d="M 535.862482 128.799444 
L 555.016882 128.799444 
L 555.016882 122.095404 
L 535.862482 122.095404 
z
" style="fill:none;"/>
    </g>
    <g id="text_23">
     <!-- LD3 -->
     <g style="fill:#262626;" transform="translate(551.186002 128.799444)scale(0.095772 -0.095772)">
      <use transform="scale(0.996264)" xlink:href="#CMR17-4c"/>
      <use transform="translate(57.381408 0)scale(0.996264)" xlink:href="#CMR17-44"/>
      <use transform="translate(127.774964 0)scale(0.996264)" xlink:href="#CMR17-33"/>
     </g>
    </g>
    <g id="patch_18">
     <path d="M 535.862482 142.147355 
L 555.016882 142.147355 
L 555.016882 135.443315 
L 535.862482 135.443315 
z
" style="fill:none;"/>
    </g>
    <g id="text_24">
     <!-- LD3 -->
     <g style="fill:#262626;" transform="translate(551.186002 142.147355)scale(0.095772 -0.095772)">
      <use transform="scale(0.996264)" xlink:href="#CMR17-4c"/>
      <use transform="translate(57.381408 0)scale(0.996264)" xlink:href="#CMR17-44"/>
      <use transform="translate(127.774964 0)scale(0.996264)" xlink:href="#CMR17-33"/>
     </g>
    </g>
    <g id="patch_19">
     <path d="M 535.862482 155.495266 
L 555.016882 155.495266 
L 555.016882 148.791226 
L 535.862482 148.791226 
z
" style="fill:none;"/>
    </g>
    <g id="text_25">
     <!-- LD3 -->
     <g style="fill:#262626;" transform="translate(551.186002 155.495266)scale(0.095772 -0.095772)">
      <use transform="scale(0.996264)" xlink:href="#CMR17-4c"/>
      <use transform="translate(57.381408 0)scale(0.996264)" xlink:href="#CMR17-44"/>
      <use transform="translate(127.774964 0)scale(0.996264)" xlink:href="#CMR17-33"/>
     </g>
    </g>
    <g id="patch_20">
     <path d="M 535.862482 168.843177 
L 555.016882 168.843177 
L 555.016882 162.139137 
L 535.862482 162.139137 
z
" style="fill:none;"/>
    </g>
    <g id="text_26">
     <!-- LD3 -->
     <g style="fill:#262626;" transform="translate(551.186002 168.843177)scale(0.095772 -0.095772)">
      <use transform="scale(0.996264)" xlink:href="#CMR17-4c"/>
      <use transform="translate(57.381408 0)scale(0.996264)" xlink:href="#CMR17-44"/>
      <use transform="translate(127.774964 0)scale(0.996264)" xlink:href="#CMR17-33"/>
     </g>
    </g>
    <g id="patch_21">
     <path d="M 535.862482 182.191088 
L 555.016882 182.191088 
L 555.016882 175.487048 
L 535.862482 175.487048 
z
" style="fill:none;"/>
    </g>
    <g id="text_27">
     <!-- LD3 -->
     <g style="fill:#262626;" transform="translate(551.186002 182.191088)scale(0.095772 -0.095772)">
      <use transform="scale(0.996264)" xlink:href="#CMR17-4c"/>
      <use transform="translate(57.381408 0)scale(0.996264)" xlink:href="#CMR17-44"/>
      <use transform="translate(127.774964 0)scale(0.996264)" xlink:href="#CMR17-33"/>
     </g>
    </g>
    <g id="patch_22">
     <path d="M 569.959192 22.016155 
L 589.113592 22.016155 
L 589.113592 15.312115 
L 569.959192 15.312115 
z
" style="fill:none;"/>
    </g>
    <g id="text_28">
     <!-- SPD -->
     <g style="fill:#262626;" transform="translate(585.282712 22.016155)scale(0.095772 -0.095772)">
      <defs>
       <path d="M 2803 4290 
C 2803 4404 2797 4411 2758 4411 
C 2720 4411 2707 4385 2682 4328 
L 2490 3907 
C 2246 4257 1875 4416 1472 4416 
C 819 4416 294 3901 294 3253 
C 294 3056 339 2776 557 2510 
C 794 2218 1018 2167 1530 2033 
C 1722 1982 2042 1899 2106 1874 
C 2470 1722 2662 1341 2662 985 
C 2662 527 2336 38 1779 38 
C 1094 38 454 419 410 1311 
C 403 1413 397 1419 352 1419 
C 301 1419 294 1413 294 1285 
L 294 -1 
C 294 -115 301 -122 339 -122 
C 384 -122 397 -90 486 108 
C 493 127 493 140 614 381 
C 934 -39 1472 -128 1779 -128 
C 2477 -128 2970 451 2970 1124 
C 2970 1454 2848 1708 2778 1823 
C 2509 2230 2221 2306 1914 2382 
C 1869 2402 1856 2402 1498 2490 
C 1152 2579 1005 2624 845 2796 
C 666 2992 602 3196 602 3399 
C 602 3812 934 4263 1478 4263 
C 2157 4263 2579 3786 2675 2993 
C 2694 2878 2701 2872 2746 2872 
C 2803 2872 2803 2891 2803 2999 
L 2803 4290 
z
" id="CMR17-53" transform="scale(0.015625)"/>
       <path d="M 1267 2042 
L 2291 2042 
C 3117 2042 3718 2578 3718 3184 
C 3718 3791 3130 4352 2291 4352 
L 333 4352 
L 333 4186 
C 774 4186 845 4186 845 3899 
L 845 446 
C 845 160 774 160 333 160 
L 333 0 
C 518 0 858 0 1056 0 
C 1254 0 1594 0 1779 0 
L 1779 160 
C 1338 160 1267 160 1267 446 
L 1267 2042 
z
M 1254 2176 
L 1254 3938 
C 1254 4155 1267 4186 1523 4186 
L 2170 4186 
C 2995 4186 3232 3714 3232 3184 
C 3232 2604 2950 2176 2170 2176 
L 1254 2176 
z
" id="CMR17-50" transform="scale(0.015625)"/>
      </defs>
      <use transform="scale(0.996264)" xlink:href="#CMR17-53"/>
      <use transform="translate(50.89537 0)scale(0.996264)" xlink:href="#CMR17-50"/>
      <use transform="translate(113.48167 0)scale(0.996264)" xlink:href="#CMR17-44"/>
     </g>
    </g>
    <g id="patch_23">
     <path d="M 569.959192 35.364066 
L 589.113592 35.364066 
L 589.113592 28.660026 
L 569.959192 28.660026 
z
" style="fill:none;"/>
    </g>
    <g id="text_29">
     <!-- No -->
     <g style="fill:#262626;" transform="translate(585.282712 35.364066)scale(0.095772 -0.095772)">
      <defs>
       <path d="M 1312 4250 
C 1267 4320 1261 4320 1139 4320 
L 326 4320 
L 326 4160 
L 448 4160 
C 704 4160 819 4129 838 4122 
L 838 610 
C 838 451 838 153 326 153 
L 326 -13 
C 474 0 742 0 902 0 
C 1062 0 1331 0 1478 -13 
L 1478 153 
C 966 153 966 451 966 610 
L 966 4033 
C 1011 3995 1011 3982 1056 3919 
L 3430 76 
C 3475 0 3494 0 3526 0 
C 3590 0 3590 19 3590 139 
L 3590 3705 
C 3590 3863 3590 4160 4102 4160 
L 4102 4326 
C 3955 4320 3686 4320 3526 4320 
C 3366 4320 3098 4320 2950 4326 
L 2950 4160 
C 3462 4160 3462 3862 3462 3703 
L 3462 763 
L 1312 4250 
z
" id="CMR17-4e" transform="scale(0.015625)"/>
      </defs>
      <use transform="scale(0.996264)" xlink:href="#CMR17-4e"/>
      <use transform="translate(69.07243 0)scale(0.996264)" xlink:href="#CMR17-6f"/>
     </g>
    </g>
    <g id="patch_24">
     <path d="M 569.959192 48.711977 
L 589.113592 48.711977 
L 589.113592 42.007937 
L 569.959192 42.007937 
z
" style="fill:none;"/>
    </g>
    <g id="text_30">
     <!-- Yes -->
     <g style="fill:#262626;" transform="translate(585.282712 48.711977)scale(0.095772 -0.095772)">
      <defs>
       <path d="M 3706 3766 
C 3955 4160 4301 4160 4416 4160 
L 4416 4332 
C 4269 4319 4102 4319 3942 4319 
C 3782 4319 3526 4319 3373 4332 
L 3373 4160 
C 3533 4160 3616 4077 3616 3957 
C 3616 3881 3584 3830 3533 3747 
L 2381 1912 
L 1120 3912 
C 1075 3988 1069 3994 1069 4039 
C 1069 4160 1293 4160 1382 4160 
L 1382 4319 
C 1178 4319 864 4319 653 4319 
C 486 4319 166 4319 13 4332 
L 13 4160 
C 378 4160 480 4141 595 3958 
L 2010 1728 
L 2010 445 
C 2010 160 1939 160 1498 160 
L 1498 0 
C 1683 0 2016 0 2214 0 
C 2413 0 2752 0 2938 0 
L 2938 160 
C 2477 160 2419 160 2419 471 
L 2419 1728 
L 3706 3766 
z
" id="CMR17-59" transform="scale(0.015625)"/>
       <path d="M 1978 2697 
C 1978 2813 1971 2819 1933 2819 
C 1907 2819 1901 2813 1824 2717 
C 1805 2691 1747 2626 1728 2601 
C 1523 2819 1235 2819 1126 2819 
C 416 2819 160 2447 160 2076 
C 160 1498 813 1365 998 1325 
C 1402 1243 1542 1217 1677 1101 
C 1760 1025 1901 884 1901 654 
C 1901 384 1747 38 1158 38 
C 602 38 403 460 288 1021 
C 269 1110 269 1117 218 1117 
C 166 1117 160 1110 160 983 
L 160 63 
C 160 -51 166 -58 205 -58 
C 237 -58 243 -51 275 0 
C 314 57 410 211 448 276 
C 576 103 800 -64 1158 -64 
C 1792 -64 2131 283 2131 784 
C 2131 1112 1958 1285 1875 1362 
C 1683 1561 1459 1606 1190 1657 
C 838 1735 390 1825 390 2217 
C 390 2383 480 2737 1126 2737 
C 1811 2737 1850 2094 1862 1888 
C 1869 1856 1901 1849 1920 1849 
C 1978 1849 1978 1869 1978 1978 
L 1978 2697 
z
" id="CMR17-73" transform="scale(0.015625)"/>
      </defs>
      <use transform="scale(0.996264)" xlink:href="#CMR17-59"/>
      <use transform="translate(61.265174 0)scale(0.996264)" xlink:href="#CMR17-65"/>
      <use transform="translate(101.750835 0)scale(0.996264)" xlink:href="#CMR17-73"/>
     </g>
    </g>
    <g id="patch_25">
     <path d="M 569.959192 62.059888 
L 589.113592 62.059888 
L 589.113592 55.355848 
L 569.959192 55.355848 
z
" style="fill:none;"/>
    </g>
    <g id="text_31">
     <!-- Yes -->
     <g style="fill:#262626;" transform="translate(585.282712 62.059888)scale(0.095772 -0.095772)">
      <use transform="scale(0.996264)" xlink:href="#CMR17-59"/>
      <use transform="translate(61.265174 0)scale(0.996264)" xlink:href="#CMR17-65"/>
      <use transform="translate(101.750835 0)scale(0.996264)" xlink:href="#CMR17-73"/>
     </g>
    </g>
    <g id="patch_26">
     <path d="M 569.959192 75.407799 
L 589.113592 75.407799 
L 589.113592 68.703759 
L 569.959192 68.703759 
z
" style="fill:none;"/>
    </g>
    <g id="text_32">
     <!-- - - - -->
     <g style="fill:#262626;" transform="translate(585.282712 75.407799)scale(0.095772 -0.095772)">
      <defs>
       <path d="M 5939 1664 
L 5939 1766 
L -77 1766 
L -77 1664 
L 5939 1664 
z
" id="CMR17-7c" transform="scale(0.015625)"/>
      </defs>
      <use transform="scale(0.996264)" xlink:href="#CMR17-7c"/>
     </g>
    </g>
    <g id="patch_27">
     <path d="M 569.959192 88.75571 
L 589.113592 88.75571 
L 589.113592 82.05167 
L 569.959192 82.05167 
z
" style="fill:none;"/>
    </g>
    <g id="text_33">
     <!-- - - - -->
     <g style="fill:#262626;" transform="translate(585.282712 88.75571)scale(0.095772 -0.095772)">
      <use transform="scale(0.996264)" xlink:href="#CMR17-7c"/>
     </g>
    </g>
    <g id="patch_28">
     <path d="M 569.959192 102.103621 
L 589.113592 102.103621 
L 589.113592 95.399581 
L 569.959192 95.399581 
z
" style="fill:none;"/>
    </g>
    <g id="text_34">
     <!-- - - - -->
     <g style="fill:#262626;" transform="translate(585.282712 102.103621)scale(0.095772 -0.095772)">
      <use transform="scale(0.996264)" xlink:href="#CMR17-7c"/>
     </g>
    </g>
    <g id="patch_29">
     <path d="M 569.959192 115.451533 
L 589.113592 115.451533 
L 589.113592 108.747493 
L 569.959192 108.747493 
z
" style="fill:none;"/>
    </g>
    <g id="text_35">
     <!-- No -->
     <g style="fill:#262626;" transform="translate(585.282712 115.451533)scale(0.095772 -0.095772)">
      <use transform="scale(0.996264)" xlink:href="#CMR17-4e"/>
      <use transform="translate(69.07243 0)scale(0.996264)" xlink:href="#CMR17-6f"/>
     </g>
    </g>
    <g id="patch_30">
     <path d="M 569.959192 128.799444 
L 589.113592 128.799444 
L 589.113592 122.095404 
L 569.959192 122.095404 
z
" style="fill:none;"/>
    </g>
    <g id="text_36">
     <!-- Yes -->
     <g style="fill:#262626;" transform="translate(585.282712 128.799444)scale(0.095772 -0.095772)">
      <use transform="scale(0.996264)" xlink:href="#CMR17-59"/>
      <use transform="translate(61.265174 0)scale(0.996264)" xlink:href="#CMR17-65"/>
      <use transform="translate(101.750835 0)scale(0.996264)" xlink:href="#CMR17-73"/>
     </g>
    </g>
    <g id="patch_31">
     <path d="M 569.959192 142.147355 
L 589.113592 142.147355 
L 589.113592 135.443315 
L 569.959192 135.443315 
z
" style="fill:none;"/>
    </g>
    <g id="text_37">
     <!-- Yes -->
     <g style="fill:#262626;" transform="translate(585.282712 142.147355)scale(0.095772 -0.095772)">
      <use transform="scale(0.996264)" xlink:href="#CMR17-59"/>
      <use transform="translate(61.265174 0)scale(0.996264)" xlink:href="#CMR17-65"/>
      <use transform="translate(101.750835 0)scale(0.996264)" xlink:href="#CMR17-73"/>
     </g>
    </g>
    <g id="patch_32">
     <path d="M 569.959192 155.495266 
L 589.113592 155.495266 
L 589.113592 148.791226 
L 569.959192 148.791226 
z
" style="fill:none;"/>
    </g>
    <g id="text_38">
     <!-- No -->
     <g style="fill:#262626;" transform="translate(585.282712 155.495266)scale(0.095772 -0.095772)">
      <use transform="scale(0.996264)" xlink:href="#CMR17-4e"/>
      <use transform="translate(69.07243 0)scale(0.996264)" xlink:href="#CMR17-6f"/>
     </g>
    </g>
    <g id="patch_33">
     <path d="M 569.959192 168.843177 
L 589.113592 168.843177 
L 589.113592 162.139137 
L 569.959192 162.139137 
z
" style="fill:none;"/>
    </g>
    <g id="text_39">
     <!-- Yes -->
     <g style="fill:#262626;" transform="translate(585.282712 168.843177)scale(0.095772 -0.095772)">
      <use transform="scale(0.996264)" xlink:href="#CMR17-59"/>
      <use transform="translate(61.265174 0)scale(0.996264)" xlink:href="#CMR17-65"/>
      <use transform="translate(101.750835 0)scale(0.996264)" xlink:href="#CMR17-73"/>
     </g>
    </g>
    <g id="patch_34">
     <path d="M 569.959192 182.191088 
L 589.113592 182.191088 
L 589.113592 175.487048 
L 569.959192 175.487048 
z
" style="fill:none;"/>
    </g>
    <g id="text_40">
     <!-- Yes -->
     <g style="fill:#262626;" transform="translate(585.282712 182.191088)scale(0.095772 -0.095772)">
      <use transform="scale(0.996264)" xlink:href="#CMR17-59"/>
      <use transform="translate(61.265174 0)scale(0.996264)" xlink:href="#CMR17-65"/>
      <use transform="translate(101.750835 0)scale(0.996264)" xlink:href="#CMR17-73"/>
     </g>
    </g>
    <g id="patch_35">
     <path d="M 600.105399 22.016155 
L 619.259799 22.016155 
L 619.259799 15.312115 
L 600.105399 15.312115 
z
" style="fill:none;"/>
    </g>
    <g id="text_41">
     <!-- Ortho. -->
     <g style="fill:#262626;" transform="translate(615.428919 22.016155)scale(0.095772 -0.095772)">
      <defs>
       <path d="M 4307 2135 
C 4307 3437 3366 4416 2304 4416 
C 1216 4416 294 3424 294 2135 
C 294 845 1229 -128 2298 -128 
C 3392 -128 4307 864 4307 2135 
z
M 2304 -13 
C 1574 -13 781 711 781 2217 
C 781 3716 1651 4301 2298 4301 
C 2976 4301 3821 3698 3821 2217 
C 3821 686 3008 -13 2304 -13 
z
" id="CMR17-4f" transform="scale(0.015625)"/>
       <path d="M 960 1497 
C 960 2112 1222 2688 1702 2688 
C 1747 2688 1792 2682 1837 2662 
C 1837 2662 1696 2617 1696 2452 
C 1696 2298 1818 2234 1914 2234 
C 1990 2234 2131 2279 2131 2458 
C 2131 2663 1926 2790 1709 2790 
C 1222 2790 1011 2317 947 2093 
L 941 2093 
L 941 2790 
L 198 2720 
L 198 2554 
C 576 2554 634 2515 634 2208 
L 634 428 
C 634 184 608 153 198 153 
L 198 -13 
C 352 0 646 0 813 0 
C 998 0 1325 0 1498 -13 
L 1498 153 
C 1037 153 960 153 960 440 
L 960 1497 
z
" id="CMR17-72" transform="scale(0.015625)"/>
       <path d="M 2656 1933 
C 2656 2259 2592 2790 1837 2790 
C 1312 2790 1056 2368 979 2157 
L 973 2157 
L 973 4396 
L 211 4326 
L 211 4160 
C 589 4160 646 4122 646 3817 
L 646 426 
C 646 184 621 153 211 153 
L 211 -13 
C 365 0 646 0 813 0 
C 979 0 1267 0 1421 -13 
L 1421 153 
C 1011 153 986 178 986 428 
L 986 1658 
C 986 2247 1344 2688 1792 2688 
C 2266 2688 2317 2266 2317 1958 
L 2317 428 
C 2317 184 2291 153 1882 153 
L 1882 -13 
C 2035 0 2317 0 2483 0 
C 2650 0 2938 0 3091 -13 
L 3091 153 
C 2682 153 2656 178 2656 428 
L 2656 1933 
z
" id="CMR17-68" transform="scale(0.015625)"/>
      </defs>
      <use transform="scale(0.996264)" xlink:href="#CMR17-4f"/>
      <use transform="translate(71.714788 0)scale(0.996264)" xlink:href="#CMR17-72"/>
      <use transform="translate(106.995556 0)scale(0.996264)" xlink:href="#CMR17-74"/>
      <use transform="translate(142.276324 0)scale(0.996264)" xlink:href="#CMR17-68"/>
      <use transform="translate(193.171694 0)scale(0.996264)" xlink:href="#CMR17-6f"/>
      <use transform="translate(238.862171 0)scale(0.996264)" xlink:href="#CMR17-2e"/>
     </g>
    </g>
    <g id="patch_36">
     <path d="M 600.105399 35.364066 
L 619.259799 35.364066 
L 619.259799 28.660026 
L 600.105399 28.660026 
z
" style="fill:none;"/>
    </g>
    <g id="text_42">
     <!-- - - - -->
     <g style="fill:#262626;" transform="translate(615.428919 35.364066)scale(0.095772 -0.095772)">
      <use transform="scale(0.996264)" xlink:href="#CMR17-7c"/>
     </g>
    </g>
    <g id="patch_37">
     <path d="M 600.105399 48.711977 
L 619.259799 48.711977 
L 619.259799 42.007937 
L 600.105399 42.007937 
z
" style="fill:none;"/>
    </g>
    <g id="text_43">
     <!-- - - - -->
     <g style="fill:#262626;" transform="translate(615.428919 48.711977)scale(0.095772 -0.095772)">
      <use transform="scale(0.996264)" xlink:href="#CMR17-7c"/>
     </g>
    </g>
    <g id="patch_38">
     <path d="M 600.105399 62.059888 
L 619.259799 62.059888 
L 619.259799 55.355848 
L 600.105399 55.355848 
z
" style="fill:none;"/>
    </g>
    <g id="text_44">
     <!-- - - - -->
     <g style="fill:#262626;" transform="translate(615.428919 62.059888)scale(0.095772 -0.095772)">
      <use transform="scale(0.996264)" xlink:href="#CMR17-7c"/>
     </g>
    </g>
    <g id="patch_39">
     <path d="M 600.105399 75.407799 
L 619.259799 75.407799 
L 619.259799 68.703759 
L 600.105399 68.703759 
z
" style="fill:none;"/>
    </g>
    <g id="text_45">
     <!-- No -->
     <g style="fill:#262626;" transform="translate(615.428919 75.407799)scale(0.095772 -0.095772)">
      <use transform="scale(0.996264)" xlink:href="#CMR17-4e"/>
      <use transform="translate(69.07243 0)scale(0.996264)" xlink:href="#CMR17-6f"/>
     </g>
    </g>
    <g id="patch_40">
     <path d="M 600.105399 88.75571 
L 619.259799 88.75571 
L 619.259799 82.05167 
L 600.105399 82.05167 
z
" style="fill:none;"/>
    </g>
    <g id="text_46">
     <!-- No -->
     <g style="fill:#262626;" transform="translate(615.428919 88.75571)scale(0.095772 -0.095772)">
      <use transform="scale(0.996264)" xlink:href="#CMR17-4e"/>
      <use transform="translate(69.07243 0)scale(0.996264)" xlink:href="#CMR17-6f"/>
     </g>
    </g>
    <g id="patch_41">
     <path d="M 600.105399 102.103621 
L 619.259799 102.103621 
L 619.259799 95.399581 
L 600.105399 95.399581 
z
" style="fill:none;"/>
    </g>
    <g id="text_47">
     <!-- Yes -->
     <g style="fill:#262626;" transform="translate(615.428919 102.103621)scale(0.095772 -0.095772)">
      <use transform="scale(0.996264)" xlink:href="#CMR17-59"/>
      <use transform="translate(61.265174 0)scale(0.996264)" xlink:href="#CMR17-65"/>
      <use transform="translate(101.750835 0)scale(0.996264)" xlink:href="#CMR17-73"/>
     </g>
    </g>
    <g id="patch_42">
     <path d="M 600.105399 115.451533 
L 619.259799 115.451533 
L 619.259799 108.747493 
L 600.105399 108.747493 
z
" style="fill:none;"/>
    </g>
    <g id="text_48">
     <!-- No -->
     <g style="fill:#262626;" transform="translate(615.428919 115.451533)scale(0.095772 -0.095772)">
      <use transform="scale(0.996264)" xlink:href="#CMR17-4e"/>
      <use transform="translate(69.07243 0)scale(0.996264)" xlink:href="#CMR17-6f"/>
     </g>
    </g>
    <g id="patch_43">
     <path d="M 600.105399 128.799444 
L 619.259799 128.799444 
L 619.259799 122.095404 
L 600.105399 122.095404 
z
" style="fill:none;"/>
    </g>
    <g id="text_49">
     <!-- No -->
     <g style="fill:#262626;" transform="translate(615.428919 128.799444)scale(0.095772 -0.095772)">
      <use transform="scale(0.996264)" xlink:href="#CMR17-4e"/>
      <use transform="translate(69.07243 0)scale(0.996264)" xlink:href="#CMR17-6f"/>
     </g>
    </g>
    <g id="patch_44">
     <path d="M 600.105399 142.147355 
L 619.259799 142.147355 
L 619.259799 135.443315 
L 600.105399 135.443315 
z
" style="fill:none;"/>
    </g>
    <g id="text_50">
     <!-- No -->
     <g style="fill:#262626;" transform="translate(615.428919 142.147355)scale(0.095772 -0.095772)">
      <use transform="scale(0.996264)" xlink:href="#CMR17-4e"/>
      <use transform="translate(69.07243 0)scale(0.996264)" xlink:href="#CMR17-6f"/>
     </g>
    </g>
    <g id="patch_45">
     <path d="M 600.105399 155.495266 
L 619.259799 155.495266 
L 619.259799 148.791226 
L 600.105399 148.791226 
z
" style="fill:none;"/>
    </g>
    <g id="text_51">
     <!-- Yes -->
     <g style="fill:#262626;" transform="translate(615.428919 155.495266)scale(0.095772 -0.095772)">
      <use transform="scale(0.996264)" xlink:href="#CMR17-59"/>
      <use transform="translate(61.265174 0)scale(0.996264)" xlink:href="#CMR17-65"/>
      <use transform="translate(101.750835 0)scale(0.996264)" xlink:href="#CMR17-73"/>
     </g>
    </g>
    <g id="patch_46">
     <path d="M 600.105399 168.843177 
L 619.259799 168.843177 
L 619.259799 162.139137 
L 600.105399 162.139137 
z
" style="fill:none;"/>
    </g>
    <g id="text_52">
     <!-- Yes -->
     <g style="fill:#262626;" transform="translate(615.428919 168.843177)scale(0.095772 -0.095772)">
      <use transform="scale(0.996264)" xlink:href="#CMR17-59"/>
      <use transform="translate(61.265174 0)scale(0.996264)" xlink:href="#CMR17-65"/>
      <use transform="translate(101.750835 0)scale(0.996264)" xlink:href="#CMR17-73"/>
     </g>
    </g>
    <g id="patch_47">
     <path d="M 600.105399 182.191088 
L 619.259799 182.191088 
L 619.259799 175.487048 
L 600.105399 175.487048 
z
" style="fill:none;"/>
    </g>
    <g id="text_53">
     <!-- Yes -->
     <g style="fill:#262626;" transform="translate(615.428919 182.191088)scale(0.095772 -0.095772)">
      <use transform="scale(0.996264)" xlink:href="#CMR17-59"/>
      <use transform="translate(61.265174 0)scale(0.996264)" xlink:href="#CMR17-65"/>
      <use transform="translate(101.750835 0)scale(0.996264)" xlink:href="#CMR17-73"/>
     </g>
    </g>
    <g id="patch_48">
     <path d="M 638.991947 22.016155 
L 658.146347 22.016155 
L 658.146347 15.312115 
L 638.991947 15.312115 
z
" style="fill:none;"/>
    </g>
    <g id="text_54">
     <!-- $\gamma$ -->
     <g style="fill:#262626;" transform="translate(654.315467 22.016155)scale(0.095772 -0.095772)">
      <defs>
       <path d="M 2419 760 
C 2406 1071 2394 1561 2150 2133 
C 2022 2452 1805 2788 1338 2788 
C 550 2788 122 1790 122 1625 
C 122 1567 166 1567 186 1567 
C 243 1567 243 1580 275 1663 
C 410 2057 819 2368 1261 2368 
C 2150 2368 2278 1383 2278 754 
C 2278 352 2234 220 2195 92 
C 2074 -302 1862 -1090 1862 -1268 
C 1862 -1319 1882 -1376 1933 -1376 
C 2029 -1376 2086 -1166 2157 -912 
C 2310 -353 2349 -73 2381 181 
C 2400 334 2765 1384 3270 2382 
C 3315 2483 3405 2655 3405 2674 
C 3405 2680 3398 2725 3341 2725 
C 3328 2725 3296 2725 3283 2699 
C 3270 2687 3046 2254 2854 1822 
C 2758 1606 2630 1320 2419 760 
z
" id="CMMI12-d" transform="scale(0.015625)"/>
      </defs>
      <use transform="scale(0.996264)" xlink:href="#CMMI12-d"/>
     </g>
    </g>
    <g id="patch_49">
     <path d="M 638.991947 35.364066 
L 658.146347 35.364066 
L 658.146347 28.660026 
L 638.991947 28.660026 
z
" style="fill:none;"/>
    </g>
    <g id="text_55">
     <!-- - - - -->
     <g style="fill:#262626;" transform="translate(654.315467 35.364066)scale(0.095772 -0.095772)">
      <use transform="scale(0.996264)" xlink:href="#CMR17-7c"/>
     </g>
    </g>
    <g id="patch_50">
     <path d="M 638.991947 49.163994 
L 658.146347 49.163994 
L 658.146347 42.459954 
L 638.991947 42.459954 
z
" style="fill:none;"/>
    </g>
    <g id="text_56">
     <!-- $\sfrac{1}{2}$ -->
     <g style="fill:#262626;" transform="translate(654.315467 49.163994)scale(0.095772 -0.095772)">
      <use transform="translate(0 22.569463)scale(0.696174)" xlink:href="#CMR17-31"/>
      <use transform="translate(26.39297 0)scale(0.996264)" xlink:href="#CMMI12-3d"/>
      <use transform="translate(64.098285 0)scale(0.696174)" xlink:href="#CMR17-32"/>
     </g>
    </g>
    <g id="patch_51">
     <path d="M 638.991947 63.041976 
L 658.146347 63.041976 
L 658.146347 56.337936 
L 638.991947 56.337936 
z
" style="fill:none;"/>
    </g>
    <g id="text_57">
     <!-- $1$ -->
     <g style="fill:#262626;" transform="translate(654.315467 63.041976)scale(0.095772 -0.095772)">
      <use transform="scale(0.996264)" xlink:href="#CMR17-31"/>
     </g>
    </g>
    <g id="patch_52">
     <path d="M 638.991947 76.841903 
L 658.146347 76.841903 
L 658.146347 70.137863 
L 638.991947 70.137863 
z
" style="fill:none;"/>
    </g>
    <g id="text_58">
     <!-- $\sfrac{1}{2}$ -->
     <g style="fill:#262626;" transform="translate(654.315467 76.841903)scale(0.095772 -0.095772)">
      <use transform="translate(0 22.569463)scale(0.696174)" xlink:href="#CMR17-31"/>
      <use transform="translate(26.39297 0)scale(0.996264)" xlink:href="#CMMI12-3d"/>
      <use transform="translate(64.098285 0)scale(0.696174)" xlink:href="#CMR17-32"/>
     </g>
    </g>
    <g id="patch_53">
     <path d="M 638.991947 90.719886 
L 658.146347 90.719886 
L 658.146347 84.015846 
L 638.991947 84.015846 
z
" style="fill:none;"/>
    </g>
    <g id="text_59">
     <!-- $1$ -->
     <g style="fill:#262626;" transform="translate(654.315467 90.719886)scale(0.095772 -0.095772)">
      <use transform="scale(0.996264)" xlink:href="#CMR17-31"/>
     </g>
    </g>
    <g id="patch_54">
     <path d="M 638.991947 104.067797 
L 658.146347 104.067797 
L 658.146347 97.363757 
L 638.991947 97.363757 
z
" style="fill:none;"/>
    </g>
    <g id="text_60">
     <!-- - - - -->
     <g style="fill:#262626;" transform="translate(654.315467 104.067797)scale(0.095772 -0.095772)">
      <use transform="scale(0.996264)" xlink:href="#CMR17-7c"/>
     </g>
    </g>
    <g id="patch_55">
     <path d="M 638.991947 117.415708 
L 658.146347 117.415708 
L 658.146347 110.711668 
L 638.991947 110.711668 
z
" style="fill:none;"/>
    </g>
    <g id="text_61">
     <!-- - - - -->
     <g style="fill:#262626;" transform="translate(654.315467 117.415708)scale(0.095772 -0.095772)">
      <use transform="scale(0.996264)" xlink:href="#CMR17-7c"/>
     </g>
    </g>
    <g id="patch_56">
     <path d="M 638.991947 131.215636 
L 658.146347 131.215636 
L 658.146347 124.511596 
L 638.991947 124.511596 
z
" style="fill:none;"/>
    </g>
    <g id="text_62">
     <!-- $\sfrac{1}{2}$ -->
     <g style="fill:#262626;" transform="translate(654.315467 131.215636)scale(0.095772 -0.095772)">
      <use transform="translate(0 22.569463)scale(0.696174)" xlink:href="#CMR17-31"/>
      <use transform="translate(26.39297 0)scale(0.996264)" xlink:href="#CMMI12-3d"/>
      <use transform="translate(64.098285 0)scale(0.696174)" xlink:href="#CMR17-32"/>
     </g>
    </g>
    <g id="patch_57">
     <path d="M 638.991947 145.093618 
L 658.146347 145.093618 
L 658.146347 138.389578 
L 638.991947 138.389578 
z
" style="fill:none;"/>
    </g>
    <g id="text_63">
     <!-- $1$ -->
     <g style="fill:#262626;" transform="translate(654.315467 145.093618)scale(0.095772 -0.095772)">
      <use transform="scale(0.996264)" xlink:href="#CMR17-31"/>
     </g>
    </g>
    <g id="patch_58">
     <path d="M 638.991947 158.441529 
L 658.146347 158.441529 
L 658.146347 151.737489 
L 638.991947 151.737489 
z
" style="fill:none;"/>
    </g>
    <g id="text_64">
     <!-- - - - -->
     <g style="fill:#262626;" transform="translate(654.315467 158.441529)scale(0.095772 -0.095772)">
      <use transform="scale(0.996264)" xlink:href="#CMR17-7c"/>
     </g>
    </g>
    <g id="patch_59">
     <path d="M 638.991947 172.241456 
L 658.146347 172.241456 
L 658.146347 165.537416 
L 638.991947 165.537416 
z
" style="fill:none;"/>
    </g>
    <g id="text_65">
     <!-- $\sfrac{1}{2}$ -->
     <g style="fill:#262626;" transform="translate(654.315467 172.241456)scale(0.095772 -0.095772)">
      <use transform="translate(0 22.569463)scale(0.696174)" xlink:href="#CMR17-31"/>
      <use transform="translate(26.39297 0)scale(0.996264)" xlink:href="#CMMI12-3d"/>
      <use transform="translate(64.098285 0)scale(0.696174)" xlink:href="#CMR17-32"/>
     </g>
    </g>
    <g id="patch_60">
     <path d="M 638.991947 186.119439 
L 658.146347 186.119439 
L 658.146347 179.415399 
L 638.991947 179.415399 
z
" style="fill:none;"/>
    </g>
    <g id="text_66">
     <!-- $1$ -->
     <g style="fill:#262626;" transform="translate(654.315467 186.119439)scale(0.095772 -0.095772)">
      <use transform="scale(0.996264)" xlink:href="#CMR17-31"/>
     </g>
    </g>
   </g>
  </g>
 </g>
 <defs>
  <clipPath id="p2cf03f8be8">
   <rect height="244.165238" width="475.209718" x="41.498364" y="11.575939"/>
  </clipPath>
 </defs>
</svg>
