<?xml version="1.0" encoding="utf-8" standalone="no"?>
<!DOCTYPE svg PUBLIC "-//W3C//DTD SVG 1.1//EN"
  "http://www.w3.org/Graphics/SVG/1.1/DTD/svg11.dtd">
<svg xmlns:xlink="http://www.w3.org/1999/xlink" width="531.507078pt" height="301.392pt" viewBox="0 0 531.507078 301.392" xmlns="http://www.w3.org/2000/svg" version="1.1">
 <metadata>
  <rdf:RDF xmlns:dc="http://purl.org/dc/elements/1.1/" xmlns:cc="http://creativecommons.org/ns#" xmlns:rdf="http://www.w3.org/1999/02/22-rdf-syntax-ns#">
   <cc:Work>
    <dc:type rdf:resource="http://purl.org/dc/dcmitype/StillImage"/>
    <dc:date>2023-01-23T20:44:02.441347</dc:date>
    <dc:format>image/svg+xml</dc:format>
    <dc:creator>
     <cc:Agent>
      <dc:title>Matplotlib v3.5.3, https://matplotlib.org/</dc:title>
     </cc:Agent>
    </dc:creator>
   </cc:Work>
  </rdf:RDF>
 </metadata>
 <defs>
  <style type="text/css">*{stroke-linejoin: round; stroke-linecap: butt}</style>
 </defs>
 <g id="figure_1">
  <g id="patch_1">
   <path d="M 0 301.392 
L 531.507078 301.392 
L 531.507078 0 
L 0 0 
L 0 301.392 
z
" style="fill: none"/>
  </g>
  <g id="axes_1">
   <g id="patch_2">
    <path d="M 41.498364 255.741178 
L 320.785744 255.741178 
L 320.785744 11.575939 
L 41.498364 11.575939 
L 41.498364 255.741178 
z
" style="fill: none"/>
   </g>
   <g id="matplotlib.axis_1">
    <g id="xtick_1">
     <g id="line2d_1">
      <defs>
       <path id="m88ca34fd40" d="M 0 0 
L 0 6 
" style="stroke: #262626; stroke-width: 1.25"/>
      </defs>
      <g>
       <use xlink:href="#m88ca34fd40" x="41.498364" y="255.741178" style="fill: #262626; stroke: #262626; stroke-width: 1.25"/>
      </g>
     </g>
     <g id="text_1">
      <!-- $\mathdefault{0.0}$ -->
      <g style="fill: #262626" transform="translate(33.614446 273.993057)scale(0.1265 -0.1265)">
       <defs>
        <path id="CMR17-30" d="M 2688 2038 
C 2688 2430 2682 3099 2413 3613 
C 2176 4063 1798 4224 1466 4224 
C 1158 4224 768 4082 525 3620 
C 269 3137 243 2539 243 2038 
C 243 1671 250 1112 448 623 
C 723 -39 1216 -128 1466 -128 
C 1760 -128 2208 -7 2470 604 
C 2662 1048 2688 1568 2688 2038 
z
M 1466 -26 
C 1056 -26 813 328 723 816 
C 653 1196 653 1749 653 2109 
C 653 2604 653 3015 736 3407 
C 858 3954 1216 4121 1466 4121 
C 1728 4121 2067 3947 2189 3420 
C 2272 3054 2278 2623 2278 2109 
C 2278 1691 2278 1176 2202 797 
C 2067 96 1690 -26 1466 -26 
z
" transform="scale(0.015625)"/>
        <path id="CMMI12-3a" d="M 1178 307 
C 1178 492 1024 620 870 620 
C 685 620 557 467 557 313 
C 557 128 710 0 864 0 
C 1050 0 1178 153 1178 307 
z
" transform="scale(0.015625)"/>
       </defs>
       <use xlink:href="#CMR17-30" transform="scale(0.996264)"/>
       <use xlink:href="#CMMI12-3a" transform="translate(45.690477 0)scale(0.996264)"/>
       <use xlink:href="#CMR17-30" transform="translate(72.787654 0)scale(0.996264)"/>
      </g>
     </g>
    </g>
    <g id="xtick_2">
     <g id="line2d_2">
      <g>
       <use xlink:href="#m88ca34fd40" x="97.35584" y="255.741178" style="fill: #262626; stroke: #262626; stroke-width: 1.25"/>
      </g>
     </g>
     <g id="text_2">
      <!-- $\mathdefault{0.2}$ -->
      <g style="fill: #262626" transform="translate(89.471922 273.993057)scale(0.1265 -0.1265)">
       <defs>
        <path id="CMR17-32" d="M 2669 990 
L 2554 990 
C 2490 537 2438 460 2413 422 
C 2381 371 1920 371 1830 371 
L 602 371 
C 832 620 1280 1073 1824 1596 
C 2214 1966 2669 2400 2669 3033 
C 2669 3788 2067 4224 1395 4224 
C 691 4224 262 3603 262 3027 
C 262 2777 448 2745 525 2745 
C 589 2745 781 2783 781 3007 
C 781 3206 614 3264 525 3264 
C 486 3264 448 3257 422 3244 
C 544 3788 915 4057 1306 4057 
C 1862 4057 2227 3616 2227 3033 
C 2227 2477 1901 1998 1536 1583 
L 262 147 
L 262 0 
L 2515 0 
L 2669 990 
z
" transform="scale(0.015625)"/>
       </defs>
       <use xlink:href="#CMR17-30" transform="scale(0.996264)"/>
       <use xlink:href="#CMMI12-3a" transform="translate(45.690477 0)scale(0.996264)"/>
       <use xlink:href="#CMR17-32" transform="translate(72.787654 0)scale(0.996264)"/>
      </g>
     </g>
    </g>
    <g id="xtick_3">
     <g id="line2d_3">
      <g>
       <use xlink:href="#m88ca34fd40" x="153.213316" y="255.741178" style="fill: #262626; stroke: #262626; stroke-width: 1.25"/>
      </g>
     </g>
     <g id="text_3">
      <!-- $\mathdefault{0.4}$ -->
      <g style="fill: #262626" transform="translate(145.329398 273.993057)scale(0.1265 -0.1265)">
       <defs>
        <path id="CMR17-34" d="M 2150 4147 
C 2150 4281 2144 4288 2029 4288 
L 128 1254 
L 128 1088 
L 1779 1088 
L 1779 460 
C 1779 230 1766 166 1318 166 
L 1197 166 
L 1197 0 
C 1402 12 1747 12 1965 12 
C 2182 12 2528 12 2733 0 
L 2733 166 
L 2611 166 
C 2163 166 2150 230 2150 460 
L 2150 1088 
L 2803 1088 
L 2803 1254 
L 2150 1254 
L 2150 4147 
z
M 1798 3723 
L 1798 1254 
L 256 1254 
L 1798 3723 
z
" transform="scale(0.015625)"/>
       </defs>
       <use xlink:href="#CMR17-30" transform="scale(0.996264)"/>
       <use xlink:href="#CMMI12-3a" transform="translate(45.690477 0)scale(0.996264)"/>
       <use xlink:href="#CMR17-34" transform="translate(72.787654 0)scale(0.996264)"/>
      </g>
     </g>
    </g>
    <g id="xtick_4">
     <g id="line2d_4">
      <g>
       <use xlink:href="#m88ca34fd40" x="209.070792" y="255.741178" style="fill: #262626; stroke: #262626; stroke-width: 1.25"/>
      </g>
     </g>
     <g id="text_4">
      <!-- $\mathdefault{0.6}$ -->
      <g style="fill: #262626" transform="translate(201.186874 273.993057)scale(0.1265 -0.1265)">
       <defs>
        <path id="CMR17-36" d="M 678 2198 
C 678 3712 1395 4076 1811 4076 
C 1946 4076 2272 4049 2400 3782 
C 2298 3782 2106 3782 2106 3558 
C 2106 3385 2246 3328 2336 3328 
C 2394 3328 2566 3353 2566 3571 
C 2566 3987 2246 4224 1805 4224 
C 1043 4224 243 3411 243 2011 
C 243 257 966 -128 1478 -128 
C 2099 -128 2688 431 2688 1295 
C 2688 2101 2170 2688 1517 2688 
C 1126 2688 838 2430 678 1979 
L 678 2198 
z
M 1478 25 
C 691 25 691 1212 691 1450 
C 691 1914 909 2585 1504 2585 
C 1613 2585 1926 2585 2138 2140 
C 2253 1889 2253 1624 2253 1302 
C 2253 954 2253 696 2118 438 
C 1978 173 1773 25 1478 25 
z
" transform="scale(0.015625)"/>
       </defs>
       <use xlink:href="#CMR17-30" transform="scale(0.996264)"/>
       <use xlink:href="#CMMI12-3a" transform="translate(45.690477 0)scale(0.996264)"/>
       <use xlink:href="#CMR17-36" transform="translate(72.787654 0)scale(0.996264)"/>
      </g>
     </g>
    </g>
    <g id="xtick_5">
     <g id="line2d_5">
      <g>
       <use xlink:href="#m88ca34fd40" x="264.928268" y="255.741178" style="fill: #262626; stroke: #262626; stroke-width: 1.25"/>
      </g>
     </g>
     <g id="text_5">
      <!-- $\mathdefault{0.8}$ -->
      <g style="fill: #262626" transform="translate(257.04435 273.993057)scale(0.1265 -0.1265)">
       <defs>
        <path id="CMR17-38" d="M 1741 2289 
C 2144 2494 2554 2803 2554 3298 
C 2554 3884 1990 4224 1472 4224 
C 890 4224 378 3800 378 3215 
C 378 3054 416 2777 666 2533 
C 730 2469 998 2276 1171 2154 
C 883 2006 211 1652 211 945 
C 211 282 838 -128 1459 -128 
C 2144 -128 2720 366 2720 1022 
C 2720 1607 2330 1877 2074 2051 
L 1741 2289 
z
M 902 2855 
C 851 2887 595 3086 595 3388 
C 595 3781 998 4076 1459 4076 
C 1965 4076 2336 3716 2336 3298 
C 2336 2700 1670 2359 1638 2359 
C 1632 2359 1626 2359 1574 2398 
L 902 2855 
z
M 2080 1536 
C 2176 1466 2483 1253 2483 861 
C 2483 385 2010 25 1472 25 
C 890 25 448 443 448 951 
C 448 1459 838 1884 1280 2083 
L 2080 1536 
z
" transform="scale(0.015625)"/>
       </defs>
       <use xlink:href="#CMR17-30" transform="scale(0.996264)"/>
       <use xlink:href="#CMMI12-3a" transform="translate(45.690477 0)scale(0.996264)"/>
       <use xlink:href="#CMR17-38" transform="translate(72.787654 0)scale(0.996264)"/>
      </g>
     </g>
    </g>
    <g id="xtick_6">
     <g id="line2d_6">
      <g>
       <use xlink:href="#m88ca34fd40" x="320.785744" y="255.741178" style="fill: #262626; stroke: #262626; stroke-width: 1.25"/>
      </g>
     </g>
     <g id="text_6">
      <!-- $\mathdefault{1.0}$ -->
      <g style="fill: #262626" transform="translate(312.901826 273.993057)scale(0.1265 -0.1265)">
       <defs>
        <path id="CMR17-31" d="M 1702 4083 
C 1702 4217 1696 4224 1606 4224 
C 1357 3927 979 3833 621 3820 
C 602 3820 570 3820 563 3808 
C 557 3795 557 3782 557 3648 
C 755 3648 1088 3686 1344 3839 
L 1344 467 
C 1344 243 1331 166 781 166 
L 589 166 
L 589 0 
C 896 6 1216 12 1523 12 
C 1830 12 2150 6 2458 0 
L 2458 166 
L 2266 166 
C 1715 166 1702 236 1702 467 
L 1702 4083 
z
" transform="scale(0.015625)"/>
       </defs>
       <use xlink:href="#CMR17-31" transform="scale(0.996264)"/>
       <use xlink:href="#CMMI12-3a" transform="translate(45.690477 0)scale(0.996264)"/>
       <use xlink:href="#CMR17-30" transform="translate(72.787654 0)scale(0.996264)"/>
      </g>
     </g>
    </g>
    <g id="text_7">
     <!-- $p/n$ -->
     <g style="fill: #262626" transform="translate(170.380515 290.754892)scale(0.138 -0.138)">
      <defs>
       <path id="CMMI12-70" d="M 275 -794 
C 230 -981 205 -1031 -58 -1031 
C -135 -1031 -199 -1031 -199 -1152 
C -199 -1165 -192 -1216 -122 -1216 
C -39 -1216 51 -1204 134 -1204 
L 410 -1204 
C 544 -1204 870 -1216 1005 -1216 
C 1043 -1216 1120 -1216 1120 -1101 
C 1120 -1031 1075 -1031 966 -1031 
C 672 -1031 653 -987 653 -937 
C 653 -863 941 217 979 364 
C 1050 185 1222 -64 1555 -64 
C 2278 -64 3059 874 3059 1813 
C 3059 2400 2726 2816 2246 2816 
C 1837 2816 1491 2419 1421 2330 
C 1370 2649 1120 2816 864 2816 
C 678 2816 531 2726 410 2483 
C 294 2253 205 1864 205 1838 
C 205 1813 230 1781 275 1781 
C 326 1781 333 1787 371 1934 
C 467 2311 589 2687 845 2687 
C 992 2687 1043 2585 1043 2394 
C 1043 2241 1024 2177 998 2062 
L 275 -794 
z
M 1382 1992 
C 1427 2170 1606 2356 1709 2445 
C 1779 2509 1990 2687 2234 2687 
C 2515 2687 2643 2407 2643 2075 
C 2643 1768 2464 1047 2304 715 
C 2144 370 1850 64 1555 64 
C 1120 64 1050 613 1050 638 
C 1050 657 1062 708 1069 740 
L 1382 1992 
z
" transform="scale(0.015625)"/>
       <path id="CMMI12-3d" d="M 2746 4563 
C 2746 4569 2784 4665 2784 4678 
C 2784 4755 2720 4800 2669 4800 
C 2637 4800 2579 4800 2528 4659 
L 384 -1364 
C 384 -1370 346 -1466 346 -1479 
C 346 -1556 410 -1600 461 -1600 
C 499 -1600 557 -1594 602 -1460 
L 2746 4563 
z
" transform="scale(0.015625)"/>
       <path id="CMMI12-6e" d="M 1318 1870 
C 1331 1909 1491 2228 1728 2432 
C 1894 2585 2112 2687 2362 2687 
C 2618 2687 2707 2496 2707 2241 
C 2707 1877 2445 1149 2317 804 
C 2259 651 2227 568 2227 453 
C 2227 166 2426 -64 2733 -64 
C 3328 -64 3552 874 3552 913 
C 3552 945 3526 970 3488 970 
C 3430 970 3424 951 3392 842 
C 3245 319 3002 64 2752 64 
C 2688 64 2586 70 2586 274 
C 2586 434 2656 625 2694 715 
C 2822 1066 3091 1781 3091 2145 
C 3091 2528 2867 2816 2381 2816 
C 1811 2816 1510 2413 1395 2253 
C 1376 2617 1114 2816 832 2816 
C 627 2816 486 2694 378 2477 
C 262 2247 173 1864 173 1838 
C 173 1813 198 1781 243 1781 
C 294 1781 301 1787 339 1934 
C 442 2324 557 2687 813 2687 
C 960 2687 1011 2585 1011 2394 
C 1011 2253 947 2004 902 1807 
L 723 1117 
C 698 996 627 708 595 593 
C 550 427 480 127 480 95 
C 480 6 550 -64 646 -64 
C 723 -64 813 -26 864 70 
C 877 102 934 325 966 453 
L 1107 1028 
L 1318 1870 
z
" transform="scale(0.015625)"/>
      </defs>
      <use xlink:href="#CMMI12-70" transform="scale(0.996264)"/>
      <use xlink:href="#CMMI12-3d" transform="translate(48.959514 0)scale(0.996264)"/>
      <use xlink:href="#CMMI12-6e" transform="translate(97.734433 0)scale(0.996264)"/>
     </g>
    </g>
   </g>
   <g id="matplotlib.axis_2">
    <g id="ytick_1">
     <g id="line2d_7">
      <path d="M 41.498364 255.741178 
L 320.785744 255.741178 
" clip-path="url(#pdbf379868f)" style="fill: none; stroke: #cccccc; stroke-linecap: round"/>
     </g>
     <g id="line2d_8">
      <defs>
       <path id="mbb5654ae2a" d="M 0 0 
L -6 0 
" style="stroke: #262626; stroke-width: 1.25"/>
      </defs>
      <g>
       <use xlink:href="#mbb5654ae2a" x="41.498364" y="255.741178" style="fill: #262626; stroke: #262626; stroke-width: 1.25"/>
      </g>
     </g>
     <g id="text_8">
      <!-- $\mathdefault{0}$ -->
      <g style="fill: #262626" transform="translate(25.828341 260.117117)scale(0.1265 -0.1265)">
       <use xlink:href="#CMR17-30" transform="scale(0.996264)"/>
      </g>
     </g>
    </g>
    <g id="ytick_2">
     <g id="line2d_9">
      <path d="M 41.498364 206.90813 
L 320.785744 206.90813 
" clip-path="url(#pdbf379868f)" style="fill: none; stroke: #cccccc; stroke-linecap: round"/>
     </g>
     <g id="line2d_10">
      <g>
       <use xlink:href="#mbb5654ae2a" x="41.498364" y="206.90813" style="fill: #262626; stroke: #262626; stroke-width: 1.25"/>
      </g>
     </g>
     <g id="text_9">
      <!-- $\mathdefault{1}$ -->
      <g style="fill: #262626" transform="translate(25.828341 211.28407)scale(0.1265 -0.1265)">
       <use xlink:href="#CMR17-31" transform="scale(0.996264)"/>
      </g>
     </g>
    </g>
    <g id="ytick_3">
     <g id="line2d_11">
      <path d="M 41.498364 158.075082 
L 320.785744 158.075082 
" clip-path="url(#pdbf379868f)" style="fill: none; stroke: #cccccc; stroke-linecap: round"/>
     </g>
     <g id="line2d_12">
      <g>
       <use xlink:href="#mbb5654ae2a" x="41.498364" y="158.075082" style="fill: #262626; stroke: #262626; stroke-width: 1.25"/>
      </g>
     </g>
     <g id="text_10">
      <!-- $\mathdefault{2}$ -->
      <g style="fill: #262626" transform="translate(25.828341 162.451022)scale(0.1265 -0.1265)">
       <use xlink:href="#CMR17-32" transform="scale(0.996264)"/>
      </g>
     </g>
    </g>
    <g id="ytick_4">
     <g id="line2d_13">
      <path d="M 41.498364 109.242035 
L 320.785744 109.242035 
" clip-path="url(#pdbf379868f)" style="fill: none; stroke: #cccccc; stroke-linecap: round"/>
     </g>
     <g id="line2d_14">
      <g>
       <use xlink:href="#mbb5654ae2a" x="41.498364" y="109.242035" style="fill: #262626; stroke: #262626; stroke-width: 1.25"/>
      </g>
     </g>
     <g id="text_11">
      <!-- $\mathdefault{3}$ -->
      <g style="fill: #262626" transform="translate(25.828341 113.617974)scale(0.1265 -0.1265)">
       <defs>
        <path id="CMR17-33" d="M 1414 2176 
C 1984 2176 2234 1673 2234 1094 
C 2234 322 1824 25 1453 25 
C 1114 25 563 193 390 691 
C 422 678 454 678 486 678 
C 640 678 755 780 755 947 
C 755 1132 614 1216 486 1216 
C 378 1216 211 1164 211 927 
C 211 335 787 -128 1466 -128 
C 2176 -128 2720 432 2720 1087 
C 2720 1718 2208 2176 1600 2246 
C 2086 2347 2554 2776 2554 3353 
C 2554 3856 2048 4224 1472 4224 
C 890 4224 378 3862 378 3347 
C 378 3123 544 3084 627 3084 
C 762 3084 877 3167 877 3334 
C 877 3500 762 3584 627 3584 
C 602 3584 570 3584 544 3571 
C 730 3999 1235 4076 1459 4076 
C 1683 4076 2106 3966 2106 3347 
C 2106 3167 2080 2851 1862 2574 
C 1670 2329 1453 2316 1242 2297 
C 1210 2297 1062 2284 1037 2284 
C 992 2278 966 2272 966 2227 
C 966 2182 973 2176 1101 2176 
L 1414 2176 
z
" transform="scale(0.015625)"/>
       </defs>
       <use xlink:href="#CMR17-33" transform="scale(0.996264)"/>
      </g>
     </g>
    </g>
    <g id="ytick_5">
     <g id="line2d_15">
      <path d="M 41.498364 60.408987 
L 320.785744 60.408987 
" clip-path="url(#pdbf379868f)" style="fill: none; stroke: #cccccc; stroke-linecap: round"/>
     </g>
     <g id="line2d_16">
      <g>
       <use xlink:href="#mbb5654ae2a" x="41.498364" y="60.408987" style="fill: #262626; stroke: #262626; stroke-width: 1.25"/>
      </g>
     </g>
     <g id="text_12">
      <!-- $\mathdefault{4}$ -->
      <g style="fill: #262626" transform="translate(25.828341 64.784927)scale(0.1265 -0.1265)">
       <use xlink:href="#CMR17-34" transform="scale(0.996264)"/>
      </g>
     </g>
    </g>
    <g id="ytick_6">
     <g id="line2d_17">
      <path d="M 41.498364 11.575939 
L 320.785744 11.575939 
" clip-path="url(#pdbf379868f)" style="fill: none; stroke: #cccccc; stroke-linecap: round"/>
     </g>
     <g id="line2d_18">
      <g>
       <use xlink:href="#mbb5654ae2a" x="41.498364" y="11.575939" style="fill: #262626; stroke: #262626; stroke-width: 1.25"/>
      </g>
     </g>
     <g id="text_13">
      <!-- $\mathdefault{5}$ -->
      <g style="fill: #262626" transform="translate(25.828341 15.951879)scale(0.1265 -0.1265)">
       <defs>
        <path id="CMR17-35" d="M 730 3750 
C 794 3724 1056 3641 1325 3641 
C 1920 3641 2246 3961 2432 4140 
C 2432 4191 2432 4224 2394 4224 
C 2387 4224 2374 4224 2323 4198 
C 2099 4102 1837 4032 1517 4032 
C 1325 4032 1037 4055 723 4191 
C 653 4224 640 4224 634 4224 
C 602 4224 595 4217 595 4090 
L 595 2231 
C 595 2113 595 2080 659 2080 
C 691 2080 704 2093 736 2139 
C 941 2435 1222 2560 1542 2560 
C 1766 2560 2246 2415 2246 1293 
C 2246 1087 2246 716 2054 422 
C 1894 159 1645 25 1370 25 
C 947 25 518 319 403 812 
C 429 806 480 793 506 793 
C 589 793 749 838 749 1036 
C 749 1209 627 1280 506 1280 
C 358 1280 262 1190 262 1011 
C 262 454 704 -128 1382 -128 
C 2042 -128 2669 441 2669 1267 
C 2669 2054 2170 2662 1549 2662 
C 1222 2662 947 2540 730 2304 
L 730 3750 
z
" transform="scale(0.015625)"/>
       </defs>
       <use xlink:href="#CMR17-35" transform="scale(0.996264)"/>
      </g>
     </g>
    </g>
    <g id="text_14">
     <!-- Complexity / $n^3$ -->
     <g style="fill: #262626" transform="translate(18.391233 181.843625)rotate(-90)scale(0.138 -0.138)">
      <defs>
       <path id="CMR17-43" d="M 3974 4351 
C 3974 4467 3968 4473 3930 4473 
C 3904 4473 3898 4467 3853 4390 
L 3571 3849 
C 3258 4249 2874 4480 2381 4480 
C 1286 4480 294 3507 294 2179 
C 294 837 1286 -128 2387 -128 
C 3366 -128 3974 741 3974 1482 
C 3974 1547 3974 1573 3917 1573 
C 3866 1573 3866 1553 3859 1495 
C 3808 592 3168 38 2477 38 
C 1824 38 781 502 781 2179 
C 781 3862 1843 4313 2464 4313 
C 3187 4313 3712 3681 3834 2785 
C 3846 2707 3846 2695 3904 2695 
C 3974 2695 3974 2707 3974 2824 
L 3974 4351 
z
" transform="scale(0.015625)"/>
       <path id="CMR17-6f" d="M 2758 1356 
C 2758 2176 2163 2816 1466 2816 
C 768 2816 173 2176 173 1356 
C 173 550 768 -64 1466 -64 
C 2163 -64 2758 550 2758 1356 
z
M 1466 51 
C 1165 51 909 230 762 480 
C 602 768 582 1126 582 1408 
C 582 1676 595 2009 762 2297 
C 890 2508 1139 2713 1466 2713 
C 1754 2713 1997 2553 2150 2329 
C 2349 2028 2349 1606 2349 1408 
C 2349 1158 2336 774 2163 467 
C 1984 172 1709 51 1466 51 
z
" transform="scale(0.015625)"/>
       <path id="CMR17-6d" d="M 4326 1954 
C 4326 2276 4269 2816 3507 2816 
C 3072 2816 2771 2520 2656 2173 
L 2650 2173 
C 2573 2700 2195 2816 1837 2816 
C 1331 2816 1069 2424 973 2166 
L 966 2166 
L 966 2816 
L 211 2745 
L 211 2578 
C 589 2578 646 2540 646 2231 
L 646 443 
C 646 198 621 166 211 166 
L 211 0 
C 365 12 646 12 813 12 
C 979 12 1267 12 1421 0 
L 1421 166 
C 1011 166 986 192 986 443 
L 986 1678 
C 986 2269 1344 2713 1792 2713 
C 2266 2713 2317 2289 2317 1980 
L 2317 443 
C 2317 198 2291 166 1882 166 
L 1882 0 
C 2035 12 2317 12 2483 12 
C 2650 12 2938 12 3091 0 
L 3091 166 
C 2682 166 2656 192 2656 443 
L 2656 1678 
C 2656 2269 3014 2713 3462 2713 
C 3936 2713 3987 2289 3987 1980 
L 3987 443 
C 3987 198 3962 166 3552 166 
L 3552 0 
C 3706 12 3987 12 4154 12 
C 4320 12 4608 12 4762 0 
L 4762 166 
C 4352 166 4326 192 4326 443 
L 4326 1954 
z
" transform="scale(0.015625)"/>
       <path id="CMR17-70" d="M 1408 -1114 
C 998 -1114 973 -1088 973 -834 
L 973 380 
C 1158 109 1427 -64 1766 -64 
C 2406 -64 3053 503 3053 1382 
C 3053 2196 2496 2816 1837 2816 
C 1453 2816 1139 2603 960 2345 
L 960 2816 
L 198 2745 
L 198 2577 
C 576 2577 634 2539 634 2228 
L 634 -834 
C 634 -1081 608 -1114 198 -1114 
L 198 -1280 
C 352 -1268 634 -1268 800 -1268 
C 966 -1268 1254 -1268 1408 -1280 
L 1408 -1114 
z
M 973 2015 
C 973 2106 973 2241 1222 2481 
C 1254 2506 1472 2700 1792 2700 
C 2259 2700 2643 2112 2643 1376 
C 2643 639 2234 38 1728 38 
C 1498 38 1248 148 1056 451 
C 973 594 973 632 973 736 
L 973 2015 
z
" transform="scale(0.015625)"/>
       <path id="CMR17-6c" d="M 979 4416 
L 218 4345 
L 218 4179 
C 595 4179 653 4141 653 3835 
L 653 439 
C 653 198 627 166 218 166 
L 218 0 
C 371 12 653 12 813 12 
C 979 12 1261 12 1414 0 
L 1414 166 
C 1005 166 979 191 979 439 
L 979 4416 
z
" transform="scale(0.015625)"/>
       <path id="CMR17-65" d="M 2438 1503 
C 2464 1529 2464 1542 2464 1606 
C 2464 2251 2118 2816 1389 2816 
C 710 2816 173 2175 173 1394 
C 173 554 781 -64 1459 -64 
C 2176 -64 2458 619 2458 755 
C 2458 800 2419 800 2406 800 
C 2362 800 2355 787 2330 709 
C 2189 270 1837 51 1504 51 
C 1229 51 954 206 781 490 
C 582 819 582 1200 582 1503 
L 2438 1503 
z
M 589 1600 
C 634 2511 1126 2713 1382 2713 
C 1818 2713 2112 2308 2118 1600 
L 589 1600 
z
" transform="scale(0.015625)"/>
       <path id="CMR17-78" d="M 1664 1491 
C 1856 1740 2074 2022 2253 2233 
C 2464 2476 2707 2579 2989 2585 
L 2989 2752 
C 2880 2745 2656 2739 2541 2739 
C 2368 2739 2170 2739 2022 2752 
L 2022 2585 
C 2112 2572 2163 2508 2163 2419 
C 2163 2304 2099 2233 2067 2188 
L 1594 1587 
L 1030 2323 
C 973 2393 973 2406 973 2438 
C 973 2515 1037 2579 1146 2585 
L 1146 2752 
C 992 2739 717 2739 557 2739 
C 384 2739 179 2739 38 2752 
L 38 2585 
C 384 2585 461 2560 614 2368 
L 1350 1414 
C 1363 1401 1395 1363 1395 1344 
C 1395 1318 838 633 768 544 
C 480 198 179 172 6 166 
L 6 0 
C 115 6 339 12 454 12 
C 582 12 864 12 979 0 
L 979 166 
C 941 172 838 185 838 332 
C 838 448 890 518 947 595 
L 1478 1248 
L 2035 524 
C 2086 454 2163 358 2163 313 
C 2163 224 2086 172 1984 166 
L 1984 0 
C 2138 12 2413 12 2573 12 
C 2746 12 2950 12 3091 0 
L 3091 166 
C 2771 166 2675 179 2522 377 
L 1664 1491 
z
" transform="scale(0.015625)"/>
       <path id="CMR17-69" d="M 992 3961 
C 992 4102 877 4224 730 4224 
C 589 4224 467 4108 467 3961 
C 467 3820 582 3699 730 3699 
C 870 3699 992 3814 992 3961 
z
M 243 2745 
L 243 2579 
C 602 2579 653 2540 653 2231 
L 653 443 
C 653 198 627 166 218 166 
L 218 0 
C 371 12 646 12 806 12 
C 960 12 1222 12 1370 0 
L 1370 166 
C 992 166 979 205 979 436 
L 979 2816 
L 243 2745 
z
" transform="scale(0.015625)"/>
       <path id="CMR17-74" d="M 966 2585 
L 1862 2585 
L 1862 2752 
L 966 2752 
L 966 3968 
L 851 3968 
C 838 3292 614 2700 70 2687 
L 70 2585 
L 627 2585 
L 627 778 
C 627 655 627 -64 1370 -64 
C 1747 -64 1965 308 1965 784 
L 1965 1151 
L 1850 1151 
L 1850 790 
C 1850 347 1677 51 1408 51 
C 1222 51 966 179 966 765 
L 966 2585 
z
" transform="scale(0.015625)"/>
       <path id="CMR17-79" d="M 2496 2183 
C 2656 2579 2944 2585 3034 2585 
L 3034 2752 
C 2912 2745 2752 2739 2630 2739 
C 2496 2739 2285 2739 2157 2752 
L 2157 2585 
C 2400 2566 2406 2384 2406 2332 
C 2406 2268 2394 2235 2362 2158 
L 1664 409 
L 902 2300 
C 870 2378 870 2423 870 2430 
C 870 2572 1018 2585 1171 2585 
L 1171 2752 
C 1018 2739 742 2739 582 2739 
C 410 2739 205 2739 64 2752 
L 64 2585 
C 410 2585 448 2553 531 2345 
L 1485 -31 
C 1197 -795 1030 -1242 627 -1242 
C 557 -1242 397 -1223 282 -1106 
C 429 -1093 493 -1002 493 -892 
C 493 -782 416 -685 288 -685 
C 147 -685 77 -782 77 -899 
C 77 -1158 339 -1344 627 -1344 
C 998 -1344 1229 -983 1357 -659 
L 2496 2183 
z
" transform="scale(0.015625)"/>
       <path id="CMR17-2f" d="M 2605 4575 
C 2637 4658 2637 4671 2637 4684 
C 2637 4761 2579 4800 2528 4800 
C 2451 4800 2426 4748 2400 4671 
L 326 -1376 
C 294 -1460 294 -1472 294 -1485 
C 294 -1562 352 -1600 403 -1600 
C 480 -1600 506 -1549 531 -1472 
L 2605 4575 
z
" transform="scale(0.015625)"/>
      </defs>
      <use xlink:href="#CMR17-43" transform="scale(0.996264)"/>
      <use xlink:href="#CMR17-6f" transform="translate(66.509881 0)scale(0.996264)"/>
      <use xlink:href="#CMR17-6d" transform="translate(112.200358 0)scale(0.996264)"/>
      <use xlink:href="#CMR17-70" transform="translate(189.119948 0)scale(0.996264)"/>
      <use xlink:href="#CMR17-6c" transform="translate(240.015317 0)scale(0.996264)"/>
      <use xlink:href="#CMR17-65" transform="translate(264.886376 0)scale(0.996264)"/>
      <use xlink:href="#CMR17-78" transform="translate(305.372036 0)scale(0.996264)"/>
      <use xlink:href="#CMR17-69" transform="translate(353.664952 0)scale(0.996264)"/>
      <use xlink:href="#CMR17-74" transform="translate(378.536011 0)scale(0.996264)"/>
      <use xlink:href="#CMR17-79" transform="translate(411.214324 0)scale(0.996264)"/>
      <use xlink:href="#CMR17-2f" transform="translate(489.583207 0)scale(0.996264)"/>
      <use xlink:href="#CMMI12-6e" transform="translate(565.34965 0)scale(0.996264)"/>
      <use xlink:href="#CMR17-33" transform="translate(623.579697 36.153639)scale(0.697382)"/>
     </g>
    </g>
   </g>
   <g id="line2d_19">
    <path d="M 41.498364 223.185813 
L 47.198107 222.168605 
L 52.897849 221.109059 
L 58.597591 220.005515 
L 64.297334 218.856314 
L 69.997076 217.659793 
L 75.696819 216.414295 
L 81.396561 215.118157 
L 87.096304 213.769719 
L 92.796046 212.367322 
L 98.495789 210.909306 
L 104.195531 209.394009 
L 109.895273 207.819771 
L 115.595016 206.184933 
L 121.294758 204.487833 
L 126.994501 202.726812 
L 132.694243 200.90021 
L 138.393986 199.006365 
L 144.093728 197.043618 
L 149.793471 195.010309 
L 155.493213 192.904777 
L 161.192955 190.725361 
L 166.892698 188.470402 
L 172.59244 186.138239 
L 178.292183 183.727213 
L 183.991925 181.235661 
L 189.691668 178.661925 
L 195.39141 176.004345 
L 201.091153 173.261259 
L 206.790895 170.431007 
L 212.490637 167.511929 
L 218.19038 164.502366 
L 223.890122 161.400656 
L 229.589865 158.205139 
L 235.289607 154.914155 
L 240.98935 151.526044 
L 246.689092 148.039145 
L 252.388835 144.451798 
L 258.088577 140.762344 
L 263.788319 136.96912 
L 269.488062 133.070468 
L 275.187804 129.064726 
L 280.887547 124.950236 
L 286.587289 120.725335 
L 292.287032 116.388365 
L 297.986774 111.937664 
L 303.686517 107.371573 
L 309.386259 102.688431 
L 315.086001 97.886577 
L 320.785744 92.964352 
" clip-path="url(#pdbf379868f)" style="fill: none; stroke: #9acd32; stroke-width: 2; stroke-linecap: round"/>
   </g>
   <g id="line2d_20">
    <path d="M 41.498364 239.463495 
L 47.198107 238.954891 
L 52.897849 238.425118 
L 58.597591 237.873347 
L 64.297334 237.298746 
L 69.997076 236.700486 
L 75.696819 236.077736 
L 81.396561 235.429667 
L 87.096304 234.755449 
L 92.796046 234.05425 
L 98.495789 233.325242 
L 104.195531 232.567593 
L 109.895273 231.780474 
L 115.595016 230.963055 
L 121.294758 230.114506 
L 126.994501 229.233995 
L 132.694243 228.320694 
L 138.393986 227.373772 
L 144.093728 226.392398 
L 149.793471 225.375743 
L 155.493213 224.322977 
L 161.192955 223.233269 
L 166.892698 222.10579 
L 172.59244 220.939709 
L 178.292183 219.734195 
L 183.991925 218.48842 
L 189.691668 217.201552 
L 195.39141 215.872761 
L 201.091153 214.501218 
L 206.790895 213.086092 
L 212.490637 211.626554 
L 218.19038 210.121772 
L 223.890122 208.570917 
L 229.589865 206.973158 
L 235.289607 205.327666 
L 240.98935 203.633611 
L 246.689092 201.890161 
L 252.388835 200.096488 
L 258.088577 198.251761 
L 263.788319 196.355149 
L 269.488062 194.405823 
L 275.187804 192.402952 
L 280.887547 190.345707 
L 286.587289 188.233257 
L 292.287032 186.064771 
L 297.986774 183.839421 
L 303.686517 181.556375 
L 309.386259 179.214804 
L 315.086001 176.813877 
L 320.785744 174.352765 
" clip-path="url(#pdbf379868f)" style="fill: none; stroke: #556b2f; stroke-width: 2; stroke-linecap: round"/>
   </g>
   <g id="line2d_21">
    <path d="M 41.498364 239.463495 
L 47.198107 238.944722 
L 52.897849 238.384441 
L 58.597591 237.781823 
L 64.297334 237.136037 
L 69.997076 236.446253 
L 75.696819 235.711641 
L 81.396561 234.931371 
L 87.096304 234.104612 
L 92.796046 233.230536 
L 98.495789 232.30831 
L 104.195531 231.337106 
L 109.895273 230.316093 
L 115.595016 229.244441 
L 121.294758 228.12132 
L 126.994501 226.945899 
L 132.694243 225.717349 
L 138.393986 224.43484 
L 144.093728 223.09754 
L 149.793471 221.704621 
L 155.493213 220.255251 
L 161.192955 218.748602 
L 166.892698 217.183842 
L 172.59244 215.560141 
L 178.292183 213.87667 
L 183.991925 212.132598 
L 189.691668 210.327095 
L 195.39141 208.459331 
L 201.091153 206.528476 
L 206.790895 204.533699 
L 212.490637 202.474171 
L 218.19038 200.349061 
L 223.890122 198.157539 
L 229.589865 195.898775 
L 235.289607 193.571939 
L 240.98935 191.176201 
L 246.689092 188.71073 
L 252.388835 186.174697 
L 258.088577 183.567271 
L 263.788319 180.887622 
L 269.488062 178.13492 
L 275.187804 175.308335 
L 280.887547 172.407036 
L 286.587289 169.430194 
L 292.287032 166.376979 
L 297.986774 163.246559 
L 303.686517 160.038106 
L 309.386259 156.750789 
L 315.086001 153.383777 
L 320.785744 149.936241 
" clip-path="url(#pdbf379868f)" style="fill: none; stroke-dasharray: 7.4,3.2; stroke-dashoffset: 0; stroke: #556b2f; stroke-width: 2"/>
   </g>
   <g id="line2d_22">
    <path d="M 41.498364 223.185813 
L 47.198107 221.17215 
L 52.897849 219.11698 
L 58.597591 217.019472 
L 64.297334 214.878797 
L 69.997076 212.694124 
L 75.696819 210.464623 
L 81.396561 208.189464 
L 87.096304 205.867816 
L 92.796046 203.49885 
L 98.495789 201.081736 
L 104.195531 198.615642 
L 109.895273 196.09974 
L 115.595016 193.533199 
L 121.294758 190.915188 
L 126.994501 188.244879 
L 132.694243 185.521439 
L 138.393986 182.74404 
L 144.093728 179.911852 
L 149.793471 177.024043 
L 155.493213 174.079785 
L 161.192955 171.078246 
L 166.892698 168.018597 
L 172.59244 164.900007 
L 178.292183 161.721646 
L 183.991925 158.482685 
L 189.691668 155.182293 
L 195.39141 151.81964 
L 201.091153 148.393895 
L 206.790895 144.904229 
L 212.490637 141.349812 
L 218.19038 137.729813 
L 223.890122 134.043401 
L 229.589865 130.289748 
L 235.289607 126.468023 
L 240.98935 122.577396 
L 246.689092 118.617036 
L 252.388835 114.586113 
L 258.088577 110.483798 
L 263.788319 106.30926 
L 269.488062 102.061669 
L 275.187804 97.740194 
L 280.887547 93.344007 
L 286.587289 88.872275 
L 292.287032 84.324171 
L 297.986774 79.698862 
L 303.686517 74.99552 
L 309.386259 70.213313 
L 315.086001 65.351412 
L 320.785744 60.408987 
" clip-path="url(#pdbf379868f)" style="fill: none; stroke: #cd5c5c; stroke-width: 2; stroke-linecap: round"/>
   </g>
   <g id="line2d_23">
    <path d="M 41.498364 223.185813 
L 47.198107 221.161981 
L 52.897849 219.076303 
L 58.597591 216.927949 
L 64.297334 214.716088 
L 69.997076 212.439891 
L 75.696819 210.098528 
L 81.396561 207.691167 
L 87.096304 205.21698 
L 92.796046 202.675136 
L 98.495789 200.064804 
L 104.195531 197.385155 
L 109.895273 194.635359 
L 115.595016 191.814585 
L 121.294758 188.922003 
L 126.994501 185.956783 
L 132.694243 182.918095 
L 138.393986 179.805109 
L 144.093728 176.616994 
L 149.793471 173.352921 
L 155.493213 170.012059 
L 161.192955 166.593578 
L 166.892698 163.096648 
L 172.59244 159.520439 
L 178.292183 155.864121 
L 183.991925 152.126864 
L 189.691668 148.307836 
L 195.39141 144.40621 
L 201.091153 140.421153 
L 206.790895 136.351836 
L 212.490637 132.197429 
L 218.19038 127.957101 
L 223.890122 123.630024 
L 229.589865 119.215365 
L 235.289607 114.712296 
L 240.98935 110.119986 
L 246.689092 105.437604 
L 252.388835 100.664322 
L 258.088577 95.799308 
L 263.788319 90.841733 
L 269.488062 85.790766 
L 275.187804 80.645577 
L 280.887547 75.405336 
L 286.587289 70.069213 
L 292.287032 64.636378 
L 297.986774 59.106 
L 303.686517 53.47725 
L 309.386259 47.749298 
L 315.086001 41.921312 
L 320.785744 35.992463 
" clip-path="url(#pdbf379868f)" style="fill: none; stroke-dasharray: 7.4,3.2; stroke-dashoffset: 0; stroke: #cd5c5c; stroke-width: 2"/>
   </g>
   <g id="line2d_24">
    <path d="M 41.498364 223.185813 
L 47.198107 221.192627 
L 52.897849 219.199441 
L 58.597591 217.206256 
L 64.297334 215.21307 
L 69.997076 213.219885 
L 75.696819 211.226699 
L 81.396561 209.233513 
L 87.096304 207.240328 
L 92.796046 205.247142 
L 98.495789 203.253956 
L 104.195531 201.260771 
L 109.895273 199.267585 
L 115.595016 197.2744 
L 121.294758 195.281214 
L 126.994501 193.288028 
L 132.694243 191.294843 
L 138.393986 189.301657 
L 144.093728 187.308472 
L 149.793471 185.315286 
L 155.493213 183.3221 
L 161.192955 181.328915 
L 166.892698 179.335729 
L 172.59244 177.342543 
L 178.292183 175.349358 
L 183.991925 173.356172 
L 189.691668 171.362987 
L 195.39141 169.369801 
L 201.091153 167.376615 
L 206.790895 165.38343 
L 212.490637 163.390244 
L 218.19038 161.397058 
L 223.890122 159.403873 
L 229.589865 157.410687 
L 235.289607 155.417502 
L 240.98935 153.424316 
L 246.689092 151.43113 
L 252.388835 149.437945 
L 258.088577 147.444759 
L 263.788319 145.451574 
L 269.488062 143.458388 
L 275.187804 141.465202 
L 280.887547 139.472017 
L 286.587289 137.478831 
L 292.287032 135.485645 
L 297.986774 133.49246 
L 303.686517 131.499274 
L 309.386259 129.506089 
L 315.086001 127.512903 
L 320.785744 125.519717 
" clip-path="url(#pdbf379868f)" style="fill: none; stroke: #800000; stroke-width: 2; stroke-linecap: round"/>
   </g>
   <g id="line2d_25">
    <path d="M 41.498364 27.853622 
L 47.198107 32.765539 
L 52.897849 37.535916 
L 58.597591 42.165583 
L 64.297334 46.65537 
L 69.997076 51.006107 
L 75.696819 55.218624 
L 81.396561 59.293752 
L 87.096304 63.232321 
L 92.796046 67.03516 
L 98.495789 70.7031 
L 104.195531 74.236972 
L 109.895273 77.637604 
L 115.595016 80.905828 
L 121.294758 84.042474 
L 126.994501 87.048371 
L 132.694243 89.92435 
L 138.393986 92.671241 
L 144.093728 95.289874 
L 149.793471 97.781079 
L 155.493213 100.145687 
L 161.192955 102.384527 
L 166.892698 104.49843 
L 172.59244 106.488226 
L 178.292183 108.354745 
L 183.991925 110.098817 
L 189.691668 111.721272 
L 195.39141 113.222941 
L 201.091153 114.604653 
L 206.790895 115.867239 
L 212.490637 117.011529 
L 218.19038 118.038353 
L 223.890122 118.948542 
L 229.589865 119.742924 
L 235.289607 120.422331 
L 240.98935 120.987593 
L 246.689092 121.439539 
L 252.388835 121.779001 
L 258.088577 122.006807 
L 263.788319 122.123789 
L 269.488062 122.130776 
L 275.187804 122.028599 
L 280.887547 121.818087 
L 286.587289 121.500071 
L 292.287032 121.075381 
L 297.986774 120.544847 
L 303.686517 119.9093 
L 309.386259 119.169569 
L 315.086001 118.326484 
L 320.785744 117.380876 
" clip-path="url(#pdbf379868f)" style="fill: none; stroke: #ffd700; stroke-width: 2; stroke-linecap: round"/>
   </g>
   <g id="line2d_26">
    <path d="M 41.498364 27.853622 
L 47.198107 32.75537 
L 52.897849 37.495239 
L 58.597591 42.074059 
L 64.297334 46.492661 
L 69.997076 50.751874 
L 75.696819 54.852529 
L 81.396561 58.795456 
L 87.096304 62.581485 
L 92.796046 66.211446 
L 98.495789 69.686169 
L 104.195531 73.006485 
L 109.895273 76.173223 
L 115.595016 79.187214 
L 121.294758 82.049288 
L 126.994501 84.760275 
L 132.694243 87.321005 
L 138.393986 89.732309 
L 144.093728 91.995016 
L 149.793471 94.109957 
L 155.493213 96.077961 
L 161.192955 97.899859 
L 166.892698 99.576482 
L 172.59244 101.108659 
L 178.292183 102.49722 
L 183.991925 103.742995 
L 189.691668 104.846816 
L 195.39141 105.809511 
L 201.091153 106.631911 
L 206.790895 107.314846 
L 212.490637 107.859146 
L 218.19038 108.265642 
L 223.890122 108.535164 
L 229.589865 108.668541 
L 235.289607 108.666604 
L 240.98935 108.530183 
L 246.689092 108.260108 
L 252.388835 107.857209 
L 258.088577 107.322317 
L 263.788319 106.656262 
L 269.488062 105.859873 
L 275.187804 104.933981 
L 280.887547 103.879416 
L 286.587289 102.697009 
L 292.287032 101.387588 
L 297.986774 99.951986 
L 303.686517 98.39103 
L 309.386259 96.705553 
L 315.086001 94.896384 
L 320.785744 92.964352 
" clip-path="url(#pdbf379868f)" style="fill: none; stroke-dasharray: 7.4,3.2; stroke-dashoffset: 0; stroke: #ffd700; stroke-width: 2"/>
   </g>
   <g id="line2d_27">
    <path d="M 41.498364 68.547828 
L 47.198107 71.49693 
L 52.897849 74.364676 
L 58.597591 77.151068 
L 64.297334 79.856106 
L 69.997076 82.479789 
L 75.696819 85.022118 
L 81.396561 87.483092 
L 87.096304 89.862711 
L 92.796046 92.160976 
L 98.495789 94.377887 
L 104.195531 96.513443 
L 109.895273 98.567644 
L 115.595016 100.540491 
L 121.294758 102.431984 
L 126.994501 104.242122 
L 132.694243 105.970905 
L 138.393986 107.618334 
L 144.093728 109.184409 
L 149.793471 110.669129 
L 155.493213 112.072494 
L 161.192955 113.394505 
L 166.892698 114.635161 
L 172.59244 115.794463 
L 178.292183 116.87241 
L 183.991925 117.869003 
L 189.691668 118.784241 
L 195.39141 119.618125 
L 201.091153 120.370654 
L 206.790895 121.041829 
L 212.490637 121.631649 
L 218.19038 122.140115 
L 223.890122 122.567226 
L 229.589865 122.912983 
L 235.289607 123.177385 
L 240.98935 123.360433 
L 246.689092 123.462126 
L 252.388835 123.482465 
L 258.088577 123.421449 
L 263.788319 123.279078 
L 269.488062 123.055353 
L 275.187804 122.750274 
L 280.887547 122.36384 
L 286.587289 121.896052 
L 292.287032 121.346909 
L 297.986774 120.716411 
L 303.686517 120.004559 
L 309.386259 119.211353 
L 315.086001 118.336792 
L 320.785744 117.380876 
" clip-path="url(#pdbf379868f)" style="fill: none; stroke: #daa520; stroke-width: 2; stroke-linecap: round"/>
   </g>
   <g id="line2d_28">
    <path d="M 41.498364 44.131305 
L 47.198107 48.05666 
L 52.897849 51.859984 
L 58.597591 55.541275 
L 64.297334 59.100535 
L 69.997076 62.537764 
L 75.696819 65.85296 
L 81.396561 69.046125 
L 87.096304 72.117258 
L 92.796046 75.066359 
L 98.495789 77.893428 
L 104.195531 80.598466 
L 109.895273 83.181472 
L 115.595016 85.642446 
L 121.294758 87.981388 
L 126.994501 90.198299 
L 132.694243 92.293177 
L 138.393986 94.266024 
L 144.093728 96.11684 
L 149.793471 97.845623 
L 155.493213 99.452375 
L 161.192955 100.937095 
L 166.892698 102.299783 
L 172.59244 103.540439 
L 178.292183 104.659064 
L 183.991925 105.655657 
L 189.691668 106.530218 
L 195.39141 107.282747 
L 201.091153 107.913244 
L 206.790895 108.42171 
L 212.490637 108.808144 
L 218.19038 109.072546 
L 223.890122 109.214917 
L 229.589865 109.235255 
L 235.289607 109.133562 
L 240.98935 108.909837 
L 246.689092 108.56408 
L 252.388835 108.096292 
L 258.088577 107.506472 
L 263.788319 106.79462 
L 269.488062 105.960736 
L 275.187804 105.00482 
L 280.887547 103.926873 
L 286.587289 102.726894 
L 292.287032 101.404883 
L 297.986774 99.960841 
L 303.686517 98.394766 
L 309.386259 96.70666 
L 315.086001 94.896522 
L 320.785744 92.964352 
" clip-path="url(#pdbf379868f)" style="fill: none; stroke-dasharray: 7.4,3.2; stroke-dashoffset: 0; stroke: #daa520; stroke-width: 2"/>
   </g>
   <g id="line2d_29">
    <path d="M 41.498364 27.853622 
L 47.198107 32.816524 
L 52.897849 37.740409 
L 58.597591 42.626938 
L 64.297334 47.47777 
L 69.997076 52.294566 
L 75.696819 57.078986 
L 81.396561 61.832691 
L 87.096304 66.557341 
L 92.796046 71.254596 
L 98.495789 75.926116 
L 104.195531 80.573562 
L 109.895273 85.198593 
L 115.595016 89.802872 
L 121.294758 94.388056 
L 126.994501 98.955808 
L 132.694243 103.507787 
L 138.393986 108.045653 
L 144.093728 112.571067 
L 149.793471 117.085689 
L 155.493213 121.59118 
L 161.192955 126.089199 
L 166.892698 130.581407 
L 172.59244 135.069465 
L 178.292183 139.555031 
L 183.991925 144.039768 
L 189.691668 148.525335 
L 195.39141 153.013393 
L 201.091153 157.505601 
L 206.790895 162.00362 
L 212.490637 166.509111 
L 218.19038 171.023733 
L 223.890122 175.549147 
L 229.589865 180.087013 
L 235.289607 184.638992 
L 240.98935 189.206744 
L 246.689092 193.791928 
L 252.388835 198.396206 
L 258.088577 203.021238 
L 263.788319 207.668684 
L 269.488062 212.340204 
L 275.187804 217.037459 
L 280.887547 221.762109 
L 286.587289 226.515813 
L 292.287032 231.300234 
L 297.986774 236.11703 
L 303.686517 240.967862 
L 309.386259 245.85439 
L 315.086001 250.778276 
L 320.785744 255.741178 
" clip-path="url(#pdbf379868f)" style="fill: none; stroke: #6495ed; stroke-width: 2; stroke-linecap: round"/>
   </g>
   <g id="line2d_30">
    <path d="M 41.498364 68.547828 
L 47.198107 71.547915 
L 52.897849 74.569169 
L 58.597591 77.612423 
L 64.297334 80.678506 
L 69.997076 83.768248 
L 75.696819 86.88248 
L 81.396561 90.022031 
L 87.096304 93.187731 
L 92.796046 96.380412 
L 98.495789 99.600902 
L 104.195531 102.850033 
L 109.895273 106.128633 
L 115.595016 109.437535 
L 121.294758 112.777566 
L 126.994501 116.149559 
L 132.694243 119.554342 
L 138.393986 122.992746 
L 144.093728 126.465602 
L 149.793471 129.973739 
L 155.493213 133.517987 
L 161.192955 137.099177 
L 166.892698 140.718138 
L 172.59244 144.375702 
L 178.292183 148.072697 
L 183.991925 151.809955 
L 189.691668 155.588305 
L 195.39141 159.408577 
L 201.091153 163.271602 
L 206.790895 167.17821 
L 212.490637 171.129231 
L 218.19038 175.125495 
L 223.890122 179.167832 
L 229.589865 183.257072 
L 235.289607 187.394046 
L 240.98935 191.579584 
L 246.689092 195.814515 
L 252.388835 200.09967 
L 258.088577 204.43588 
L 263.788319 208.823974 
L 269.488062 213.264782 
L 275.187804 217.759134 
L 280.887547 222.307862 
L 286.587289 226.911794 
L 292.287032 231.571761 
L 297.986774 236.288594 
L 303.686517 241.063121 
L 309.386259 245.896175 
L 315.086001 250.788583 
L 320.785744 255.741178 
" clip-path="url(#pdbf379868f)" style="fill: none; stroke: #00008b; stroke-width: 2; stroke-linecap: round"/>
   </g>
   <g id="line2d_31">
    <path d="M 41.498364 44.131305 
L 47.198107 48.117814 
L 52.897849 52.105154 
L 58.597591 56.094154 
L 64.297334 60.085644 
L 69.997076 64.080456 
L 75.696819 68.079417 
L 81.396561 72.08336 
L 87.096304 76.093114 
L 92.796046 80.109509 
L 98.495789 84.133375 
L 104.195531 88.165543 
L 109.895273 92.206842 
L 115.595016 96.258103 
L 121.294758 100.320156 
L 126.994501 104.393831 
L 132.694243 108.479959 
L 138.393986 112.579369 
L 144.093728 116.692891 
L 149.793471 120.821356 
L 155.493213 124.965593 
L 161.192955 129.126434 
L 166.892698 133.304708 
L 172.59244 137.501245 
L 178.292183 141.716876 
L 183.991925 145.95243 
L 189.691668 150.208737 
L 195.39141 154.486629 
L 201.091153 158.786934 
L 206.790895 163.110484 
L 212.490637 167.458108 
L 218.19038 171.830637 
L 223.890122 176.2289 
L 229.589865 180.653728 
L 235.289607 185.10595 
L 240.98935 189.586398 
L 246.689092 194.095901 
L 252.388835 198.635289 
L 258.088577 203.205393 
L 263.788319 207.807042 
L 269.488062 212.441067 
L 275.187804 217.108298 
L 280.887547 221.809565 
L 286.587289 226.545699 
L 292.287032 231.317528 
L 297.986774 236.125885 
L 303.686517 240.971598 
L 309.386259 245.855497 
L 315.086001 250.778414 
L 320.785744 255.741178 
" clip-path="url(#pdbf379868f)" style="fill: none; stroke-dasharray: 7.4,3.2; stroke-dashoffset: 0; stroke: #00008b; stroke-width: 2"/>
   </g>
   <g id="line2d_32">
    <path d="M 41.498364 125.519717 
L 47.198107 130.441942 
L 52.897849 135.243796 
L 58.597591 139.926938 
L 64.297334 144.493029 
L 69.997076 148.94373 
L 75.696819 153.2807 
L 81.396561 157.505601 
L 87.096304 161.620092 
L 92.796046 165.625833 
L 98.495789 169.524485 
L 104.195531 173.317709 
L 109.895273 177.007164 
L 115.595016 180.59451 
L 121.294758 184.081409 
L 126.994501 187.46952 
L 132.694243 190.760504 
L 138.393986 193.956021 
L 144.093728 197.057731 
L 149.793471 200.067295 
L 155.493213 202.986372 
L 161.192955 205.816624 
L 166.892698 208.55971 
L 172.59244 211.217291 
L 178.292183 213.791026 
L 183.991925 216.282578 
L 189.691668 218.693605 
L 195.39141 221.025767 
L 201.091153 223.280726 
L 206.790895 225.460142 
L 212.490637 227.565674 
L 218.19038 229.598984 
L 223.890122 231.56173 
L 229.589865 233.455575 
L 235.289607 235.282178 
L 240.98935 237.043198 
L 246.689092 238.740298 
L 252.388835 240.375136 
L 258.088577 241.949374 
L 263.788319 243.464671 
L 269.488062 244.922688 
L 275.187804 246.325084 
L 280.887547 247.673522 
L 286.587289 248.96966 
L 292.287032 250.215158 
L 297.986774 251.411679 
L 303.686517 252.56088 
L 309.386259 253.664424 
L 315.086001 254.72397 
L 320.785744 255.741178 
" clip-path="url(#pdbf379868f)" style="fill: none; stroke-dasharray: 2,3.3; stroke-dashoffset: 0; stroke: #6495ed; stroke-width: 2"/>
   </g>
   <g id="line2d_33">
    <path d="M 41.498364 166.213924 
L 47.198107 169.173333 
L 52.897849 172.072556 
L 58.597591 174.912423 
L 64.297334 177.693765 
L 69.997076 180.417412 
L 75.696819 183.084194 
L 81.396561 185.69494 
L 87.096304 188.250482 
L 92.796046 190.751649 
L 98.495789 193.199272 
L 104.195531 195.59418 
L 109.895273 197.937204 
L 115.595016 200.229173 
L 121.294758 202.470919 
L 126.994501 204.663271 
L 132.694243 206.80706 
L 138.393986 208.903114 
L 144.093728 210.952266 
L 149.793471 212.955344 
L 155.493213 214.913179 
L 161.192955 216.826601 
L 166.892698 218.696441 
L 172.59244 220.523528 
L 178.292183 222.308692 
L 183.991925 224.052764 
L 189.691668 225.756574 
L 195.39141 227.420952 
L 201.091153 229.046728 
L 206.790895 230.634732 
L 212.490637 232.185794 
L 218.19038 233.700745 
L 223.890122 235.180415 
L 229.589865 236.625634 
L 235.289607 238.037232 
L 240.98935 239.416038 
L 246.689092 240.762885 
L 252.388835 242.0786 
L 258.088577 243.364015 
L 263.788319 244.61996 
L 269.488062 245.847265 
L 275.187804 247.04676 
L 280.887547 248.219275 
L 286.587289 249.36564 
L 292.287032 250.486686 
L 297.986774 251.583243 
L 303.686517 252.65614 
L 309.386259 253.706208 
L 315.086001 254.734277 
L 320.785744 255.741178 
" clip-path="url(#pdbf379868f)" style="fill: none; stroke-dasharray: 2,3.3; stroke-dashoffset: 0; stroke: #00008b; stroke-width: 2"/>
   </g>
   <g id="line2d_34">
    <path d="M 41.498364 141.7974 
L 47.198107 145.743232 
L 52.897849 149.60854 
L 58.597591 153.394154 
L 64.297334 157.100904 
L 69.997076 160.729619 
L 75.696819 164.281131 
L 81.396561 167.75627 
L 87.096304 171.155865 
L 92.796046 174.480746 
L 98.495789 177.731745 
L 104.195531 180.90969 
L 109.895273 184.015412 
L 115.595016 187.049742 
L 121.294758 190.013509 
L 126.994501 192.907544 
L 132.694243 195.732676 
L 138.393986 198.489736 
L 144.093728 201.179555 
L 149.793471 203.802961 
L 155.493213 206.360786 
L 161.192955 208.853859 
L 166.892698 211.283011 
L 172.59244 213.649071 
L 178.292183 215.952871 
L 183.991925 218.195239 
L 189.691668 220.377007 
L 195.39141 222.499003 
L 201.091153 224.56206 
L 206.790895 226.567006 
L 212.490637 228.514672 
L 218.19038 230.405888 
L 223.890122 232.241483 
L 229.589865 234.022289 
L 235.289607 235.749136 
L 240.98935 237.422853 
L 246.689092 239.04427 
L 252.388835 240.614219 
L 258.088577 242.133528 
L 263.788319 243.603029 
L 269.488062 245.023551 
L 275.187804 246.395924 
L 280.887547 247.720978 
L 286.587289 248.999545 
L 292.287032 250.232453 
L 297.986774 251.420534 
L 303.686517 252.564616 
L 309.386259 253.665531 
L 315.086001 254.724108 
L 320.785744 255.741178 
" clip-path="url(#pdbf379868f)" style="fill: none; stroke-dasharray: 2,3.3; stroke-dashoffset: 0; stroke: #00008b; stroke-width: 2"/>
   </g>
   <g id="patch_3">
    <path d="M 41.498364 255.741178 
L 41.498364 11.575939 
" style="fill: none; stroke: #262626; stroke-width: 1.25; stroke-linejoin: miter; stroke-linecap: square"/>
   </g>
   <g id="patch_4">
    <path d="M 320.785744 255.741178 
L 320.785744 11.575939 
" style="fill: none; stroke: #262626; stroke-width: 1.25; stroke-linejoin: miter; stroke-linecap: square"/>
   </g>
   <g id="patch_5">
    <path d="M 41.498364 255.741178 
L 320.785744 255.741178 
" style="fill: none; stroke: #262626; stroke-width: 1.25; stroke-linejoin: miter; stroke-linecap: square"/>
   </g>
   <g id="patch_6">
    <path d="M 41.498364 11.575939 
L 320.785744 11.575939 
" style="fill: none; stroke: #262626; stroke-width: 1.25; stroke-linejoin: miter; stroke-linecap: square"/>
   </g>
   <g id="legend_1">
    <g id="patch_7">
     <path d="M 333.075531 135.467682 
L 522.391638 135.467682 
Q 524.307078 135.467682 524.307078 133.552242 
L 524.307078 13.396675 
Q 524.307078 11.481235 522.391638 11.481235 
L 333.075531 11.481235 
Q 331.160091 11.481235 331.160091 13.396675 
L 331.160091 133.552242 
Q 331.160091 135.467682 333.075531 135.467682 
z
" style="fill: #ffffff; opacity: 0.8; stroke: #cccccc; stroke-linejoin: miter"/>
    </g>
    <g id="patch_8">
     <path d="M 334.990971 22.468171 
L 354.145371 22.468171 
L 354.145371 15.764131 
L 334.990971 15.764131 
L 334.990971 22.468171 
z
" style="fill: none"/>
    </g>
    <g id="text_15">
     <!-- $\boldsymbol{\gamma\!=\!\sfrac{1}{2}}$ -->
     <g style="fill: #262626" transform="translate(334.990971 22.468171)scale(0.095772 -0.095772)">
      <defs>
       <path id="CMMIB10-d" d="M 2874 1206 
C 2816 1634 2509 2880 1517 2880 
C 614 2880 77 1984 77 1723 
C 77 1627 166 1627 224 1627 
C 294 1627 346 1627 378 1704 
C 518 2112 1050 2175 1382 2175 
C 1734 2175 2157 2093 2374 1787 
C 2547 1532 2598 1009 2598 747 
C 2598 492 2586 448 2541 314 
C 2368 -203 2170 -891 2170 -1127 
C 2170 -1178 2170 -1351 2323 -1351 
C 2477 -1351 2560 -1114 2586 -1038 
C 2637 -885 2803 -311 2880 346 
C 2886 422 2886 435 2906 486 
C 3078 964 3386 1704 3840 2521 
C 3878 2591 3949 2713 3949 2739 
C 3949 2828 3859 2828 3802 2828 
C 3738 2828 3712 2828 3680 2803 
C 3667 2790 3328 2233 2874 1206 
z
" transform="scale(0.015625)"/>
       <path id="CMBX12-3d" d="M 4934 2112 
C 5030 2112 5197 2112 5197 2291 
C 5197 2464 5024 2464 4941 2464 
L 653 2464 
C 570 2464 397 2464 397 2291 
C 397 2112 563 2112 659 2112 
L 4934 2112 
z
M 4941 735 
C 5024 735 5197 735 5197 908 
C 5197 1088 5030 1088 4934 1088 
L 659 1088 
C 563 1088 397 1088 397 908 
C 397 735 570 735 653 735 
L 4941 735 
z
" transform="scale(0.015625)"/>
       <path id="CMBX12-31" d="M 2214 4034 
C 2214 4224 2202 4224 1997 4224 
C 1523 3795 813 3795 672 3795 
L 550 3795 
L 550 3520 
L 672 3520 
C 896 3520 1235 3558 1491 3641 
L 1491 275 
L 602 275 
L 602 0 
C 870 12 1542 12 1843 12 
C 2144 12 2822 12 3091 0 
L 3091 275 
L 2214 275 
L 2214 4034 
z
" transform="scale(0.015625)"/>
       <path id="CMMIB10-3d" d="M 3219 4461 
C 3264 4563 3264 4576 3264 4601 
C 3264 4723 3162 4800 3072 4800 
C 2938 4800 2899 4704 2861 4608 
L 454 -1261 
C 410 -1364 410 -1376 410 -1402 
C 410 -1524 512 -1600 602 -1600 
C 736 -1600 781 -1492 813 -1415 
L 3219 4461 
z
" transform="scale(0.015625)"/>
       <path id="CMBX12-32" d="M 3232 1378 
L 2963 1378 
C 2944 1243 2899 864 2803 800 
C 2752 755 2253 755 2157 755 
L 1165 755 
C 1408 960 1990 1448 2086 1519 
C 2797 2052 3232 2379 3232 2995 
C 3232 3759 2547 4224 1702 4224 
C 979 4224 358 3806 358 3187 
C 358 2848 634 2752 781 2752 
C 979 2752 1210 2886 1210 3180 
C 1210 3449 1011 3584 813 3610 
C 1069 3921 1408 3948 1542 3948 
C 2131 3948 2413 3449 2413 2988 
C 2413 2488 2074 2026 1811 1750 
L 422 294 
C 358 236 358 224 358 108 
L 358 0 
L 3046 0 
L 3232 1378 
z
" transform="scale(0.015625)"/>
      </defs>
      <use xlink:href="#CMMIB10-d" transform="scale(0.996264)"/>
      <use xlink:href="#CMBX12-3d" transform="translate(77.877485 0)scale(0.996264)"/>
      <use xlink:href="#CMBX12-31" transform="translate(177.780558 22.41594)scale(0.697385)"/>
      <use xlink:href="#CMMIB10-3d" transform="translate(210.643467 0)scale(0.996264)"/>
      <use xlink:href="#CMBX12-32" transform="translate(255.198371 0)scale(0.697385)"/>
     </g>
    </g>
    <g id="line2d_35">
     <path d="M 334.990971 32.994133 
L 344.568171 32.994133 
L 354.145371 32.994133 
" style="fill: none; stroke: #9acd32; stroke-width: 2; stroke-linecap: round"/>
    </g>
    <g id="line2d_36">
     <path d="M 334.990971 46.342045 
L 344.568171 46.342045 
L 354.145371 46.342045 
" style="fill: none; stroke: #556b2f; stroke-width: 2; stroke-linecap: round"/>
    </g>
    <g id="line2d_37">
     <path d="M 334.990971 59.689956 
L 344.568171 59.689956 
L 354.145371 59.689956 
" style="fill: none; stroke: #cd5c5c; stroke-width: 2; stroke-linecap: round"/>
    </g>
    <g id="line2d_38">
     <path d="M 334.990971 73.037867 
L 344.568171 73.037867 
L 354.145371 73.037867 
" style="fill: none; stroke: #800000; stroke-width: 2; stroke-linecap: round"/>
    </g>
    <g id="line2d_39">
     <path d="M 334.990971 86.385778 
L 344.568171 86.385778 
L 354.145371 86.385778 
" style="fill: none; stroke: #ffd700; stroke-width: 2; stroke-linecap: round"/>
    </g>
    <g id="line2d_40">
     <path d="M 334.990971 99.733689 
L 344.568171 99.733689 
L 354.145371 99.733689 
" style="fill: none; stroke: #daa520; stroke-width: 2; stroke-linecap: round"/>
    </g>
    <g id="line2d_41">
     <path d="M 334.990971 113.0816 
L 344.568171 113.0816 
L 354.145371 113.0816 
" style="fill: none; stroke: #6495ed; stroke-width: 2; stroke-linecap: round"/>
    </g>
    <g id="line2d_42">
     <path d="M 334.990971 126.429511 
L 344.568171 126.429511 
L 354.145371 126.429511 
" style="fill: none; stroke: #00008b; stroke-width: 2; stroke-linecap: round"/>
    </g>
    <g id="patch_9">
     <path d="M 371.808982 22.468171 
L 390.963382 22.468171 
L 390.963382 15.764131 
L 371.808982 15.764131 
L 371.808982 22.468171 
z
" style="fill: none"/>
    </g>
    <g id="text_16">
     <!-- $\boldsymbol{\gamma\!=\!1}$ -->
     <g style="fill: #262626" transform="translate(371.808982 22.468171)scale(0.095772 -0.095772)">
      <use xlink:href="#CMMIB10-d" transform="scale(0.996264)"/>
      <use xlink:href="#CMBX12-3d" transform="translate(77.877485 0)scale(0.996264)"/>
      <use xlink:href="#CMBX12-31" transform="translate(177.780558 0)scale(0.996264)"/>
     </g>
    </g>
    <g id="patch_10">
     <path d="M 371.808982 35.816082 
L 390.963382 35.816082 
L 390.963382 29.112042 
L 371.808982 29.112042 
L 371.808982 35.816082 
z
" style="fill: none"/>
    </g>
    <g id="line2d_43">
     <path d="M 371.808982 45.811974 
L 381.386182 45.811974 
L 390.963382 45.811974 
" style="fill: none; stroke-dasharray: 7.4,3.2; stroke-dashoffset: 0; stroke: #556b2f; stroke-width: 2"/>
    </g>
    <g id="line2d_44">
     <path d="M 371.808982 59.159885 
L 381.386182 59.159885 
L 390.963382 59.159885 
" style="fill: none; stroke-dasharray: 7.4,3.2; stroke-dashoffset: 0; stroke: #cd5c5c; stroke-width: 2"/>
    </g>
    <g id="patch_11">
     <path d="M 371.808982 75.859816 
L 390.963382 75.859816 
L 390.963382 69.155776 
L 371.808982 69.155776 
L 371.808982 75.859816 
z
" style="fill: none"/>
    </g>
    <g id="line2d_45">
     <path d="M 371.808982 85.855707 
L 381.386182 85.855707 
L 390.963382 85.855707 
" style="fill: none; stroke-dasharray: 7.4,3.2; stroke-dashoffset: 0; stroke: #ffd700; stroke-width: 2"/>
    </g>
    <g id="line2d_46">
     <path d="M 371.808982 99.203618 
L 381.386182 99.203618 
L 390.963382 99.203618 
" style="fill: none; stroke-dasharray: 7.4,3.2; stroke-dashoffset: 0; stroke: #daa520; stroke-width: 2"/>
    </g>
    <g id="patch_12">
     <path d="M 371.808982 115.903549 
L 390.963382 115.903549 
L 390.963382 109.199509 
L 371.808982 109.199509 
L 371.808982 115.903549 
z
" style="fill: none"/>
    </g>
    <g id="line2d_47">
     <path d="M 371.808982 125.89944 
L 381.386182 125.89944 
L 390.963382 125.89944 
" style="fill: none; stroke-dasharray: 7.4,3.2; stroke-dashoffset: 0; stroke: #00008b; stroke-width: 2"/>
    </g>
    <g id="patch_13">
     <path d="M 400.840883 22.468171 
L 419.995283 22.468171 
L 419.995283 15.764131 
L 400.840883 15.764131 
L 400.840883 22.468171 
z
" style="fill: none"/>
    </g>
    <g id="text_17">
     <!-- $\boldsymbol{\delta\!=\!0}$ -->
     <g style="fill: #262626" transform="translate(400.840883 22.468171)scale(0.095772 -0.095772)">
      <defs>
       <path id="CMMIB10-e" d="M 1818 2854 
C 685 2592 294 1612 294 1049 
C 294 268 909 -64 1594 -64 
C 2438 -64 3046 953 3046 1984 
C 3046 2560 2822 2835 2554 3084 
C 2272 3353 1709 3878 1709 4102 
C 1709 4134 1773 4307 2010 4307 
C 2221 4307 2374 4192 2483 4115 
C 2605 4019 2803 3872 2944 3872 
C 3136 3872 3283 4057 3283 4217 
C 3283 4403 3181 4428 2835 4499 
C 2694 4531 2323 4608 2157 4608 
C 1811 4608 1434 4364 1434 3904 
C 1434 3545 1670 3116 1818 2854 
z
M 1958 2617 
C 2118 2368 2317 2009 2317 1561 
C 2317 1280 2144 166 1613 166 
C 1542 166 1299 179 1120 339 
C 960 492 960 736 960 812 
C 960 1145 1139 1766 1254 2003 
C 1344 2169 1536 2483 1958 2617 
z
" transform="scale(0.015625)"/>
       <path id="CMBX12-30" d="M 3309 2060 
C 3309 2677 3309 4224 1798 4224 
C 282 4224 282 2683 282 2060 
C 282 1444 282 -64 1792 -64 
C 3302 -64 3309 1424 3309 2060 
z
M 1798 147 
C 1594 147 1440 230 1312 365 
C 1152 526 1050 628 1050 2137 
C 1050 2587 1050 2998 1101 3331 
C 1190 3967 1651 4012 1792 4012 
C 1997 4012 2394 3916 2483 3376 
C 2541 3049 2541 2529 2541 2137 
C 2541 622 2445 532 2253 339 
C 2125 211 1952 147 1798 147 
z
" transform="scale(0.015625)"/>
      </defs>
      <use xlink:href="#CMMIB10-e" transform="scale(0.996264)"/>
      <use xlink:href="#CMBX12-3d" transform="translate(68.561924 0)scale(0.996264)"/>
      <use xlink:href="#CMBX12-30" transform="translate(168.464997 0)scale(0.996264)"/>
     </g>
    </g>
    <g id="patch_14">
     <path d="M 400.840883 35.816082 
L 419.995283 35.816082 
L 419.995283 29.112042 
L 400.840883 29.112042 
L 400.840883 35.816082 
z
" style="fill: none"/>
    </g>
    <g id="patch_15">
     <path d="M 400.840883 49.163994 
L 419.995283 49.163994 
L 419.995283 42.459954 
L 400.840883 42.459954 
L 400.840883 49.163994 
z
" style="fill: none"/>
    </g>
    <g id="patch_16">
     <path d="M 400.840883 62.511905 
L 419.995283 62.511905 
L 419.995283 55.807865 
L 400.840883 55.807865 
L 400.840883 62.511905 
z
" style="fill: none"/>
    </g>
    <g id="patch_17">
     <path d="M 400.840883 75.859816 
L 419.995283 75.859816 
L 419.995283 69.155776 
L 400.840883 69.155776 
L 400.840883 75.859816 
z
" style="fill: none"/>
    </g>
    <g id="patch_18">
     <path d="M 400.840883 89.207727 
L 419.995283 89.207727 
L 419.995283 82.503687 
L 400.840883 82.503687 
L 400.840883 89.207727 
z
" style="fill: none"/>
    </g>
    <g id="patch_19">
     <path d="M 400.840883 102.555638 
L 419.995283 102.555638 
L 419.995283 95.851598 
L 400.840883 95.851598 
L 400.840883 102.555638 
z
" style="fill: none"/>
    </g>
    <g id="line2d_48">
     <path d="M 400.840883 112.551529 
L 410.418083 112.551529 
L 419.995283 112.551529 
" style="fill: none; stroke-dasharray: 2,3.3; stroke-dashoffset: 0; stroke: #6495ed; stroke-width: 2"/>
    </g>
    <g id="line2d_49">
     <path d="M 400.840883 125.89944 
L 410.418083 125.89944 
L 419.995283 125.89944 
" style="fill: none; stroke-dasharray: 2,3.3; stroke-dashoffset: 0; stroke: #00008b; stroke-width: 2"/>
    </g>
    <g id="patch_20">
     <path d="M 428.829166 22.468171 
L 447.983566 22.468171 
L 447.983566 15.764131 
L 428.829166 15.764131 
L 428.829166 22.468171 
z
" style="fill: none"/>
    </g>
    <g id="text_18">
     <!-- \textbf{Func.} -->
     <g style="fill: #262626" transform="translate(428.829166 22.468171)scale(0.095772 -0.095772)">
      <defs>
       <path id="CMBX12-46" d="M 4032 4383 
L 243 4383 
L 243 4108 
L 922 4108 
L 922 275 
L 243 275 
L 243 0 
C 429 12 1158 12 1395 12 
C 1734 12 2304 12 2618 0 
L 2618 275 
L 1766 275 
L 1766 2048 
L 2118 2048 
C 2733 2048 2784 1765 2784 1296 
L 3053 1296 
L 3053 3080 
L 2784 3080 
C 2784 2607 2733 2323 2118 2323 
L 1766 2323 
L 1766 4108 
L 2682 4108 
C 3699 4108 3859 3636 3949 2853 
L 4218 2853 
L 4032 4383 
z
" transform="scale(0.015625)"/>
       <path id="CMBX12-75" d="M 2259 2828 
L 2259 2553 
C 2656 2553 2701 2553 2701 2301 
L 2701 1033 
C 2701 541 2413 147 1914 147 
C 1434 147 1408 308 1408 664 
L 1408 2880 
L 269 2828 
L 269 2553 
C 666 2553 710 2553 710 2301 
L 710 768 
C 710 121 1139 -64 1824 -64 
C 1978 -64 2451 -64 2726 457 
L 2733 457 
L 2733 -64 
L 3840 -26 
L 3840 250 
C 3443 250 3398 250 3398 502 
L 3398 2880 
L 2259 2828 
z
" transform="scale(0.015625)"/>
       <path id="CMBX12-6e" d="M 3398 1958 
C 3398 2566 3136 2880 2432 2880 
C 1971 2880 1574 2656 1357 2176 
L 1350 2176 
L 1350 2880 
L 269 2828 
L 269 2553 
C 666 2553 710 2553 710 2304 
L 710 275 
L 269 275 
L 269 0 
C 416 12 877 12 1056 12 
C 1235 12 1702 12 1850 0 
L 1850 275 
L 1408 275 
L 1408 1638 
C 1408 2329 1920 2668 2330 2668 
C 2566 2668 2701 2515 2701 2028 
L 2701 275 
L 2259 275 
L 2259 0 
C 2406 12 2867 12 3046 12 
C 3226 12 3693 12 3840 0 
L 3840 275 
L 3398 275 
L 3398 1958 
z
" transform="scale(0.015625)"/>
       <path id="CMBX12-63" d="M 2995 724 
C 2995 801 2925 801 2861 801 
C 2758 801 2752 795 2720 718 
C 2675 596 2502 166 1914 166 
C 1011 166 1011 1141 1011 1430 
C 1011 1808 1018 2649 1856 2649 
C 1901 2649 2278 2636 2278 2604 
C 2278 2598 2272 2591 2259 2585 
C 2240 2566 2157 2469 2157 2309 
C 2157 2039 2374 1930 2534 1930 
C 2669 1930 2912 2014 2912 2315 
C 2912 2841 2176 2880 1830 2880 
C 691 2880 243 2136 243 1398 
C 243 525 851 -64 1792 -64 
C 2797 -64 2995 679 2995 724 
z
" transform="scale(0.015625)"/>
       <path id="CMBX12-2e" d="M 1459 460 
C 1459 723 1248 921 998 921 
C 749 921 538 723 538 460 
C 538 198 749 0 998 0 
C 1248 0 1459 198 1459 460 
z
" transform="scale(0.015625)"/>
      </defs>
      <use xlink:href="#CMBX12-46" transform="scale(0.996264)"/>
      <use xlink:href="#CMBX12-75" transform="translate(61.113445 0)scale(0.996264)"/>
      <use xlink:href="#CMBX12-6e" transform="translate(123.379946 0)scale(0.996264)"/>
      <use xlink:href="#CMBX12-63" transform="translate(185.646447 0)scale(0.996264)"/>
      <use xlink:href="#CMBX12-2e" transform="translate(235.459647 0)scale(0.996264)"/>
     </g>
    </g>
    <g id="patch_21">
     <path d="M 428.829166 35.816082 
L 447.983566 35.816082 
L 447.983566 29.112042 
L 428.829166 29.112042 
L 428.829166 35.816082 
z
" style="fill: none"/>
    </g>
    <g id="text_19">
     <!-- LD1 -->
     <g style="fill: #262626" transform="translate(428.829166 35.816082)scale(0.095772 -0.095772)">
      <defs>
       <path id="CMR17-4c" d="M 3469 1612 
L 3354 1612 
C 3302 981 3219 166 2125 166 
L 1530 166 
C 1274 166 1261 198 1261 414 
L 1261 3892 
C 1261 4121 1274 4185 1760 4185 
L 1901 4185 
L 1901 4352 
C 1638 4339 1331 4339 1069 4339 
C 870 4339 512 4339 326 4352 
L 326 4185 
C 768 4185 838 4185 838 3898 
L 838 453 
C 838 166 768 166 326 166 
L 326 0 
L 3315 0 
L 3469 1612 
z
" transform="scale(0.015625)"/>
       <path id="CMR17-44" d="M 333 4352 
L 333 4185 
C 774 4185 845 4185 845 3898 
L 845 453 
C 845 166 774 166 333 166 
L 333 0 
L 2368 0 
C 3398 0 4224 943 4224 2140 
C 4224 3344 3411 4352 2368 4352 
L 333 4352 
z
M 1523 166 
C 1267 166 1254 198 1254 414 
L 1254 3936 
C 1254 4153 1267 4185 1523 4185 
L 2240 4185 
C 2771 4185 3750 3873 3750 2140 
C 3750 1242 3488 879 3366 707 
C 3213 510 2848 166 2240 166 
L 1523 166 
z
" transform="scale(0.015625)"/>
      </defs>
      <use xlink:href="#CMR17-4c" transform="scale(0.996264)"/>
      <use xlink:href="#CMR17-44" transform="translate(57.381408 0)scale(0.996264)"/>
      <use xlink:href="#CMR17-31" transform="translate(127.774964 0)scale(0.996264)"/>
     </g>
    </g>
    <g id="patch_22">
     <path d="M 428.829166 49.163994 
L 447.983566 49.163994 
L 447.983566 42.459954 
L 428.829166 42.459954 
L 428.829166 49.163994 
z
" style="fill: none"/>
    </g>
    <g id="text_20">
     <!-- LD1 -->
     <g style="fill: #262626" transform="translate(428.829166 49.163994)scale(0.095772 -0.095772)">
      <use xlink:href="#CMR17-4c" transform="scale(0.996264)"/>
      <use xlink:href="#CMR17-44" transform="translate(57.381408 0)scale(0.996264)"/>
      <use xlink:href="#CMR17-31" transform="translate(127.774964 0)scale(0.996264)"/>
     </g>
    </g>
    <g id="patch_23">
     <path d="M 428.829166 62.511905 
L 447.983566 62.511905 
L 447.983566 55.807865 
L 428.829166 55.807865 
L 428.829166 62.511905 
z
" style="fill: none"/>
    </g>
    <g id="text_21">
     <!-- LD2 -->
     <g style="fill: #262626" transform="translate(428.829166 62.511905)scale(0.095772 -0.095772)">
      <use xlink:href="#CMR17-4c" transform="scale(0.996264)"/>
      <use xlink:href="#CMR17-44" transform="translate(57.381408 0)scale(0.996264)"/>
      <use xlink:href="#CMR17-32" transform="translate(127.774964 0)scale(0.996264)"/>
     </g>
    </g>
    <g id="patch_24">
     <path d="M 428.829166 75.859816 
L 447.983566 75.859816 
L 447.983566 69.155776 
L 428.829166 69.155776 
L 428.829166 75.859816 
z
" style="fill: none"/>
    </g>
    <g id="text_22">
     <!-- LD2 -->
     <g style="fill: #262626" transform="translate(428.829166 75.859816)scale(0.095772 -0.095772)">
      <use xlink:href="#CMR17-4c" transform="scale(0.996264)"/>
      <use xlink:href="#CMR17-44" transform="translate(57.381408 0)scale(0.996264)"/>
      <use xlink:href="#CMR17-32" transform="translate(127.774964 0)scale(0.996264)"/>
     </g>
    </g>
    <g id="patch_25">
     <path d="M 428.829166 89.207727 
L 447.983566 89.207727 
L 447.983566 82.503687 
L 428.829166 82.503687 
L 428.829166 89.207727 
z
" style="fill: none"/>
    </g>
    <g id="text_23">
     <!-- LD3 -->
     <g style="fill: #262626" transform="translate(428.829166 89.207727)scale(0.095772 -0.095772)">
      <use xlink:href="#CMR17-4c" transform="scale(0.996264)"/>
      <use xlink:href="#CMR17-44" transform="translate(57.381408 0)scale(0.996264)"/>
      <use xlink:href="#CMR17-33" transform="translate(127.774964 0)scale(0.996264)"/>
     </g>
    </g>
    <g id="patch_26">
     <path d="M 428.829166 102.555638 
L 447.983566 102.555638 
L 447.983566 95.851598 
L 428.829166 95.851598 
L 428.829166 102.555638 
z
" style="fill: none"/>
    </g>
    <g id="text_24">
     <!-- LD3 -->
     <g style="fill: #262626" transform="translate(428.829166 102.555638)scale(0.095772 -0.095772)">
      <use xlink:href="#CMR17-4c" transform="scale(0.996264)"/>
      <use xlink:href="#CMR17-44" transform="translate(57.381408 0)scale(0.996264)"/>
      <use xlink:href="#CMR17-33" transform="translate(127.774964 0)scale(0.996264)"/>
     </g>
    </g>
    <g id="patch_27">
     <path d="M 428.829166 115.903549 
L 447.983566 115.903549 
L 447.983566 109.199509 
L 428.829166 109.199509 
L 428.829166 115.903549 
z
" style="fill: none"/>
    </g>
    <g id="text_25">
     <!-- LD3 -->
     <g style="fill: #262626" transform="translate(428.829166 115.903549)scale(0.095772 -0.095772)">
      <use xlink:href="#CMR17-4c" transform="scale(0.996264)"/>
      <use xlink:href="#CMR17-44" transform="translate(57.381408 0)scale(0.996264)"/>
      <use xlink:href="#CMR17-33" transform="translate(127.774964 0)scale(0.996264)"/>
     </g>
    </g>
    <g id="patch_28">
     <path d="M 428.829166 129.25146 
L 447.983566 129.25146 
L 447.983566 122.54742 
L 428.829166 122.54742 
L 428.829166 129.25146 
z
" style="fill: none"/>
    </g>
    <g id="text_26">
     <!-- LD3 -->
     <g style="fill: #262626" transform="translate(428.829166 129.25146)scale(0.095772 -0.095772)">
      <use xlink:href="#CMR17-4c" transform="scale(0.996264)"/>
      <use xlink:href="#CMR17-44" transform="translate(57.381408 0)scale(0.996264)"/>
      <use xlink:href="#CMR17-33" transform="translate(127.774964 0)scale(0.996264)"/>
     </g>
    </g>
    <g id="patch_29">
     <path d="M 460.47176 22.468171 
L 479.62616 22.468171 
L 479.62616 15.764131 
L 460.47176 15.764131 
L 460.47176 22.468171 
z
" style="fill: none"/>
    </g>
    <g id="text_27">
     <!-- \textbf{SPD} -->
     <g style="fill: #262626" transform="translate(460.47176 22.468171)scale(0.095772 -0.095772)">
      <defs>
       <path id="CMBX12-53" d="M 1626 2828 
C 992 2969 973 3430 973 3520 
C 973 3846 1184 4223 1805 4223 
C 2426 4223 2982 3923 3117 3084 
C 3136 2950 3136 2944 3258 2944 
C 3392 2944 3392 2963 3392 3110 
L 3392 4313 
C 3392 4435 3392 4480 3296 4480 
C 3251 4480 3232 4473 3174 4409 
L 2899 4096 
C 2739 4230 2419 4480 1798 4480 
C 883 4480 397 3904 397 3206 
C 397 2777 627 2476 717 2387 
C 1050 2054 1229 2016 1894 1868 
C 2534 1728 2611 1715 2752 1580 
C 2835 1497 3021 1318 3021 992 
C 3021 716 2886 211 2170 211 
C 1606 211 717 403 666 1337 
C 659 1452 659 1472 531 1472 
C 397 1472 397 1452 397 1305 
L 397 102 
C 397 -20 397 -64 493 -64 
C 538 -64 544 -58 608 0 
C 678 70 736 153 896 313 
C 1267 19 1792 -64 2176 -64 
C 3174 -64 3597 614 3597 1292 
C 3597 1894 3200 2470 2502 2630 
L 1626 2828 
z
" transform="scale(0.015625)"/>
       <path id="CMBX12-50" d="M 1766 1984 
L 2854 1984 
C 3923 1984 4518 2527 4518 3184 
C 4518 3872 3910 4416 2854 4416 
L 243 4416 
L 243 4140 
L 922 4140 
L 922 275 
L 243 275 
L 243 0 
C 429 12 1114 12 1344 12 
C 1574 12 2259 12 2445 0 
L 2445 275 
L 1766 275 
L 1766 1984 
z
M 2624 4140 
C 3616 4140 3616 3617 3616 3184 
C 3616 2763 3616 2227 2624 2227 
L 1734 2227 
L 1734 4140 
L 2624 4140 
z
" transform="scale(0.015625)"/>
       <path id="CMBX12-44" d="M 243 4416 
L 243 4140 
L 922 4140 
L 922 275 
L 243 275 
L 243 0 
L 2938 0 
C 4166 0 5114 790 5114 2169 
C 5114 3625 4141 4416 2938 4416 
L 243 4416 
z
M 1734 275 
L 1734 4140 
L 2694 4140 
C 3251 4140 3699 3921 3936 3586 
C 4122 3322 4243 3006 4243 2175 
C 4243 1421 4147 1086 3923 784 
C 3699 487 3270 275 2694 275 
L 1734 275 
z
" transform="scale(0.015625)"/>
      </defs>
      <use xlink:href="#CMBX12-53" transform="scale(0.996264)"/>
      <use xlink:href="#CMBX12-50" transform="translate(62.266501 0)scale(0.996264)"/>
      <use xlink:href="#CMBX12-44" transform="translate(138.831311 0)scale(0.996264)"/>
     </g>
    </g>
    <g id="patch_30">
     <path d="M 460.47176 35.816082 
L 479.62616 35.816082 
L 479.62616 29.112042 
L 460.47176 29.112042 
L 460.47176 35.816082 
z
" style="fill: none"/>
    </g>
    <g id="text_28">
     <!-- No -->
     <g style="fill: #262626" transform="translate(460.47176 35.816082)scale(0.095772 -0.095772)">
      <defs>
       <path id="CMR17-4e" d="M 1312 4275 
C 1267 4345 1261 4352 1139 4352 
L 326 4352 
L 326 4185 
L 448 4185 
C 704 4185 819 4153 838 4147 
L 838 624 
C 838 465 838 166 326 166 
L 326 0 
C 474 12 742 12 902 12 
C 1062 12 1331 12 1478 0 
L 1478 166 
C 966 166 966 465 966 624 
L 966 4057 
C 1011 4019 1011 4007 1056 3943 
L 3430 76 
C 3475 0 3494 0 3526 0 
C 3590 0 3590 19 3590 140 
L 3590 3726 
C 3590 3885 3590 4185 4102 4185 
L 4102 4352 
C 3955 4339 3686 4339 3526 4339 
C 3366 4339 3098 4339 2950 4352 
L 2950 4185 
C 3462 4185 3462 3885 3462 3726 
L 3462 777 
L 1312 4275 
z
" transform="scale(0.015625)"/>
      </defs>
      <use xlink:href="#CMR17-4e" transform="scale(0.996264)"/>
      <use xlink:href="#CMR17-6f" transform="translate(69.07243 0)scale(0.996264)"/>
     </g>
    </g>
    <g id="patch_31">
     <path d="M 460.47176 49.163994 
L 479.62616 49.163994 
L 479.62616 42.459954 
L 460.47176 42.459954 
L 460.47176 49.163994 
z
" style="fill: none"/>
    </g>
    <g id="text_29">
     <!-- Yes -->
     <g style="fill: #262626" transform="translate(460.47176 49.163994)scale(0.095772 -0.095772)">
      <defs>
       <path id="CMR17-59" d="M 3706 3784 
C 3955 4178 4301 4185 4416 4185 
L 4416 4352 
C 4269 4339 4102 4339 3942 4339 
C 3782 4339 3526 4339 3373 4352 
L 3373 4185 
C 3533 4178 3616 4096 3616 3975 
C 3616 3898 3584 3847 3533 3764 
L 2381 1924 
L 1120 3930 
C 1075 4007 1069 4013 1069 4057 
C 1069 4185 1293 4185 1382 4185 
L 1382 4352 
C 1178 4339 864 4339 653 4339 
C 486 4339 166 4339 13 4352 
L 13 4185 
C 378 4185 480 4166 595 3981 
L 2010 1739 
L 2010 453 
C 2010 166 1939 166 1498 166 
L 1498 0 
C 1683 12 2016 12 2214 12 
C 2413 12 2752 12 2938 0 
L 2938 166 
C 2477 166 2419 166 2419 478 
L 2419 1739 
L 3706 3784 
z
" transform="scale(0.015625)"/>
       <path id="CMR17-73" d="M 1978 2688 
C 1978 2803 1971 2809 1933 2809 
C 1907 2809 1901 2803 1824 2707 
C 1805 2681 1747 2617 1728 2592 
C 1523 2809 1235 2816 1126 2816 
C 416 2816 160 2444 160 2073 
C 160 1497 813 1363 998 1324 
C 1402 1241 1542 1216 1677 1100 
C 1760 1024 1901 883 1901 652 
C 1901 384 1747 38 1158 38 
C 602 38 403 460 288 1024 
C 269 1113 269 1120 218 1120 
C 166 1120 160 1113 160 985 
L 160 64 
C 160 -52 166 -58 205 -58 
C 237 -58 243 -52 275 0 
C 314 57 410 211 448 275 
C 576 102 800 -64 1158 -64 
C 1792 -64 2131 281 2131 780 
C 2131 1107 1958 1280 1875 1356 
C 1683 1555 1459 1600 1190 1651 
C 838 1728 390 1817 390 2208 
C 390 2374 480 2726 1126 2726 
C 1811 2726 1850 2086 1862 1881 
C 1869 1849 1901 1843 1920 1843 
C 1978 1843 1978 1862 1978 1971 
L 1978 2688 
z
" transform="scale(0.015625)"/>
      </defs>
      <use xlink:href="#CMR17-59" transform="scale(0.996264)"/>
      <use xlink:href="#CMR17-65" transform="translate(61.265174 0)scale(0.996264)"/>
      <use xlink:href="#CMR17-73" transform="translate(101.750835 0)scale(0.996264)"/>
     </g>
    </g>
    <g id="patch_32">
     <path d="M 460.47176 62.511905 
L 479.62616 62.511905 
L 479.62616 55.807865 
L 460.47176 55.807865 
L 460.47176 62.511905 
z
" style="fill: none"/>
    </g>
    <g id="text_30">
     <!-- - - - -->
     <g style="fill: #262626" transform="translate(460.47176 62.511905)scale(0.095772 -0.095772)">
      <defs>
       <path id="CMR17-7c" d="M 5939 1664 
L 5939 1766 
L -77 1766 
L -77 1664 
L 5939 1664 
z
" transform="scale(0.015625)"/>
      </defs>
      <use xlink:href="#CMR17-7c" transform="scale(0.996264)"/>
     </g>
    </g>
    <g id="patch_33">
     <path d="M 460.47176 75.859816 
L 479.62616 75.859816 
L 479.62616 69.155776 
L 460.47176 69.155776 
L 460.47176 75.859816 
z
" style="fill: none"/>
    </g>
    <g id="text_31">
     <!-- - - - -->
     <g style="fill: #262626" transform="translate(460.47176 75.859816)scale(0.095772 -0.095772)">
      <use xlink:href="#CMR17-7c" transform="scale(0.996264)"/>
     </g>
    </g>
    <g id="patch_34">
     <path d="M 460.47176 89.207727 
L 479.62616 89.207727 
L 479.62616 82.503687 
L 460.47176 82.503687 
L 460.47176 89.207727 
z
" style="fill: none"/>
    </g>
    <g id="text_32">
     <!-- No -->
     <g style="fill: #262626" transform="translate(460.47176 89.207727)scale(0.095772 -0.095772)">
      <use xlink:href="#CMR17-4e" transform="scale(0.996264)"/>
      <use xlink:href="#CMR17-6f" transform="translate(69.07243 0)scale(0.996264)"/>
     </g>
    </g>
    <g id="patch_35">
     <path d="M 460.47176 102.555638 
L 479.62616 102.555638 
L 479.62616 95.851598 
L 460.47176 95.851598 
L 460.47176 102.555638 
z
" style="fill: none"/>
    </g>
    <g id="text_33">
     <!-- Yes -->
     <g style="fill: #262626" transform="translate(460.47176 102.555638)scale(0.095772 -0.095772)">
      <use xlink:href="#CMR17-59" transform="scale(0.996264)"/>
      <use xlink:href="#CMR17-65" transform="translate(61.265174 0)scale(0.996264)"/>
      <use xlink:href="#CMR17-73" transform="translate(101.750835 0)scale(0.996264)"/>
     </g>
    </g>
    <g id="patch_36">
     <path d="M 460.47176 115.903549 
L 479.62616 115.903549 
L 479.62616 109.199509 
L 460.47176 109.199509 
L 460.47176 115.903549 
z
" style="fill: none"/>
    </g>
    <g id="text_34">
     <!-- No -->
     <g style="fill: #262626" transform="translate(460.47176 115.903549)scale(0.095772 -0.095772)">
      <use xlink:href="#CMR17-4e" transform="scale(0.996264)"/>
      <use xlink:href="#CMR17-6f" transform="translate(69.07243 0)scale(0.996264)"/>
     </g>
    </g>
    <g id="patch_37">
     <path d="M 460.47176 129.25146 
L 479.62616 129.25146 
L 479.62616 122.54742 
L 460.47176 122.54742 
L 460.47176 129.25146 
z
" style="fill: none"/>
    </g>
    <g id="text_35">
     <!-- Yes -->
     <g style="fill: #262626" transform="translate(460.47176 129.25146)scale(0.095772 -0.095772)">
      <use xlink:href="#CMR17-59" transform="scale(0.996264)"/>
      <use xlink:href="#CMR17-65" transform="translate(61.265174 0)scale(0.996264)"/>
      <use xlink:href="#CMR17-73" transform="translate(101.750835 0)scale(0.996264)"/>
     </g>
    </g>
    <g id="patch_38">
     <path d="M 487.892972 22.468171 
L 507.047372 22.468171 
L 507.047372 15.764131 
L 487.892972 15.764131 
L 487.892972 22.468171 
z
" style="fill: none"/>
    </g>
    <g id="text_36">
     <!-- \textbf{Ortho.} -->
     <g style="fill: #262626" transform="translate(487.892972 22.468171)scale(0.095772 -0.095772)">
      <defs>
       <path id="CMBX12-4f" d="M 5005 2188 
C 5005 3545 4122 4480 2701 4480 
C 1274 4480 397 3539 397 2188 
C 397 838 1293 -64 2701 -64 
C 4109 -64 5005 838 5005 2188 
z
M 2701 179 
C 2285 179 1882 377 1638 742 
C 1331 1209 1299 1811 1299 2278 
C 1299 2668 1318 3206 1581 3641 
C 1862 4089 2323 4249 2701 4249 
C 3219 4249 3603 3974 3789 3686 
C 4026 3315 4102 2918 4102 2278 
C 4102 1644 4032 1113 3712 672 
C 3552 454 3200 179 2701 179 
z
" transform="scale(0.015625)"/>
       <path id="CMBX12-72" d="M 1331 1440 
C 1331 1651 1376 2668 2125 2668 
C 2035 2598 1990 2489 1990 2374 
C 1990 2112 2202 2003 2362 2003 
C 2522 2003 2733 2112 2733 2374 
C 2733 2700 2400 2880 2093 2880 
C 1587 2880 1370 2438 1280 2169 
L 1274 2169 
L 1274 2880 
L 224 2828 
L 224 2553 
C 621 2553 666 2553 666 2304 
L 666 275 
L 224 275 
L 224 0 
C 371 12 851 12 1030 12 
C 1216 12 1734 12 1888 0 
L 1888 275 
L 1331 275 
L 1331 1440 
z
" transform="scale(0.015625)"/>
       <path id="CMBX12-74" d="M 1350 2540 
L 2272 2540 
L 2272 2816 
L 1350 2816 
L 1350 4032 
L 1082 4032 
C 1075 3401 768 2771 134 2751 
L 134 2540 
L 653 2540 
L 653 761 
C 653 83 1178 -64 1638 -64 
C 2112 -64 2394 294 2394 768 
L 2394 1107 
L 2125 1107 
L 2125 774 
C 2125 352 1933 166 1734 166 
C 1350 166 1350 595 1350 742 
L 1350 2540 
z
" transform="scale(0.015625)"/>
       <path id="CMBX12-68" d="M 3398 1958 
C 3398 2566 3136 2880 2432 2880 
C 1786 2880 1472 2425 1382 2233 
L 1376 2233 
L 1376 4480 
L 269 4428 
L 269 4153 
C 666 4153 710 4153 710 3896 
L 710 275 
L 269 275 
L 269 0 
C 416 12 877 12 1056 12 
C 1235 12 1702 12 1850 0 
L 1850 275 
L 1408 275 
L 1408 1638 
C 1408 2329 1920 2668 2330 2668 
C 2566 2668 2701 2515 2701 2028 
L 2701 275 
L 2259 275 
L 2259 0 
C 2406 12 2867 12 3046 12 
C 3226 12 3693 12 3840 0 
L 3840 275 
L 3398 275 
L 3398 1958 
z
" transform="scale(0.015625)"/>
       <path id="CMBX12-6f" d="M 3392 1379 
C 3392 2245 2803 2880 1798 2880 
C 755 2880 198 2213 198 1379 
C 198 538 787 -64 1792 -64 
C 2835 -64 3392 570 3392 1379 
z
M 1798 166 
C 966 166 966 917 966 1443 
C 966 1744 966 2065 1088 2296 
C 1229 2553 1517 2668 1792 2668 
C 2157 2668 2387 2495 2496 2315 
C 2624 2084 2624 1751 2624 1443 
C 2624 910 2624 166 1798 166 
z
" transform="scale(0.015625)"/>
      </defs>
      <use xlink:href="#CMBX12-4f" transform="scale(0.996264)"/>
      <use xlink:href="#CMBX12-72" transform="translate(84.175021 0)scale(0.996264)"/>
      <use xlink:href="#CMBX12-74" transform="translate(129.952528 0)scale(0.996264)"/>
      <use xlink:href="#CMBX12-68" transform="translate(173.539078 0)scale(0.996264)"/>
      <use xlink:href="#CMBX12-6f" transform="translate(235.805579 0)scale(0.996264)"/>
      <use xlink:href="#CMBX12-2e" transform="translate(291.845429 0)scale(0.996264)"/>
     </g>
    </g>
    <g id="patch_39">
     <path d="M 487.892972 35.816082 
L 507.047372 35.816082 
L 507.047372 29.112042 
L 487.892972 29.112042 
L 487.892972 35.816082 
z
" style="fill: none"/>
    </g>
    <g id="text_37">
     <!-- - - - -->
     <g style="fill: #262626" transform="translate(487.892972 35.816082)scale(0.095772 -0.095772)">
      <use xlink:href="#CMR17-7c" transform="scale(0.996264)"/>
     </g>
    </g>
    <g id="patch_40">
     <path d="M 487.892972 49.163994 
L 507.047372 49.163994 
L 507.047372 42.459954 
L 487.892972 42.459954 
L 487.892972 49.163994 
z
" style="fill: none"/>
    </g>
    <g id="text_38">
     <!-- - - - -->
     <g style="fill: #262626" transform="translate(487.892972 49.163994)scale(0.095772 -0.095772)">
      <use xlink:href="#CMR17-7c" transform="scale(0.996264)"/>
     </g>
    </g>
    <g id="patch_41">
     <path d="M 487.892972 62.511905 
L 507.047372 62.511905 
L 507.047372 55.807865 
L 487.892972 55.807865 
L 487.892972 62.511905 
z
" style="fill: none"/>
    </g>
    <g id="text_39">
     <!-- No -->
     <g style="fill: #262626" transform="translate(487.892972 62.511905)scale(0.095772 -0.095772)">
      <use xlink:href="#CMR17-4e" transform="scale(0.996264)"/>
      <use xlink:href="#CMR17-6f" transform="translate(69.07243 0)scale(0.996264)"/>
     </g>
    </g>
    <g id="patch_42">
     <path d="M 487.892972 75.859816 
L 507.047372 75.859816 
L 507.047372 69.155776 
L 487.892972 69.155776 
L 487.892972 75.859816 
z
" style="fill: none"/>
    </g>
    <g id="text_40">
     <!-- Yes -->
     <g style="fill: #262626" transform="translate(487.892972 75.859816)scale(0.095772 -0.095772)">
      <use xlink:href="#CMR17-59" transform="scale(0.996264)"/>
      <use xlink:href="#CMR17-65" transform="translate(61.265174 0)scale(0.996264)"/>
      <use xlink:href="#CMR17-73" transform="translate(101.750835 0)scale(0.996264)"/>
     </g>
    </g>
    <g id="patch_43">
     <path d="M 487.892972 89.207727 
L 507.047372 89.207727 
L 507.047372 82.503687 
L 487.892972 82.503687 
L 487.892972 89.207727 
z
" style="fill: none"/>
    </g>
    <g id="text_41">
     <!-- No -->
     <g style="fill: #262626" transform="translate(487.892972 89.207727)scale(0.095772 -0.095772)">
      <use xlink:href="#CMR17-4e" transform="scale(0.996264)"/>
      <use xlink:href="#CMR17-6f" transform="translate(69.07243 0)scale(0.996264)"/>
     </g>
    </g>
    <g id="patch_44">
     <path d="M 487.892972 102.555638 
L 507.047372 102.555638 
L 507.047372 95.851598 
L 487.892972 95.851598 
L 487.892972 102.555638 
z
" style="fill: none"/>
    </g>
    <g id="text_42">
     <!-- No -->
     <g style="fill: #262626" transform="translate(487.892972 102.555638)scale(0.095772 -0.095772)">
      <use xlink:href="#CMR17-4e" transform="scale(0.996264)"/>
      <use xlink:href="#CMR17-6f" transform="translate(69.07243 0)scale(0.996264)"/>
     </g>
    </g>
    <g id="patch_45">
     <path d="M 487.892972 115.903549 
L 507.047372 115.903549 
L 507.047372 109.199509 
L 487.892972 109.199509 
L 487.892972 115.903549 
z
" style="fill: none"/>
    </g>
    <g id="text_43">
     <!-- Yes -->
     <g style="fill: #262626" transform="translate(487.892972 115.903549)scale(0.095772 -0.095772)">
      <use xlink:href="#CMR17-59" transform="scale(0.996264)"/>
      <use xlink:href="#CMR17-65" transform="translate(61.265174 0)scale(0.996264)"/>
      <use xlink:href="#CMR17-73" transform="translate(101.750835 0)scale(0.996264)"/>
     </g>
    </g>
    <g id="patch_46">
     <path d="M 487.892972 129.25146 
L 507.047372 129.25146 
L 507.047372 122.54742 
L 487.892972 122.54742 
L 487.892972 129.25146 
z
" style="fill: none"/>
    </g>
    <g id="text_44">
     <!-- Yes -->
     <g style="fill: #262626" transform="translate(487.892972 129.25146)scale(0.095772 -0.095772)">
      <use xlink:href="#CMR17-59" transform="scale(0.996264)"/>
      <use xlink:href="#CMR17-65" transform="translate(61.265174 0)scale(0.996264)"/>
      <use xlink:href="#CMR17-73" transform="translate(101.750835 0)scale(0.996264)"/>
     </g>
    </g>
   </g>
  </g>
 </g>
 <defs>
  <clipPath id="pdbf379868f">
   <rect x="41.498364" y="11.575939" width="279.28738" height="244.165238"/>
  </clipPath>
 </defs>
</svg>
