<?xml version="1.0" encoding="UTF-8" standalone="no"?>
<!-- Created with Inkscape (http://www.inkscape.org/) -->

<svg
   width="61.627716mm"
   height="17.578569mm"
   viewBox="0 0 80.116032 22.85214"
   version="1.1"
   id="svg5"
   inkscape:version="1.1.2 (0a00cf5339, 2022-02-04)"
   sodipodi:docname="logo-detkit-light.svg"
   inkscape:export-filename="/home/sia/work/github/detkit/docs/source/_static/images/icons/logo-detkit-light.png"
   inkscape:export-xdpi="100"
   inkscape:export-ydpi="100"
   xmlns:inkscape="http://www.inkscape.org/namespaces/inkscape"
   xmlns:sodipodi="http://sodipodi.sourceforge.net/DTD/sodipodi-0.dtd"
   xmlns="http://www.w3.org/2000/svg"
   xmlns:svg="http://www.w3.org/2000/svg">
  <sodipodi:namedview
     id="namedview7"
     pagecolor="#ffffff"
     bordercolor="#666666"
     borderopacity="1.0"
     inkscape:pageshadow="2"
     inkscape:pageopacity="0.0"
     inkscape:pagecheckerboard="0"
     inkscape:document-units="mm"
     showgrid="false"
     fit-margin-top="0"
     fit-margin-left="0"
     fit-margin-right="0"
     fit-margin-bottom="0"
     inkscape:zoom="1.4142136"
     inkscape:cx="-4.596194"
     inkscape:cy="44.547726"
     inkscape:window-width="1920"
     inkscape:window-height="1006"
     inkscape:window-x="0"
     inkscape:window-y="25"
     inkscape:window-maximized="1"
     inkscape:current-layer="layer1"
     scale-x="1.3" />
  <defs
     id="defs2" />
  <g
     inkscape:label="Layer 1"
     inkscape:groupmode="layer"
     id="layer1"
     transform="translate(-45.655761,-109.29528)">
    <rect
       style="fill:none;fill-opacity:0.315116;stroke-width:0.343958"
       id="rect844"
       width="80.116554"
       height="22.852072"
       x="45.656975"
       y="109.29589" />
    <g
       id="g1688"
       transform="translate(-0.02665608,-39.537293)">
      <path
         id="text16881-3"
         style="font-size:18.9065px;line-height:1.25;font-family:sans-serif;fill:#eb6600;fill-opacity:1;stroke-width:0.504456"
         d="m 69.524836,153.6921 c -1.109978,0 -2.125214,0.15879 -3.046584,0.48034 -0.920605,0.32128 -1.714511,0.77393 -2.377478,1.35635 -0.66285,0.58231 -1.18089,1.27991 -1.552515,2.09129 -0.365852,0.81232 -0.54684,1.70426 -0.54684,2.67508 0,1.00171 0.190953,1.90928 0.575727,2.71606 0.384336,0.80587 0.930235,1.49447 1.636489,2.06443 a 0.06711906,0.06711906 0 0 0 0.002,0 c 0.7125,0.5638 1.571569,0.9968 2.577672,1.29925 1.006641,0.3026 2.132008,0.45144 3.375763,0.45144 0.534132,0 1.021289,-0.0175 1.46451,-0.0544 0.448997,-0.0307 0.890509,-0.0814 1.321418,-0.15519 0.431189,-0.0678 0.868093,-0.15791 1.311341,-0.26872 a 0.06711906,0.06711906 0 0 0 0.002,0 c 0.4425,-0.11676 0.921927,-0.25487 1.437639,-0.41449 a 0.06711906,0.06711906 0 0 0 0.04635,-0.0645 v -1.33419 a 0.06711906,0.06711906 0 0 0 -0.100769,-0.0564 c -0.240041,0.15004 -0.552473,0.29936 -0.935808,0.4454 -0.383742,0.1401 -0.806471,0.26897 -1.270362,0.38494 v -0.002 c -0.463542,0.10979 -0.951017,0.19955 -1.457792,0.26671 -0.506022,0.0671 -1.004563,0.10144 -1.4981,0.10144 -1.1603,0 -2.174997,-0.1176 -3.044568,-0.34866 -0.863507,-0.23716 -1.589856,-0.57581 -2.182658,-1.01105 h -0.002 c -0.586481,-0.43559 -1.038384,-0.96425 -1.358367,-1.58611 -0.310465,-0.60336 -0.50119,-1.27916 -0.573712,-2.0268 H 76.7251 a 0.06711906,0.06711906 0 0 0 0.06651,-0.0665 v -0.28417 c 0,-1.0247 -0.160715,-1.94829 -0.48302,-2.76644 -0.322157,-0.82398 -0.793625,-1.5243 -1.414125,-2.10137 -0.620598,-0.57716 -1.38343,-1.02101 -2.286114,-1.33015 -0.903397,-0.30938 -1.931163,-0.46153 -3.083532,-0.46153 z m -23.71633,0.1384 a 0.06711906,0.06711906 0 0 0 -0.06584,0.0658 v 12.63442 a 0.06711906,0.06711906 0 0 0 0.06584,0.0665 h 6.519757 c 0.695502,0 1.357849,-0.0427 1.986493,-0.12899 0.635497,-0.0925 1.222533,-0.23735 1.760771,-0.43532 0.544694,-0.19806 1.038206,-0.46147 1.478618,-0.79003 0.447762,-0.32959 0.829301,-0.73221 1.140034,-1.20452 0.311036,-0.47278 0.549035,-1.02405 0.716132,-1.6553 0.173573,-0.6385 0.25864,-1.36536 0.25864,-2.1793 0,-1.21462 -0.187014,-2.23183 -0.566321,-3.05263 -0.371773,-0.8179 -0.891658,-1.47579 -1.556546,-1.96701 h -0.002 c -0.657756,-0.49611 -1.434118,-0.84602 -2.330452,-1.05001 -0.894425,-0.20357 -1.862387,-0.30365 -2.90282,-0.30365 z m 32.138606,0 a 0.06711906,0.06711906 0 0 0 -0.06651,0.0658 v 1.04867 a 0.06711906,0.06711906 0 0 0 0.06651,0.0665 h 5.682702 v 11.51924 a 0.06711906,0.06711906 0 0 0 0.06651,0.0665 h 1.140034 a 0.06711906,0.06711906 0 0 0 0.06584,-0.0665 v -11.51924 h 5.68136 a 0.06711906,0.06711906 0 0 0 0.06583,-0.0665 v -1.04867 a 0.06711906,0.06711906 0 0 0 -0.06583,-0.0658 z m -8.441759,1.01575 c 1.04272,0 1.934439,0.13266 2.673067,0.393 0.74715,0.26119 1.358317,0.60983 1.834669,1.05001 0.483709,0.44139 0.844168,0.95221 1.085618,1.53169 0.233316,0.55413 0.372547,1.13602 0.420543,1.74666 H 63.330227 c 0.08371,-0.61474 0.265257,-1.19738 0.544824,-1.75069 a 0.06711906,0.06711906 0 0 0 0,-6.7e-4 0.06711906,0.06711906 0 0 0 0,-6.8e-4 0.06711906,0.06711906 0 0 0 0,-6.7e-4 c 0.29026,-0.58051 0.687883,-1.0877 1.196465,-1.52363 a 0.06711906,0.06711906 0 0 0 0.002,0 c 0.507825,-0.44132 1.128403,-0.79077 1.863555,-1.05202 0.732954,-0.26048 1.587203,-0.393 2.568267,-0.393 z m -22.480901,0.16526 h 5.286344 c 0.598282,0 1.161992,0.0337 1.692248,0.10077 0.529026,0.0669 1.016819,0.18104 1.465182,0.34463 a 0.06711906,0.06711906 0 0 0 0.002,0.002 c 0.44805,0.15742 0.850479,0.36459 1.206542,0.6241 0.354781,0.25857 0.652986,0.58148 0.900203,0.96738 0.246765,0.37918 0.439014,0.82901 0.572368,1.3503 0.133138,0.52045 0.200195,1.12088 0.200195,1.8031 0,1.02346 -0.150086,1.8704 -0.4454,2.53938 -0.296333,0.66524 -0.709486,1.19333 -1.239459,1.59081 -0.52488,0.39215 -1.155023,0.67124 -1.89513,0.83504 -0.742573,0.15826 -1.561539,0.23915 -2.458764,0.23915 h -5.286344 z" />
      <path
         id="text16881-6"
         style="font-size:18.9065px;line-height:1.25;font-family:sans-serif;fill:#00809a;fill-opacity:1;stroke-width:0.504456"
         d="M 93.065837,153.87584 A 0.06711906,0.06711906 0 0 0 93,153.94167 v 12.63443 a 0.06711906,0.06711906 0 0 0 0.06584,0.0665 h 1.15011 a 0.06711906,0.06711906 0 0 0 0.06583,-0.0665 v -5.73511 h 1.893116 c 0.646545,0 1.301951,0.0482 1.967011,0.14578 0.664425,0.0914 1.306533,0.23828 1.928053,0.43936 0.62123,0.20098 1.20884,0.45606 1.76278,0.76651 0.55269,0.30367 1.04204,0.66718 1.46653,1.09167 a 0.06711906,0.06711906 0 0 0 0,0.002 c 0.43002,0.42396 0.78207,0.9098 1.05471,1.46115 0.27179,0.54356 0.43916,1.15535 0.49982,1.83467 a 0.06711906,0.06711906 0 0 0 0.0665,0.0605 h 1.18437 a 0.06711906,0.06711906 0 0 0 0.0665,-0.0726 c -0.0618,-0.74176 -0.21831,-1.40791 -0.47295,-1.99792 -0.25364,-0.58767 -0.56898,-1.11111 -0.94723,-1.56998 -0.37155,-0.45824 -0.79407,-0.8538 -1.26498,-1.1884 -0.46879,-0.33926 -0.95283,-0.62386 -1.45309,-0.8525 h -0.002 c -0.49279,-0.23397 -0.98933,-0.41849 -1.4887,-0.55423 h -0.001 c -0.38752,-0.11136 -0.749393,-0.19474 -1.095694,-0.26066 0.267865,-0.0741 0.550595,-0.16165 0.861914,-0.27611 0.41969,-0.16047 0.84824,-0.35765 1.28581,-0.59184 a 0.06711906,0.06711906 0 0 0 0.002,0 c 0.43847,-0.24085 0.87036,-0.52498 1.29589,-0.85184 0.42731,-0.33441 0.81504,-0.72223 1.16153,-1.16154 0.34709,-0.44004 0.63822,-0.93011 0.87333,-1.47458 0.24227,-0.55287 0.3936,-1.1682 0.45547,-1.84272 a 0.06711906,0.06711906 0 0 0 -0.0665,-0.0719 h -1.18639 a 0.06711906,0.06711906 0 0 0 -0.0665,0.0605 c -0.0606,0.59971 -0.21499,1.15352 -0.46286,1.6674 -0.24863,0.51544 -0.56715,0.98956 -0.95529,1.42017 -0.38816,0.42437 -0.83811,0.80397 -1.34829,1.13802 -0.50476,0.32839 -1.05312,0.60696 -1.643883,0.8384 -0.584186,0.22503 -1.196724,0.39955 -1.842059,0.52131 -0.645995,0.11579 -1.29556,0.17534 -1.947529,0.17534 H 94.28211 v -5.75526 a 0.06711906,0.06711906 0 0 0 -0.06583,-0.0658 z m 16.332643,0 a 0.06711906,0.06711906 0 0 0 -0.0658,0.0658 v 12.63443 a 0.06711906,0.06711906 0 0 0 0.0658,0.0665 h 1.1481 a 0.06711906,0.06711906 0 0 0 0.0658,-0.0665 v -12.63443 a 0.06711906,0.06711906 0 0 0 -0.0658,-0.0658 z m 3.64045,0 a 0.06711906,0.06711906 0 0 0 -0.0665,0.0658 v 1.04867 a 0.06711906,0.06711906 0 0 0 0.0665,0.0665 h 5.68069 v 11.51925 a 0.06711906,0.06711906 0 0 0 0.0665,0.0665 h 1.14204 a 0.06711906,0.06711906 0 0 0 0.0658,-0.0665 v -11.51925 h 5.68069 a 0.06711906,0.06711906 0 0 0 0.0665,-0.0665 v -1.04867 a 0.06711906,0.06711906 0 0 0 -0.0665,-0.0658 z" />
    </g>
  </g>
</svg>
