<?xml version="1.0" encoding="UTF-8" standalone="no"?>
<!-- Created with Inkscape (http://www.inkscape.org/) -->

<svg
   width="61.627716mm"
   height="17.578569mm"
   viewBox="0 0 80.116032 22.85214"
   version="1.1"
   id="svg5"
   sodipodi:docname="logo-detkit-dark.svg"
   inkscape:version="1.1.2 (0a00cf5339, 2022-02-04)"
   inkscape:export-filename="/home/sia/work/github/detkit/docs/source/_static/images/icons/logo-detkit-dark.png"
   inkscape:export-xdpi="100"
   inkscape:export-ydpi="100"
   xmlns:inkscape="http://www.inkscape.org/namespaces/inkscape"
   xmlns:sodipodi="http://sodipodi.sourceforge.net/DTD/sodipodi-0.dtd"
   xmlns="http://www.w3.org/2000/svg"
   xmlns:svg="http://www.w3.org/2000/svg">
  <sodipodi:namedview
     id="namedview6"
     pagecolor="#ffffff"
     bordercolor="#666666"
     borderopacity="1.0"
     inkscape:pageshadow="2"
     inkscape:pageopacity="0.0"
     inkscape:pagecheckerboard="0"
     inkscape:document-units="mm"
     showgrid="false"
     inkscape:zoom="1.7091486"
     inkscape:cx="119.06513"
     inkscape:cy="87.762998"
     inkscape:window-width="1920"
     inkscape:window-height="1006"
     inkscape:window-x="0"
     inkscape:window-y="25"
     inkscape:window-maximized="1"
     inkscape:current-layer="svg5" />
  <defs
     id="defs2" />
  <rect
     style="fill:none;fill-opacity:0.315116;stroke-width:0.343958"
     id="rect844"
     width="80.116554"
     height="22.852072"
     x="0.027887298"
     y="0.12258544" />
  <g
     id="g997"
     transform="translate(0,-33.667453)">
    <path
       id="text16881-6"
       style="font-size:18.9065px;line-height:1.25;font-family:sans-serif;fill:#ffe013;fill-opacity:1;stroke-width:0.504456"
       d="m 23.869073,38.648957 c -1.109981,0 -2.125216,0.158781 -3.046585,0.480334 -0.920606,0.321285 -1.714511,0.773931 -2.377478,1.356352 -0.66285,0.582314 -1.18089,1.279913 -1.552515,2.091294 -0.365852,0.812316 -0.54684,1.704258 -0.54684,2.675081 0,1.001706 0.190952,1.909278 0.575727,2.71606 0.384336,0.805867 0.930235,1.494464 1.636489,2.064424 a 0.06711905,0.06711905 0 0 0 0.0013,0 c 0.7125,0.563799 1.572241,0.996798 2.578344,1.299248 1.006641,0.302611 2.131334,0.451445 3.375091,0.451445 0.534133,0 1.021962,-0.01756 1.465183,-0.05441 0.448997,-0.03078 0.889838,-0.08209 1.320745,-0.155858 0.43119,-0.06774 0.868093,-0.157237 1.311341,-0.268043 a 0.06711905,0.06711905 0 0 0 0.002,0 c 0.442499,-0.116767 0.922599,-0.25488 1.43831,-0.414498 a 0.06711905,0.06711905 0 0 0 0.04635,-0.06449 v -1.334854 a 0.06711905,0.06711905 0 0 0 -0.10144,-0.05576 c -0.240042,0.150034 -0.552473,0.299357 -0.935808,0.445398 -0.38374,0.140095 -0.806472,0.268969 -1.270362,0.384938 v -0.002 c -0.463542,0.109781 -0.950346,0.199544 -1.457121,0.266702 -0.506021,0.06704 -1.004561,0.10144 -1.4981,0.10144 -1.160299,0 -2.174996,-0.117589 -3.044567,-0.34866 -0.863506,-0.237152 -1.589856,-0.576478 -2.182658,-1.011719 h -0.002 c -0.586444,-0.435603 -1.038337,-0.9636 -1.35832,-1.585456 -0.310465,-0.603358 -0.501189,-1.279838 -0.573712,-2.027472 h 13.396909 a 0.06711905,0.06711905 0 0 0 0.06584,-0.06584 v -0.284168 c 0,-1.024697 -0.160044,-1.94829 -0.48235,-2.766447 -0.322155,-0.82398 -0.793626,-1.524303 -1.414126,-2.101369 -0.620598,-0.577155 -1.383428,-1.021687 -2.286113,-1.330823 -0.903399,-0.30938 -1.931164,-0.460852 -3.083531,-0.460852 z M 0.15274163,38.787348 a 0.06711905,0.06711905 0 0 0 -0.06583569,0.06583 v 12.634425 a 0.06711905,0.06711905 0 0 0 0.06583569,0.06583 H 6.6724986 c 0.695503,0 1.3571781,-0.04204 1.9858218,-0.12831 0.635496,-0.09254 1.2225321,-0.237356 1.7607716,-0.435324 0.544693,-0.198069 1.038205,-0.461472 1.478617,-0.790028 0.447762,-0.329598 0.829301,-0.732208 1.140034,-1.204528 0.311036,-0.472771 0.549035,-1.024043 0.716132,-1.6553 0.173573,-0.6385 0.258641,-1.365356 0.258641,-2.179295 0,-1.214624 -0.186344,-2.231836 -0.565651,-3.052631 -0.371772,-0.817898 -0.891656,-1.475791 -1.556545,-1.967015 h -0.002 C 11.23061,39.644897 10.45353,39.294314 9.5571965,39.09032 8.6627714,38.886758 7.6954811,38.78734 6.6550481,38.78734 Z m 32.13860537,0 a 0.06711905,0.06711905 0 0 0 -0.06651,0.06583 v 1.048671 a 0.06711905,0.06711905 0 0 0 0.06651,0.06651 h 5.682704 v 11.519247 a 0.06711905,0.06711905 0 0 0 0.06583,0.06583 h 1.140037 a 0.06711905,0.06711905 0 0 0 0.06651,-0.06583 V 39.96836 h 5.680685 a 0.06711905,0.06711905 0 0 0 0.06651,-0.06651 v -1.048671 a 0.06711905,0.06711905 0 0 0 -0.06651,-0.06583 z m -8.441756,1.01508 c 1.042717,0 1.934436,0.132661 2.673065,0.393 0.74715,0.261198 1.358316,0.610512 1.834667,1.050686 0.483712,0.441385 0.84417,0.95154 1.085619,1.531017 0.233317,0.554127 0.371877,1.136693 0.419873,1.747336 H 17.674463 c 0.0837,-0.614743 0.265258,-1.197388 0.544824,-1.750696 a 0.06711905,0.06711905 0 0 0 0,-6.71e-4 0.06711905,0.06711905 0 0 0 0,-6.71e-4 0.06711905,0.06711905 0 0 0 0,-6.74e-4 c 0.29026,-0.580509 0.687883,-1.0877 1.196465,-1.523625 a 0.06711905,0.06711905 0 0 0 0.002,0 c 0.507825,-0.441326 1.128403,-0.791449 1.863555,-1.052702 0.732954,-0.260473 1.587204,-0.393 2.568269,-0.393 z M 1.368688,39.96836 h 5.2863441 c 0.5982807,0 1.161992,0.03373 1.6922478,0.10077 0.5290261,0.06689 1.0168189,0.181039 1.465182,0.344629 a 0.06711905,0.06711905 0 0 0 0.00202,0.002 c 0.4480481,0.157423 0.8498071,0.364596 1.2058691,0.624099 0.354781,0.258571 0.653658,0.581482 0.900875,0.967383 0.246764,0.379176 0.439013,0.828334 0.572368,1.349631 0.133138,0.52045 0.200195,1.121541 0.200195,1.803769 0,1.023454 -0.150087,1.86973 -0.4454,2.538704 -0.296332,0.66524 -0.709486,1.194004 -1.239459,1.591482 -0.52488,0.39215 -1.1550219,0.671248 -1.8951291,0.835038 -0.742574,0.158262 -1.5615395,0.239157 -2.4587644,0.239157 H 1.368688 Z" />
    <path
       id="text16881-5"
       style="font-size:18.9065px;line-height:1.25;font-family:sans-serif;fill:#e9e9e9;fill-opacity:1;stroke-width:0.504456"
       d="m 47.410052,38.832691 a 0.06711905,0.06711905 0 0 0 -0.06651,0.06583 v 12.634425 a 0.06711905,0.06711905 0 0 0 0.06651,0.06651 h 1.14944 A 0.06711905,0.06711905 0 0 0 48.626,51.53295 v -5.735103 h 1.893116 c 0.646542,0 1.301947,0.04815 1.967011,0.14578 0.664425,0.09143 1.30653,0.23827 1.928045,0.439352 0.621237,0.200988 1.208178,0.456064 1.762116,0.766518 0.552686,0.30367 1.042713,0.667172 1.467199,1.091662 a 0.06711905,0.06711905 0 0 0 0,0.002 c 0.43002,0.423956 0.782068,0.909794 1.054714,1.461152 0.271792,0.543561 0.439162,1.155346 0.499816,1.834667 a 0.06711905,0.06711905 0 0 0 0.06583,0.06047 h 1.185047 a 0.06711905,0.06711905 0 0 0 0.06651,-0.07188 c -0.06176,-0.741751 -0.218306,-1.408572 -0.472942,-1.998581 -0.253642,-0.587677 -0.569657,-1.111113 -0.947901,-1.569981 -0.371551,-0.458242 -0.793402,-0.853808 -1.264319,-1.188403 -0.468787,-0.33926 -0.95283,-0.623858 -1.453086,-0.852505 h -0.002 c -0.492789,-0.233963 -0.989334,-0.418483 -1.488696,-0.55423 h -0.002 c -0.387517,-0.111356 -0.748725,-0.194735 -1.095022,-0.260655 0.267865,-0.0741 0.550595,-0.161653 0.861912,-0.276109 0.419694,-0.160474 0.848239,-0.357651 1.285812,-0.591849 a 0.06711905,0.06711905 0 0 0 0.002,0 c 0.438467,-0.240854 0.870359,-0.52498 1.29589,-0.851834 0.427313,-0.33442 0.81504,-0.722233 1.16153,-1.161533 0.347089,-0.440047 0.638218,-0.930122 0.873331,-1.474587 0.242267,-0.552869 0.393599,-1.1682 0.455477,-1.84273 a 0.06711905,0.06711905 0 0 0 -0.06651,-0.07188 h -1.186388 a 0.06711905,0.06711905 0 0 0 -0.06651,0.06046 c -0.06056,0.599709 -0.214991,1.153523 -0.462865,1.66739 -0.24863,0.515452 -0.567146,0.989575 -0.955289,1.420173 -0.388157,0.424369 -0.838109,0.803968 -1.348292,1.138017 -0.504759,0.328394 -1.053111,0.606962 -1.643877,0.838398 -0.584182,0.225035 -1.197395,0.399552 -1.842729,0.521314 -0.645999,0.11579 -1.295561,0.175339 -1.94753,0.175339 H 48.626 v -5.755258 a 0.06711905,0.06711905 0 0 0 -0.06651,-0.06583 z m 16.332648,0 a 0.06711905,0.06711905 0 0 0 -0.06584,0.06583 v 12.634425 a 0.06711905,0.06711905 0 0 0 0.06584,0.06651 h 1.148095 a 0.06711905,0.06711905 0 0 0 0.06584,-0.06651 V 38.898525 a 0.06711905,0.06711905 0 0 0 -0.06584,-0.06583 z m 3.640448,0 a 0.06711905,0.06711905 0 0 0 -0.06651,0.06583 v 1.04867 a 0.06711905,0.06711905 0 0 0 0.06651,0.06651 h 5.680689 v 11.519247 a 0.06711905,0.06711905 0 0 0 0.06583,0.06651 h 1.142051 a 0.06711905,0.06711905 0 0 0 0.06651,-0.06651 V 40.013703 h 5.680685 a 0.06711905,0.06711905 0 0 0 0.06651,-0.06651 v -1.04867 a 0.06711905,0.06711905 0 0 0 -0.06651,-0.06583 z" />
  </g>
</svg>
