<?xml version="1.0" encoding="utf-8" standalone="no"?>
<!DOCTYPE svg PUBLIC "-//W3C//DTD SVG 1.1//EN"
  "http://www.w3.org/Graphics/SVG/1.1/DTD/svg11.dtd">
<svg height="272.592pt" version="1.1" viewBox="0 0 416.592 272.592" width="416.592pt" xmlns="http://www.w3.org/2000/svg" xmlns:xlink="http://www.w3.org/1999/xlink">
 <metadata>
  <rdf:RDF xmlns:cc="http://creativecommons.org/ns#" xmlns:dc="http://purl.org/dc/elements/1.1/" xmlns:rdf="http://www.w3.org/1999/02/22-rdf-syntax-ns#">
   <cc:Work>
    <dc:type rdf:resource="http://purl.org/dc/dcmitype/StillImage"/>
    <dc:date>2022-01-26T16:11:59.926626</dc:date>
    <dc:format>image/svg+xml</dc:format>
    <dc:creator>
     <cc:Agent>
      <dc:title>Matplotlib v3.4.2, https://matplotlib.org/</dc:title>
     </cc:Agent>
    </dc:creator>
   </cc:Work>
  </rdf:RDF>
 </metadata>
 <defs>
  <style type="text/css">*{stroke-linecap:butt;stroke-linejoin:round;}</style>
 </defs>
 <g id="figure_1">
  <g id="patch_1">
   <path d="M 0 272.592 
L 416.592 272.592 
L 416.592 0 
L 0 0 
z
" style="fill:none;"/>
  </g>
  <g id="axes_1">
   <g id="patch_2">
    <path d="M 57.600898 226.941178 
L 401.508082 226.941178 
L 401.508082 7.2 
L 57.600898 7.2 
z
" style="fill:none;"/>
   </g>
   <g id="matplotlib.axis_1">
    <g id="xtick_1">
     <g id="line2d_1">
      <defs>
       <path d="M 0 0 
L 0 6 
" id="m17502a0a43" style="stroke:#262626;stroke-width:1.25;"/>
      </defs>
      <g>
       <use style="fill:#262626;stroke:#262626;stroke-width:1.25;" x="57.600898" xlink:href="#m17502a0a43" y="226.941178"/>
      </g>
     </g>
     <g id="text_1">
      <!-- $\mathdefault{0.0}$ -->
      <g style="fill:#262626;" transform="translate(49.71698 245.193057)scale(0.1265 -0.1265)">
       <defs>
        <path d="M 2688 2025 
C 2688 2416 2682 3080 2413 3591 
C 2176 4039 1798 4198 1466 4198 
C 1158 4198 768 4058 525 3597 
C 269 3118 243 2524 243 2025 
C 243 1661 250 1106 448 619 
C 723 -39 1216 -128 1466 -128 
C 1760 -128 2208 -7 2470 600 
C 2662 1042 2688 1559 2688 2025 
z
M 1466 -26 
C 1056 -26 813 325 723 812 
C 653 1188 653 1738 653 2096 
C 653 2588 653 2997 736 3387 
C 858 3929 1216 4096 1466 4096 
C 1728 4096 2067 3923 2189 3400 
C 2272 3036 2278 2607 2278 2096 
C 2278 1680 2278 1169 2202 792 
C 2067 95 1690 -26 1466 -26 
z
" id="CMR17-30" transform="scale(0.015625)"/>
        <path d="M 1178 307 
C 1178 492 1024 619 870 619 
C 685 619 557 466 557 313 
C 557 128 710 0 864 0 
C 1050 0 1178 153 1178 307 
z
" id="CMMI12-3a" transform="scale(0.015625)"/>
       </defs>
       <use transform="scale(0.996264)" xlink:href="#CMR17-30"/>
       <use transform="translate(45.690477 0)scale(0.996264)" xlink:href="#CMMI12-3a"/>
       <use transform="translate(72.787654 0)scale(0.996264)" xlink:href="#CMR17-30"/>
      </g>
     </g>
    </g>
    <g id="xtick_2">
     <g id="line2d_2">
      <g>
       <use style="fill:#262626;stroke:#262626;stroke-width:1.25;" x="126.382335" xlink:href="#m17502a0a43" y="226.941178"/>
      </g>
     </g>
     <g id="text_2">
      <!-- $\mathdefault{0.2}$ -->
      <g style="fill:#262626;" transform="translate(118.498417 245.193057)scale(0.1265 -0.1265)">
       <defs>
        <path d="M 2669 989 
L 2554 989 
C 2490 536 2438 459 2413 420 
C 2381 369 1920 369 1830 369 
L 602 369 
C 832 619 1280 1072 1824 1597 
C 2214 1967 2669 2402 2669 3035 
C 2669 3790 2067 4224 1395 4224 
C 691 4224 262 3604 262 3030 
C 262 2780 448 2748 525 2748 
C 589 2748 781 2787 781 3010 
C 781 3207 614 3264 525 3264 
C 486 3264 448 3258 422 3245 
C 544 3790 915 4058 1306 4058 
C 1862 4058 2227 3617 2227 3035 
C 2227 2479 1901 2000 1536 1584 
L 262 146 
L 262 0 
L 2515 0 
L 2669 989 
z
" id="CMR17-32" transform="scale(0.015625)"/>
       </defs>
       <use transform="scale(0.996264)" xlink:href="#CMR17-30"/>
       <use transform="translate(45.690477 0)scale(0.996264)" xlink:href="#CMMI12-3a"/>
       <use transform="translate(72.787654 0)scale(0.996264)" xlink:href="#CMR17-32"/>
      </g>
     </g>
    </g>
    <g id="xtick_3">
     <g id="line2d_3">
      <g>
       <use style="fill:#262626;stroke:#262626;stroke-width:1.25;" x="195.163771" xlink:href="#m17502a0a43" y="226.941178"/>
      </g>
     </g>
     <g id="text_3">
      <!-- $\mathdefault{0.4}$ -->
      <g style="fill:#262626;" transform="translate(187.279853 245.193057)scale(0.1265 -0.1265)">
       <defs>
        <path d="M 2150 4122 
C 2150 4256 2144 4256 2029 4256 
L 128 1254 
L 128 1088 
L 1779 1088 
L 1779 457 
C 1779 224 1766 160 1318 160 
L 1197 160 
L 1197 0 
C 1402 0 1747 0 1965 0 
C 2182 0 2528 0 2733 0 
L 2733 160 
L 2611 160 
C 2163 160 2150 224 2150 457 
L 2150 1088 
L 2803 1088 
L 2803 1254 
L 2150 1254 
L 2150 4122 
z
M 1798 3703 
L 1798 1254 
L 256 1254 
L 1798 3703 
z
" id="CMR17-34" transform="scale(0.015625)"/>
       </defs>
       <use transform="scale(0.996264)" xlink:href="#CMR17-30"/>
       <use transform="translate(45.690477 0)scale(0.996264)" xlink:href="#CMMI12-3a"/>
       <use transform="translate(72.787654 0)scale(0.996264)" xlink:href="#CMR17-34"/>
      </g>
     </g>
    </g>
    <g id="xtick_4">
     <g id="line2d_4">
      <g>
       <use style="fill:#262626;stroke:#262626;stroke-width:1.25;" x="263.945208" xlink:href="#m17502a0a43" y="226.941178"/>
      </g>
     </g>
     <g id="text_4">
      <!-- $\mathdefault{0.6}$ -->
      <g style="fill:#262626;" transform="translate(256.06129 245.193057)scale(0.1265 -0.1265)">
       <defs>
        <path d="M 678 2176 
C 678 3690 1395 4032 1811 4032 
C 1946 4032 2272 4009 2400 3776 
C 2298 3776 2106 3776 2106 3553 
C 2106 3381 2246 3323 2336 3323 
C 2394 3323 2566 3348 2566 3560 
C 2566 3954 2246 4179 1805 4179 
C 1043 4179 243 3390 243 1984 
C 243 253 966 -128 1478 -128 
C 2099 -128 2688 427 2688 1283 
C 2688 2081 2170 2662 1517 2662 
C 1126 2662 838 2407 678 1960 
L 678 2176 
z
M 1478 25 
C 691 25 691 1200 691 1436 
C 691 1896 909 2560 1504 2560 
C 1613 2560 1926 2560 2138 2120 
C 2253 1870 2253 1609 2253 1289 
C 2253 944 2253 690 2118 434 
C 1978 171 1773 25 1478 25 
z
" id="CMR17-36" transform="scale(0.015625)"/>
       </defs>
       <use transform="scale(0.996264)" xlink:href="#CMR17-30"/>
       <use transform="translate(45.690477 0)scale(0.996264)" xlink:href="#CMMI12-3a"/>
       <use transform="translate(72.787654 0)scale(0.996264)" xlink:href="#CMR17-36"/>
      </g>
     </g>
    </g>
    <g id="xtick_5">
     <g id="line2d_5">
      <g>
       <use style="fill:#262626;stroke:#262626;stroke-width:1.25;" x="332.726645" xlink:href="#m17502a0a43" y="226.941178"/>
      </g>
     </g>
     <g id="text_5">
      <!-- $\mathdefault{0.8}$ -->
      <g style="fill:#262626;" transform="translate(324.842727 245.193057)scale(0.1265 -0.1265)">
       <defs>
        <path d="M 1741 2264 
C 2144 2467 2554 2773 2554 3263 
C 2554 3841 1990 4179 1472 4179 
C 890 4179 378 3759 378 3180 
C 378 3021 416 2747 666 2505 
C 730 2442 998 2251 1171 2130 
C 883 1983 211 1634 211 934 
C 211 279 838 -128 1459 -128 
C 2144 -128 2720 362 2720 1010 
C 2720 1590 2330 1857 2074 2029 
L 1741 2264 
z
M 902 2822 
C 851 2854 595 3051 595 3351 
C 595 3739 998 4032 1459 4032 
C 1965 4032 2336 3676 2336 3262 
C 2336 2669 1670 2331 1638 2331 
C 1632 2331 1626 2331 1574 2370 
L 902 2822 
z
M 2080 1519 
C 2176 1449 2483 1240 2483 851 
C 2483 381 2010 25 1472 25 
C 890 25 448 438 448 940 
C 448 1443 838 1862 1280 2060 
L 2080 1519 
z
" id="CMR17-38" transform="scale(0.015625)"/>
       </defs>
       <use transform="scale(0.996264)" xlink:href="#CMR17-30"/>
       <use transform="translate(45.690477 0)scale(0.996264)" xlink:href="#CMMI12-3a"/>
       <use transform="translate(72.787654 0)scale(0.996264)" xlink:href="#CMR17-38"/>
      </g>
     </g>
    </g>
    <g id="xtick_6">
     <g id="line2d_6">
      <g>
       <use style="fill:#262626;stroke:#262626;stroke-width:1.25;" x="401.508082" xlink:href="#m17502a0a43" y="226.941178"/>
      </g>
     </g>
     <g id="text_6">
      <!-- $\mathdefault{1.0}$ -->
      <g style="fill:#262626;" transform="translate(393.624164 245.193057)scale(0.1265 -0.1265)">
       <defs>
        <path d="M 1702 4058 
C 1702 4192 1696 4192 1606 4192 
C 1357 3916 979 3827 621 3827 
C 602 3827 570 3827 563 3808 
C 557 3795 557 3782 557 3648 
C 755 3648 1088 3686 1344 3839 
L 1344 461 
C 1344 236 1331 160 781 160 
L 589 160 
L 589 0 
C 896 0 1216 0 1523 0 
C 1830 0 2150 0 2458 0 
L 2458 160 
L 2266 160 
C 1715 160 1702 230 1702 458 
L 1702 4058 
z
" id="CMR17-31" transform="scale(0.015625)"/>
       </defs>
       <use transform="scale(0.996264)" xlink:href="#CMR17-31"/>
       <use transform="translate(45.690477 0)scale(0.996264)" xlink:href="#CMMI12-3a"/>
       <use transform="translate(72.787654 0)scale(0.996264)" xlink:href="#CMR17-30"/>
      </g>
     </g>
    </g>
    <g id="text_7">
     <!-- $m/n$ -->
     <g style="fill:#262626;" transform="translate(216.283577 261.954892)scale(0.138 -0.138)">
      <defs>
       <path d="M 1318 1871 
C 1331 1910 1491 2229 1728 2433 
C 1894 2586 2112 2689 2362 2689 
C 2618 2689 2707 2497 2707 2242 
C 2707 2203 2707 2076 2630 1775 
L 2470 1118 
C 2419 926 2298 453 2285 383 
C 2259 287 2221 121 2221 96 
C 2221 6 2291 -64 2387 -64 
C 2579 -64 2611 83 2669 313 
L 3053 1839 
C 3066 1890 3398 2689 4102 2689 
C 4358 2689 4448 2497 4448 2242 
C 4448 1884 4198 1188 4058 805 
C 4000 651 3968 568 3968 453 
C 3968 166 4166 -64 4474 -64 
C 5069 -64 5293 875 5293 913 
C 5293 945 5267 971 5229 971 
C 5171 971 5165 952 5133 843 
C 4986 332 4749 64 4493 64 
C 4429 64 4326 64 4326 269 
C 4326 436 4403 640 4429 710 
C 4544 1018 4832 1773 4832 2145 
C 4832 2528 4608 2816 4122 2816 
C 3693 2816 3347 2574 3091 2197 
C 3072 2542 2861 2816 2381 2816 
C 1811 2816 1510 2415 1395 2255 
C 1376 2618 1114 2816 832 2816 
C 646 2816 499 2727 378 2484 
C 262 2254 173 1865 173 1839 
C 173 1814 198 1782 243 1782 
C 294 1782 301 1788 339 1935 
C 435 2312 557 2689 813 2689 
C 960 2689 1011 2586 1011 2395 
C 1011 2254 947 2005 902 1807 
L 723 1118 
C 698 996 627 709 595 594 
C 550 428 480 128 480 96 
C 480 6 550 -64 646 -64 
C 723 -64 813 -26 864 70 
C 877 102 934 326 966 453 
L 1107 1028 
L 1318 1871 
z
" id="CMMI12-6d" transform="scale(0.015625)"/>
       <path d="M 2746 4562 
C 2746 4569 2784 4666 2784 4678 
C 2784 4755 2720 4800 2669 4800 
C 2637 4800 2579 4800 2528 4659 
L 384 -1363 
C 384 -1370 346 -1465 346 -1478 
C 346 -1555 410 -1600 461 -1600 
C 499 -1600 557 -1593 602 -1459 
L 2746 4562 
z
" id="CMMI12-3d" transform="scale(0.015625)"/>
       <path d="M 1318 1871 
C 1331 1910 1491 2229 1728 2433 
C 1894 2586 2112 2689 2362 2689 
C 2618 2689 2707 2497 2707 2242 
C 2707 1878 2445 1150 2317 805 
C 2259 651 2227 568 2227 453 
C 2227 166 2426 -64 2733 -64 
C 3328 -64 3552 875 3552 913 
C 3552 945 3526 971 3488 971 
C 3430 971 3424 952 3392 843 
C 3245 319 3002 64 2752 64 
C 2688 64 2586 64 2586 269 
C 2586 429 2656 621 2694 710 
C 2822 1063 3091 1780 3091 2145 
C 3091 2528 2867 2816 2381 2816 
C 1811 2816 1510 2415 1395 2255 
C 1376 2618 1114 2816 832 2816 
C 627 2816 486 2695 378 2478 
C 262 2248 173 1865 173 1839 
C 173 1814 198 1782 243 1782 
C 294 1782 301 1788 339 1935 
C 442 2325 557 2689 813 2689 
C 960 2689 1011 2586 1011 2395 
C 1011 2254 947 2005 902 1807 
L 723 1118 
C 698 996 627 709 595 594 
C 550 428 480 128 480 96 
C 480 6 550 -64 646 -64 
C 723 -64 813 -26 864 70 
C 877 102 934 326 966 453 
L 1107 1028 
L 1318 1871 
z
" id="CMMI12-6e" transform="scale(0.015625)"/>
      </defs>
      <use transform="scale(0.996264)" xlink:href="#CMMI12-6d"/>
      <use transform="translate(85.327224 0)scale(0.996264)" xlink:href="#CMMI12-3d"/>
      <use transform="translate(134.102143 0)scale(0.996264)" xlink:href="#CMMI12-6e"/>
     </g>
    </g>
   </g>
   <g id="matplotlib.axis_2">
    <g id="ytick_1">
     <g id="line2d_7">
      <defs>
       <path d="M 0 0 
L -6 0 
" id="m5f86152651" style="stroke:#262626;stroke-width:1.25;"/>
      </defs>
      <g>
       <use style="fill:#262626;stroke:#262626;stroke-width:1.25;" x="57.600898" xlink:href="#m5f86152651" y="217.425021"/>
      </g>
     </g>
     <g id="text_8">
      <!-- $\mathdefault{0}$ -->
      <g style="fill:#262626;" transform="translate(41.930874 221.80096)scale(0.1265 -0.1265)">
       <use transform="scale(0.996264)" xlink:href="#CMR17-30"/>
      </g>
     </g>
    </g>
    <g id="ytick_2">
     <g id="line2d_8">
      <g>
       <use style="fill:#262626;stroke:#262626;stroke-width:1.25;" x="57.600898" xlink:href="#m5f86152651" y="180.037049"/>
      </g>
     </g>
     <g id="text_9">
      <!-- $\mathdefault{500}$ -->
      <g style="fill:#262626;" transform="translate(29.590827 184.412989)scale(0.1265 -0.1265)">
       <defs>
        <path d="M 730 3692 
C 794 3666 1056 3584 1325 3584 
C 1920 3584 2246 3911 2432 4100 
C 2432 4157 2432 4192 2394 4192 
C 2387 4192 2374 4192 2323 4163 
C 2099 4058 1837 3973 1517 3973 
C 1325 3973 1037 3999 723 4139 
C 653 4171 640 4171 634 4171 
C 602 4171 595 4164 595 4037 
L 595 2203 
C 595 2089 595 2057 659 2057 
C 691 2057 704 2070 736 2114 
C 941 2401 1222 2522 1542 2522 
C 1766 2522 2246 2382 2246 1289 
C 2246 1085 2246 715 2054 421 
C 1894 159 1645 25 1370 25 
C 947 25 518 320 403 814 
C 429 807 480 795 506 795 
C 589 795 749 840 749 1038 
C 749 1210 627 1280 506 1280 
C 358 1280 262 1190 262 1011 
C 262 454 704 -128 1382 -128 
C 2042 -128 2669 440 2669 1264 
C 2669 2030 2170 2624 1549 2624 
C 1222 2624 947 2503 730 2274 
L 730 3692 
z
" id="CMR17-35" transform="scale(0.015625)"/>
       </defs>
       <use transform="scale(0.996264)" xlink:href="#CMR17-35"/>
       <use transform="translate(45.690477 0)scale(0.996264)" xlink:href="#CMR17-30"/>
       <use transform="translate(91.380954 0)scale(0.996264)" xlink:href="#CMR17-30"/>
      </g>
     </g>
    </g>
    <g id="ytick_3">
     <g id="line2d_9">
      <g>
       <use style="fill:#262626;stroke:#262626;stroke-width:1.25;" x="57.600898" xlink:href="#m5f86152651" y="142.649078"/>
      </g>
     </g>
     <g id="text_10">
      <!-- $\mathdefault{1000}$ -->
      <g style="fill:#262626;" transform="translate(23.420804 147.025017)scale(0.1265 -0.1265)">
       <use transform="scale(0.996264)" xlink:href="#CMR17-31"/>
       <use transform="translate(45.690477 0)scale(0.996264)" xlink:href="#CMR17-30"/>
       <use transform="translate(91.380954 0)scale(0.996264)" xlink:href="#CMR17-30"/>
       <use transform="translate(137.071431 0)scale(0.996264)" xlink:href="#CMR17-30"/>
      </g>
     </g>
    </g>
    <g id="ytick_4">
     <g id="line2d_10">
      <g>
       <use style="fill:#262626;stroke:#262626;stroke-width:1.25;" x="57.600898" xlink:href="#m5f86152651" y="105.261106"/>
      </g>
     </g>
     <g id="text_11">
      <!-- $\mathdefault{1500}$ -->
      <g style="fill:#262626;" transform="translate(23.420804 109.637046)scale(0.1265 -0.1265)">
       <use transform="scale(0.996264)" xlink:href="#CMR17-31"/>
       <use transform="translate(45.690477 0)scale(0.996264)" xlink:href="#CMR17-35"/>
       <use transform="translate(91.380954 0)scale(0.996264)" xlink:href="#CMR17-30"/>
       <use transform="translate(137.071431 0)scale(0.996264)" xlink:href="#CMR17-30"/>
      </g>
     </g>
    </g>
    <g id="ytick_5">
     <g id="line2d_11">
      <g>
       <use style="fill:#262626;stroke:#262626;stroke-width:1.25;" x="57.600898" xlink:href="#m5f86152651" y="67.873135"/>
      </g>
     </g>
     <g id="text_12">
      <!-- $\mathdefault{2000}$ -->
      <g style="fill:#262626;" transform="translate(23.420804 72.249074)scale(0.1265 -0.1265)">
       <use transform="scale(0.996264)" xlink:href="#CMR17-32"/>
       <use transform="translate(45.690477 0)scale(0.996264)" xlink:href="#CMR17-30"/>
       <use transform="translate(91.380954 0)scale(0.996264)" xlink:href="#CMR17-30"/>
       <use transform="translate(137.071431 0)scale(0.996264)" xlink:href="#CMR17-30"/>
      </g>
     </g>
    </g>
    <g id="ytick_6">
     <g id="line2d_12">
      <g>
       <use style="fill:#262626;stroke:#262626;stroke-width:1.25;" x="57.600898" xlink:href="#m5f86152651" y="30.485163"/>
      </g>
     </g>
     <g id="text_13">
      <!-- $\mathdefault{2500}$ -->
      <g style="fill:#262626;" transform="translate(23.420804 34.861103)scale(0.1265 -0.1265)">
       <use transform="scale(0.996264)" xlink:href="#CMR17-32"/>
       <use transform="translate(45.690477 0)scale(0.996264)" xlink:href="#CMR17-35"/>
       <use transform="translate(91.380954 0)scale(0.996264)" xlink:href="#CMR17-30"/>
       <use transform="translate(137.071431 0)scale(0.996264)" xlink:href="#CMR17-30"/>
      </g>
     </g>
    </g>
    <g id="text_14">
     <!-- logdet -->
     <g style="fill:#262626;" transform="translate(16.74751 135.019759)rotate(-90)scale(0.138 -0.138)">
      <defs>
       <path d="M 979 4396 
L 218 4326 
L 218 4160 
C 595 4160 653 4122 653 3817 
L 653 426 
C 653 184 627 153 218 153 
L 218 -13 
C 371 0 653 0 813 0 
C 979 0 1261 0 1414 -13 
L 1414 153 
C 1005 153 979 178 979 426 
L 979 4396 
z
" id="CMR17-6c" transform="scale(0.015625)"/>
       <path d="M 2758 1356 
C 2758 2176 2163 2816 1466 2816 
C 768 2816 173 2176 173 1356 
C 173 551 768 -64 1466 -64 
C 2163 -64 2758 551 2758 1356 
z
M 1466 51 
C 1165 51 909 230 762 480 
C 602 767 582 1126 582 1408 
C 582 1677 595 2010 762 2298 
C 890 2509 1139 2714 1466 2714 
C 1754 2714 1997 2554 2150 2330 
C 2349 2029 2349 1607 2349 1408 
C 2349 1158 2336 775 2163 467 
C 1984 173 1709 51 1466 51 
z
" id="CMR17-6f" transform="scale(0.015625)"/>
       <path d="M 710 1164 
C 832 1068 1043 960 1299 960 
C 1805 960 2240 1357 2240 1888 
C 2240 2054 2189 2310 1997 2509 
C 2176 2692 2438 2752 2586 2752 
C 2611 2752 2650 2752 2682 2734 
C 2656 2728 2598 2703 2598 2605 
C 2598 2527 2656 2471 2739 2471 
C 2835 2471 2886 2533 2886 2614 
C 2886 2731 2790 2854 2586 2854 
C 2330 2854 2106 2738 1926 2580 
C 1734 2753 1504 2816 1299 2816 
C 794 2816 358 2419 358 1888 
C 358 1522 570 1292 634 1228 
C 442 1004 442 743 442 711 
C 442 545 506 302 723 168 
C 390 85 128 -169 128 -486 
C 128 -943 736 -1280 1466 -1280 
C 2170 -1280 2803 -956 2803 -479 
C 2803 384 1856 384 1363 384 
C 1216 384 954 384 922 391 
C 723 423 589 602 589 826 
C 589 883 589 1024 710 1164 
z
M 1299 1068 
C 736 1068 736 1760 736 1889 
C 736 2016 736 2708 1299 2708 
C 1862 2708 1862 2016 1862 1889 
C 1862 1760 1862 1068 1299 1068 
z
M 1466 -1171 
C 826 -1171 384 -835 384 -486 
C 384 -289 493 -105 634 -4 
C 794 104 858 104 1293 104 
C 1818 104 2547 104 2547 -486 
C 2547 -835 2106 -1171 1466 -1171 
z
" id="CMR17-67" transform="scale(0.015625)"/>
       <path d="M 1869 4326 
L 1869 4160 
C 2246 4160 2304 4122 2304 3820 
L 2304 2345 
C 2278 2377 2016 2790 1498 2790 
C 845 2790 211 2208 211 1364 
C 211 525 806 -64 1434 -64 
C 1978 -64 2259 337 2291 380 
L 2291 -63 
L 3066 -63 
L 3066 128 
C 2688 128 2630 166 2630 473 
L 2630 4396 
L 1869 4326 
z
M 2291 755 
C 2291 563 2176 390 2029 262 
C 1811 70 1594 38 1472 38 
C 1286 38 621 134 621 1356 
C 621 2612 1363 2688 1530 2688 
C 1824 2688 2061 2522 2208 2291 
C 2291 2157 2291 2138 2291 2023 
L 2291 755 
z
" id="CMR17-64" transform="scale(0.015625)"/>
       <path d="M 2438 1472 
C 2464 1498 2464 1511 2464 1576 
C 2464 2238 2118 2816 1389 2816 
C 710 2816 173 2169 173 1383 
C 173 551 781 -64 1459 -64 
C 2176 -64 2458 607 2458 740 
C 2458 784 2419 784 2406 784 
C 2362 784 2355 771 2330 696 
C 2189 265 1837 51 1504 51 
C 1229 51 954 203 781 480 
C 582 803 582 1176 582 1472 
L 2438 1472 
z
M 589 1568 
C 634 2505 1126 2714 1382 2714 
C 1818 2714 2112 2297 2118 1568 
L 589 1568 
z
" id="CMR17-65" transform="scale(0.015625)"/>
       <path d="M 966 2560 
L 1862 2560 
L 1862 2725 
L 966 2725 
L 966 3904 
L 851 3904 
C 838 3245 614 2668 70 2668 
L 70 2560 
L 627 2560 
L 627 771 
C 627 650 627 -64 1370 -64 
C 1747 -64 1965 306 1965 777 
L 1965 1140 
L 1850 1140 
L 1850 783 
C 1850 344 1677 51 1408 51 
C 1222 51 966 178 966 758 
L 966 2560 
z
" id="CMR17-74" transform="scale(0.015625)"/>
      </defs>
      <use transform="scale(0.996264)" xlink:href="#CMR17-6c"/>
      <use transform="translate(24.871058 0)scale(0.996264)" xlink:href="#CMR17-6f"/>
      <use transform="translate(70.561536 0)scale(0.996264)" xlink:href="#CMR17-67"/>
      <use transform="translate(116.252013 0)scale(0.996264)" xlink:href="#CMR17-64"/>
      <use transform="translate(167.147382 0)scale(0.996264)" xlink:href="#CMR17-65"/>
      <use transform="translate(207.633043 0)scale(0.996264)" xlink:href="#CMR17-74"/>
     </g>
    </g>
   </g>
   <g id="line2d_13">
    <path clip-path="url(#pd2f0ccf398)" d="M 57.944805 17.188235 
L 64.949282 17.959816 
L 71.953759 20.158453 
L 78.958236 22.602839 
L 85.962713 25.585404 
L 92.96719 28.502485 
L 99.971667 31.867789 
L 106.976143 35.015024 
L 113.98062 38.267849 
L 120.985097 41.893676 
L 127.989574 45.342155 
L 134.994051 49.195731 
L 141.998528 52.787231 
L 149.003005 56.794489 
L 156.007482 60.520664 
L 163.011959 64.252558 
L 170.016436 68.385224 
L 177.020913 72.238252 
L 184.02539 76.511805 
L 191.029867 80.433767 
L 198.034344 84.802639 
L 205.038821 88.797242 
L 212.043298 92.849088 
L 219.047774 97.321469 
L 226.052251 101.433124 
L 233.056728 105.988555 
L 240.061205 110.157943 
L 247.065682 114.77917 
L 254.070159 118.976678 
L 261.074636 123.238345 
L 268.079113 127.989652 
L 275.08359 132.297792 
L 282.088067 137.081126 
L 289.092544 141.433435 
L 296.097021 146.233274 
L 303.101498 150.643016 
L 310.105975 155.047418 
L 317.110452 159.940085 
L 324.114929 164.387506 
L 331.119405 169.32048 
L 338.123882 173.845055 
L 345.128359 178.805268 
L 352.132836 183.326054 
L 359.137313 187.900164 
L 366.14179 192.916636 
L 373.146267 197.516681 
L 380.150744 202.58123 
L 387.155221 207.194719 
L 394.159698 212.314403 
L 401.164175 216.952942 
" style="fill:none;stroke:#ffd700;stroke-linecap:round;stroke-width:1.5;"/>
   </g>
   <g id="line2d_14">
    <path clip-path="url(#pd2f0ccf398)" d="M 57.944805 17.188235 
L 64.949282 17.959816 
L 71.953759 20.158453 
L 78.958236 22.602839 
L 85.962713 25.585404 
L 92.96719 28.502485 
L 99.971667 31.867789 
L 106.976143 35.015024 
L 113.98062 38.267849 
L 120.985097 41.893676 
L 127.989574 45.342155 
L 134.994051 49.195731 
L 141.998528 52.787231 
L 149.003005 56.794489 
L 156.007482 60.520664 
L 163.011959 64.252558 
L 170.016436 68.385224 
L 177.020913 72.238252 
L 184.02539 76.511805 
L 191.029867 80.433767 
L 198.034344 84.802639 
L 205.038821 88.797242 
L 212.043298 92.849088 
L 219.047774 97.321469 
L 226.052251 101.433124 
L 233.056728 105.988555 
L 240.061205 110.157943 
L 247.065682 114.77917 
L 254.070159 118.976678 
L 261.074636 123.238345 
L 268.079113 127.989652 
L 275.08359 132.297792 
L 282.088067 137.081126 
L 289.092544 141.433435 
L 296.097021 146.233274 
L 303.101498 150.643016 
L 310.105975 155.047418 
L 317.110452 159.940085 
L 324.114929 164.387506 
L 331.119405 169.32048 
L 338.123882 173.845055 
L 345.128359 178.805268 
L 352.132836 183.326054 
L 359.137313 187.900164 
L 366.14179 192.916636 
L 373.146267 197.516681 
L 380.150744 202.58123 
L 387.155221 207.194719 
L 394.159698 212.314403 
L 401.164175 216.952942 
" style="fill:none;stroke:#9acd32;stroke-linecap:round;stroke-width:1.5;"/>
   </g>
   <g id="line2d_15">
    <path clip-path="url(#pd2f0ccf398)" d="M 57.944805 17.188235 
L 64.949282 17.959816 
L 71.953759 20.158453 
L 78.958236 22.602839 
L 85.962713 25.585404 
L 92.96719 28.502485 
L 99.971667 31.867789 
L 106.976143 35.015024 
L 113.98062 38.267849 
L 120.985097 41.893676 
L 127.989574 45.342155 
L 134.994051 49.195731 
L 141.998528 52.787231 
L 149.003005 56.794489 
L 156.007482 60.520664 
L 163.011959 64.252558 
L 170.016436 68.385224 
L 177.020913 72.238252 
L 184.02539 76.511805 
L 191.029867 80.433767 
L 198.034344 84.802639 
L 205.038821 88.797242 
L 212.043298 92.849088 
L 219.047774 97.321469 
L 226.052251 101.433124 
L 233.056728 105.988555 
L 240.061205 110.157943 
L 247.065682 114.77917 
L 254.070159 118.976678 
L 261.074636 123.238345 
L 268.079113 127.989652 
L 275.08359 132.297792 
L 282.088067 137.081126 
L 289.092544 141.433435 
L 296.097021 146.233274 
L 303.101498 150.643016 
L 310.105975 155.047418 
L 317.110452 159.940085 
L 324.114929 164.387506 
L 331.119405 169.32048 
L 338.123882 173.845055 
L 345.128359 178.805268 
L 352.132836 183.326054 
L 359.137313 187.900164 
L 366.14179 192.916636 
L 373.146267 197.516681 
L 380.150744 202.58123 
L 387.155221 207.194719 
L 394.159698 212.314403 
L 401.164175 216.952942 
" style="fill:none;stroke:#cd5c5c;stroke-linecap:round;stroke-width:1.5;"/>
   </g>
   <g id="line2d_16">
    <path clip-path="url(#pd2f0ccf398)" d="M 57.944805 17.188235 
L 64.949282 17.959816 
L 71.953759 20.158453 
L 78.958236 22.602839 
L 85.962713 25.585404 
L 92.96719 28.502485 
L 99.971667 31.867789 
L 106.976143 35.015024 
L 113.98062 38.267849 
L 120.985097 41.893676 
L 127.989574 45.342155 
L 134.994051 49.195731 
L 141.998528 52.787231 
L 149.003005 56.794489 
L 156.007482 60.520664 
L 163.011959 64.252558 
L 170.016436 68.385224 
L 177.020913 72.238252 
L 184.02539 76.511805 
L 191.029867 80.433767 
L 198.034344 84.802639 
L 205.038821 88.797242 
L 212.043298 92.849088 
L 219.047774 97.321469 
L 226.052251 101.433124 
L 233.056728 105.988555 
L 240.061205 110.157943 
L 247.065682 114.77917 
L 254.070159 118.976678 
L 261.074636 123.238345 
L 268.079113 127.989652 
L 275.08359 132.297792 
L 282.088067 137.081126 
L 289.092544 141.433435 
L 296.097021 146.233274 
L 303.101498 150.643016 
L 310.105975 155.047418 
L 317.110452 159.940085 
L 324.114929 164.387506 
L 331.119405 169.32048 
L 338.123882 173.845055 
L 345.128359 178.805268 
L 352.132836 183.326054 
L 359.137313 187.900164 
L 366.14179 192.916636 
L 373.146267 197.516681 
L 380.150744 202.58123 
L 387.155221 207.194719 
L 394.159698 212.314403 
L 401.164175 216.952942 
" style="fill:none;stroke:#800000;stroke-linecap:round;stroke-width:1.5;"/>
   </g>
   <g id="patch_3">
    <path d="M 57.600898 226.941178 
L 57.600898 7.2 
" style="fill:none;stroke:#262626;stroke-linecap:square;stroke-linejoin:miter;stroke-width:1.25;"/>
   </g>
   <g id="patch_4">
    <path d="M 401.508082 226.941178 
L 401.508082 7.2 
" style="fill:none;stroke:#262626;stroke-linecap:square;stroke-linejoin:miter;stroke-width:1.25;"/>
   </g>
   <g id="patch_5">
    <path d="M 57.600898 226.941178 
L 401.508082 226.941178 
" style="fill:none;stroke:#262626;stroke-linecap:square;stroke-linejoin:miter;stroke-width:1.25;"/>
   </g>
   <g id="patch_6">
    <path d="M 57.600898 7.2 
L 401.508082 7.2 
" style="fill:none;stroke:#262626;stroke-linecap:square;stroke-linejoin:miter;stroke-width:1.25;"/>
   </g>
   <g id="legend_1">
    <g id="patch_7">
     <path d="M 190.317704 68.253405 
L 394.804042 68.253405 
Q 396.719482 68.253405 396.719482 66.337965 
L 396.719482 13.90404 
Q 396.719482 11.9886 394.804042 11.9886 
L 190.317704 11.9886 
Q 188.402264 11.9886 188.402264 13.90404 
L 188.402264 66.337965 
Q 188.402264 68.253405 190.317704 68.253405 
z
" style="fill:#ffffff;opacity:0.8;stroke:#cccccc;stroke-linejoin:miter;"/>
    </g>
    <g id="line2d_17">
     <path d="M 192.233144 19.1715 
L 211.387544 19.1715 
" style="fill:none;stroke:#ffd700;stroke-linecap:round;stroke-width:1.5;"/>
    </g>
    <g id="line2d_18"/>
    <g id="text_15">
     <!-- LHS, $\boldsymbol{\Sigma}$ is not SPD, $\mathbf{X}$ is not orhtogonal -->
     <g style="fill:#262626;" transform="translate(219.049304 22.52352)scale(0.095772 -0.095772)">
      <defs>
       <path d="M 3469 1615 
L 3354 1615 
C 3302 983 3219 166 2125 166 
L 1530 166 
C 1274 166 1261 197 1261 414 
L 1261 3898 
C 1261 4129 1274 4192 1760 4192 
L 1901 4192 
L 1901 4352 
C 1638 4352 1331 4352 1069 4352 
C 870 4352 512 4352 326 4352 
L 326 4192 
C 768 4192 838 4192 838 3905 
L 838 452 
C 838 166 768 166 326 166 
L 326 0 
L 3315 0 
L 3469 1615 
z
" id="CMR17-4c" transform="scale(0.015625)"/>
       <path d="M 3590 3905 
C 3590 4192 3661 4192 4102 4192 
L 4102 4352 
C 3917 4352 3578 4352 3379 4352 
C 3181 4352 2842 4352 2656 4352 
L 2656 4192 
C 3098 4192 3168 4192 3168 3904 
L 3168 2341 
L 1261 2341 
L 1261 3904 
C 1261 4192 1331 4192 1773 4192 
L 1773 4352 
C 1587 4352 1248 4352 1050 4352 
C 851 4352 512 4352 326 4352 
L 326 4192 
C 768 4192 838 4192 838 3905 
L 838 447 
C 838 160 768 160 326 160 
L 326 0 
C 512 0 851 0 1050 0 
C 1248 0 1587 0 1773 0 
L 1773 160 
C 1331 160 1261 160 1261 446 
L 1261 2176 
L 3168 2176 
L 3168 446 
C 3168 160 3098 160 2656 160 
L 2656 0 
C 2842 0 3181 0 3379 0 
C 3578 0 3917 0 4102 0 
L 4102 160 
C 3661 160 3590 160 3590 447 
L 3590 3905 
z
" id="CMR17-48" transform="scale(0.015625)"/>
       <path d="M 2803 4290 
C 2803 4404 2797 4411 2758 4411 
C 2720 4411 2707 4385 2682 4328 
L 2490 3907 
C 2246 4257 1875 4416 1472 4416 
C 819 4416 294 3901 294 3253 
C 294 3056 339 2776 557 2510 
C 794 2218 1018 2167 1530 2033 
C 1722 1982 2042 1899 2106 1874 
C 2470 1722 2662 1341 2662 985 
C 2662 527 2336 38 1779 38 
C 1094 38 454 419 410 1311 
C 403 1413 397 1419 352 1419 
C 301 1419 294 1413 294 1285 
L 294 -1 
C 294 -115 301 -122 339 -122 
C 384 -122 397 -90 486 108 
C 493 127 493 140 614 381 
C 934 -39 1472 -128 1779 -128 
C 2477 -128 2970 451 2970 1124 
C 2970 1454 2848 1708 2778 1823 
C 2509 2230 2221 2306 1914 2382 
C 1869 2402 1856 2402 1498 2490 
C 1152 2579 1005 2624 845 2796 
C 666 2992 602 3196 602 3399 
C 602 3812 934 4263 1478 4263 
C 2157 4263 2579 3786 2675 2993 
C 2694 2878 2701 2872 2746 2872 
C 2803 2872 2803 2891 2803 2999 
L 2803 4290 
z
" id="CMR17-53" transform="scale(0.015625)"/>
       <path d="M 1011 102 
C 1024 45 1024 25 1024 -77 
C 1024 -463 896 -817 627 -1139 
C 595 -1170 595 -1183 595 -1197 
C 595 -1222 621 -1248 646 -1248 
C 685 -1248 1126 -799 1126 -87 
C 1126 124 1101 522 800 522 
C 659 522 538 427 538 261 
C 538 96 659 0 800 0 
C 877 0 960 32 1011 102 
z
" id="CMR17-2c" transform="scale(0.015625)"/>
       <path d="M 2944 2077 
C 2995 2129 3014 2141 3014 2186 
C 3014 2205 3014 2218 2963 2281 
L 1523 4096 
L 2886 4096 
C 3814 4096 4390 3937 4525 2861 
L 4794 2861 
L 4608 4371 
L 582 4371 
C 403 4371 397 4346 397 4166 
L 2246 1836 
L 467 204 
C 442 178 397 133 397 96 
C 397 0 499 0 582 0 
L 4608 0 
L 4794 1620 
L 4525 1620 
C 4397 517 3770 384 2861 384 
L 1094 384 
L 2944 2077 
z
" id="CMBX12-6" transform="scale(0.015625)"/>
       <path d="M 992 3909 
C 992 4049 877 4170 730 4170 
C 589 4170 467 4056 467 3909 
C 467 3769 582 3648 730 3648 
C 870 3648 992 3763 992 3909 
z
M 243 2706 
L 243 2541 
C 602 2541 653 2502 653 2197 
L 653 427 
C 653 184 627 153 218 153 
L 218 -13 
C 371 0 646 0 806 0 
C 960 0 1222 0 1370 -13 
L 1370 153 
C 992 153 979 191 979 420 
L 979 2776 
L 243 2706 
z
" id="CMR17-69" transform="scale(0.015625)"/>
       <path d="M 1978 2697 
C 1978 2813 1971 2819 1933 2819 
C 1907 2819 1901 2813 1824 2717 
C 1805 2691 1747 2626 1728 2601 
C 1523 2819 1235 2819 1126 2819 
C 416 2819 160 2447 160 2076 
C 160 1498 813 1365 998 1325 
C 1402 1243 1542 1217 1677 1101 
C 1760 1025 1901 884 1901 654 
C 1901 384 1747 38 1158 38 
C 602 38 403 460 288 1021 
C 269 1110 269 1117 218 1117 
C 166 1117 160 1110 160 983 
L 160 63 
C 160 -51 166 -58 205 -58 
C 237 -58 243 -51 275 0 
C 314 57 410 211 448 276 
C 576 103 800 -64 1158 -64 
C 1792 -64 2131 283 2131 784 
C 2131 1112 1958 1285 1875 1362 
C 1683 1561 1459 1606 1190 1657 
C 838 1735 390 1825 390 2217 
C 390 2383 480 2737 1126 2737 
C 1811 2737 1850 2094 1862 1888 
C 1869 1856 1901 1849 1920 1849 
C 1978 1849 1978 1869 1978 1978 
L 1978 2697 
z
" id="CMR17-73" transform="scale(0.015625)"/>
       <path d="M 2656 1933 
C 2656 2259 2592 2790 1837 2790 
C 1331 2790 1069 2400 973 2144 
L 966 2144 
L 966 2790 
L 211 2720 
L 211 2554 
C 589 2554 646 2515 646 2208 
L 646 428 
C 646 184 621 153 211 153 
L 211 -13 
C 365 0 646 0 813 0 
C 979 0 1267 0 1421 -13 
L 1421 153 
C 1011 153 986 178 986 428 
L 986 1658 
C 986 2247 1344 2688 1792 2688 
C 2266 2688 2317 2266 2317 1958 
L 2317 428 
C 2317 184 2291 153 1882 153 
L 1882 -13 
C 2035 0 2317 0 2483 0 
C 2650 0 2938 0 3091 -13 
L 3091 153 
C 2682 153 2656 178 2656 428 
L 2656 1933 
z
" id="CMR17-6e" transform="scale(0.015625)"/>
       <path d="M 1267 2042 
L 2291 2042 
C 3117 2042 3718 2578 3718 3184 
C 3718 3791 3130 4352 2291 4352 
L 333 4352 
L 333 4186 
C 774 4186 845 4186 845 3899 
L 845 446 
C 845 160 774 160 333 160 
L 333 0 
C 518 0 858 0 1056 0 
C 1254 0 1594 0 1779 0 
L 1779 160 
C 1338 160 1267 160 1267 446 
L 1267 2042 
z
M 1254 2176 
L 1254 3938 
C 1254 4155 1267 4186 1523 4186 
L 2170 4186 
C 2995 4186 3232 3714 3232 3184 
C 3232 2604 2950 2176 2170 2176 
L 1254 2176 
z
" id="CMR17-50" transform="scale(0.015625)"/>
       <path d="M 333 4352 
L 333 4186 
C 774 4186 845 4186 845 3900 
L 845 452 
C 845 166 774 166 333 166 
L 333 0 
L 2368 0 
C 3398 0 4224 943 4224 2141 
C 4224 3346 3411 4352 2368 4352 
L 333 4352 
z
M 1523 166 
C 1267 166 1254 197 1254 414 
L 1254 3938 
C 1254 4155 1267 4186 1523 4186 
L 2240 4186 
C 2771 4186 3750 3874 3750 2141 
C 3750 1242 3488 879 3366 707 
C 3213 510 2848 166 2240 166 
L 1523 166 
z
" id="CMR17-44" transform="scale(0.015625)"/>
       <path d="M 3008 2514 
L 4090 3957 
C 4154 4040 4179 4053 4390 4072 
C 4557 4091 4582 4091 4768 4091 
L 4934 4091 
L 4934 4365 
C 4787 4352 4275 4352 4096 4352 
C 3898 4352 3341 4352 3181 4365 
L 3181 4091 
C 3258 4091 3571 4091 3763 4014 
L 2829 2763 
L 1875 4091 
L 2406 4091 
L 2406 4352 
C 2176 4352 1574 4352 1312 4352 
C 1094 4352 461 4352 288 4365 
L 288 4091 
L 909 4091 
L 2330 2105 
L 1043 388 
C 986 311 966 292 742 272 
C 582 260 550 260 371 260 
L 198 260 
L 198 -13 
C 346 0 864 0 1043 0 
C 1242 0 1792 0 1952 -13 
L 1952 260 
C 1882 260 1555 260 1370 337 
L 2509 1856 
L 3661 260 
L 3130 260 
L 3130 0 
C 3334 0 3974 0 4218 0 
C 4422 0 5082 0 5242 -13 
L 5242 260 
L 4627 260 
L 3008 2514 
z
" id="CMBX12-58" transform="scale(0.015625)"/>
       <path d="M 960 1497 
C 960 2112 1222 2688 1702 2688 
C 1747 2688 1792 2682 1837 2662 
C 1837 2662 1696 2617 1696 2452 
C 1696 2298 1818 2234 1914 2234 
C 1990 2234 2131 2279 2131 2458 
C 2131 2663 1926 2790 1709 2790 
C 1222 2790 1011 2317 947 2093 
L 941 2093 
L 941 2790 
L 198 2720 
L 198 2554 
C 576 2554 634 2515 634 2208 
L 634 428 
C 634 184 608 153 198 153 
L 198 -13 
C 352 0 646 0 813 0 
C 998 0 1325 0 1498 -13 
L 1498 153 
C 1037 153 960 153 960 440 
L 960 1497 
z
" id="CMR17-72" transform="scale(0.015625)"/>
       <path d="M 2656 1933 
C 2656 2259 2592 2790 1837 2790 
C 1312 2790 1056 2368 979 2157 
L 973 2157 
L 973 4396 
L 211 4326 
L 211 4160 
C 589 4160 646 4122 646 3817 
L 646 426 
C 646 184 621 153 211 153 
L 211 -13 
C 365 0 646 0 813 0 
C 979 0 1267 0 1421 -13 
L 1421 153 
C 1011 153 986 178 986 428 
L 986 1658 
C 986 2247 1344 2688 1792 2688 
C 2266 2688 2317 2266 2317 1958 
L 2317 428 
C 2317 184 2291 153 1882 153 
L 1882 -13 
C 2035 0 2317 0 2483 0 
C 2650 0 2938 0 3091 -13 
L 3091 153 
C 2682 153 2656 178 2656 428 
L 2656 1933 
z
" id="CMR17-68" transform="scale(0.015625)"/>
       <path d="M 2304 1653 
C 2304 2072 2304 2294 2035 2543 
C 1798 2752 1523 2816 1306 2816 
C 800 2816 435 2407 435 1971 
C 435 1728 627 1728 666 1728 
C 749 1728 896 1778 896 1954 
C 896 2112 774 2181 666 2181 
C 640 2181 608 2174 589 2168 
C 723 2592 1069 2714 1293 2714 
C 1613 2714 1965 2429 1965 1885 
L 1965 1600 
C 1587 1600 1133 1549 774 1357 
C 371 1133 256 813 256 570 
C 256 77 832 -64 1171 -64 
C 1523 -64 1850 139 1990 511 
C 2003 233 2182 -18 2464 -18 
C 2598 -18 2938 70 2938 567 
L 2938 920 
L 2822 920 
L 2822 562 
C 2822 178 2650 128 2566 128 
C 2304 128 2304 458 2304 738 
L 2304 1653 
z
M 1965 870 
C 1965 317 1568 38 1216 38 
C 896 38 646 275 646 570 
C 646 761 730 1100 1101 1305 
C 1408 1478 1760 1504 1965 1504 
L 1965 870 
z
" id="CMR17-61" transform="scale(0.015625)"/>
      </defs>
      <use transform="scale(0.996264)" xlink:href="#CMR17-4c"/>
      <use transform="translate(57.381408 0)scale(0.996264)" xlink:href="#CMR17-48"/>
      <use transform="translate(126.453838 0)scale(0.996264)" xlink:href="#CMR17-53"/>
      <use transform="translate(177.349207 0)scale(0.996264)" xlink:href="#CMR17-2c"/>
      <use transform="translate(232.296232 0)scale(0.996264)" xlink:href="#CMBX12-6"/>
      <use transform="translate(343.318649 0)scale(0.996264)" xlink:href="#CMR17-69"/>
      <use transform="translate(368.189708 0)scale(0.996264)" xlink:href="#CMR17-73"/>
      <use transform="translate(434.067012 0)scale(0.996264)" xlink:href="#CMR17-6e"/>
      <use transform="translate(484.962382 0)scale(0.996264)" xlink:href="#CMR17-6f"/>
      <use transform="translate(530.652859 0)scale(0.996264)" xlink:href="#CMR17-74"/>
      <use transform="translate(596.009593 0)scale(0.996264)" xlink:href="#CMR17-53"/>
      <use transform="translate(646.904963 0)scale(0.996264)" xlink:href="#CMR17-50"/>
      <use transform="translate(709.491263 0)scale(0.996264)" xlink:href="#CMR17-44"/>
      <use transform="translate(779.884819 0)scale(0.996264)" xlink:href="#CMR17-2c"/>
      <use transform="translate(834.831844 0)scale(0.996264)" xlink:href="#CMBX12-58"/>
      <use transform="translate(949.544205 0)scale(0.996264)" xlink:href="#CMR17-69"/>
      <use transform="translate(974.415263 0)scale(0.996264)" xlink:href="#CMR17-73"/>
      <use transform="translate(1040.292567 0)scale(0.996264)" xlink:href="#CMR17-6e"/>
      <use transform="translate(1091.187937 0)scale(0.996264)" xlink:href="#CMR17-6f"/>
      <use transform="translate(1136.878414 0)scale(0.996264)" xlink:href="#CMR17-74"/>
      <use transform="translate(1202.235148 0)scale(0.996264)" xlink:href="#CMR17-6f"/>
      <use transform="translate(1247.925626 0)scale(0.996264)" xlink:href="#CMR17-72"/>
      <use transform="translate(1283.206393 0)scale(0.996264)" xlink:href="#CMR17-68"/>
      <use transform="translate(1331.499309 0)scale(0.996264)" xlink:href="#CMR17-74"/>
      <use transform="translate(1366.780077 0)scale(0.996264)" xlink:href="#CMR17-6f"/>
      <use transform="translate(1412.470554 0)scale(0.996264)" xlink:href="#CMR17-67"/>
      <use transform="translate(1458.161031 0)scale(0.996264)" xlink:href="#CMR17-6f"/>
      <use transform="translate(1503.851508 0)scale(0.996264)" xlink:href="#CMR17-6e"/>
      <use transform="translate(1554.746878 0)scale(0.996264)" xlink:href="#CMR17-61"/>
      <use transform="translate(1600.437355 0)scale(0.996264)" xlink:href="#CMR17-6c"/>
     </g>
    </g>
    <g id="line2d_19">
     <path d="M 192.233144 32.519411 
L 211.387544 32.519411 
" style="fill:none;stroke:#9acd32;stroke-linecap:round;stroke-width:1.5;"/>
    </g>
    <g id="line2d_20"/>
    <g id="text_16">
     <!-- LHS, $\boldsymbol{\Sigma}$ is SPD, $\mathbf{X}$ is not orhtogonal -->
     <g style="fill:#262626;" transform="translate(219.049304 35.871431)scale(0.095772 -0.095772)">
      <use transform="scale(0.996264)" xlink:href="#CMR17-4c"/>
      <use transform="translate(57.381408 0)scale(0.996264)" xlink:href="#CMR17-48"/>
      <use transform="translate(126.453838 0)scale(0.996264)" xlink:href="#CMR17-53"/>
      <use transform="translate(177.349207 0)scale(0.996264)" xlink:href="#CMR17-2c"/>
      <use transform="translate(232.296232 0)scale(0.996264)" xlink:href="#CMBX12-6"/>
      <use transform="translate(343.318649 0)scale(0.996264)" xlink:href="#CMR17-69"/>
      <use transform="translate(368.189708 0)scale(0.996264)" xlink:href="#CMR17-73"/>
      <use transform="translate(434.067012 0)scale(0.996264)" xlink:href="#CMR17-53"/>
      <use transform="translate(484.962382 0)scale(0.996264)" xlink:href="#CMR17-50"/>
      <use transform="translate(547.548682 0)scale(0.996264)" xlink:href="#CMR17-44"/>
      <use transform="translate(617.942238 0)scale(0.996264)" xlink:href="#CMR17-2c"/>
      <use transform="translate(672.889263 0)scale(0.996264)" xlink:href="#CMBX12-58"/>
      <use transform="translate(787.601624 0)scale(0.996264)" xlink:href="#CMR17-69"/>
      <use transform="translate(812.472682 0)scale(0.996264)" xlink:href="#CMR17-73"/>
      <use transform="translate(878.349986 0)scale(0.996264)" xlink:href="#CMR17-6e"/>
      <use transform="translate(929.245356 0)scale(0.996264)" xlink:href="#CMR17-6f"/>
      <use transform="translate(974.935833 0)scale(0.996264)" xlink:href="#CMR17-74"/>
      <use transform="translate(1040.292567 0)scale(0.996264)" xlink:href="#CMR17-6f"/>
      <use transform="translate(1085.983045 0)scale(0.996264)" xlink:href="#CMR17-72"/>
      <use transform="translate(1121.263812 0)scale(0.996264)" xlink:href="#CMR17-68"/>
      <use transform="translate(1169.556728 0)scale(0.996264)" xlink:href="#CMR17-74"/>
      <use transform="translate(1204.837496 0)scale(0.996264)" xlink:href="#CMR17-6f"/>
      <use transform="translate(1250.527973 0)scale(0.996264)" xlink:href="#CMR17-67"/>
      <use transform="translate(1296.21845 0)scale(0.996264)" xlink:href="#CMR17-6f"/>
      <use transform="translate(1341.908927 0)scale(0.996264)" xlink:href="#CMR17-6e"/>
      <use transform="translate(1392.804297 0)scale(0.996264)" xlink:href="#CMR17-61"/>
      <use transform="translate(1438.494774 0)scale(0.996264)" xlink:href="#CMR17-6c"/>
     </g>
    </g>
    <g id="line2d_21">
     <path d="M 192.233144 45.867322 
L 211.387544 45.867322 
" style="fill:none;stroke:#cd5c5c;stroke-linecap:round;stroke-width:1.5;"/>
    </g>
    <g id="line2d_22"/>
    <g id="text_17">
     <!-- RHS, $\mathbf{X}$ is not orthogonal -->
     <g style="fill:#262626;" transform="translate(219.049304 49.219342)scale(0.095772 -0.095772)">
      <defs>
       <path d="M 2509 2146 
C 3117 2268 3629 2676 3629 3186 
C 3629 3785 2950 4326 2054 4326 
L 333 4326 
L 333 4160 
C 774 4160 845 4160 845 3873 
L 845 415 
C 845 128 774 128 333 128 
L 333 -26 
C 518 -26 851 -26 1050 -26 
C 1248 -26 1581 -26 1766 -26 
L 1766 128 
C 1325 128 1254 128 1254 417 
L 1254 2112 
L 2003 2112 
C 2368 2112 2573 1964 2662 1881 
C 2918 1632 2918 1459 2918 1024 
C 2918 595 2918 377 3110 160 
C 3354 -102 3680 -128 3821 -128 
C 4294 -128 4365 396 4365 503 
C 4365 540 4365 585 4307 585 
C 4256 585 4250 547 4250 522 
C 4218 112 4032 -26 3834 -26 
C 3482 -26 3443 375 3405 764 
C 3386 898 3373 993 3360 1133 
C 3322 1452 3270 1917 2509 2146 
z
M 1984 2214 
L 1254 2214 
L 1254 3913 
C 1254 4129 1267 4160 1523 4160 
L 1990 4160 
C 2522 4160 3142 3977 3142 3190 
C 3142 2372 2464 2214 1984 2214 
z
" id="CMR17-52" transform="scale(0.015625)"/>
      </defs>
      <use transform="scale(0.996264)" xlink:href="#CMR17-52"/>
      <use transform="translate(67.791102 0)scale(0.996264)" xlink:href="#CMR17-48"/>
      <use transform="translate(136.863532 0)scale(0.996264)" xlink:href="#CMR17-53"/>
      <use transform="translate(187.758902 0)scale(0.996264)" xlink:href="#CMR17-2c"/>
      <use transform="translate(242.705926 0)scale(0.996264)" xlink:href="#CMBX12-58"/>
      <use transform="translate(357.418287 0)scale(0.996264)" xlink:href="#CMR17-69"/>
      <use transform="translate(382.289346 0)scale(0.996264)" xlink:href="#CMR17-73"/>
      <use transform="translate(448.16665 0)scale(0.996264)" xlink:href="#CMR17-6e"/>
      <use transform="translate(499.06202 0)scale(0.996264)" xlink:href="#CMR17-6f"/>
      <use transform="translate(544.752497 0)scale(0.996264)" xlink:href="#CMR17-74"/>
      <use transform="translate(610.109231 0)scale(0.996264)" xlink:href="#CMR17-6f"/>
      <use transform="translate(655.799708 0)scale(0.996264)" xlink:href="#CMR17-72"/>
      <use transform="translate(691.080476 0)scale(0.996264)" xlink:href="#CMR17-74"/>
      <use transform="translate(726.361244 0)scale(0.996264)" xlink:href="#CMR17-68"/>
      <use transform="translate(777.256613 0)scale(0.996264)" xlink:href="#CMR17-6f"/>
      <use transform="translate(822.947091 0)scale(0.996264)" xlink:href="#CMR17-67"/>
      <use transform="translate(868.637568 0)scale(0.996264)" xlink:href="#CMR17-6f"/>
      <use transform="translate(914.328045 0)scale(0.996264)" xlink:href="#CMR17-6e"/>
      <use transform="translate(965.223415 0)scale(0.996264)" xlink:href="#CMR17-61"/>
      <use transform="translate(1010.913892 0)scale(0.996264)" xlink:href="#CMR17-6c"/>
     </g>
    </g>
    <g id="line2d_23">
     <path d="M 192.233144 59.215233 
L 211.387544 59.215233 
" style="fill:none;stroke:#800000;stroke-linecap:round;stroke-width:1.5;"/>
    </g>
    <g id="line2d_24"/>
    <g id="text_18">
     <!-- RHS, $\mathbf{X}$ is orthogonal -->
     <g style="fill:#262626;" transform="translate(219.049304 62.567253)scale(0.095772 -0.095772)">
      <use transform="scale(0.996264)" xlink:href="#CMR17-52"/>
      <use transform="translate(67.791102 0)scale(0.996264)" xlink:href="#CMR17-48"/>
      <use transform="translate(136.863532 0)scale(0.996264)" xlink:href="#CMR17-53"/>
      <use transform="translate(187.758902 0)scale(0.996264)" xlink:href="#CMR17-2c"/>
      <use transform="translate(242.705926 0)scale(0.996264)" xlink:href="#CMBX12-58"/>
      <use transform="translate(357.418287 0)scale(0.996264)" xlink:href="#CMR17-69"/>
      <use transform="translate(382.289346 0)scale(0.996264)" xlink:href="#CMR17-73"/>
      <use transform="translate(448.16665 0)scale(0.996264)" xlink:href="#CMR17-6f"/>
      <use transform="translate(493.857127 0)scale(0.996264)" xlink:href="#CMR17-72"/>
      <use transform="translate(529.137895 0)scale(0.996264)" xlink:href="#CMR17-74"/>
      <use transform="translate(564.418663 0)scale(0.996264)" xlink:href="#CMR17-68"/>
      <use transform="translate(615.314032 0)scale(0.996264)" xlink:href="#CMR17-6f"/>
      <use transform="translate(661.004509 0)scale(0.996264)" xlink:href="#CMR17-67"/>
      <use transform="translate(706.694987 0)scale(0.996264)" xlink:href="#CMR17-6f"/>
      <use transform="translate(752.385464 0)scale(0.996264)" xlink:href="#CMR17-6e"/>
      <use transform="translate(803.280833 0)scale(0.996264)" xlink:href="#CMR17-61"/>
      <use transform="translate(848.971311 0)scale(0.996264)" xlink:href="#CMR17-6c"/>
     </g>
    </g>
   </g>
  </g>
 </g>
 <defs>
  <clipPath id="pd2f0ccf398">
   <rect height="219.741178" width="343.907184" x="57.600898" y="7.2"/>
  </clipPath>
 </defs>
</svg>
