<?xml version="1.0" encoding="utf-8" standalone="no"?>
<!DOCTYPE svg PUBLIC "-//W3C//DTD SVG 1.1//EN"
  "http://www.w3.org/Graphics/SVG/1.1/DTD/svg11.dtd">
<svg height="315.792pt" version="1.1" viewBox="0 0 398.592 315.792" width="398.592pt" xmlns="http://www.w3.org/2000/svg" xmlns:xlink="http://www.w3.org/1999/xlink">
 <metadata>
  <rdf:RDF xmlns:cc="http://creativecommons.org/ns#" xmlns:dc="http://purl.org/dc/elements/1.1/" xmlns:rdf="http://www.w3.org/1999/02/22-rdf-syntax-ns#">
   <cc:Work>
    <dc:type rdf:resource="http://purl.org/dc/dcmitype/StillImage"/>
    <dc:date>2022-01-26T16:12:59.452350</dc:date>
    <dc:format>image/svg+xml</dc:format>
    <dc:creator>
     <cc:Agent>
      <dc:title>Matplotlib v3.4.2, https://matplotlib.org/</dc:title>
     </cc:Agent>
    </dc:creator>
   </cc:Work>
  </rdf:RDF>
 </metadata>
 <defs>
  <style type="text/css">*{stroke-linecap:butt;stroke-linejoin:round;}</style>
 </defs>
 <g id="figure_1">
  <g id="patch_1">
   <path d="M -0 315.792 
L 398.592 315.792 
L 398.592 0 
L -0 0 
z
" style="fill:none;"/>
  </g>
  <g id="axes_1">
   <g id="patch_2">
    <path d="M 52.958501 270.141178 
L 383.508082 270.141178 
L 383.508082 22.74751 
L 52.958501 22.74751 
z
" style="fill:none;"/>
   </g>
   <g id="matplotlib.axis_1">
    <g id="xtick_1">
     <g id="line2d_1">
      <defs>
       <path d="M 0 0 
L 0 6 
" id="md7deccc340" style="stroke:#262626;stroke-width:1.25;"/>
      </defs>
      <g>
       <use style="fill:#262626;stroke:#262626;stroke-width:1.25;" x="52.958501" xlink:href="#md7deccc340" y="270.141178"/>
      </g>
     </g>
     <g id="text_1">
      <!-- $\mathdefault{0.0}$ -->
      <g style="fill:#262626;" transform="translate(45.074583 288.393057)scale(0.1265 -0.1265)">
       <defs>
        <path d="M 2688 2025 
C 2688 2416 2682 3080 2413 3591 
C 2176 4039 1798 4198 1466 4198 
C 1158 4198 768 4058 525 3597 
C 269 3118 243 2524 243 2025 
C 243 1661 250 1106 448 619 
C 723 -39 1216 -128 1466 -128 
C 1760 -128 2208 -7 2470 600 
C 2662 1042 2688 1559 2688 2025 
z
M 1466 -26 
C 1056 -26 813 325 723 812 
C 653 1188 653 1738 653 2096 
C 653 2588 653 2997 736 3387 
C 858 3929 1216 4096 1466 4096 
C 1728 4096 2067 3923 2189 3400 
C 2272 3036 2278 2607 2278 2096 
C 2278 1680 2278 1169 2202 792 
C 2067 95 1690 -26 1466 -26 
z
" id="CMR17-30" transform="scale(0.015625)"/>
        <path d="M 1178 307 
C 1178 492 1024 619 870 619 
C 685 619 557 466 557 313 
C 557 128 710 0 864 0 
C 1050 0 1178 153 1178 307 
z
" id="CMMI12-3a" transform="scale(0.015625)"/>
       </defs>
       <use transform="scale(0.996264)" xlink:href="#CMR17-30"/>
       <use transform="translate(45.690477 0)scale(0.996264)" xlink:href="#CMMI12-3a"/>
       <use transform="translate(72.787654 0)scale(0.996264)" xlink:href="#CMR17-30"/>
      </g>
     </g>
    </g>
    <g id="xtick_2">
     <g id="line2d_2">
      <g>
       <use style="fill:#262626;stroke:#262626;stroke-width:1.25;" x="119.068418" xlink:href="#md7deccc340" y="270.141178"/>
      </g>
     </g>
     <g id="text_2">
      <!-- $\mathdefault{0.2}$ -->
      <g style="fill:#262626;" transform="translate(111.1845 288.393057)scale(0.1265 -0.1265)">
       <defs>
        <path d="M 2669 989 
L 2554 989 
C 2490 536 2438 459 2413 420 
C 2381 369 1920 369 1830 369 
L 602 369 
C 832 619 1280 1072 1824 1597 
C 2214 1967 2669 2402 2669 3035 
C 2669 3790 2067 4224 1395 4224 
C 691 4224 262 3604 262 3030 
C 262 2780 448 2748 525 2748 
C 589 2748 781 2787 781 3010 
C 781 3207 614 3264 525 3264 
C 486 3264 448 3258 422 3245 
C 544 3790 915 4058 1306 4058 
C 1862 4058 2227 3617 2227 3035 
C 2227 2479 1901 2000 1536 1584 
L 262 146 
L 262 0 
L 2515 0 
L 2669 989 
z
" id="CMR17-32" transform="scale(0.015625)"/>
       </defs>
       <use transform="scale(0.996264)" xlink:href="#CMR17-30"/>
       <use transform="translate(45.690477 0)scale(0.996264)" xlink:href="#CMMI12-3a"/>
       <use transform="translate(72.787654 0)scale(0.996264)" xlink:href="#CMR17-32"/>
      </g>
     </g>
    </g>
    <g id="xtick_3">
     <g id="line2d_3">
      <g>
       <use style="fill:#262626;stroke:#262626;stroke-width:1.25;" x="185.178334" xlink:href="#md7deccc340" y="270.141178"/>
      </g>
     </g>
     <g id="text_3">
      <!-- $\mathdefault{0.4}$ -->
      <g style="fill:#262626;" transform="translate(177.294416 288.393057)scale(0.1265 -0.1265)">
       <defs>
        <path d="M 2150 4122 
C 2150 4256 2144 4256 2029 4256 
L 128 1254 
L 128 1088 
L 1779 1088 
L 1779 457 
C 1779 224 1766 160 1318 160 
L 1197 160 
L 1197 0 
C 1402 0 1747 0 1965 0 
C 2182 0 2528 0 2733 0 
L 2733 160 
L 2611 160 
C 2163 160 2150 224 2150 457 
L 2150 1088 
L 2803 1088 
L 2803 1254 
L 2150 1254 
L 2150 4122 
z
M 1798 3703 
L 1798 1254 
L 256 1254 
L 1798 3703 
z
" id="CMR17-34" transform="scale(0.015625)"/>
       </defs>
       <use transform="scale(0.996264)" xlink:href="#CMR17-30"/>
       <use transform="translate(45.690477 0)scale(0.996264)" xlink:href="#CMMI12-3a"/>
       <use transform="translate(72.787654 0)scale(0.996264)" xlink:href="#CMR17-34"/>
      </g>
     </g>
    </g>
    <g id="xtick_4">
     <g id="line2d_4">
      <g>
       <use style="fill:#262626;stroke:#262626;stroke-width:1.25;" x="251.28825" xlink:href="#md7deccc340" y="270.141178"/>
      </g>
     </g>
     <g id="text_4">
      <!-- $\mathdefault{0.6}$ -->
      <g style="fill:#262626;" transform="translate(243.404332 288.393057)scale(0.1265 -0.1265)">
       <defs>
        <path d="M 678 2176 
C 678 3690 1395 4032 1811 4032 
C 1946 4032 2272 4009 2400 3776 
C 2298 3776 2106 3776 2106 3553 
C 2106 3381 2246 3323 2336 3323 
C 2394 3323 2566 3348 2566 3560 
C 2566 3954 2246 4179 1805 4179 
C 1043 4179 243 3390 243 1984 
C 243 253 966 -128 1478 -128 
C 2099 -128 2688 427 2688 1283 
C 2688 2081 2170 2662 1517 2662 
C 1126 2662 838 2407 678 1960 
L 678 2176 
z
M 1478 25 
C 691 25 691 1200 691 1436 
C 691 1896 909 2560 1504 2560 
C 1613 2560 1926 2560 2138 2120 
C 2253 1870 2253 1609 2253 1289 
C 2253 944 2253 690 2118 434 
C 1978 171 1773 25 1478 25 
z
" id="CMR17-36" transform="scale(0.015625)"/>
       </defs>
       <use transform="scale(0.996264)" xlink:href="#CMR17-30"/>
       <use transform="translate(45.690477 0)scale(0.996264)" xlink:href="#CMMI12-3a"/>
       <use transform="translate(72.787654 0)scale(0.996264)" xlink:href="#CMR17-36"/>
      </g>
     </g>
    </g>
    <g id="xtick_5">
     <g id="line2d_5">
      <g>
       <use style="fill:#262626;stroke:#262626;stroke-width:1.25;" x="317.398166" xlink:href="#md7deccc340" y="270.141178"/>
      </g>
     </g>
     <g id="text_5">
      <!-- $\mathdefault{0.8}$ -->
      <g style="fill:#262626;" transform="translate(309.514248 288.393057)scale(0.1265 -0.1265)">
       <defs>
        <path d="M 1741 2264 
C 2144 2467 2554 2773 2554 3263 
C 2554 3841 1990 4179 1472 4179 
C 890 4179 378 3759 378 3180 
C 378 3021 416 2747 666 2505 
C 730 2442 998 2251 1171 2130 
C 883 1983 211 1634 211 934 
C 211 279 838 -128 1459 -128 
C 2144 -128 2720 362 2720 1010 
C 2720 1590 2330 1857 2074 2029 
L 1741 2264 
z
M 902 2822 
C 851 2854 595 3051 595 3351 
C 595 3739 998 4032 1459 4032 
C 1965 4032 2336 3676 2336 3262 
C 2336 2669 1670 2331 1638 2331 
C 1632 2331 1626 2331 1574 2370 
L 902 2822 
z
M 2080 1519 
C 2176 1449 2483 1240 2483 851 
C 2483 381 2010 25 1472 25 
C 890 25 448 438 448 940 
C 448 1443 838 1862 1280 2060 
L 2080 1519 
z
" id="CMR17-38" transform="scale(0.015625)"/>
       </defs>
       <use transform="scale(0.996264)" xlink:href="#CMR17-30"/>
       <use transform="translate(45.690477 0)scale(0.996264)" xlink:href="#CMMI12-3a"/>
       <use transform="translate(72.787654 0)scale(0.996264)" xlink:href="#CMR17-38"/>
      </g>
     </g>
    </g>
    <g id="xtick_6">
     <g id="line2d_6">
      <g>
       <use style="fill:#262626;stroke:#262626;stroke-width:1.25;" x="383.508082" xlink:href="#md7deccc340" y="270.141178"/>
      </g>
     </g>
     <g id="text_6">
      <!-- $\mathdefault{1.0}$ -->
      <g style="fill:#262626;" transform="translate(375.624164 288.393057)scale(0.1265 -0.1265)">
       <defs>
        <path d="M 1702 4058 
C 1702 4192 1696 4192 1606 4192 
C 1357 3916 979 3827 621 3827 
C 602 3827 570 3827 563 3808 
C 557 3795 557 3782 557 3648 
C 755 3648 1088 3686 1344 3839 
L 1344 461 
C 1344 236 1331 160 781 160 
L 589 160 
L 589 0 
C 896 0 1216 0 1523 0 
C 1830 0 2150 0 2458 0 
L 2458 160 
L 2266 160 
C 1715 160 1702 230 1702 458 
L 1702 4058 
z
" id="CMR17-31" transform="scale(0.015625)"/>
       </defs>
       <use transform="scale(0.996264)" xlink:href="#CMR17-31"/>
       <use transform="translate(45.690477 0)scale(0.996264)" xlink:href="#CMMI12-3a"/>
       <use transform="translate(72.787654 0)scale(0.996264)" xlink:href="#CMR17-30"/>
      </g>
     </g>
    </g>
    <g id="text_7">
     <!-- $m/n$ -->
     <g style="fill:#262626;" transform="translate(204.962379 305.154892)scale(0.138 -0.138)">
      <defs>
       <path d="M 1318 1871 
C 1331 1910 1491 2229 1728 2433 
C 1894 2586 2112 2689 2362 2689 
C 2618 2689 2707 2497 2707 2242 
C 2707 2203 2707 2076 2630 1775 
L 2470 1118 
C 2419 926 2298 453 2285 383 
C 2259 287 2221 121 2221 96 
C 2221 6 2291 -64 2387 -64 
C 2579 -64 2611 83 2669 313 
L 3053 1839 
C 3066 1890 3398 2689 4102 2689 
C 4358 2689 4448 2497 4448 2242 
C 4448 1884 4198 1188 4058 805 
C 4000 651 3968 568 3968 453 
C 3968 166 4166 -64 4474 -64 
C 5069 -64 5293 875 5293 913 
C 5293 945 5267 971 5229 971 
C 5171 971 5165 952 5133 843 
C 4986 332 4749 64 4493 64 
C 4429 64 4326 64 4326 269 
C 4326 436 4403 640 4429 710 
C 4544 1018 4832 1773 4832 2145 
C 4832 2528 4608 2816 4122 2816 
C 3693 2816 3347 2574 3091 2197 
C 3072 2542 2861 2816 2381 2816 
C 1811 2816 1510 2415 1395 2255 
C 1376 2618 1114 2816 832 2816 
C 646 2816 499 2727 378 2484 
C 262 2254 173 1865 173 1839 
C 173 1814 198 1782 243 1782 
C 294 1782 301 1788 339 1935 
C 435 2312 557 2689 813 2689 
C 960 2689 1011 2586 1011 2395 
C 1011 2254 947 2005 902 1807 
L 723 1118 
C 698 996 627 709 595 594 
C 550 428 480 128 480 96 
C 480 6 550 -64 646 -64 
C 723 -64 813 -26 864 70 
C 877 102 934 326 966 453 
L 1107 1028 
L 1318 1871 
z
" id="CMMI12-6d" transform="scale(0.015625)"/>
       <path d="M 2746 4562 
C 2746 4569 2784 4666 2784 4678 
C 2784 4755 2720 4800 2669 4800 
C 2637 4800 2579 4800 2528 4659 
L 384 -1363 
C 384 -1370 346 -1465 346 -1478 
C 346 -1555 410 -1600 461 -1600 
C 499 -1600 557 -1593 602 -1459 
L 2746 4562 
z
" id="CMMI12-3d" transform="scale(0.015625)"/>
       <path d="M 1318 1871 
C 1331 1910 1491 2229 1728 2433 
C 1894 2586 2112 2689 2362 2689 
C 2618 2689 2707 2497 2707 2242 
C 2707 1878 2445 1150 2317 805 
C 2259 651 2227 568 2227 453 
C 2227 166 2426 -64 2733 -64 
C 3328 -64 3552 875 3552 913 
C 3552 945 3526 971 3488 971 
C 3430 971 3424 952 3392 843 
C 3245 319 3002 64 2752 64 
C 2688 64 2586 64 2586 269 
C 2586 429 2656 621 2694 710 
C 2822 1063 3091 1780 3091 2145 
C 3091 2528 2867 2816 2381 2816 
C 1811 2816 1510 2415 1395 2255 
C 1376 2618 1114 2816 832 2816 
C 627 2816 486 2695 378 2478 
C 262 2248 173 1865 173 1839 
C 173 1814 198 1782 243 1782 
C 294 1782 301 1788 339 1935 
C 442 2325 557 2689 813 2689 
C 960 2689 1011 2586 1011 2395 
C 1011 2254 947 2005 902 1807 
L 723 1118 
C 698 996 627 709 595 594 
C 550 428 480 128 480 96 
C 480 6 550 -64 646 -64 
C 723 -64 813 -26 864 70 
C 877 102 934 326 966 453 
L 1107 1028 
L 1318 1871 
z
" id="CMMI12-6e" transform="scale(0.015625)"/>
      </defs>
      <use transform="scale(0.996264)" xlink:href="#CMMI12-6d"/>
      <use transform="translate(85.327224 0)scale(0.996264)" xlink:href="#CMMI12-3d"/>
      <use transform="translate(134.102143 0)scale(0.996264)" xlink:href="#CMMI12-6e"/>
     </g>
    </g>
   </g>
   <g id="matplotlib.axis_2">
    <g id="ytick_1">
     <g id="line2d_7">
      <path clip-path="url(#pda7638bd55)" d="M 52.958501 270.141178 
L 383.508082 270.141178 
" style="fill:none;stroke:#cccccc;stroke-linecap:round;"/>
     </g>
     <g id="line2d_8">
      <defs>
       <path d="M 0 0 
L -6 0 
" id="mb42a62a05d" style="stroke:#262626;stroke-width:1.25;"/>
      </defs>
      <g>
       <use style="fill:#262626;stroke:#262626;stroke-width:1.25;" x="52.958501" xlink:href="#mb42a62a05d" y="270.141178"/>
      </g>
     </g>
     <g id="text_8">
      <!-- $\mathdefault{0}$ -->
      <g style="fill:#262626;" transform="translate(37.288478 274.517117)scale(0.1265 -0.1265)">
       <use transform="scale(0.996264)" xlink:href="#CMR17-30"/>
      </g>
     </g>
    </g>
    <g id="ytick_2">
     <g id="line2d_9">
      <path clip-path="url(#pda7638bd55)" d="M 52.958501 241.601154 
L 383.508082 241.601154 
" style="fill:none;stroke:#cccccc;stroke-linecap:round;"/>
     </g>
     <g id="line2d_10">
      <g>
       <use style="fill:#262626;stroke:#262626;stroke-width:1.25;" x="52.958501" xlink:href="#mb42a62a05d" y="241.601154"/>
      </g>
     </g>
     <g id="text_9">
      <!-- $\mathdefault{50}$ -->
      <g style="fill:#262626;" transform="translate(31.118455 245.977094)scale(0.1265 -0.1265)">
       <defs>
        <path d="M 730 3692 
C 794 3666 1056 3584 1325 3584 
C 1920 3584 2246 3911 2432 4100 
C 2432 4157 2432 4192 2394 4192 
C 2387 4192 2374 4192 2323 4163 
C 2099 4058 1837 3973 1517 3973 
C 1325 3973 1037 3999 723 4139 
C 653 4171 640 4171 634 4171 
C 602 4171 595 4164 595 4037 
L 595 2203 
C 595 2089 595 2057 659 2057 
C 691 2057 704 2070 736 2114 
C 941 2401 1222 2522 1542 2522 
C 1766 2522 2246 2382 2246 1289 
C 2246 1085 2246 715 2054 421 
C 1894 159 1645 25 1370 25 
C 947 25 518 320 403 814 
C 429 807 480 795 506 795 
C 589 795 749 840 749 1038 
C 749 1210 627 1280 506 1280 
C 358 1280 262 1190 262 1011 
C 262 454 704 -128 1382 -128 
C 2042 -128 2669 440 2669 1264 
C 2669 2030 2170 2624 1549 2624 
C 1222 2624 947 2503 730 2274 
L 730 3692 
z
" id="CMR17-35" transform="scale(0.015625)"/>
       </defs>
       <use transform="scale(0.996264)" xlink:href="#CMR17-35"/>
       <use transform="translate(45.690477 0)scale(0.996264)" xlink:href="#CMR17-30"/>
      </g>
     </g>
    </g>
    <g id="ytick_3">
     <g id="line2d_11">
      <path clip-path="url(#pda7638bd55)" d="M 52.958501 213.061131 
L 383.508082 213.061131 
" style="fill:none;stroke:#cccccc;stroke-linecap:round;"/>
     </g>
     <g id="line2d_12">
      <g>
       <use style="fill:#262626;stroke:#262626;stroke-width:1.25;" x="52.958501" xlink:href="#mb42a62a05d" y="213.061131"/>
      </g>
     </g>
     <g id="text_10">
      <!-- $\mathdefault{100}$ -->
      <g style="fill:#262626;" transform="translate(24.948431 217.43707)scale(0.1265 -0.1265)">
       <use transform="scale(0.996264)" xlink:href="#CMR17-31"/>
       <use transform="translate(45.690477 0)scale(0.996264)" xlink:href="#CMR17-30"/>
       <use transform="translate(91.380954 0)scale(0.996264)" xlink:href="#CMR17-30"/>
      </g>
     </g>
    </g>
    <g id="ytick_4">
     <g id="line2d_13">
      <path clip-path="url(#pda7638bd55)" d="M 52.958501 184.521107 
L 383.508082 184.521107 
" style="fill:none;stroke:#cccccc;stroke-linecap:round;"/>
     </g>
     <g id="line2d_14">
      <g>
       <use style="fill:#262626;stroke:#262626;stroke-width:1.25;" x="52.958501" xlink:href="#mb42a62a05d" y="184.521107"/>
      </g>
     </g>
     <g id="text_11">
      <!-- $\mathdefault{150}$ -->
      <g style="fill:#262626;" transform="translate(24.948431 188.897047)scale(0.1265 -0.1265)">
       <use transform="scale(0.996264)" xlink:href="#CMR17-31"/>
       <use transform="translate(45.690477 0)scale(0.996264)" xlink:href="#CMR17-35"/>
       <use transform="translate(91.380954 0)scale(0.996264)" xlink:href="#CMR17-30"/>
      </g>
     </g>
    </g>
    <g id="ytick_5">
     <g id="line2d_15">
      <path clip-path="url(#pda7638bd55)" d="M 52.958501 155.981084 
L 383.508082 155.981084 
" style="fill:none;stroke:#cccccc;stroke-linecap:round;"/>
     </g>
     <g id="line2d_16">
      <g>
       <use style="fill:#262626;stroke:#262626;stroke-width:1.25;" x="52.958501" xlink:href="#mb42a62a05d" y="155.981084"/>
      </g>
     </g>
     <g id="text_12">
      <!-- $\mathdefault{200}$ -->
      <g style="fill:#262626;" transform="translate(24.948431 160.357023)scale(0.1265 -0.1265)">
       <use transform="scale(0.996264)" xlink:href="#CMR17-32"/>
       <use transform="translate(45.690477 0)scale(0.996264)" xlink:href="#CMR17-30"/>
       <use transform="translate(91.380954 0)scale(0.996264)" xlink:href="#CMR17-30"/>
      </g>
     </g>
    </g>
    <g id="ytick_6">
     <g id="line2d_17">
      <path clip-path="url(#pda7638bd55)" d="M 52.958501 127.44106 
L 383.508082 127.44106 
" style="fill:none;stroke:#cccccc;stroke-linecap:round;"/>
     </g>
     <g id="line2d_18">
      <g>
       <use style="fill:#262626;stroke:#262626;stroke-width:1.25;" x="52.958501" xlink:href="#mb42a62a05d" y="127.44106"/>
      </g>
     </g>
     <g id="text_13">
      <!-- $\mathdefault{250}$ -->
      <g style="fill:#262626;" transform="translate(24.948431 131.817)scale(0.1265 -0.1265)">
       <use transform="scale(0.996264)" xlink:href="#CMR17-32"/>
       <use transform="translate(45.690477 0)scale(0.996264)" xlink:href="#CMR17-35"/>
       <use transform="translate(91.380954 0)scale(0.996264)" xlink:href="#CMR17-30"/>
      </g>
     </g>
    </g>
    <g id="ytick_7">
     <g id="line2d_19">
      <path clip-path="url(#pda7638bd55)" d="M 52.958501 98.901037 
L 383.508082 98.901037 
" style="fill:none;stroke:#cccccc;stroke-linecap:round;"/>
     </g>
     <g id="line2d_20">
      <g>
       <use style="fill:#262626;stroke:#262626;stroke-width:1.25;" x="52.958501" xlink:href="#mb42a62a05d" y="98.901037"/>
      </g>
     </g>
     <g id="text_14">
      <!-- $\mathdefault{300}$ -->
      <g style="fill:#262626;" transform="translate(24.948431 103.276976)scale(0.1265 -0.1265)">
       <defs>
        <path d="M 1414 2157 
C 1984 2157 2234 1662 2234 1090 
C 2234 320 1824 25 1453 25 
C 1114 25 563 194 390 693 
C 422 680 454 680 486 680 
C 640 680 755 782 755 948 
C 755 1133 614 1216 486 1216 
C 378 1216 211 1165 211 926 
C 211 335 787 -128 1466 -128 
C 2176 -128 2720 430 2720 1085 
C 2720 1707 2208 2157 1600 2227 
C 2086 2328 2554 2756 2554 3329 
C 2554 3820 2048 4179 1472 4179 
C 890 4179 378 3829 378 3329 
C 378 3110 544 3072 627 3072 
C 762 3072 877 3155 877 3321 
C 877 3486 762 3569 627 3569 
C 602 3569 570 3569 544 3557 
C 730 3959 1235 4032 1459 4032 
C 1683 4032 2106 3925 2106 3320 
C 2106 3143 2080 2828 1862 2550 
C 1670 2304 1453 2304 1242 2284 
C 1210 2284 1062 2269 1037 2269 
C 992 2263 966 2257 966 2208 
C 966 2163 973 2157 1101 2157 
L 1414 2157 
z
" id="CMR17-33" transform="scale(0.015625)"/>
       </defs>
       <use transform="scale(0.996264)" xlink:href="#CMR17-33"/>
       <use transform="translate(45.690477 0)scale(0.996264)" xlink:href="#CMR17-30"/>
       <use transform="translate(91.380954 0)scale(0.996264)" xlink:href="#CMR17-30"/>
      </g>
     </g>
    </g>
    <g id="ytick_8">
     <g id="line2d_21">
      <path clip-path="url(#pda7638bd55)" d="M 52.958501 70.361013 
L 383.508082 70.361013 
" style="fill:none;stroke:#cccccc;stroke-linecap:round;"/>
     </g>
     <g id="line2d_22">
      <g>
       <use style="fill:#262626;stroke:#262626;stroke-width:1.25;" x="52.958501" xlink:href="#mb42a62a05d" y="70.361013"/>
      </g>
     </g>
     <g id="text_15">
      <!-- $\mathdefault{350}$ -->
      <g style="fill:#262626;" transform="translate(24.948431 74.736953)scale(0.1265 -0.1265)">
       <use transform="scale(0.996264)" xlink:href="#CMR17-33"/>
       <use transform="translate(45.690477 0)scale(0.996264)" xlink:href="#CMR17-35"/>
       <use transform="translate(91.380954 0)scale(0.996264)" xlink:href="#CMR17-30"/>
      </g>
     </g>
    </g>
    <g id="ytick_9">
     <g id="line2d_23">
      <path clip-path="url(#pda7638bd55)" d="M 52.958501 41.82099 
L 383.508082 41.82099 
" style="fill:none;stroke:#cccccc;stroke-linecap:round;"/>
     </g>
     <g id="line2d_24">
      <g>
       <use style="fill:#262626;stroke:#262626;stroke-width:1.25;" x="52.958501" xlink:href="#mb42a62a05d" y="41.82099"/>
      </g>
     </g>
     <g id="text_16">
      <!-- $\mathdefault{400}$ -->
      <g style="fill:#262626;" transform="translate(24.948431 46.196929)scale(0.1265 -0.1265)">
       <use transform="scale(0.996264)" xlink:href="#CMR17-34"/>
       <use transform="translate(45.690477 0)scale(0.996264)" xlink:href="#CMR17-30"/>
       <use transform="translate(91.380954 0)scale(0.996264)" xlink:href="#CMR17-30"/>
      </g>
     </g>
    </g>
    <g id="text_17">
     <!-- Process Time (ms) -->
     <g style="fill:#262626;" transform="translate(17.511323 201.805108)rotate(-90)scale(0.138 -0.138)">
      <defs>
       <path d="M 1267 2042 
L 2291 2042 
C 3117 2042 3718 2578 3718 3184 
C 3718 3791 3130 4352 2291 4352 
L 333 4352 
L 333 4186 
C 774 4186 845 4186 845 3899 
L 845 446 
C 845 160 774 160 333 160 
L 333 0 
C 518 0 858 0 1056 0 
C 1254 0 1594 0 1779 0 
L 1779 160 
C 1338 160 1267 160 1267 446 
L 1267 2042 
z
M 1254 2176 
L 1254 3938 
C 1254 4155 1267 4186 1523 4186 
L 2170 4186 
C 2995 4186 3232 3714 3232 3184 
C 3232 2604 2950 2176 2170 2176 
L 1254 2176 
z
" id="CMR17-50" transform="scale(0.015625)"/>
       <path d="M 960 1497 
C 960 2112 1222 2688 1702 2688 
C 1747 2688 1792 2682 1837 2662 
C 1837 2662 1696 2617 1696 2452 
C 1696 2298 1818 2234 1914 2234 
C 1990 2234 2131 2279 2131 2458 
C 2131 2663 1926 2790 1709 2790 
C 1222 2790 1011 2317 947 2093 
L 941 2093 
L 941 2790 
L 198 2720 
L 198 2554 
C 576 2554 634 2515 634 2208 
L 634 428 
C 634 184 608 153 198 153 
L 198 -13 
C 352 0 646 0 813 0 
C 998 0 1325 0 1498 -13 
L 1498 153 
C 1037 153 960 153 960 440 
L 960 1497 
z
" id="CMR17-72" transform="scale(0.015625)"/>
       <path d="M 2758 1356 
C 2758 2176 2163 2816 1466 2816 
C 768 2816 173 2176 173 1356 
C 173 551 768 -64 1466 -64 
C 2163 -64 2758 551 2758 1356 
z
M 1466 51 
C 1165 51 909 230 762 480 
C 602 767 582 1126 582 1408 
C 582 1677 595 2010 762 2298 
C 890 2509 1139 2714 1466 2714 
C 1754 2714 1997 2554 2150 2330 
C 2349 2029 2349 1607 2349 1408 
C 2349 1158 2336 775 2163 467 
C 1984 173 1709 51 1466 51 
z
" id="CMR17-6f" transform="scale(0.015625)"/>
       <path d="M 2234 2240 
C 2112 2240 1933 2240 1933 2017 
C 1933 1838 2080 1787 2163 1787 
C 2208 1787 2394 1807 2394 2024 
C 2394 2467 1958 2803 1466 2803 
C 787 2803 211 2178 211 1363 
C 211 516 813 -64 1466 -64 
C 2259 -64 2458 677 2458 748 
C 2458 774 2451 793 2406 793 
C 2362 793 2355 787 2330 703 
C 2163 180 1798 51 1523 51 
C 1114 51 621 427 621 1369 
C 621 2338 1094 2688 1472 2688 
C 1722 2688 2093 2573 2234 2240 
z
" id="CMR17-63" transform="scale(0.015625)"/>
       <path d="M 2438 1472 
C 2464 1498 2464 1511 2464 1576 
C 2464 2238 2118 2816 1389 2816 
C 710 2816 173 2169 173 1383 
C 173 551 781 -64 1459 -64 
C 2176 -64 2458 607 2458 740 
C 2458 784 2419 784 2406 784 
C 2362 784 2355 771 2330 696 
C 2189 265 1837 51 1504 51 
C 1229 51 954 203 781 480 
C 582 803 582 1176 582 1472 
L 2438 1472 
z
M 589 1568 
C 634 2505 1126 2714 1382 2714 
C 1818 2714 2112 2297 2118 1568 
L 589 1568 
z
" id="CMR17-65" transform="scale(0.015625)"/>
       <path d="M 1978 2697 
C 1978 2813 1971 2819 1933 2819 
C 1907 2819 1901 2813 1824 2717 
C 1805 2691 1747 2626 1728 2601 
C 1523 2819 1235 2819 1126 2819 
C 416 2819 160 2447 160 2076 
C 160 1498 813 1365 998 1325 
C 1402 1243 1542 1217 1677 1101 
C 1760 1025 1901 884 1901 654 
C 1901 384 1747 38 1158 38 
C 602 38 403 460 288 1021 
C 269 1110 269 1117 218 1117 
C 166 1117 160 1110 160 983 
L 160 63 
C 160 -51 166 -58 205 -58 
C 237 -58 243 -51 275 0 
C 314 57 410 211 448 276 
C 576 103 800 -64 1158 -64 
C 1792 -64 2131 283 2131 784 
C 2131 1112 1958 1285 1875 1362 
C 1683 1561 1459 1606 1190 1657 
C 838 1735 390 1825 390 2217 
C 390 2383 480 2737 1126 2737 
C 1811 2737 1850 2094 1862 1888 
C 1869 1856 1901 1849 1920 1849 
C 1978 1849 1978 1869 1978 1978 
L 1978 2697 
z
" id="CMR17-73" transform="scale(0.015625)"/>
       <path d="M 3981 4326 
L 288 4326 
L 179 2918 
L 294 2918 
C 378 3976 467 4160 1453 4160 
C 1568 4160 1754 4160 1805 4154 
C 1926 4135 1926 4058 1926 3912 
L 1926 459 
C 1926 230 1907 160 1376 160 
L 1197 160 
L 1197 0 
C 1504 0 1824 0 2138 0 
C 2451 0 2771 0 3078 0 
L 3078 160 
L 2899 160 
C 2368 160 2349 230 2349 459 
L 2349 3912 
C 2349 4052 2349 4129 2464 4154 
C 2515 4160 2701 4160 2816 4160 
C 3795 4160 3891 3976 3974 2918 
L 4090 2918 
L 3981 4326 
z
" id="CMR17-54" transform="scale(0.015625)"/>
       <path d="M 992 3909 
C 992 4049 877 4170 730 4170 
C 589 4170 467 4056 467 3909 
C 467 3769 582 3648 730 3648 
C 870 3648 992 3763 992 3909 
z
M 243 2706 
L 243 2541 
C 602 2541 653 2502 653 2197 
L 653 427 
C 653 184 627 153 218 153 
L 218 -13 
C 371 0 646 0 806 0 
C 960 0 1222 0 1370 -13 
L 1370 153 
C 992 153 979 191 979 420 
L 979 2776 
L 243 2706 
z
" id="CMR17-69" transform="scale(0.015625)"/>
       <path d="M 4326 1933 
C 4326 2252 4269 2790 3507 2790 
C 3072 2790 2771 2496 2656 2151 
L 2650 2151 
C 2573 2676 2195 2790 1837 2790 
C 1331 2790 1069 2400 973 2144 
L 966 2144 
L 966 2790 
L 211 2720 
L 211 2554 
C 589 2554 646 2515 646 2208 
L 646 428 
C 646 184 621 153 211 153 
L 211 -13 
C 365 0 646 0 813 0 
C 979 0 1267 0 1421 -13 
L 1421 153 
C 1011 153 986 178 986 428 
L 986 1658 
C 986 2247 1344 2688 1792 2688 
C 2266 2688 2317 2266 2317 1958 
L 2317 428 
C 2317 184 2291 153 1882 153 
L 1882 -13 
C 2035 0 2317 0 2483 0 
C 2650 0 2938 0 3091 -13 
L 3091 153 
C 2682 153 2656 178 2656 428 
L 2656 1658 
C 2656 2247 3014 2688 3462 2688 
C 3936 2688 3987 2266 3987 1958 
L 3987 428 
C 3987 184 3962 153 3552 153 
L 3552 -13 
C 3706 0 3987 0 4154 0 
C 4320 0 4608 0 4762 -13 
L 4762 153 
C 4352 153 4326 178 4326 428 
L 4326 1933 
z
" id="CMR17-6d" transform="scale(0.015625)"/>
       <path d="M 1958 -1561 
C 1958 -1555 1958 -1542 1939 -1523 
C 1645 -1224 858 -407 858 1581 
C 858 3569 1632 4379 1946 4697 
C 1946 4704 1958 4717 1958 4736 
C 1958 4755 1939 4768 1914 4768 
C 1843 4768 1299 4296 986 3594 
C 666 2887 576 2199 576 1588 
C 576 1128 621 351 1005 -471 
C 1312 -1135 1837 -1600 1914 -1600 
C 1946 -1600 1958 -1587 1958 -1561 
z
" id="CMR17-28" transform="scale(0.015625)"/>
       <path d="M 1683 1581 
C 1683 2040 1638 2817 1254 3639 
C 947 4303 422 4768 346 4768 
C 326 4768 301 4761 301 4729 
C 301 4717 307 4710 314 4697 
C 621 4378 1402 3568 1402 1584 
C 1402 -407 627 -1217 314 -1537 
C 307 -1549 301 -1556 301 -1568 
C 301 -1600 326 -1600 346 -1600 
C 416 -1600 960 -1128 1274 -426 
C 1594 281 1683 969 1683 1581 
z
" id="CMR17-29" transform="scale(0.015625)"/>
      </defs>
      <use transform="scale(0.996264)" xlink:href="#CMR17-50"/>
      <use transform="translate(62.586301 0)scale(0.996264)" xlink:href="#CMR17-72"/>
      <use transform="translate(97.867068 0)scale(0.996264)" xlink:href="#CMR17-6f"/>
      <use transform="translate(146.159984 0)scale(0.996264)" xlink:href="#CMR17-63"/>
      <use transform="translate(186.645645 0)scale(0.996264)" xlink:href="#CMR17-65"/>
      <use transform="translate(227.131305 0)scale(0.996264)" xlink:href="#CMR17-73"/>
      <use transform="translate(262.932643 0)scale(0.996264)" xlink:href="#CMR17-73"/>
      <use transform="translate(328.809947 0)scale(0.996264)" xlink:href="#CMR17-54"/>
      <use transform="translate(395.319827 0)scale(0.996264)" xlink:href="#CMR17-69"/>
      <use transform="translate(420.190886 0)scale(0.996264)" xlink:href="#CMR17-6d"/>
      <use transform="translate(497.110476 0)scale(0.996264)" xlink:href="#CMR17-65"/>
      <use transform="translate(567.672102 0)scale(0.996264)" xlink:href="#CMR17-28"/>
      <use transform="translate(602.95287 0)scale(0.996264)" xlink:href="#CMR17-6d"/>
      <use transform="translate(679.87246 0)scale(0.996264)" xlink:href="#CMR17-73"/>
      <use transform="translate(715.673798 0)scale(0.996264)" xlink:href="#CMR17-29"/>
     </g>
    </g>
   </g>
   <g id="line2d_25">
    <defs>
     <path d="M 0 1.5 
C 0.397805 1.5 0.77937 1.341951 1.06066 1.06066 
C 1.341951 0.77937 1.5 0.397805 1.5 0 
C 1.5 -0.397805 1.341951 -0.77937 1.06066 -1.06066 
C 0.77937 -1.341951 0.397805 -1.5 0 -1.5 
C -0.397805 -1.5 -0.77937 -1.341951 -1.06066 -1.06066 
C -1.341951 -0.77937 -1.5 -0.397805 -1.5 0 
C -1.5 0.397805 -1.341951 0.77937 -1.06066 1.06066 
C -0.77937 1.341951 -0.397805 1.5 0 1.5 
z
" id="mc704bf4924" style="stroke:#ffd700;"/>
    </defs>
    <g clip-path="url(#pda7638bd55)">
     <use style="fill:#ffd700;stroke:#ffd700;" x="221.599501" xlink:href="#mc704bf4924" y="179.303157"/>
     <use style="fill:#ffd700;stroke:#ffd700;" x="261.994009" xlink:href="#mc704bf4924" y="151.846251"/>
     <use style="fill:#ffd700;stroke:#ffd700;" x="66.753887" xlink:href="#mc704bf4924" y="244.261026"/>
     <use style="fill:#ffd700;stroke:#ffd700;" x="60.021469" xlink:href="#mc704bf4924" y="245.918447"/>
     <use style="fill:#ffd700;stroke:#ffd700;" x="93.683559" xlink:href="#mc704bf4924" y="236.823955"/>
     <use style="fill:#ffd700;stroke:#ffd700;" x="100.415977" xlink:href="#mc704bf4924" y="234.745762"/>
     <use style="fill:#ffd700;stroke:#ffd700;" x="73.486305" xlink:href="#mc704bf4924" y="242.567603"/>
     <use style="fill:#ffd700;stroke:#ffd700;" x="80.218723" xlink:href="#mc704bf4924" y="240.780472"/>
     <use style="fill:#ffd700;stroke:#ffd700;" x="86.951141" xlink:href="#mc704bf4924" y="238.89318"/>
     <use style="fill:#ffd700;stroke:#ffd700;" x="376.445114" xlink:href="#mc704bf4924" y="43.919653"/>
     <use style="fill:#ffd700;stroke:#ffd700;" x="315.853353" xlink:href="#mc704bf4924" y="107.17835"/>
     <use style="fill:#ffd700;stroke:#ffd700;" x="147.542903" xlink:href="#mc704bf4924" y="217.229488"/>
     <use style="fill:#ffd700;stroke:#ffd700;" x="194.669829" xlink:href="#mc704bf4924" y="195.068193"/>
     <use style="fill:#ffd700;stroke:#ffd700;" x="174.472575" xlink:href="#mc704bf4924" y="205.452292"/>
     <use style="fill:#ffd700;stroke:#ffd700;" x="302.388517" xlink:href="#mc704bf4924" y="119.418174"/>
     <use style="fill:#ffd700;stroke:#ffd700;" x="187.937411" xlink:href="#mc704bf4924" y="198.178768"/>
     <use style="fill:#ffd700;stroke:#ffd700;" x="309.120935" xlink:href="#mc704bf4924" y="112.913162"/>
     <use style="fill:#ffd700;stroke:#ffd700;" x="113.880813" xlink:href="#mc704bf4924" y="229.92608"/>
     <use style="fill:#ffd700;stroke:#ffd700;" x="248.529173" xlink:href="#mc704bf4924" y="161.267092"/>
     <use style="fill:#ffd700;stroke:#ffd700;" x="369.712696" xlink:href="#mc704bf4924" y="51.115417"/>
     <use style="fill:#ffd700;stroke:#ffd700;" x="120.613231" xlink:href="#mc704bf4924" y="227.47039"/>
     <use style="fill:#ffd700;stroke:#ffd700;" x="295.656099" xlink:href="#mc704bf4924" y="124.594248"/>
     <use style="fill:#ffd700;stroke:#ffd700;" x="161.007739" xlink:href="#mc704bf4924" y="211.977469"/>
     <use style="fill:#ffd700;stroke:#ffd700;" x="167.740157" xlink:href="#mc704bf4924" y="208.93626"/>
     <use style="fill:#ffd700;stroke:#ffd700;" x="181.204993" xlink:href="#mc704bf4924" y="202.391739"/>
     <use style="fill:#ffd700;stroke:#ffd700;" x="349.515443" xlink:href="#mc704bf4924" y="73.111576"/>
     <use style="fill:#ffd700;stroke:#ffd700;" x="201.402247" xlink:href="#mc704bf4924" y="191.720254"/>
     <use style="fill:#ffd700;stroke:#ffd700;" x="214.867083" xlink:href="#mc704bf4924" y="182.733155"/>
     <use style="fill:#ffd700;stroke:#ffd700;" x="275.458845" xlink:href="#mc704bf4924" y="140.892223"/>
     <use style="fill:#ffd700;stroke:#ffd700;" x="134.078067" xlink:href="#mc704bf4924" y="222.111328"/>
     <use style="fill:#ffd700;stroke:#ffd700;" x="329.318189" xlink:href="#mc704bf4924" y="94.934479"/>
     <use style="fill:#ffd700;stroke:#ffd700;" x="336.050607" xlink:href="#mc704bf4924" y="88.284114"/>
     <use style="fill:#ffd700;stroke:#ffd700;" x="127.345649" xlink:href="#mc704bf4924" y="224.630291"/>
    </g>
   </g>
   <g id="line2d_26">
    <path clip-path="url(#pda7638bd55)" d="M 52.958501 247.587703 
L 59.704411 245.989038 
L 66.450321 244.314224 
L 73.196231 242.560855 
L 79.942141 240.72653 
L 86.68805 238.808843 
L 93.43396 236.805391 
L 100.17987 234.71377 
L 106.92578 232.531576 
L 113.67169 230.256405 
L 120.4176 227.885854 
L 127.163509 225.417518 
L 133.909419 222.848993 
L 140.655329 220.177876 
L 147.401239 217.401763 
L 154.147149 214.51825 
L 160.893058 211.524932 
L 167.638968 208.419407 
L 174.384878 205.19927 
L 181.130788 201.862117 
L 187.876698 198.405544 
L 194.622607 194.827148 
L 201.368517 191.124525 
L 208.114427 187.295271 
L 214.860337 183.336981 
L 221.606247 179.247252 
L 228.352156 175.02368 
L 235.098066 170.663862 
L 241.843976 166.165393 
L 248.589886 161.525869 
L 255.335796 156.742887 
L 262.081705 151.814042 
L 268.827615 146.736932 
L 275.573525 141.509151 
L 282.319435 136.128296 
L 289.065345 130.591963 
L 295.811255 124.897748 
L 302.557164 119.043248 
L 309.303074 113.026058 
L 316.048984 106.843774 
L 322.794894 100.493994 
L 329.540804 93.974312 
L 336.286713 87.282324 
L 343.032623 80.415628 
L 349.778533 73.371819 
L 356.524443 66.148493 
L 363.270353 58.743247 
L 370.016262 51.153676 
L 376.762172 43.377376 
L 383.508082 35.411945 
" style="fill:none;stroke:#ffd700;stroke-linecap:round;stroke-width:1.5;"/>
   </g>
   <g id="line2d_27">
    <defs>
     <path d="M 0 1.5 
C 0.397805 1.5 0.77937 1.341951 1.06066 1.06066 
C 1.341951 0.77937 1.5 0.397805 1.5 0 
C 1.5 -0.397805 1.341951 -0.77937 1.06066 -1.06066 
C 0.77937 -1.341951 0.397805 -1.5 0 -1.5 
C -0.397805 -1.5 -0.77937 -1.341951 -1.06066 -1.06066 
C -1.341951 -0.77937 -1.5 -0.397805 -1.5 0 
C -1.5 0.397805 -1.341951 0.77937 -1.06066 1.06066 
C -0.77937 1.341951 -0.397805 1.5 0 1.5 
z
" id="m30af6023c3" style="stroke:#9acd32;"/>
    </defs>
    <g clip-path="url(#pda7638bd55)">
     <use style="fill:#9acd32;stroke:#9acd32;" x="336.050607" xlink:href="#m30af6023c3" y="176.614305"/>
     <use style="fill:#9acd32;stroke:#9acd32;" x="235.064337" xlink:href="#m30af6023c3" y="219.229135"/>
     <use style="fill:#9acd32;stroke:#9acd32;" x="376.445114" xlink:href="#m30af6023c3" y="154.571283"/>
     <use style="fill:#9acd32;stroke:#9acd32;" x="93.683559" xlink:href="#m30af6023c3" y="252.902226"/>
     <use style="fill:#9acd32;stroke:#9acd32;" x="187.937411" xlink:href="#m30af6023c3" y="233.506558"/>
     <use style="fill:#9acd32;stroke:#9acd32;" x="80.218723" xlink:href="#m30af6023c3" y="254.839966"/>
     <use style="fill:#9acd32;stroke:#9acd32;" x="100.415977" xlink:href="#m30af6023c3" y="251.858281"/>
     <use style="fill:#9acd32;stroke:#9acd32;" x="86.951141" xlink:href="#m30af6023c3" y="253.957259"/>
     <use style="fill:#9acd32;stroke:#9acd32;" x="147.542903" xlink:href="#m30af6023c3" y="243.223058"/>
     <use style="fill:#9acd32;stroke:#9acd32;" x="107.148395" xlink:href="#m30af6023c3" y="250.757291"/>
     <use style="fill:#9acd32;stroke:#9acd32;" x="73.486305" xlink:href="#m30af6023c3" y="255.739739"/>
     <use style="fill:#9acd32;stroke:#9acd32;" x="174.472575" xlink:href="#m30af6023c3" y="237.183388"/>
     <use style="fill:#9acd32;stroke:#9acd32;" x="66.753887" xlink:href="#m30af6023c3" y="256.543124"/>
     <use style="fill:#9acd32;stroke:#9acd32;" x="214.867083" xlink:href="#m30af6023c3" y="225.601871"/>
     <use style="fill:#9acd32;stroke:#9acd32;" x="60.021469" xlink:href="#m30af6023c3" y="257.350285"/>
     <use style="fill:#9acd32;stroke:#9acd32;" x="161.007739" xlink:href="#m30af6023c3" y="240.506916"/>
     <use style="fill:#9acd32;stroke:#9acd32;" x="369.712696" xlink:href="#m30af6023c3" y="158.69968"/>
     <use style="fill:#9acd32;stroke:#9acd32;" x="113.880813" xlink:href="#m30af6023c3" y="249.512211"/>
     <use style="fill:#9acd32;stroke:#9acd32;" x="167.740157" xlink:href="#m30af6023c3" y="238.949535"/>
     <use style="fill:#9acd32;stroke:#9acd32;" x="154.275321" xlink:href="#m30af6023c3" y="242.148724"/>
     <use style="fill:#9acd32;stroke:#9acd32;" x="194.669829" xlink:href="#m30af6023c3" y="232.024123"/>
     <use style="fill:#9acd32;stroke:#9acd32;" x="309.120935" xlink:href="#m30af6023c3" y="189.334346"/>
     <use style="fill:#9acd32;stroke:#9acd32;" x="134.078067" xlink:href="#m30af6023c3" y="245.736709"/>
     <use style="fill:#9acd32;stroke:#9acd32;" x="120.613231" xlink:href="#m30af6023c3" y="248.240119"/>
     <use style="fill:#9acd32;stroke:#9acd32;" x="181.204993" xlink:href="#m30af6023c3" y="235.738625"/>
     <use style="fill:#9acd32;stroke:#9acd32;" x="127.345649" xlink:href="#m30af6023c3" y="246.943406"/>
     <use style="fill:#9acd32;stroke:#9acd32;" x="221.599501" xlink:href="#m30af6023c3" y="224.158199"/>
     <use style="fill:#9acd32;stroke:#9acd32;" x="140.810485" xlink:href="#m30af6023c3" y="244.174774"/>
     <use style="fill:#9acd32;stroke:#9acd32;" x="275.458845" xlink:href="#m30af6023c3" y="204.771206"/>
     <use style="fill:#9acd32;stroke:#9acd32;" x="241.796755" xlink:href="#m30af6023c3" y="216.301195"/>
     <use style="fill:#9acd32;stroke:#9acd32;" x="248.529173" xlink:href="#m30af6023c3" y="215.103796"/>
     <use style="fill:#9acd32;stroke:#9acd32;" x="201.402247" xlink:href="#m30af6023c3" y="230.440802"/>
     <use style="fill:#9acd32;stroke:#9acd32;" x="255.261591" xlink:href="#m30af6023c3" y="211.313211"/>
    </g>
   </g>
   <g id="line2d_28">
    <path clip-path="url(#pda7638bd55)" d="M 52.958501 257.917446 
L 59.704411 257.216484 
L 66.450321 256.46625 
L 73.196231 255.665916 
L 79.942141 254.814655 
L 86.68805 253.91164 
L 93.43396 252.956044 
L 100.17987 251.94704 
L 106.92578 250.883799 
L 113.67169 249.765496 
L 120.4176 248.591301 
L 127.163509 247.36039 
L 133.909419 246.071933 
L 140.655329 244.725103 
L 147.401239 243.319074 
L 154.147149 241.853018 
L 160.893058 240.326108 
L 167.638968 238.737517 
L 174.384878 237.086416 
L 181.130788 235.37198 
L 187.876698 233.59338 
L 194.622607 231.74979 
L 201.368517 229.840381 
L 208.114427 227.864328 
L 214.860337 225.820802 
L 221.606247 223.708976 
L 228.352156 221.528023 
L 235.098066 219.277116 
L 241.843976 216.955427 
L 248.589886 214.562129 
L 255.335796 212.096395 
L 262.081705 209.557397 
L 268.827615 206.944309 
L 275.573525 204.256302 
L 282.319435 201.49255 
L 289.065345 198.652226 
L 295.811255 195.734501 
L 302.557164 192.73855 
L 309.303074 189.663543 
L 316.048984 186.508655 
L 322.794894 183.273058 
L 329.540804 179.955925 
L 336.286713 176.556427 
L 343.032623 173.073739 
L 349.778533 169.507033 
L 356.524443 165.855481 
L 363.270353 162.118256 
L 370.016262 158.294531 
L 376.762172 154.383479 
L 383.508082 150.384272 
" style="fill:none;stroke:#9acd32;stroke-linecap:round;stroke-width:1.5;"/>
   </g>
   <g id="line2d_29">
    <defs>
     <path d="M 0 1.5 
C 0.397805 1.5 0.77937 1.341951 1.06066 1.06066 
C 1.341951 0.77937 1.5 0.397805 1.5 0 
C 1.5 -0.397805 1.341951 -0.77937 1.06066 -1.06066 
C 0.77937 -1.341951 0.397805 -1.5 0 -1.5 
C -0.397805 -1.5 -0.77937 -1.341951 -1.06066 -1.06066 
C -1.341951 -0.77937 -1.5 -0.397805 -1.5 0 
C -1.5 0.397805 -1.341951 0.77937 -1.06066 1.06066 
C -0.77937 1.341951 -0.397805 1.5 0 1.5 
z
" id="m6e84d4355e" style="stroke:#cd5c5c;"/>
    </defs>
    <g clip-path="url(#pda7638bd55)">
     <use style="fill:#cd5c5c;stroke:#cd5c5c;" x="369.712696" xlink:href="#m6e84d4355e" y="47.671419"/>
     <use style="fill:#cd5c5c;stroke:#cd5c5c;" x="322.585771" xlink:href="#m6e84d4355e" y="90.897918"/>
     <use style="fill:#cd5c5c;stroke:#cd5c5c;" x="174.472575" xlink:href="#m6e84d4355e" y="193.732181"/>
     <use style="fill:#cd5c5c;stroke:#cd5c5c;" x="66.753887" xlink:href="#m6e84d4355e" y="242.584678"/>
     <use style="fill:#cd5c5c;stroke:#cd5c5c;" x="288.923681" xlink:href="#m6e84d4355e" y="118.772608"/>
     <use style="fill:#cd5c5c;stroke:#cd5c5c;" x="376.445114" xlink:href="#m6e84d4355e" y="40.700544"/>
     <use style="fill:#cd5c5c;stroke:#cd5c5c;" x="154.275321" xlink:href="#m6e84d4355e" y="204.776195"/>
     <use style="fill:#cd5c5c;stroke:#cd5c5c;" x="208.134665" xlink:href="#m6e84d4355e" y="174.192643"/>
     <use style="fill:#cd5c5c;stroke:#cd5c5c;" x="140.810485" xlink:href="#m6e84d4355e" y="210.833194"/>
     <use style="fill:#cd5c5c;stroke:#cd5c5c;" x="80.218723" xlink:href="#m6e84d4355e" y="238.005712"/>
     <use style="fill:#cd5c5c;stroke:#cd5c5c;" x="60.021469" xlink:href="#m6e84d4355e" y="244.7873"/>
     <use style="fill:#cd5c5c;stroke:#cd5c5c;" x="309.120935" xlink:href="#m6e84d4355e" y="101.92178"/>
     <use style="fill:#cd5c5c;stroke:#cd5c5c;" x="356.24786" xlink:href="#m6e84d4355e" y="61.048033"/>
     <use style="fill:#cd5c5c;stroke:#cd5c5c;" x="302.388517" xlink:href="#m6e84d4355e" y="107.424056"/>
     <use style="fill:#cd5c5c;stroke:#cd5c5c;" x="127.345649" xlink:href="#m6e84d4355e" y="217.079012"/>
     <use style="fill:#cd5c5c;stroke:#cd5c5c;" x="161.007739" xlink:href="#m6e84d4355e" y="201.559077"/>
     <use style="fill:#cd5c5c;stroke:#cd5c5c;" x="86.951141" xlink:href="#m6e84d4355e" y="235.47519"/>
     <use style="fill:#cd5c5c;stroke:#cd5c5c;" x="282.191263" xlink:href="#m6e84d4355e" y="124.349778"/>
     <use style="fill:#cd5c5c;stroke:#cd5c5c;" x="221.599501" xlink:href="#m6e84d4355e" y="166.704935"/>
     <use style="fill:#cd5c5c;stroke:#cd5c5c;" x="255.261591" xlink:href="#m6e84d4355e" y="143.015232"/>
     <use style="fill:#cd5c5c;stroke:#cd5c5c;" x="167.740157" xlink:href="#m6e84d4355e" y="198.100677"/>
     <use style="fill:#cd5c5c;stroke:#cd5c5c;" x="181.204993" xlink:href="#m6e84d4355e" y="190.847908"/>
     <use style="fill:#cd5c5c;stroke:#cd5c5c;" x="113.880813" xlink:href="#m6e84d4355e" y="222.92015"/>
     <use style="fill:#cd5c5c;stroke:#cd5c5c;" x="120.613231" xlink:href="#m6e84d4355e" y="219.792683"/>
     <use style="fill:#cd5c5c;stroke:#cd5c5c;" x="93.683559" xlink:href="#m6e84d4355e" y="231.33399"/>
     <use style="fill:#cd5c5c;stroke:#cd5c5c;" x="235.064337" xlink:href="#m6e84d4355e" y="156.50183"/>
     <use style="fill:#cd5c5c;stroke:#cd5c5c;" x="134.078067" xlink:href="#m6e84d4355e" y="215.30674"/>
     <use style="fill:#cd5c5c;stroke:#cd5c5c;" x="187.937411" xlink:href="#m6e84d4355e" y="185.478305"/>
     <use style="fill:#cd5c5c;stroke:#cd5c5c;" x="295.656099" xlink:href="#m6e84d4355e" y="114.22126"/>
     <use style="fill:#cd5c5c;stroke:#cd5c5c;" x="248.529173" xlink:href="#m6e84d4355e" y="147.335772"/>
     <use style="fill:#cd5c5c;stroke:#cd5c5c;" x="73.486305" xlink:href="#m6e84d4355e" y="241.191156"/>
     <use style="fill:#cd5c5c;stroke:#cd5c5c;" x="214.867083" xlink:href="#m6e84d4355e" y="171.470444"/>
     <use style="fill:#cd5c5c;stroke:#cd5c5c;" x="268.726427" xlink:href="#m6e84d4355e" y="132.732391"/>
    </g>
   </g>
   <g id="line2d_30">
    <path clip-path="url(#pda7638bd55)" d="M 52.958501 247.694775 
L 59.704411 245.29819 
L 66.450321 242.83824 
L 73.196231 240.313744 
L 79.942141 237.723518 
L 86.68805 235.066378 
L 93.43396 232.341142 
L 100.17987 229.546626 
L 106.92578 226.681647 
L 113.67169 223.745021 
L 120.4176 220.735566 
L 127.163509 217.652098 
L 133.909419 214.493434 
L 140.655329 211.25839 
L 147.401239 207.945784 
L 154.147149 204.554431 
L 160.893058 201.08315 
L 167.638968 197.530756 
L 174.384878 193.896066 
L 181.130788 190.177897 
L 187.876698 186.375066 
L 194.622607 182.486389 
L 201.368517 178.510684 
L 208.114427 174.446766 
L 214.860337 170.293453 
L 221.606247 166.049561 
L 228.352156 161.713908 
L 235.098066 157.285309 
L 241.843976 152.762582 
L 248.589886 148.144543 
L 255.335796 143.430009 
L 262.081705 138.617797 
L 268.827615 133.706723 
L 275.573525 128.695605 
L 282.319435 123.583258 
L 289.065345 118.368501 
L 295.811255 113.050149 
L 302.557164 107.627018 
L 309.303074 102.097927 
L 316.048984 96.461692 
L 322.794894 90.717129 
L 329.540804 84.863055 
L 336.286713 78.898286 
L 343.032623 72.821641 
L 349.778533 66.631934 
L 356.524443 60.327984 
L 363.270353 53.908607 
L 370.016262 47.372619 
L 376.762172 40.718837 
L 383.508082 33.946078 
" style="fill:none;stroke:#cd5c5c;stroke-linecap:round;stroke-width:1.5;"/>
   </g>
   <g id="line2d_31">
    <defs>
     <path d="M 0 1.5 
C 0.397805 1.5 0.77937 1.341951 1.06066 1.06066 
C 1.341951 0.77937 1.5 0.397805 1.5 0 
C 1.5 -0.397805 1.341951 -0.77937 1.06066 -1.06066 
C 0.77937 -1.341951 0.397805 -1.5 0 -1.5 
C -0.397805 -1.5 -0.77937 -1.341951 -1.06066 -1.06066 
C -1.341951 -0.77937 -1.5 -0.397805 -1.5 0 
C -1.5 0.397805 -1.341951 0.77937 -1.06066 1.06066 
C -0.77937 1.341951 -0.397805 1.5 0 1.5 
z
" id="m5313a14f8e" style="stroke:#800000;"/>
    </defs>
    <g clip-path="url(#pda7638bd55)">
     <use style="fill:#800000;stroke:#800000;" x="107.148395" xlink:href="#m5313a14f8e" y="229.677704"/>
     <use style="fill:#800000;stroke:#800000;" x="174.472575" xlink:href="#m5313a14f8e" y="208.470372"/>
     <use style="fill:#800000;stroke:#800000;" x="161.007739" xlink:href="#m5313a14f8e" y="212.984534"/>
     <use style="fill:#800000;stroke:#800000;" x="376.445114" xlink:href="#m5313a14f8e" y="145.378814"/>
     <use style="fill:#800000;stroke:#800000;" x="369.712696" xlink:href="#m5313a14f8e" y="147.522761"/>
     <use style="fill:#800000;stroke:#800000;" x="221.599501" xlink:href="#m5313a14f8e" y="193.490456"/>
     <use style="fill:#800000;stroke:#800000;" x="356.24786" xlink:href="#m5313a14f8e" y="151.782463"/>
     <use style="fill:#800000;stroke:#800000;" x="362.980278" xlink:href="#m5313a14f8e" y="149.672805"/>
     <use style="fill:#800000;stroke:#800000;" x="134.078067" xlink:href="#m5313a14f8e" y="221.560168"/>
     <use style="fill:#800000;stroke:#800000;" x="154.275321" xlink:href="#m5313a14f8e" y="215.281881"/>
     <use style="fill:#800000;stroke:#800000;" x="255.261591" xlink:href="#m5313a14f8e" y="182.819053"/>
     <use style="fill:#800000;stroke:#800000;" x="309.120935" xlink:href="#m5313a14f8e" y="166.71513"/>
     <use style="fill:#800000;stroke:#800000;" x="167.740157" xlink:href="#m5313a14f8e" y="211.11609"/>
     <use style="fill:#800000;stroke:#800000;" x="181.204993" xlink:href="#m5313a14f8e" y="206.915074"/>
     <use style="fill:#800000;stroke:#800000;" x="268.726427" xlink:href="#m5313a14f8e" y="178.313353"/>
     <use style="fill:#800000;stroke:#800000;" x="66.753887" xlink:href="#m5313a14f8e" y="243.053674"/>
     <use style="fill:#800000;stroke:#800000;" x="60.021469" xlink:href="#m5313a14f8e" y="245.179938"/>
     <use style="fill:#800000;stroke:#800000;" x="93.683559" xlink:href="#m5313a14f8e" y="233.243978"/>
     <use style="fill:#800000;stroke:#800000;" x="261.994009" xlink:href="#m5313a14f8e" y="181.773633"/>
     <use style="fill:#800000;stroke:#800000;" x="80.218723" xlink:href="#m5313a14f8e" y="238.948261"/>
     <use style="fill:#800000;stroke:#800000;" x="86.951141" xlink:href="#m5313a14f8e" y="236.860036"/>
     <use style="fill:#800000;stroke:#800000;" x="140.810485" xlink:href="#m5313a14f8e" y="218.311257"/>
     <use style="fill:#800000;stroke:#800000;" x="127.345649" xlink:href="#m5313a14f8e" y="222.521379"/>
     <use style="fill:#800000;stroke:#800000;" x="302.388517" xlink:href="#m5313a14f8e" y="167.529352"/>
     <use style="fill:#800000;stroke:#800000;" x="113.880813" xlink:href="#m5313a14f8e" y="226.710575"/>
     <use style="fill:#800000;stroke:#800000;" x="295.656099" xlink:href="#m5313a14f8e" y="171.444726"/>
     <use style="fill:#800000;stroke:#800000;" x="120.613231" xlink:href="#m5313a14f8e" y="224.470448"/>
     <use style="fill:#800000;stroke:#800000;" x="187.937411" xlink:href="#m5313a14f8e" y="203.137916"/>
     <use style="fill:#800000;stroke:#800000;" x="208.134665" xlink:href="#m5313a14f8e" y="196.795137"/>
     <use style="fill:#800000;stroke:#800000;" x="214.867083" xlink:href="#m5313a14f8e" y="197.158345"/>
     <use style="fill:#800000;stroke:#800000;" x="201.402247" xlink:href="#m5313a14f8e" y="201.405157"/>
     <use style="fill:#800000;stroke:#800000;" x="282.191263" xlink:href="#m5313a14f8e" y="176.046665"/>
     <use style="fill:#800000;stroke:#800000;" x="235.064337" xlink:href="#m5313a14f8e" y="188.186491"/>
    </g>
   </g>
   <g id="line2d_32">
    <path clip-path="url(#pda7638bd55)" d="M 52.958501 246.668064 
L 59.704411 244.554056 
L 66.450321 242.440048 
L 73.196231 240.32604 
L 79.942141 238.212032 
L 86.68805 236.098024 
L 93.43396 233.984015 
L 100.17987 231.870007 
L 106.92578 229.755999 
L 113.67169 227.641991 
L 120.4176 225.527983 
L 127.163509 223.413975 
L 133.909419 221.299967 
L 140.655329 219.185959 
L 147.401239 217.071951 
L 154.147149 214.957943 
L 160.893058 212.843934 
L 167.638968 210.729926 
L 174.384878 208.615918 
L 181.130788 206.50191 
L 187.876698 204.387902 
L 194.622607 202.273894 
L 201.368517 200.159886 
L 208.114427 198.045878 
L 214.860337 195.93187 
L 221.606247 193.817862 
L 228.352156 191.703853 
L 235.098066 189.589845 
L 241.843976 187.475837 
L 248.589886 185.361829 
L 255.335796 183.247821 
L 262.081705 181.133813 
L 268.827615 179.019805 
L 275.573525 176.905797 
L 282.319435 174.791789 
L 289.065345 172.677781 
L 295.811255 170.563772 
L 302.557164 168.449764 
L 309.303074 166.335756 
L 316.048984 164.221748 
L 322.794894 162.10774 
L 329.540804 159.993732 
L 336.286713 157.879724 
L 343.032623 155.765716 
L 349.778533 153.651708 
L 356.524443 151.537699 
L 363.270353 149.423691 
L 370.016262 147.309683 
L 376.762172 145.195675 
L 383.508082 143.081667 
" style="fill:none;stroke:#800000;stroke-linecap:round;stroke-width:1.5;"/>
   </g>
   <g id="patch_3">
    <path d="M 52.958501 270.141178 
L 52.958501 22.74751 
" style="fill:none;stroke:#262626;stroke-linecap:square;stroke-linejoin:miter;stroke-width:1.25;"/>
   </g>
   <g id="patch_4">
    <path d="M 383.508082 270.141178 
L 383.508082 22.74751 
" style="fill:none;stroke:#262626;stroke-linecap:square;stroke-linejoin:miter;stroke-width:1.25;"/>
   </g>
   <g id="patch_5">
    <path d="M 52.958501 270.141178 
L 383.508082 270.141178 
" style="fill:none;stroke:#262626;stroke-linecap:square;stroke-linejoin:miter;stroke-width:1.25;"/>
   </g>
   <g id="patch_6">
    <path d="M 52.958501 22.74751 
L 383.508082 22.74751 
" style="fill:none;stroke:#262626;stroke-linecap:square;stroke-linejoin:miter;stroke-width:1.25;"/>
   </g>
   <g id="text_18">
    <!-- a -->
    <g style="fill:#262626;" transform="translate(214.867822 16.74751)scale(0.138 -0.138)">
     <defs>
      <path d="M 2304 1653 
C 2304 2072 2304 2294 2035 2543 
C 1798 2752 1523 2816 1306 2816 
C 800 2816 435 2407 435 1971 
C 435 1728 627 1728 666 1728 
C 749 1728 896 1778 896 1954 
C 896 2112 774 2181 666 2181 
C 640 2181 608 2174 589 2168 
C 723 2592 1069 2714 1293 2714 
C 1613 2714 1965 2429 1965 1885 
L 1965 1600 
C 1587 1600 1133 1549 774 1357 
C 371 1133 256 813 256 570 
C 256 77 832 -64 1171 -64 
C 1523 -64 1850 139 1990 511 
C 2003 233 2182 -18 2464 -18 
C 2598 -18 2938 70 2938 567 
L 2938 920 
L 2822 920 
L 2822 562 
C 2822 178 2650 128 2566 128 
C 2304 128 2304 458 2304 738 
L 2304 1653 
z
M 1965 870 
C 1965 317 1568 38 1216 38 
C 896 38 646 275 646 570 
C 646 761 730 1100 1101 1305 
C 1408 1478 1760 1504 1965 1504 
L 1965 870 
z
" id="CMR17-61" transform="scale(0.015625)"/>
     </defs>
     <use transform="scale(0.996264)" xlink:href="#CMR17-61"/>
    </g>
   </g>
   <g id="legend_1">
    <g id="patch_7">
     <path d="M 59.662541 83.800914 
L 264.14888 83.800914 
Q 266.06432 83.800914 266.06432 81.885474 
L 266.06432 29.45155 
Q 266.06432 27.53611 264.14888 27.53611 
L 59.662541 27.53611 
Q 57.747101 27.53611 57.747101 29.45155 
L 57.747101 81.885474 
Q 57.747101 83.800914 59.662541 83.800914 
z
" style="fill:#ffffff;opacity:0.8;stroke:#cccccc;stroke-linejoin:miter;"/>
    </g>
    <g id="line2d_33"/>
    <g id="line2d_34">
     <g>
      <use style="fill:#ffd700;stroke:#ffd700;" x="71.155181" xlink:href="#mc704bf4924" y="34.71901"/>
     </g>
    </g>
    <g id="text_19">
     <!-- LHS, $\boldsymbol{\Sigma}$ is not SPD, $\mathbf{X}$ is not orhtogonal -->
     <g style="fill:#262626;" transform="translate(88.394141 38.07103)scale(0.095772 -0.095772)">
      <defs>
       <path d="M 3469 1615 
L 3354 1615 
C 3302 983 3219 166 2125 166 
L 1530 166 
C 1274 166 1261 197 1261 414 
L 1261 3898 
C 1261 4129 1274 4192 1760 4192 
L 1901 4192 
L 1901 4352 
C 1638 4352 1331 4352 1069 4352 
C 870 4352 512 4352 326 4352 
L 326 4192 
C 768 4192 838 4192 838 3905 
L 838 452 
C 838 166 768 166 326 166 
L 326 0 
L 3315 0 
L 3469 1615 
z
" id="CMR17-4c" transform="scale(0.015625)"/>
       <path d="M 3590 3905 
C 3590 4192 3661 4192 4102 4192 
L 4102 4352 
C 3917 4352 3578 4352 3379 4352 
C 3181 4352 2842 4352 2656 4352 
L 2656 4192 
C 3098 4192 3168 4192 3168 3904 
L 3168 2341 
L 1261 2341 
L 1261 3904 
C 1261 4192 1331 4192 1773 4192 
L 1773 4352 
C 1587 4352 1248 4352 1050 4352 
C 851 4352 512 4352 326 4352 
L 326 4192 
C 768 4192 838 4192 838 3905 
L 838 447 
C 838 160 768 160 326 160 
L 326 0 
C 512 0 851 0 1050 0 
C 1248 0 1587 0 1773 0 
L 1773 160 
C 1331 160 1261 160 1261 446 
L 1261 2176 
L 3168 2176 
L 3168 446 
C 3168 160 3098 160 2656 160 
L 2656 0 
C 2842 0 3181 0 3379 0 
C 3578 0 3917 0 4102 0 
L 4102 160 
C 3661 160 3590 160 3590 447 
L 3590 3905 
z
" id="CMR17-48" transform="scale(0.015625)"/>
       <path d="M 2803 4290 
C 2803 4404 2797 4411 2758 4411 
C 2720 4411 2707 4385 2682 4328 
L 2490 3907 
C 2246 4257 1875 4416 1472 4416 
C 819 4416 294 3901 294 3253 
C 294 3056 339 2776 557 2510 
C 794 2218 1018 2167 1530 2033 
C 1722 1982 2042 1899 2106 1874 
C 2470 1722 2662 1341 2662 985 
C 2662 527 2336 38 1779 38 
C 1094 38 454 419 410 1311 
C 403 1413 397 1419 352 1419 
C 301 1419 294 1413 294 1285 
L 294 -1 
C 294 -115 301 -122 339 -122 
C 384 -122 397 -90 486 108 
C 493 127 493 140 614 381 
C 934 -39 1472 -128 1779 -128 
C 2477 -128 2970 451 2970 1124 
C 2970 1454 2848 1708 2778 1823 
C 2509 2230 2221 2306 1914 2382 
C 1869 2402 1856 2402 1498 2490 
C 1152 2579 1005 2624 845 2796 
C 666 2992 602 3196 602 3399 
C 602 3812 934 4263 1478 4263 
C 2157 4263 2579 3786 2675 2993 
C 2694 2878 2701 2872 2746 2872 
C 2803 2872 2803 2891 2803 2999 
L 2803 4290 
z
" id="CMR17-53" transform="scale(0.015625)"/>
       <path d="M 1011 102 
C 1024 45 1024 25 1024 -77 
C 1024 -463 896 -817 627 -1139 
C 595 -1170 595 -1183 595 -1197 
C 595 -1222 621 -1248 646 -1248 
C 685 -1248 1126 -799 1126 -87 
C 1126 124 1101 522 800 522 
C 659 522 538 427 538 261 
C 538 96 659 0 800 0 
C 877 0 960 32 1011 102 
z
" id="CMR17-2c" transform="scale(0.015625)"/>
       <path d="M 2944 2077 
C 2995 2129 3014 2141 3014 2186 
C 3014 2205 3014 2218 2963 2281 
L 1523 4096 
L 2886 4096 
C 3814 4096 4390 3937 4525 2861 
L 4794 2861 
L 4608 4371 
L 582 4371 
C 403 4371 397 4346 397 4166 
L 2246 1836 
L 467 204 
C 442 178 397 133 397 96 
C 397 0 499 0 582 0 
L 4608 0 
L 4794 1620 
L 4525 1620 
C 4397 517 3770 384 2861 384 
L 1094 384 
L 2944 2077 
z
" id="CMBX12-6" transform="scale(0.015625)"/>
       <path d="M 2656 1933 
C 2656 2259 2592 2790 1837 2790 
C 1331 2790 1069 2400 973 2144 
L 966 2144 
L 966 2790 
L 211 2720 
L 211 2554 
C 589 2554 646 2515 646 2208 
L 646 428 
C 646 184 621 153 211 153 
L 211 -13 
C 365 0 646 0 813 0 
C 979 0 1267 0 1421 -13 
L 1421 153 
C 1011 153 986 178 986 428 
L 986 1658 
C 986 2247 1344 2688 1792 2688 
C 2266 2688 2317 2266 2317 1958 
L 2317 428 
C 2317 184 2291 153 1882 153 
L 1882 -13 
C 2035 0 2317 0 2483 0 
C 2650 0 2938 0 3091 -13 
L 3091 153 
C 2682 153 2656 178 2656 428 
L 2656 1933 
z
" id="CMR17-6e" transform="scale(0.015625)"/>
       <path d="M 966 2560 
L 1862 2560 
L 1862 2725 
L 966 2725 
L 966 3904 
L 851 3904 
C 838 3245 614 2668 70 2668 
L 70 2560 
L 627 2560 
L 627 771 
C 627 650 627 -64 1370 -64 
C 1747 -64 1965 306 1965 777 
L 1965 1140 
L 1850 1140 
L 1850 783 
C 1850 344 1677 51 1408 51 
C 1222 51 966 178 966 758 
L 966 2560 
z
" id="CMR17-74" transform="scale(0.015625)"/>
       <path d="M 333 4352 
L 333 4186 
C 774 4186 845 4186 845 3900 
L 845 452 
C 845 166 774 166 333 166 
L 333 0 
L 2368 0 
C 3398 0 4224 943 4224 2141 
C 4224 3346 3411 4352 2368 4352 
L 333 4352 
z
M 1523 166 
C 1267 166 1254 197 1254 414 
L 1254 3938 
C 1254 4155 1267 4186 1523 4186 
L 2240 4186 
C 2771 4186 3750 3874 3750 2141 
C 3750 1242 3488 879 3366 707 
C 3213 510 2848 166 2240 166 
L 1523 166 
z
" id="CMR17-44" transform="scale(0.015625)"/>
       <path d="M 3008 2514 
L 4090 3957 
C 4154 4040 4179 4053 4390 4072 
C 4557 4091 4582 4091 4768 4091 
L 4934 4091 
L 4934 4365 
C 4787 4352 4275 4352 4096 4352 
C 3898 4352 3341 4352 3181 4365 
L 3181 4091 
C 3258 4091 3571 4091 3763 4014 
L 2829 2763 
L 1875 4091 
L 2406 4091 
L 2406 4352 
C 2176 4352 1574 4352 1312 4352 
C 1094 4352 461 4352 288 4365 
L 288 4091 
L 909 4091 
L 2330 2105 
L 1043 388 
C 986 311 966 292 742 272 
C 582 260 550 260 371 260 
L 198 260 
L 198 -13 
C 346 0 864 0 1043 0 
C 1242 0 1792 0 1952 -13 
L 1952 260 
C 1882 260 1555 260 1370 337 
L 2509 1856 
L 3661 260 
L 3130 260 
L 3130 0 
C 3334 0 3974 0 4218 0 
C 4422 0 5082 0 5242 -13 
L 5242 260 
L 4627 260 
L 3008 2514 
z
" id="CMBX12-58" transform="scale(0.015625)"/>
       <path d="M 2656 1933 
C 2656 2259 2592 2790 1837 2790 
C 1312 2790 1056 2368 979 2157 
L 973 2157 
L 973 4396 
L 211 4326 
L 211 4160 
C 589 4160 646 4122 646 3817 
L 646 426 
C 646 184 621 153 211 153 
L 211 -13 
C 365 0 646 0 813 0 
C 979 0 1267 0 1421 -13 
L 1421 153 
C 1011 153 986 178 986 428 
L 986 1658 
C 986 2247 1344 2688 1792 2688 
C 2266 2688 2317 2266 2317 1958 
L 2317 428 
C 2317 184 2291 153 1882 153 
L 1882 -13 
C 2035 0 2317 0 2483 0 
C 2650 0 2938 0 3091 -13 
L 3091 153 
C 2682 153 2656 178 2656 428 
L 2656 1933 
z
" id="CMR17-68" transform="scale(0.015625)"/>
       <path d="M 710 1164 
C 832 1068 1043 960 1299 960 
C 1805 960 2240 1357 2240 1888 
C 2240 2054 2189 2310 1997 2509 
C 2176 2692 2438 2752 2586 2752 
C 2611 2752 2650 2752 2682 2734 
C 2656 2728 2598 2703 2598 2605 
C 2598 2527 2656 2471 2739 2471 
C 2835 2471 2886 2533 2886 2614 
C 2886 2731 2790 2854 2586 2854 
C 2330 2854 2106 2738 1926 2580 
C 1734 2753 1504 2816 1299 2816 
C 794 2816 358 2419 358 1888 
C 358 1522 570 1292 634 1228 
C 442 1004 442 743 442 711 
C 442 545 506 302 723 168 
C 390 85 128 -169 128 -486 
C 128 -943 736 -1280 1466 -1280 
C 2170 -1280 2803 -956 2803 -479 
C 2803 384 1856 384 1363 384 
C 1216 384 954 384 922 391 
C 723 423 589 602 589 826 
C 589 883 589 1024 710 1164 
z
M 1299 1068 
C 736 1068 736 1760 736 1889 
C 736 2016 736 2708 1299 2708 
C 1862 2708 1862 2016 1862 1889 
C 1862 1760 1862 1068 1299 1068 
z
M 1466 -1171 
C 826 -1171 384 -835 384 -486 
C 384 -289 493 -105 634 -4 
C 794 104 858 104 1293 104 
C 1818 104 2547 104 2547 -486 
C 2547 -835 2106 -1171 1466 -1171 
z
" id="CMR17-67" transform="scale(0.015625)"/>
       <path d="M 979 4396 
L 218 4326 
L 218 4160 
C 595 4160 653 4122 653 3817 
L 653 426 
C 653 184 627 153 218 153 
L 218 -13 
C 371 0 653 0 813 0 
C 979 0 1261 0 1414 -13 
L 1414 153 
C 1005 153 979 178 979 426 
L 979 4396 
z
" id="CMR17-6c" transform="scale(0.015625)"/>
      </defs>
      <use transform="scale(0.996264)" xlink:href="#CMR17-4c"/>
      <use transform="translate(57.381408 0)scale(0.996264)" xlink:href="#CMR17-48"/>
      <use transform="translate(126.453838 0)scale(0.996264)" xlink:href="#CMR17-53"/>
      <use transform="translate(177.349207 0)scale(0.996264)" xlink:href="#CMR17-2c"/>
      <use transform="translate(232.296232 0)scale(0.996264)" xlink:href="#CMBX12-6"/>
      <use transform="translate(343.318649 0)scale(0.996264)" xlink:href="#CMR17-69"/>
      <use transform="translate(368.189708 0)scale(0.996264)" xlink:href="#CMR17-73"/>
      <use transform="translate(434.067012 0)scale(0.996264)" xlink:href="#CMR17-6e"/>
      <use transform="translate(484.962382 0)scale(0.996264)" xlink:href="#CMR17-6f"/>
      <use transform="translate(530.652859 0)scale(0.996264)" xlink:href="#CMR17-74"/>
      <use transform="translate(596.009593 0)scale(0.996264)" xlink:href="#CMR17-53"/>
      <use transform="translate(646.904963 0)scale(0.996264)" xlink:href="#CMR17-50"/>
      <use transform="translate(709.491263 0)scale(0.996264)" xlink:href="#CMR17-44"/>
      <use transform="translate(779.884819 0)scale(0.996264)" xlink:href="#CMR17-2c"/>
      <use transform="translate(834.831844 0)scale(0.996264)" xlink:href="#CMBX12-58"/>
      <use transform="translate(949.544205 0)scale(0.996264)" xlink:href="#CMR17-69"/>
      <use transform="translate(974.415263 0)scale(0.996264)" xlink:href="#CMR17-73"/>
      <use transform="translate(1040.292567 0)scale(0.996264)" xlink:href="#CMR17-6e"/>
      <use transform="translate(1091.187937 0)scale(0.996264)" xlink:href="#CMR17-6f"/>
      <use transform="translate(1136.878414 0)scale(0.996264)" xlink:href="#CMR17-74"/>
      <use transform="translate(1202.235148 0)scale(0.996264)" xlink:href="#CMR17-6f"/>
      <use transform="translate(1247.925626 0)scale(0.996264)" xlink:href="#CMR17-72"/>
      <use transform="translate(1283.206393 0)scale(0.996264)" xlink:href="#CMR17-68"/>
      <use transform="translate(1331.499309 0)scale(0.996264)" xlink:href="#CMR17-74"/>
      <use transform="translate(1366.780077 0)scale(0.996264)" xlink:href="#CMR17-6f"/>
      <use transform="translate(1412.470554 0)scale(0.996264)" xlink:href="#CMR17-67"/>
      <use transform="translate(1458.161031 0)scale(0.996264)" xlink:href="#CMR17-6f"/>
      <use transform="translate(1503.851508 0)scale(0.996264)" xlink:href="#CMR17-6e"/>
      <use transform="translate(1554.746878 0)scale(0.996264)" xlink:href="#CMR17-61"/>
      <use transform="translate(1600.437355 0)scale(0.996264)" xlink:href="#CMR17-6c"/>
     </g>
    </g>
    <g id="line2d_35"/>
    <g id="line2d_36">
     <g>
      <use style="fill:#9acd32;stroke:#9acd32;" x="71.155181" xlink:href="#m30af6023c3" y="48.066921"/>
     </g>
    </g>
    <g id="text_20">
     <!-- LHS, $\boldsymbol{\Sigma}$ is SPD, $\mathbf{X}$ is not orhtogonal -->
     <g style="fill:#262626;" transform="translate(88.394141 51.418941)scale(0.095772 -0.095772)">
      <use transform="scale(0.996264)" xlink:href="#CMR17-4c"/>
      <use transform="translate(57.381408 0)scale(0.996264)" xlink:href="#CMR17-48"/>
      <use transform="translate(126.453838 0)scale(0.996264)" xlink:href="#CMR17-53"/>
      <use transform="translate(177.349207 0)scale(0.996264)" xlink:href="#CMR17-2c"/>
      <use transform="translate(232.296232 0)scale(0.996264)" xlink:href="#CMBX12-6"/>
      <use transform="translate(343.318649 0)scale(0.996264)" xlink:href="#CMR17-69"/>
      <use transform="translate(368.189708 0)scale(0.996264)" xlink:href="#CMR17-73"/>
      <use transform="translate(434.067012 0)scale(0.996264)" xlink:href="#CMR17-53"/>
      <use transform="translate(484.962382 0)scale(0.996264)" xlink:href="#CMR17-50"/>
      <use transform="translate(547.548682 0)scale(0.996264)" xlink:href="#CMR17-44"/>
      <use transform="translate(617.942238 0)scale(0.996264)" xlink:href="#CMR17-2c"/>
      <use transform="translate(672.889263 0)scale(0.996264)" xlink:href="#CMBX12-58"/>
      <use transform="translate(787.601624 0)scale(0.996264)" xlink:href="#CMR17-69"/>
      <use transform="translate(812.472682 0)scale(0.996264)" xlink:href="#CMR17-73"/>
      <use transform="translate(878.349986 0)scale(0.996264)" xlink:href="#CMR17-6e"/>
      <use transform="translate(929.245356 0)scale(0.996264)" xlink:href="#CMR17-6f"/>
      <use transform="translate(974.935833 0)scale(0.996264)" xlink:href="#CMR17-74"/>
      <use transform="translate(1040.292567 0)scale(0.996264)" xlink:href="#CMR17-6f"/>
      <use transform="translate(1085.983045 0)scale(0.996264)" xlink:href="#CMR17-72"/>
      <use transform="translate(1121.263812 0)scale(0.996264)" xlink:href="#CMR17-68"/>
      <use transform="translate(1169.556728 0)scale(0.996264)" xlink:href="#CMR17-74"/>
      <use transform="translate(1204.837496 0)scale(0.996264)" xlink:href="#CMR17-6f"/>
      <use transform="translate(1250.527973 0)scale(0.996264)" xlink:href="#CMR17-67"/>
      <use transform="translate(1296.21845 0)scale(0.996264)" xlink:href="#CMR17-6f"/>
      <use transform="translate(1341.908927 0)scale(0.996264)" xlink:href="#CMR17-6e"/>
      <use transform="translate(1392.804297 0)scale(0.996264)" xlink:href="#CMR17-61"/>
      <use transform="translate(1438.494774 0)scale(0.996264)" xlink:href="#CMR17-6c"/>
     </g>
    </g>
    <g id="line2d_37"/>
    <g id="line2d_38">
     <g>
      <use style="fill:#cd5c5c;stroke:#cd5c5c;" x="71.155181" xlink:href="#m6e84d4355e" y="61.414832"/>
     </g>
    </g>
    <g id="text_21">
     <!-- RHS, $\mathbf{X}$ is not orthogonal -->
     <g style="fill:#262626;" transform="translate(88.394141 64.766852)scale(0.095772 -0.095772)">
      <defs>
       <path d="M 2509 2146 
C 3117 2268 3629 2676 3629 3186 
C 3629 3785 2950 4326 2054 4326 
L 333 4326 
L 333 4160 
C 774 4160 845 4160 845 3873 
L 845 415 
C 845 128 774 128 333 128 
L 333 -26 
C 518 -26 851 -26 1050 -26 
C 1248 -26 1581 -26 1766 -26 
L 1766 128 
C 1325 128 1254 128 1254 417 
L 1254 2112 
L 2003 2112 
C 2368 2112 2573 1964 2662 1881 
C 2918 1632 2918 1459 2918 1024 
C 2918 595 2918 377 3110 160 
C 3354 -102 3680 -128 3821 -128 
C 4294 -128 4365 396 4365 503 
C 4365 540 4365 585 4307 585 
C 4256 585 4250 547 4250 522 
C 4218 112 4032 -26 3834 -26 
C 3482 -26 3443 375 3405 764 
C 3386 898 3373 993 3360 1133 
C 3322 1452 3270 1917 2509 2146 
z
M 1984 2214 
L 1254 2214 
L 1254 3913 
C 1254 4129 1267 4160 1523 4160 
L 1990 4160 
C 2522 4160 3142 3977 3142 3190 
C 3142 2372 2464 2214 1984 2214 
z
" id="CMR17-52" transform="scale(0.015625)"/>
      </defs>
      <use transform="scale(0.996264)" xlink:href="#CMR17-52"/>
      <use transform="translate(67.791102 0)scale(0.996264)" xlink:href="#CMR17-48"/>
      <use transform="translate(136.863532 0)scale(0.996264)" xlink:href="#CMR17-53"/>
      <use transform="translate(187.758902 0)scale(0.996264)" xlink:href="#CMR17-2c"/>
      <use transform="translate(242.705926 0)scale(0.996264)" xlink:href="#CMBX12-58"/>
      <use transform="translate(357.418287 0)scale(0.996264)" xlink:href="#CMR17-69"/>
      <use transform="translate(382.289346 0)scale(0.996264)" xlink:href="#CMR17-73"/>
      <use transform="translate(448.16665 0)scale(0.996264)" xlink:href="#CMR17-6e"/>
      <use transform="translate(499.06202 0)scale(0.996264)" xlink:href="#CMR17-6f"/>
      <use transform="translate(544.752497 0)scale(0.996264)" xlink:href="#CMR17-74"/>
      <use transform="translate(610.109231 0)scale(0.996264)" xlink:href="#CMR17-6f"/>
      <use transform="translate(655.799708 0)scale(0.996264)" xlink:href="#CMR17-72"/>
      <use transform="translate(691.080476 0)scale(0.996264)" xlink:href="#CMR17-74"/>
      <use transform="translate(726.361244 0)scale(0.996264)" xlink:href="#CMR17-68"/>
      <use transform="translate(777.256613 0)scale(0.996264)" xlink:href="#CMR17-6f"/>
      <use transform="translate(822.947091 0)scale(0.996264)" xlink:href="#CMR17-67"/>
      <use transform="translate(868.637568 0)scale(0.996264)" xlink:href="#CMR17-6f"/>
      <use transform="translate(914.328045 0)scale(0.996264)" xlink:href="#CMR17-6e"/>
      <use transform="translate(965.223415 0)scale(0.996264)" xlink:href="#CMR17-61"/>
      <use transform="translate(1010.913892 0)scale(0.996264)" xlink:href="#CMR17-6c"/>
     </g>
    </g>
    <g id="line2d_39"/>
    <g id="line2d_40">
     <g>
      <use style="fill:#800000;stroke:#800000;" x="71.155181" xlink:href="#m5313a14f8e" y="74.762743"/>
     </g>
    </g>
    <g id="text_22">
     <!-- RHS, $\mathbf{X}$ is orthogonal -->
     <g style="fill:#262626;" transform="translate(88.394141 78.114763)scale(0.095772 -0.095772)">
      <use transform="scale(0.996264)" xlink:href="#CMR17-52"/>
      <use transform="translate(67.791102 0)scale(0.996264)" xlink:href="#CMR17-48"/>
      <use transform="translate(136.863532 0)scale(0.996264)" xlink:href="#CMR17-53"/>
      <use transform="translate(187.758902 0)scale(0.996264)" xlink:href="#CMR17-2c"/>
      <use transform="translate(242.705926 0)scale(0.996264)" xlink:href="#CMBX12-58"/>
      <use transform="translate(357.418287 0)scale(0.996264)" xlink:href="#CMR17-69"/>
      <use transform="translate(382.289346 0)scale(0.996264)" xlink:href="#CMR17-73"/>
      <use transform="translate(448.16665 0)scale(0.996264)" xlink:href="#CMR17-6f"/>
      <use transform="translate(493.857127 0)scale(0.996264)" xlink:href="#CMR17-72"/>
      <use transform="translate(529.137895 0)scale(0.996264)" xlink:href="#CMR17-74"/>
      <use transform="translate(564.418663 0)scale(0.996264)" xlink:href="#CMR17-68"/>
      <use transform="translate(615.314032 0)scale(0.996264)" xlink:href="#CMR17-6f"/>
      <use transform="translate(661.004509 0)scale(0.996264)" xlink:href="#CMR17-67"/>
      <use transform="translate(706.694987 0)scale(0.996264)" xlink:href="#CMR17-6f"/>
      <use transform="translate(752.385464 0)scale(0.996264)" xlink:href="#CMR17-6e"/>
      <use transform="translate(803.280833 0)scale(0.996264)" xlink:href="#CMR17-61"/>
      <use transform="translate(848.971311 0)scale(0.996264)" xlink:href="#CMR17-6c"/>
     </g>
    </g>
   </g>
  </g>
 </g>
 <defs>
  <clipPath id="pda7638bd55">
   <rect height="247.393668" width="330.549581" x="52.958501" y="22.74751"/>
  </clipPath>
 </defs>
</svg>
