<?xml version="1.0" encoding="utf-8" standalone="no"?>
<!DOCTYPE svg PUBLIC "-//W3C//DTD SVG 1.1//EN"
  "http://www.w3.org/Graphics/SVG/1.1/DTD/svg11.dtd">
<svg height="315.792pt" version="1.1" viewBox="0 0 398.592 315.792" width="398.592pt" xmlns="http://www.w3.org/2000/svg" xmlns:xlink="http://www.w3.org/1999/xlink">
 <metadata>
  <rdf:RDF xmlns:cc="http://creativecommons.org/ns#" xmlns:dc="http://purl.org/dc/elements/1.1/" xmlns:rdf="http://www.w3.org/1999/02/22-rdf-syntax-ns#">
   <cc:Work>
    <dc:type rdf:resource="http://purl.org/dc/dcmitype/StillImage"/>
    <dc:date>2022-01-25T18:58:35.294969</dc:date>
    <dc:format>image/svg+xml</dc:format>
    <dc:creator>
     <cc:Agent>
      <dc:title>Matplotlib v3.4.2, https://matplotlib.org/</dc:title>
     </cc:Agent>
    </dc:creator>
   </cc:Work>
  </rdf:RDF>
 </metadata>
 <defs>
  <style type="text/css">*{stroke-linecap:butt;stroke-linejoin:round;}</style>
 </defs>
 <g id="figure_1">
  <g id="patch_1">
   <path d="M 0 315.792 
L 398.592 315.792 
L 398.592 0 
L 0 0 
z
" style="fill:none;"/>
  </g>
  <g id="axes_1">
   <g id="patch_2">
    <path d="M 51.096177 270.141178 
L 383.508082 270.141178 
L 383.508082 22.74751 
L 51.096177 22.74751 
z
" style="fill:none;"/>
   </g>
   <g id="matplotlib.axis_1">
    <g id="xtick_1">
     <g id="line2d_1">
      <defs>
       <path d="M 0 0 
L 0 6 
" id="m4a97eaca4b" style="stroke:#262626;stroke-width:1.25;"/>
      </defs>
      <g>
       <use style="fill:#262626;stroke:#262626;stroke-width:1.25;" x="51.096177" xlink:href="#m4a97eaca4b" y="270.141178"/>
      </g>
     </g>
     <g id="text_1">
      <!-- $\mathdefault{0.0}$ -->
      <g style="fill:#262626;" transform="translate(43.212259 288.393057)scale(0.1265 -0.1265)">
       <defs>
        <path d="M 2688 2025 
C 2688 2416 2682 3080 2413 3591 
C 2176 4039 1798 4198 1466 4198 
C 1158 4198 768 4058 525 3597 
C 269 3118 243 2524 243 2025 
C 243 1661 250 1106 448 619 
C 723 -39 1216 -128 1466 -128 
C 1760 -128 2208 -7 2470 600 
C 2662 1042 2688 1559 2688 2025 
z
M 1466 -26 
C 1056 -26 813 325 723 812 
C 653 1188 653 1738 653 2096 
C 653 2588 653 2997 736 3387 
C 858 3929 1216 4096 1466 4096 
C 1728 4096 2067 3923 2189 3400 
C 2272 3036 2278 2607 2278 2096 
C 2278 1680 2278 1169 2202 792 
C 2067 95 1690 -26 1466 -26 
z
" id="CMR17-30" transform="scale(0.015625)"/>
        <path d="M 1178 307 
C 1178 492 1024 619 870 619 
C 685 619 557 466 557 313 
C 557 128 710 0 864 0 
C 1050 0 1178 153 1178 307 
z
" id="CMMI12-3a" transform="scale(0.015625)"/>
       </defs>
       <use transform="scale(0.996264)" xlink:href="#CMR17-30"/>
       <use transform="translate(45.690477 0)scale(0.996264)" xlink:href="#CMMI12-3a"/>
       <use transform="translate(72.787654 0)scale(0.996264)" xlink:href="#CMR17-30"/>
      </g>
     </g>
    </g>
    <g id="xtick_2">
     <g id="line2d_2">
      <g>
       <use style="fill:#262626;stroke:#262626;stroke-width:1.25;" x="117.578558" xlink:href="#m4a97eaca4b" y="270.141178"/>
      </g>
     </g>
     <g id="text_2">
      <!-- $\mathdefault{0.2}$ -->
      <g style="fill:#262626;" transform="translate(109.69464 288.393057)scale(0.1265 -0.1265)">
       <defs>
        <path d="M 2669 989 
L 2554 989 
C 2490 536 2438 459 2413 420 
C 2381 369 1920 369 1830 369 
L 602 369 
C 832 619 1280 1072 1824 1597 
C 2214 1967 2669 2402 2669 3035 
C 2669 3790 2067 4224 1395 4224 
C 691 4224 262 3604 262 3030 
C 262 2780 448 2748 525 2748 
C 589 2748 781 2787 781 3010 
C 781 3207 614 3264 525 3264 
C 486 3264 448 3258 422 3245 
C 544 3790 915 4058 1306 4058 
C 1862 4058 2227 3617 2227 3035 
C 2227 2479 1901 2000 1536 1584 
L 262 146 
L 262 0 
L 2515 0 
L 2669 989 
z
" id="CMR17-32" transform="scale(0.015625)"/>
       </defs>
       <use transform="scale(0.996264)" xlink:href="#CMR17-30"/>
       <use transform="translate(45.690477 0)scale(0.996264)" xlink:href="#CMMI12-3a"/>
       <use transform="translate(72.787654 0)scale(0.996264)" xlink:href="#CMR17-32"/>
      </g>
     </g>
    </g>
    <g id="xtick_3">
     <g id="line2d_3">
      <g>
       <use style="fill:#262626;stroke:#262626;stroke-width:1.25;" x="184.060939" xlink:href="#m4a97eaca4b" y="270.141178"/>
      </g>
     </g>
     <g id="text_3">
      <!-- $\mathdefault{0.4}$ -->
      <g style="fill:#262626;" transform="translate(176.177021 288.393057)scale(0.1265 -0.1265)">
       <defs>
        <path d="M 2150 4122 
C 2150 4256 2144 4256 2029 4256 
L 128 1254 
L 128 1088 
L 1779 1088 
L 1779 457 
C 1779 224 1766 160 1318 160 
L 1197 160 
L 1197 0 
C 1402 0 1747 0 1965 0 
C 2182 0 2528 0 2733 0 
L 2733 160 
L 2611 160 
C 2163 160 2150 224 2150 457 
L 2150 1088 
L 2803 1088 
L 2803 1254 
L 2150 1254 
L 2150 4122 
z
M 1798 3703 
L 1798 1254 
L 256 1254 
L 1798 3703 
z
" id="CMR17-34" transform="scale(0.015625)"/>
       </defs>
       <use transform="scale(0.996264)" xlink:href="#CMR17-30"/>
       <use transform="translate(45.690477 0)scale(0.996264)" xlink:href="#CMMI12-3a"/>
       <use transform="translate(72.787654 0)scale(0.996264)" xlink:href="#CMR17-34"/>
      </g>
     </g>
    </g>
    <g id="xtick_4">
     <g id="line2d_4">
      <g>
       <use style="fill:#262626;stroke:#262626;stroke-width:1.25;" x="250.54332" xlink:href="#m4a97eaca4b" y="270.141178"/>
      </g>
     </g>
     <g id="text_4">
      <!-- $\mathdefault{0.6}$ -->
      <g style="fill:#262626;" transform="translate(242.659402 288.393057)scale(0.1265 -0.1265)">
       <defs>
        <path d="M 678 2176 
C 678 3690 1395 4032 1811 4032 
C 1946 4032 2272 4009 2400 3776 
C 2298 3776 2106 3776 2106 3553 
C 2106 3381 2246 3323 2336 3323 
C 2394 3323 2566 3348 2566 3560 
C 2566 3954 2246 4179 1805 4179 
C 1043 4179 243 3390 243 1984 
C 243 253 966 -128 1478 -128 
C 2099 -128 2688 427 2688 1283 
C 2688 2081 2170 2662 1517 2662 
C 1126 2662 838 2407 678 1960 
L 678 2176 
z
M 1478 25 
C 691 25 691 1200 691 1436 
C 691 1896 909 2560 1504 2560 
C 1613 2560 1926 2560 2138 2120 
C 2253 1870 2253 1609 2253 1289 
C 2253 944 2253 690 2118 434 
C 1978 171 1773 25 1478 25 
z
" id="CMR17-36" transform="scale(0.015625)"/>
       </defs>
       <use transform="scale(0.996264)" xlink:href="#CMR17-30"/>
       <use transform="translate(45.690477 0)scale(0.996264)" xlink:href="#CMMI12-3a"/>
       <use transform="translate(72.787654 0)scale(0.996264)" xlink:href="#CMR17-36"/>
      </g>
     </g>
    </g>
    <g id="xtick_5">
     <g id="line2d_5">
      <g>
       <use style="fill:#262626;stroke:#262626;stroke-width:1.25;" x="317.025701" xlink:href="#m4a97eaca4b" y="270.141178"/>
      </g>
     </g>
     <g id="text_5">
      <!-- $\mathdefault{0.8}$ -->
      <g style="fill:#262626;" transform="translate(309.141783 288.393057)scale(0.1265 -0.1265)">
       <defs>
        <path d="M 1741 2264 
C 2144 2467 2554 2773 2554 3263 
C 2554 3841 1990 4179 1472 4179 
C 890 4179 378 3759 378 3180 
C 378 3021 416 2747 666 2505 
C 730 2442 998 2251 1171 2130 
C 883 1983 211 1634 211 934 
C 211 279 838 -128 1459 -128 
C 2144 -128 2720 362 2720 1010 
C 2720 1590 2330 1857 2074 2029 
L 1741 2264 
z
M 902 2822 
C 851 2854 595 3051 595 3351 
C 595 3739 998 4032 1459 4032 
C 1965 4032 2336 3676 2336 3262 
C 2336 2669 1670 2331 1638 2331 
C 1632 2331 1626 2331 1574 2370 
L 902 2822 
z
M 2080 1519 
C 2176 1449 2483 1240 2483 851 
C 2483 381 2010 25 1472 25 
C 890 25 448 438 448 940 
C 448 1443 838 1862 1280 2060 
L 2080 1519 
z
" id="CMR17-38" transform="scale(0.015625)"/>
       </defs>
       <use transform="scale(0.996264)" xlink:href="#CMR17-30"/>
       <use transform="translate(45.690477 0)scale(0.996264)" xlink:href="#CMMI12-3a"/>
       <use transform="translate(72.787654 0)scale(0.996264)" xlink:href="#CMR17-38"/>
      </g>
     </g>
    </g>
    <g id="xtick_6">
     <g id="line2d_6">
      <g>
       <use style="fill:#262626;stroke:#262626;stroke-width:1.25;" x="383.508082" xlink:href="#m4a97eaca4b" y="270.141178"/>
      </g>
     </g>
     <g id="text_6">
      <!-- $\mathdefault{1.0}$ -->
      <g style="fill:#262626;" transform="translate(375.624164 288.393057)scale(0.1265 -0.1265)">
       <defs>
        <path d="M 1702 4058 
C 1702 4192 1696 4192 1606 4192 
C 1357 3916 979 3827 621 3827 
C 602 3827 570 3827 563 3808 
C 557 3795 557 3782 557 3648 
C 755 3648 1088 3686 1344 3839 
L 1344 461 
C 1344 236 1331 160 781 160 
L 589 160 
L 589 0 
C 896 0 1216 0 1523 0 
C 1830 0 2150 0 2458 0 
L 2458 160 
L 2266 160 
C 1715 160 1702 230 1702 458 
L 1702 4058 
z
" id="CMR17-31" transform="scale(0.015625)"/>
       </defs>
       <use transform="scale(0.996264)" xlink:href="#CMR17-31"/>
       <use transform="translate(45.690477 0)scale(0.996264)" xlink:href="#CMMI12-3a"/>
       <use transform="translate(72.787654 0)scale(0.996264)" xlink:href="#CMR17-30"/>
      </g>
     </g>
    </g>
    <g id="text_7">
     <!-- $m/n$ -->
     <g style="fill:#262626;" transform="translate(204.031217 305.154892)scale(0.138 -0.138)">
      <defs>
       <path d="M 1318 1871 
C 1331 1910 1491 2229 1728 2433 
C 1894 2586 2112 2689 2362 2689 
C 2618 2689 2707 2497 2707 2242 
C 2707 2203 2707 2076 2630 1775 
L 2470 1118 
C 2419 926 2298 453 2285 383 
C 2259 287 2221 121 2221 96 
C 2221 6 2291 -64 2387 -64 
C 2579 -64 2611 83 2669 313 
L 3053 1839 
C 3066 1890 3398 2689 4102 2689 
C 4358 2689 4448 2497 4448 2242 
C 4448 1884 4198 1188 4058 805 
C 4000 651 3968 568 3968 453 
C 3968 166 4166 -64 4474 -64 
C 5069 -64 5293 875 5293 913 
C 5293 945 5267 971 5229 971 
C 5171 971 5165 952 5133 843 
C 4986 332 4749 64 4493 64 
C 4429 64 4326 64 4326 269 
C 4326 436 4403 640 4429 710 
C 4544 1018 4832 1773 4832 2145 
C 4832 2528 4608 2816 4122 2816 
C 3693 2816 3347 2574 3091 2197 
C 3072 2542 2861 2816 2381 2816 
C 1811 2816 1510 2415 1395 2255 
C 1376 2618 1114 2816 832 2816 
C 646 2816 499 2727 378 2484 
C 262 2254 173 1865 173 1839 
C 173 1814 198 1782 243 1782 
C 294 1782 301 1788 339 1935 
C 435 2312 557 2689 813 2689 
C 960 2689 1011 2586 1011 2395 
C 1011 2254 947 2005 902 1807 
L 723 1118 
C 698 996 627 709 595 594 
C 550 428 480 128 480 96 
C 480 6 550 -64 646 -64 
C 723 -64 813 -26 864 70 
C 877 102 934 326 966 453 
L 1107 1028 
L 1318 1871 
z
" id="CMMI12-6d" transform="scale(0.015625)"/>
       <path d="M 2746 4562 
C 2746 4569 2784 4666 2784 4678 
C 2784 4755 2720 4800 2669 4800 
C 2637 4800 2579 4800 2528 4659 
L 384 -1363 
C 384 -1370 346 -1465 346 -1478 
C 346 -1555 410 -1600 461 -1600 
C 499 -1600 557 -1593 602 -1459 
L 2746 4562 
z
" id="CMMI12-3d" transform="scale(0.015625)"/>
       <path d="M 1318 1871 
C 1331 1910 1491 2229 1728 2433 
C 1894 2586 2112 2689 2362 2689 
C 2618 2689 2707 2497 2707 2242 
C 2707 1878 2445 1150 2317 805 
C 2259 651 2227 568 2227 453 
C 2227 166 2426 -64 2733 -64 
C 3328 -64 3552 875 3552 913 
C 3552 945 3526 971 3488 971 
C 3430 971 3424 952 3392 843 
C 3245 319 3002 64 2752 64 
C 2688 64 2586 64 2586 269 
C 2586 429 2656 621 2694 710 
C 2822 1063 3091 1780 3091 2145 
C 3091 2528 2867 2816 2381 2816 
C 1811 2816 1510 2415 1395 2255 
C 1376 2618 1114 2816 832 2816 
C 627 2816 486 2695 378 2478 
C 262 2248 173 1865 173 1839 
C 173 1814 198 1782 243 1782 
C 294 1782 301 1788 339 1935 
C 442 2325 557 2689 813 2689 
C 960 2689 1011 2586 1011 2395 
C 1011 2254 947 2005 902 1807 
L 723 1118 
C 698 996 627 709 595 594 
C 550 428 480 128 480 96 
C 480 6 550 -64 646 -64 
C 723 -64 813 -26 864 70 
C 877 102 934 326 966 453 
L 1107 1028 
L 1318 1871 
z
" id="CMMI12-6e" transform="scale(0.015625)"/>
      </defs>
      <use transform="scale(0.996264)" xlink:href="#CMMI12-6d"/>
      <use transform="translate(85.327224 0)scale(0.996264)" xlink:href="#CMMI12-3d"/>
      <use transform="translate(134.102143 0)scale(0.996264)" xlink:href="#CMMI12-6e"/>
     </g>
    </g>
   </g>
   <g id="matplotlib.axis_2">
    <g id="ytick_1">
     <g id="line2d_7">
      <path clip-path="url(#p3b636962d9)" d="M 51.096177 270.141178 
L 383.508082 270.141178 
" style="fill:none;stroke:#cccccc;stroke-linecap:round;"/>
     </g>
     <g id="line2d_8">
      <defs>
       <path d="M 0 0 
L -6 0 
" id="m064c29390a" style="stroke:#262626;stroke-width:1.25;"/>
      </defs>
      <g>
       <use style="fill:#262626;stroke:#262626;stroke-width:1.25;" x="51.096177" xlink:href="#m064c29390a" y="270.141178"/>
      </g>
     </g>
     <g id="text_8">
      <!-- $\mathdefault{0.0}$ -->
      <g style="fill:#262626;" transform="translate(25.828341 274.517117)scale(0.1265 -0.1265)">
       <use transform="scale(0.996264)" xlink:href="#CMR17-30"/>
       <use transform="translate(45.690477 0)scale(0.996264)" xlink:href="#CMMI12-3a"/>
       <use transform="translate(72.787654 0)scale(0.996264)" xlink:href="#CMR17-30"/>
      </g>
     </g>
    </g>
    <g id="ytick_2">
     <g id="line2d_9">
      <path clip-path="url(#p3b636962d9)" d="M 51.096177 215.563398 
L 383.508082 215.563398 
" style="fill:none;stroke:#cccccc;stroke-linecap:round;"/>
     </g>
     <g id="line2d_10">
      <g>
       <use style="fill:#262626;stroke:#262626;stroke-width:1.25;" x="51.096177" xlink:href="#m064c29390a" y="215.563398"/>
      </g>
     </g>
     <g id="text_9">
      <!-- $\mathdefault{0.5}$ -->
      <g style="fill:#262626;" transform="translate(25.828341 219.939337)scale(0.1265 -0.1265)">
       <defs>
        <path d="M 730 3692 
C 794 3666 1056 3584 1325 3584 
C 1920 3584 2246 3911 2432 4100 
C 2432 4157 2432 4192 2394 4192 
C 2387 4192 2374 4192 2323 4163 
C 2099 4058 1837 3973 1517 3973 
C 1325 3973 1037 3999 723 4139 
C 653 4171 640 4171 634 4171 
C 602 4171 595 4164 595 4037 
L 595 2203 
C 595 2089 595 2057 659 2057 
C 691 2057 704 2070 736 2114 
C 941 2401 1222 2522 1542 2522 
C 1766 2522 2246 2382 2246 1289 
C 2246 1085 2246 715 2054 421 
C 1894 159 1645 25 1370 25 
C 947 25 518 320 403 814 
C 429 807 480 795 506 795 
C 589 795 749 840 749 1038 
C 749 1210 627 1280 506 1280 
C 358 1280 262 1190 262 1011 
C 262 454 704 -128 1382 -128 
C 2042 -128 2669 440 2669 1264 
C 2669 2030 2170 2624 1549 2624 
C 1222 2624 947 2503 730 2274 
L 730 3692 
z
" id="CMR17-35" transform="scale(0.015625)"/>
       </defs>
       <use transform="scale(0.996264)" xlink:href="#CMR17-30"/>
       <use transform="translate(45.690477 0)scale(0.996264)" xlink:href="#CMMI12-3a"/>
       <use transform="translate(72.787654 0)scale(0.996264)" xlink:href="#CMR17-35"/>
      </g>
     </g>
    </g>
    <g id="ytick_3">
     <g id="line2d_11">
      <path clip-path="url(#p3b636962d9)" d="M 51.096177 160.985618 
L 383.508082 160.985618 
" style="fill:none;stroke:#cccccc;stroke-linecap:round;"/>
     </g>
     <g id="line2d_12">
      <g>
       <use style="fill:#262626;stroke:#262626;stroke-width:1.25;" x="51.096177" xlink:href="#m064c29390a" y="160.985618"/>
      </g>
     </g>
     <g id="text_10">
      <!-- $\mathdefault{1.0}$ -->
      <g style="fill:#262626;" transform="translate(25.828341 165.361558)scale(0.1265 -0.1265)">
       <use transform="scale(0.996264)" xlink:href="#CMR17-31"/>
       <use transform="translate(45.690477 0)scale(0.996264)" xlink:href="#CMMI12-3a"/>
       <use transform="translate(72.787654 0)scale(0.996264)" xlink:href="#CMR17-30"/>
      </g>
     </g>
    </g>
    <g id="ytick_4">
     <g id="line2d_13">
      <path clip-path="url(#p3b636962d9)" d="M 51.096177 106.407838 
L 383.508082 106.407838 
" style="fill:none;stroke:#cccccc;stroke-linecap:round;"/>
     </g>
     <g id="line2d_14">
      <g>
       <use style="fill:#262626;stroke:#262626;stroke-width:1.25;" x="51.096177" xlink:href="#m064c29390a" y="106.407838"/>
      </g>
     </g>
     <g id="text_11">
      <!-- $\mathdefault{1.5}$ -->
      <g style="fill:#262626;" transform="translate(25.828341 110.783778)scale(0.1265 -0.1265)">
       <use transform="scale(0.996264)" xlink:href="#CMR17-31"/>
       <use transform="translate(45.690477 0)scale(0.996264)" xlink:href="#CMMI12-3a"/>
       <use transform="translate(72.787654 0)scale(0.996264)" xlink:href="#CMR17-35"/>
      </g>
     </g>
    </g>
    <g id="ytick_5">
     <g id="line2d_15">
      <path clip-path="url(#p3b636962d9)" d="M 51.096177 51.830059 
L 383.508082 51.830059 
" style="fill:none;stroke:#cccccc;stroke-linecap:round;"/>
     </g>
     <g id="line2d_16">
      <g>
       <use style="fill:#262626;stroke:#262626;stroke-width:1.25;" x="51.096177" xlink:href="#m064c29390a" y="51.830059"/>
      </g>
     </g>
     <g id="text_12">
      <!-- $\mathdefault{2.0}$ -->
      <g style="fill:#262626;" transform="translate(25.828341 56.205998)scale(0.1265 -0.1265)">
       <use transform="scale(0.996264)" xlink:href="#CMR17-32"/>
       <use transform="translate(45.690477 0)scale(0.996264)" xlink:href="#CMMI12-3a"/>
       <use transform="translate(72.787654 0)scale(0.996264)" xlink:href="#CMR17-30"/>
      </g>
     </g>
    </g>
    <g id="text_13">
     <!-- FLOPs/$n^3$ -->
     <g style="fill:#262626;" transform="translate(18.391233 177.368471)rotate(-90)scale(0.138 -0.138)">
      <defs>
       <path d="M 3482 4325 
L 326 4325 
L 326 4160 
C 768 4160 838 4160 838 3874 
L 838 446 
C 838 160 768 160 326 160 
L 326 0 
C 512 0 870 0 1069 0 
C 1331 0 1638 0 1901 0 
L 1901 160 
L 1760 160 
C 1274 160 1261 223 1261 452 
L 1261 2075 
L 1837 2075 
C 2432 2075 2490 1865 2490 1332 
L 2605 1332 
L 2605 2987 
L 2490 2987 
C 2490 2450 2432 2240 1837 2240 
L 1261 2240 
L 1261 3911 
C 1261 4128 1274 4160 1530 4160 
L 2355 4160 
C 3322 4160 3430 3765 3520 2916 
L 3635 2916 
L 3482 4325 
z
" id="CMR17-46" transform="scale(0.015625)"/>
       <path d="M 3469 1615 
L 3354 1615 
C 3302 983 3219 166 2125 166 
L 1530 166 
C 1274 166 1261 197 1261 414 
L 1261 3898 
C 1261 4129 1274 4192 1760 4192 
L 1901 4192 
L 1901 4352 
C 1638 4352 1331 4352 1069 4352 
C 870 4352 512 4352 326 4352 
L 326 4192 
C 768 4192 838 4192 838 3905 
L 838 452 
C 838 166 768 166 326 166 
L 326 0 
L 3315 0 
L 3469 1615 
z
" id="CMR17-4c" transform="scale(0.015625)"/>
       <path d="M 4307 2135 
C 4307 3437 3366 4416 2304 4416 
C 1216 4416 294 3424 294 2135 
C 294 845 1229 -128 2298 -128 
C 3392 -128 4307 864 4307 2135 
z
M 2304 -13 
C 1574 -13 781 711 781 2217 
C 781 3716 1651 4301 2298 4301 
C 2976 4301 3821 3698 3821 2217 
C 3821 686 3008 -13 2304 -13 
z
" id="CMR17-4f" transform="scale(0.015625)"/>
       <path d="M 1267 2042 
L 2291 2042 
C 3117 2042 3718 2578 3718 3184 
C 3718 3791 3130 4352 2291 4352 
L 333 4352 
L 333 4186 
C 774 4186 845 4186 845 3899 
L 845 446 
C 845 160 774 160 333 160 
L 333 0 
C 518 0 858 0 1056 0 
C 1254 0 1594 0 1779 0 
L 1779 160 
C 1338 160 1267 160 1267 446 
L 1267 2042 
z
M 1254 2176 
L 1254 3938 
C 1254 4155 1267 4186 1523 4186 
L 2170 4186 
C 2995 4186 3232 3714 3232 3184 
C 3232 2604 2950 2176 2170 2176 
L 1254 2176 
z
" id="CMR17-50" transform="scale(0.015625)"/>
       <path d="M 1978 2697 
C 1978 2813 1971 2819 1933 2819 
C 1907 2819 1901 2813 1824 2717 
C 1805 2691 1747 2626 1728 2601 
C 1523 2819 1235 2819 1126 2819 
C 416 2819 160 2447 160 2076 
C 160 1498 813 1365 998 1325 
C 1402 1243 1542 1217 1677 1101 
C 1760 1025 1901 884 1901 654 
C 1901 384 1747 38 1158 38 
C 602 38 403 460 288 1021 
C 269 1110 269 1117 218 1117 
C 166 1117 160 1110 160 983 
L 160 63 
C 160 -51 166 -58 205 -58 
C 237 -58 243 -51 275 0 
C 314 57 410 211 448 276 
C 576 103 800 -64 1158 -64 
C 1792 -64 2131 283 2131 784 
C 2131 1112 1958 1285 1875 1362 
C 1683 1561 1459 1606 1190 1657 
C 838 1735 390 1825 390 2217 
C 390 2383 480 2737 1126 2737 
C 1811 2737 1850 2094 1862 1888 
C 1869 1856 1901 1849 1920 1849 
C 1978 1849 1978 1869 1978 1978 
L 1978 2697 
z
" id="CMR17-73" transform="scale(0.015625)"/>
       <path d="M 2605 4545 
C 2637 4627 2637 4640 2637 4653 
C 2637 4729 2579 4768 2528 4768 
C 2451 4768 2426 4717 2400 4640 
L 326 -1377 
C 294 -1460 294 -1473 294 -1486 
C 294 -1562 352 -1600 403 -1600 
C 480 -1600 506 -1549 531 -1473 
L 2605 4545 
z
" id="CMR17-2f" transform="scale(0.015625)"/>
       <path d="M 1414 2157 
C 1984 2157 2234 1662 2234 1090 
C 2234 320 1824 25 1453 25 
C 1114 25 563 194 390 693 
C 422 680 454 680 486 680 
C 640 680 755 782 755 948 
C 755 1133 614 1216 486 1216 
C 378 1216 211 1165 211 926 
C 211 335 787 -128 1466 -128 
C 2176 -128 2720 430 2720 1085 
C 2720 1707 2208 2157 1600 2227 
C 2086 2328 2554 2756 2554 3329 
C 2554 3820 2048 4179 1472 4179 
C 890 4179 378 3829 378 3329 
C 378 3110 544 3072 627 3072 
C 762 3072 877 3155 877 3321 
C 877 3486 762 3569 627 3569 
C 602 3569 570 3569 544 3557 
C 730 3959 1235 4032 1459 4032 
C 1683 4032 2106 3925 2106 3320 
C 2106 3143 2080 2828 1862 2550 
C 1670 2304 1453 2304 1242 2284 
C 1210 2284 1062 2269 1037 2269 
C 992 2263 966 2257 966 2208 
C 966 2163 973 2157 1101 2157 
L 1414 2157 
z
" id="CMR17-33" transform="scale(0.015625)"/>
      </defs>
      <use transform="scale(0.996264)" xlink:href="#CMR17-46"/>
      <use transform="translate(59.983847 0)scale(0.996264)" xlink:href="#CMR17-4c"/>
      <use transform="translate(117.365254 0)scale(0.996264)" xlink:href="#CMR17-4f"/>
      <use transform="translate(189.080043 0)scale(0.996264)" xlink:href="#CMR17-50"/>
      <use transform="translate(251.666343 0)scale(0.996264)" xlink:href="#CMR17-73"/>
      <use transform="translate(287.467681 0)scale(0.996264)" xlink:href="#CMR17-2f"/>
      <use transform="translate(333.158158 0)scale(0.996264)" xlink:href="#CMMI12-6e"/>
      <use transform="translate(391.388205 36.153639)scale(0.697382)" xlink:href="#CMR17-33"/>
     </g>
    </g>
   </g>
   <g id="line2d_17">
    <defs>
     <path d="M 0 1.5 
C 0.397805 1.5 0.77937 1.341951 1.06066 1.06066 
C 1.341951 0.77937 1.5 0.397805 1.5 0 
C 1.5 -0.397805 1.341951 -0.77937 1.06066 -1.06066 
C 0.77937 -1.341951 0.397805 -1.5 0 -1.5 
C -0.397805 -1.5 -0.77937 -1.341951 -1.06066 -1.06066 
C -1.341951 -0.77937 -1.5 -0.397805 -1.5 0 
C -1.5 0.397805 -1.341951 0.77937 -1.06066 1.06066 
C -0.77937 1.341951 -0.397805 1.5 0 1.5 
z
" id="m61357eeca1" style="stroke:#ffd700;"/>
    </defs>
    <g clip-path="url(#p3b636962d9)">
     <use style="fill:#ffd700;stroke:#ffd700;" x="207.146606" xlink:href="#m61357eeca1" y="179.360696"/>
     <use style="fill:#ffd700;stroke:#ffd700;" x="349.323927" xlink:href="#m61357eeca1" y="79.705415"/>
     <use style="fill:#ffd700;stroke:#ffd700;" x="159.754166" xlink:href="#m61357eeca1" y="204.231884"/>
     <use style="fill:#ffd700;stroke:#ffd700;" x="146.213469" xlink:href="#m61357eeca1" y="210.70937"/>
     <use style="fill:#ffd700;stroke:#ffd700;" x="85.280332" xlink:href="#m61357eeca1" y="236.309712"/>
     <use style="fill:#ffd700;stroke:#ffd700;" x="268.079744" xlink:href="#m61357eeca1" y="141.491573"/>
     <use style="fill:#ffd700;stroke:#ffd700;" x="254.539047" xlink:href="#m61357eeca1" y="150.556923"/>
     <use style="fill:#ffd700;stroke:#ffd700;" x="220.687304" xlink:href="#m61357eeca1" y="171.493433"/>
     <use style="fill:#ffd700;stroke:#ffd700;" x="315.472184" xlink:href="#m61357eeca1" y="107.091371"/>
     <use style="fill:#ffd700;stroke:#ffd700;" x="301.931487" xlink:href="#m61357eeca1" y="117.45916"/>
     <use style="fill:#ffd700;stroke:#ffd700;" x="112.361726" xlink:href="#m61357eeca1" y="225.53224"/>
     <use style="fill:#ffd700;stroke:#ffd700;" x="64.969286" xlink:href="#m61357eeca1" y="243.623425"/>
     <use style="fill:#ffd700;stroke:#ffd700;" x="132.672772" xlink:href="#m61357eeca1" y="216.899889"/>
     <use style="fill:#ffd700;stroke:#ffd700;" x="71.739634" xlink:href="#m61357eeca1" y="241.321605"/>
     <use style="fill:#ffd700;stroke:#ffd700;" x="193.605909" xlink:href="#m61357eeca1" y="186.902392"/>
     <use style="fill:#ffd700;stroke:#ffd700;" x="383.17567" xlink:href="#m61357eeca1" y="49.773528"/>
     <use style="fill:#ffd700;stroke:#ffd700;" x="173.294863" xlink:href="#m61357eeca1" y="197.458908"/>
     <use style="fill:#ffd700;stroke:#ffd700;" x="125.902423" xlink:href="#m61357eeca1" y="219.749435"/>
     <use style="fill:#ffd700;stroke:#ffd700;" x="119.132075" xlink:href="#m61357eeca1" y="222.812183"/>
     <use style="fill:#ffd700;stroke:#ffd700;" x="78.509983" xlink:href="#m61357eeca1" y="238.726771"/>
     <use style="fill:#ffd700;stroke:#ffd700;" x="58.198937" xlink:href="#m61357eeca1" y="246.093763"/>
     <use style="fill:#ffd700;stroke:#ffd700;" x="362.864624" xlink:href="#m61357eeca1" y="67.931461"/>
     <use style="fill:#ffd700;stroke:#ffd700;" x="234.228001" xlink:href="#m61357eeca1" y="163.292285"/>
     <use style="fill:#ffd700;stroke:#ffd700;" x="240.998349" xlink:href="#m61357eeca1" y="159.267044"/>
     <use style="fill:#ffd700;stroke:#ffd700;" x="281.620441" xlink:href="#m61357eeca1" y="132.062088"/>
     <use style="fill:#ffd700;stroke:#ffd700;" x="180.065212" xlink:href="#m61357eeca1" y="194.127357"/>
     <use style="fill:#ffd700;stroke:#ffd700;" x="186.835561" xlink:href="#m61357eeca1" y="190.38182"/>
     <use style="fill:#ffd700;stroke:#ffd700;" x="335.78323" xlink:href="#m61357eeca1" y="91.064312"/>
     <use style="fill:#ffd700;stroke:#ffd700;" x="105.591377" xlink:href="#m61357eeca1" y="228.454767"/>
     <use style="fill:#ffd700;stroke:#ffd700;" x="288.39079" xlink:href="#m61357eeca1" y="127.44152"/>
     <use style="fill:#ffd700;stroke:#ffd700;" x="139.44312" xlink:href="#m61357eeca1" y="213.692509"/>
     <use style="fill:#ffd700;stroke:#ffd700;" x="92.05068" xlink:href="#m61357eeca1" y="233.585841"/>
     <use style="fill:#ffd700;stroke:#ffd700;" x="329.012881" xlink:href="#m61357eeca1" y="96.329833"/>
    </g>
   </g>
   <g id="line2d_18">
    <path clip-path="url(#p3b636962d9)" d="M 51.096177 248.417347 
L 57.880093 246.128225 
L 64.66401 243.781459 
L 71.447926 241.376018 
L 78.231842 238.910865 
L 85.015759 236.384968 
L 91.799675 233.797291 
L 98.583592 231.146801 
L 105.367508 228.432463 
L 112.151425 225.653243 
L 118.935341 222.808107 
L 125.719257 219.896022 
L 132.503174 216.915951 
L 139.28709 213.866862 
L 146.071007 210.747721 
L 152.854923 207.557492 
L 159.63884 204.295142 
L 166.422756 200.959637 
L 173.206673 197.549942 
L 179.990589 194.065023 
L 186.774505 190.503847 
L 193.558422 186.865378 
L 200.342338 183.148583 
L 207.126255 179.352427 
L 213.910171 175.475877 
L 220.694088 171.517897 
L 227.478004 167.477455 
L 234.26192 163.353515 
L 241.045837 159.145043 
L 247.829753 154.851006 
L 254.61367 150.470368 
L 261.397586 146.002097 
L 268.181503 141.445157 
L 274.965419 136.798515 
L 281.749335 132.061136 
L 288.533252 127.231986 
L 295.317168 122.310031 
L 302.101085 117.294236 
L 308.885001 112.183568 
L 315.668918 106.976993 
L 322.452834 101.673475 
L 329.236751 96.271981 
L 336.020667 90.771477 
L 342.804583 85.170929 
L 349.5885 79.469302 
L 356.372416 73.665562 
L 363.156333 67.758674 
L 369.940249 61.747606 
L 376.724166 55.631322 
L 383.508082 49.408788 
" style="fill:none;stroke:#ffd700;stroke-linecap:round;stroke-width:1.5;"/>
   </g>
   <g id="line2d_19">
    <defs>
     <path d="M 0 1.5 
C 0.397805 1.5 0.77937 1.341951 1.06066 1.06066 
C 1.341951 0.77937 1.5 0.397805 1.5 0 
C 1.5 -0.397805 1.341951 -0.77937 1.06066 -1.06066 
C 0.77937 -1.341951 0.397805 -1.5 0 -1.5 
C -0.397805 -1.5 -0.77937 -1.341951 -1.06066 -1.06066 
C -1.341951 -0.77937 -1.5 -0.397805 -1.5 0 
C -1.5 0.397805 -1.341951 0.77937 -1.06066 1.06066 
C -0.77937 1.341951 -0.397805 1.5 0 1.5 
z
" id="m1b76210db0" style="stroke:#9acd32;"/>
    </defs>
    <g clip-path="url(#p3b636962d9)">
     <use style="fill:#9acd32;stroke:#9acd32;" x="207.146606" xlink:href="#m1b76210db0" y="223.378792"/>
     <use style="fill:#9acd32;stroke:#9acd32;" x="349.323927" xlink:href="#m1b76210db0" y="172.817012"/>
     <use style="fill:#9acd32;stroke:#9acd32;" x="159.754166" xlink:href="#m1b76210db0" y="235.877025"/>
     <use style="fill:#9acd32;stroke:#9acd32;" x="146.213469" xlink:href="#m1b76210db0" y="239.122548"/>
     <use style="fill:#9acd32;stroke:#9acd32;" x="85.280332" xlink:href="#m1b76210db0" y="251.911419"/>
     <use style="fill:#9acd32;stroke:#9acd32;" x="268.079744" xlink:href="#m1b76210db0" y="204.251616"/>
     <use style="fill:#9acd32;stroke:#9acd32;" x="220.687304" xlink:href="#m1b76210db0" y="219.417361"/>
     <use style="fill:#9acd32;stroke:#9acd32;" x="254.539047" xlink:href="#m1b76210db0" y="208.841636"/>
     <use style="fill:#9acd32;stroke:#9acd32;" x="315.472184" xlink:href="#m1b76210db0" y="186.780455"/>
     <use style="fill:#9acd32;stroke:#9acd32;" x="112.361726" xlink:href="#m1b76210db0" y="246.534622"/>
     <use style="fill:#9acd32;stroke:#9acd32;" x="301.931487" xlink:href="#m1b76210db0" y="192.054526"/>
     <use style="fill:#9acd32;stroke:#9acd32;" x="64.969286" xlink:href="#m1b76210db0" y="255.555052"/>
     <use style="fill:#9acd32;stroke:#9acd32;" x="132.672772" xlink:href="#m1b76210db0" y="242.220597"/>
     <use style="fill:#9acd32;stroke:#9acd32;" x="193.605909" xlink:href="#m1b76210db0" y="227.174655"/>
     <use style="fill:#9acd32;stroke:#9acd32;" x="71.739634" xlink:href="#m1b76210db0" y="254.408702"/>
     <use style="fill:#9acd32;stroke:#9acd32;" x="383.17567" xlink:href="#m1b76210db0" y="157.506965"/>
     <use style="fill:#9acd32;stroke:#9acd32;" x="173.294863" xlink:href="#m1b76210db0" y="232.479162"/>
     <use style="fill:#9acd32;stroke:#9acd32;" x="125.902423" xlink:href="#m1b76210db0" y="243.645428"/>
     <use style="fill:#9acd32;stroke:#9acd32;" x="58.198937" xlink:href="#m1b76210db0" y="256.785064"/>
     <use style="fill:#9acd32;stroke:#9acd32;" x="119.132075" xlink:href="#m1b76210db0" y="245.176009"/>
     <use style="fill:#9acd32;stroke:#9acd32;" x="78.509983" xlink:href="#m1b76210db0" y="253.115978"/>
     <use style="fill:#9acd32;stroke:#9acd32;" x="362.864624" xlink:href="#m1b76210db0" y="166.800357"/>
     <use style="fill:#9acd32;stroke:#9acd32;" x="234.228001" xlink:href="#m1b76210db0" y="215.278936"/>
     <use style="fill:#9acd32;stroke:#9acd32;" x="240.998349" xlink:href="#m1b76210db0" y="213.245709"/>
     <use style="fill:#9acd32;stroke:#9acd32;" x="180.065212" xlink:href="#m1b76210db0" y="230.806204"/>
     <use style="fill:#9acd32;stroke:#9acd32;" x="281.620441" xlink:href="#m1b76210db0" y="199.470817"/>
     <use style="fill:#9acd32;stroke:#9acd32;" x="186.835561" xlink:href="#m1b76210db0" y="228.924159"/>
     <use style="fill:#9acd32;stroke:#9acd32;" x="335.78323" xlink:href="#m1b76210db0" y="178.614051"/>
     <use style="fill:#9acd32;stroke:#9acd32;" x="105.591377" xlink:href="#m1b76210db0" y="247.993632"/>
     <use style="fill:#9acd32;stroke:#9acd32;" x="288.39079" xlink:href="#m1b76210db0" y="197.125817"/>
     <use style="fill:#9acd32;stroke:#9acd32;" x="139.44312" xlink:href="#m1b76210db0" y="240.615906"/>
     <use style="fill:#9acd32;stroke:#9acd32;" x="92.05068" xlink:href="#m1b76210db0" y="250.55341"/>
     <use style="fill:#9acd32;stroke:#9acd32;" x="329.012881" xlink:href="#m1b76210db0" y="181.298761"/>
    </g>
   </g>
   <g id="line2d_20">
    <path clip-path="url(#p3b636962d9)" d="M 51.096177 257.942433 
L 57.880093 256.802724 
L 64.66401 255.634088 
L 71.447926 254.435941 
L 78.231842 253.207701 
L 85.015759 251.948781 
L 91.799675 250.6586 
L 98.583592 249.336572 
L 105.367508 247.982114 
L 112.151425 246.594642 
L 118.935341 245.173571 
L 125.719257 243.718318 
L 132.503174 242.228299 
L 139.28709 240.70293 
L 146.071007 239.141627 
L 152.854923 237.543806 
L 159.63884 235.908882 
L 166.422756 234.236272 
L 173.206673 232.525393 
L 179.990589 230.775659 
L 186.774505 228.986487 
L 193.558422 227.157294 
L 200.342338 225.287494 
L 207.126255 223.376504 
L 213.910171 221.423741 
L 220.694088 219.428619 
L 227.478004 217.390556 
L 234.26192 215.308967 
L 241.045837 213.183268 
L 247.829753 211.012875 
L 254.61367 208.797205 
L 261.397586 206.535673 
L 268.181503 204.227694 
L 274.965419 201.872687 
L 281.749335 199.470065 
L 288.533252 197.019246 
L 295.317168 194.519645 
L 302.101085 191.970679 
L 308.885001 189.371763 
L 315.668918 186.722314 
L 322.452834 184.021747 
L 329.236751 181.269478 
L 336.020667 178.464924 
L 342.804583 175.6075 
L 349.5885 172.696623 
L 356.372416 169.731709 
L 363.156333 166.712173 
L 369.940249 163.637432 
L 376.724166 160.506901 
L 383.508082 157.319997 
" style="fill:none;stroke:#9acd32;stroke-linecap:round;stroke-width:1.5;"/>
   </g>
   <g id="line2d_21">
    <defs>
     <path d="M 0 1.5 
C 0.397805 1.5 0.77937 1.341951 1.06066 1.06066 
C 1.341951 0.77937 1.5 0.397805 1.5 0 
C 1.5 -0.397805 1.341951 -0.77937 1.06066 -1.06066 
C 0.77937 -1.341951 0.397805 -1.5 0 -1.5 
C -0.397805 -1.5 -0.77937 -1.341951 -1.06066 -1.06066 
C -1.341951 -0.77937 -1.5 -0.397805 -1.5 0 
C -1.5 0.397805 -1.341951 0.77937 -1.06066 1.06066 
C -0.77937 1.341951 -0.397805 1.5 0 1.5 
z
" id="m09c59b5431" style="stroke:#cd5c5c;"/>
    </defs>
    <g clip-path="url(#p3b636962d9)">
     <use style="fill:#cd5c5c;stroke:#cd5c5c;" x="139.44312" xlink:href="#m09c59b5431" y="206.909649"/>
     <use style="fill:#cd5c5c;stroke:#cd5c5c;" x="301.931487" xlink:href="#m09c59b5431" y="102.888629"/>
     <use style="fill:#cd5c5c;stroke:#cd5c5c;" x="159.754166" xlink:href="#m09c59b5431" y="196.117435"/>
     <use style="fill:#cd5c5c;stroke:#cd5c5c;" x="240.998349" xlink:href="#m09c59b5431" y="146.810474"/>
     <use style="fill:#cd5c5c;stroke:#cd5c5c;" x="180.065212" xlink:href="#m09c59b5431" y="184.735825"/>
     <use style="fill:#cd5c5c;stroke:#cd5c5c;" x="356.094276" xlink:href="#m09c59b5431" y="58.445219"/>
     <use style="fill:#cd5c5c;stroke:#cd5c5c;" x="119.132075" xlink:href="#m09c59b5431" y="217.104622"/>
     <use style="fill:#cd5c5c;stroke:#cd5c5c;" x="64.969286" xlink:href="#m09c59b5431" y="241.741085"/>
     <use style="fill:#cd5c5c;stroke:#cd5c5c;" x="200.376258" xlink:href="#m09c59b5431" y="172.749537"/>
     <use style="fill:#cd5c5c;stroke:#cd5c5c;" x="261.309395" xlink:href="#m09c59b5431" y="132.895977"/>
     <use style="fill:#cd5c5c;stroke:#cd5c5c;" x="98.821029" xlink:href="#m09c59b5431" y="226.747564"/>
     <use style="fill:#cd5c5c;stroke:#cd5c5c;" x="322.242533" xlink:href="#m09c59b5431" y="86.902021"/>
     <use style="fill:#cd5c5c;stroke:#cd5c5c;" x="85.280332" xlink:href="#m09c59b5431" y="232.998427"/>
     <use style="fill:#cd5c5c;stroke:#cd5c5c;" x="78.509983" xlink:href="#m09c59b5431" y="235.848383"/>
     <use style="fill:#cd5c5c;stroke:#cd5c5c;" x="281.620441" xlink:href="#m09c59b5431" y="118.298025"/>
     <use style="fill:#cd5c5c;stroke:#cd5c5c;" x="105.591377" xlink:href="#m09c59b5431" y="223.724454"/>
     <use style="fill:#cd5c5c;stroke:#cd5c5c;" x="383.17567" xlink:href="#m09c59b5431" y="34.336279"/>
     <use style="fill:#cd5c5c;stroke:#cd5c5c;" x="335.78323" xlink:href="#m09c59b5431" y="75.639602"/>
     <use style="fill:#cd5c5c;stroke:#cd5c5c;" x="274.850092" xlink:href="#m09c59b5431" y="123.064093"/>
     <use style="fill:#cd5c5c;stroke:#cd5c5c;" x="362.864624" xlink:href="#m09c59b5431" y="52.659914"/>
     <use style="fill:#cd5c5c;stroke:#cd5c5c;" x="193.605909" xlink:href="#m09c59b5431" y="176.655624"/>
     <use style="fill:#cd5c5c;stroke:#cd5c5c;" x="342.553579" xlink:href="#m09c59b5431" y="70.20048"/>
     <use style="fill:#cd5c5c;stroke:#cd5c5c;" x="173.294863" xlink:href="#m09c59b5431" y="188.445098"/>
     <use style="fill:#cd5c5c;stroke:#cd5c5c;" x="254.539047" xlink:href="#m09c59b5431" y="137.429231"/>
     <use style="fill:#cd5c5c;stroke:#cd5c5c;" x="146.213469" xlink:href="#m09c59b5431" y="203.519219"/>
     <use style="fill:#cd5c5c;stroke:#cd5c5c;" x="71.739634" xlink:href="#m09c59b5431" y="239.005568"/>
     <use style="fill:#cd5c5c;stroke:#cd5c5c;" x="234.228001" xlink:href="#m09c59b5431" y="151.131696"/>
     <use style="fill:#cd5c5c;stroke:#cd5c5c;" x="166.524515" xlink:href="#m09c59b5431" y="192.538622"/>
     <use style="fill:#cd5c5c;stroke:#cd5c5c;" x="376.405322" xlink:href="#m09c59b5431" y="40.262841"/>
     <use style="fill:#cd5c5c;stroke:#cd5c5c;" x="112.361726" xlink:href="#m09c59b5431" y="220.247866"/>
     <use style="fill:#cd5c5c;stroke:#cd5c5c;" x="315.472184" xlink:href="#m09c59b5431" y="92.10886"/>
     <use style="fill:#cd5c5c;stroke:#cd5c5c;" x="227.457652" xlink:href="#m09c59b5431" y="155.892702"/>
     <use style="fill:#cd5c5c;stroke:#cd5c5c;" x="92.05068" xlink:href="#m09c59b5431" y="229.714293"/>
    </g>
   </g>
   <g id="line2d_22">
    <path clip-path="url(#p3b636962d9)" d="M 51.096177 247.408092 
L 57.880093 244.652764 
L 64.66401 241.840803 
L 71.447926 238.971564 
L 78.231842 236.044405 
L 85.015759 233.058682 
L 91.799675 230.013753 
L 98.583592 226.908974 
L 105.367508 223.743703 
L 112.151425 220.517295 
L 118.935341 217.22911 
L 125.719257 213.878502 
L 132.503174 210.464829 
L 139.28709 206.987449 
L 146.071007 203.445717 
L 152.854923 199.838991 
L 159.63884 196.166628 
L 166.422756 192.427985 
L 173.206673 188.622418 
L 179.990589 184.749285 
L 186.774505 180.807942 
L 193.558422 176.797747 
L 200.342338 172.718056 
L 207.126255 168.568226 
L 213.910171 164.347615 
L 220.694088 160.055579 
L 227.478004 155.691475 
L 234.26192 151.25466 
L 241.045837 146.744491 
L 247.829753 142.160324 
L 254.61367 137.501518 
L 261.397586 132.767428 
L 268.181503 127.957412 
L 274.965419 123.070826 
L 281.749335 118.107028 
L 288.533252 113.065374 
L 295.317168 107.945222 
L 302.101085 102.745928 
L 308.885001 97.466849 
L 315.668918 92.107343 
L 322.452834 86.666765 
L 329.236751 81.144473 
L 336.020667 75.539825 
L 342.804583 69.852176 
L 349.5885 64.080884 
L 356.372416 58.225306 
L 363.156333 52.284798 
L 369.940249 46.258718 
L 376.724166 40.146422 
L 383.508082 33.947268 
" style="fill:none;stroke:#cd5c5c;stroke-linecap:round;stroke-width:1.5;"/>
   </g>
   <g id="line2d_23">
    <defs>
     <path d="M 0 1.5 
C 0.397805 1.5 0.77937 1.341951 1.06066 1.06066 
C 1.341951 0.77937 1.5 0.397805 1.5 0 
C 1.5 -0.397805 1.341951 -0.77937 1.06066 -1.06066 
C 0.77937 -1.341951 0.397805 -1.5 0 -1.5 
C -0.397805 -1.5 -0.77937 -1.341951 -1.06066 -1.06066 
C -1.341951 -0.77937 -1.5 -0.397805 -1.5 0 
C -1.5 0.397805 -1.341951 0.77937 -1.06066 1.06066 
C -0.77937 1.341951 -0.397805 1.5 0 1.5 
z
" id="me473d0ae43" style="stroke:#800000;"/>
    </defs>
    <g clip-path="url(#p3b636962d9)">
     <use style="fill:#800000;stroke:#800000;" x="139.44312" xlink:href="#me473d0ae43" y="212.252807"/>
     <use style="fill:#800000;stroke:#800000;" x="180.065212" xlink:href="#me473d0ae43" y="196.099864"/>
     <use style="fill:#800000;stroke:#800000;" x="200.376258" xlink:href="#me473d0ae43" y="188.023413"/>
     <use style="fill:#800000;stroke:#800000;" x="376.405322" xlink:href="#me473d0ae43" y="118.163688"/>
     <use style="fill:#800000;stroke:#800000;" x="315.472184" xlink:href="#me473d0ae43" y="142.30933"/>
     <use style="fill:#800000;stroke:#800000;" x="261.309395" xlink:href="#me473d0ae43" y="163.877397"/>
     <use style="fill:#800000;stroke:#800000;" x="335.78323" xlink:href="#me473d0ae43" y="134.232894"/>
     <use style="fill:#800000;stroke:#800000;" x="240.998349" xlink:href="#me473d0ae43" y="171.953867"/>
     <use style="fill:#800000;stroke:#800000;" x="78.509983" xlink:href="#me473d0ae43" y="236.398968"/>
     <use style="fill:#800000;stroke:#800000;" x="356.094276" xlink:href="#me473d0ae43" y="126.15653"/>
     <use style="fill:#800000;stroke:#800000;" x="220.687304" xlink:href="#me473d0ae43" y="180.030296"/>
     <use style="fill:#800000;stroke:#800000;" x="98.821029" xlink:href="#me473d0ae43" y="228.322399"/>
     <use style="fill:#800000;stroke:#800000;" x="105.591377" xlink:href="#me473d0ae43" y="225.744595"/>
     <use style="fill:#800000;stroke:#800000;" x="119.132075" xlink:href="#me473d0ae43" y="220.245886"/>
     <use style="fill:#800000;stroke:#800000;" x="85.280332" xlink:href="#me473d0ae43" y="233.82122"/>
     <use style="fill:#800000;stroke:#800000;" x="234.228001" xlink:href="#me473d0ae43" y="174.531656"/>
     <use style="fill:#800000;stroke:#800000;" x="342.553579" xlink:href="#me473d0ae43" y="131.655099"/>
     <use style="fill:#800000;stroke:#800000;" x="64.969286" xlink:href="#me473d0ae43" y="241.897769"/>
     <use style="fill:#800000;stroke:#800000;" x="254.539047" xlink:href="#me473d0ae43" y="166.455215"/>
     <use style="fill:#800000;stroke:#800000;" x="322.242533" xlink:href="#me473d0ae43" y="139.731534"/>
     <use style="fill:#800000;stroke:#800000;" x="274.850092" xlink:href="#me473d0ae43" y="158.378743"/>
     <use style="fill:#800000;stroke:#800000;" x="301.931487" xlink:href="#me473d0ae43" y="147.807945"/>
     <use style="fill:#800000;stroke:#800000;" x="166.524515" xlink:href="#me473d0ae43" y="201.598554"/>
     <use style="fill:#800000;stroke:#800000;" x="146.213469" xlink:href="#me473d0ae43" y="209.675027"/>
     <use style="fill:#800000;stroke:#800000;" x="173.294863" xlink:href="#me473d0ae43" y="198.677642"/>
     <use style="fill:#800000;stroke:#800000;" x="193.605909" xlink:href="#me473d0ae43" y="190.601163"/>
     <use style="fill:#800000;stroke:#800000;" x="383.17567" xlink:href="#me473d0ae43" y="115.58597"/>
     <use style="fill:#800000;stroke:#800000;" x="329.012881" xlink:href="#me473d0ae43" y="136.810672"/>
     <use style="fill:#800000;stroke:#800000;" x="247.768698" xlink:href="#me473d0ae43" y="169.376067"/>
     <use style="fill:#800000;stroke:#800000;" x="349.323927" xlink:href="#me473d0ae43" y="128.734282"/>
     <use style="fill:#800000;stroke:#800000;" x="227.457652" xlink:href="#me473d0ae43" y="177.452581"/>
     <use style="fill:#800000;stroke:#800000;" x="92.05068" xlink:href="#me473d0ae43" y="230.900212"/>
     <use style="fill:#800000;stroke:#800000;" x="112.361726" xlink:href="#me473d0ae43" y="222.823694"/>
    </g>
   </g>
   <g id="line2d_24">
    <path clip-path="url(#p3b636962d9)" d="M 51.096177 247.310369 
L 57.880093 244.616819 
L 64.66401 241.923269 
L 71.447926 239.22972 
L 78.231842 236.53617 
L 85.015759 233.842621 
L 91.799675 231.149071 
L 98.583592 228.455522 
L 105.367508 225.761972 
L 112.151425 223.068423 
L 118.935341 220.374873 
L 125.719257 217.681324 
L 132.503174 214.987774 
L 139.28709 212.294224 
L 146.071007 209.600675 
L 152.854923 206.907125 
L 159.63884 204.213576 
L 166.422756 201.520026 
L 173.206673 198.826477 
L 179.990589 196.132927 
L 186.774505 193.439378 
L 193.558422 190.745828 
L 200.342338 188.052278 
L 207.126255 185.358729 
L 213.910171 182.665179 
L 220.694088 179.97163 
L 227.478004 177.27808 
L 234.26192 174.584531 
L 241.045837 171.890981 
L 247.829753 169.197432 
L 254.61367 166.503882 
L 261.397586 163.810333 
L 268.181503 161.116783 
L 274.965419 158.423233 
L 281.749335 155.729684 
L 288.533252 153.036134 
L 295.317168 150.342585 
L 302.101085 147.649035 
L 308.885001 144.955486 
L 315.668918 142.261936 
L 322.452834 139.568387 
L 329.236751 136.874837 
L 336.020667 134.181287 
L 342.804583 131.487738 
L 349.5885 128.794188 
L 356.372416 126.100639 
L 363.156333 123.407089 
L 369.940249 120.71354 
L 376.724166 118.01999 
L 383.508082 115.326441 
" style="fill:none;stroke:#800000;stroke-linecap:round;stroke-width:1.5;"/>
   </g>
   <g id="patch_3">
    <path d="M 51.096177 270.141178 
L 51.096177 22.74751 
" style="fill:none;stroke:#262626;stroke-linecap:square;stroke-linejoin:miter;stroke-width:1.25;"/>
   </g>
   <g id="patch_4">
    <path d="M 383.508082 270.141178 
L 383.508082 22.74751 
" style="fill:none;stroke:#262626;stroke-linecap:square;stroke-linejoin:miter;stroke-width:1.25;"/>
   </g>
   <g id="patch_5">
    <path d="M 51.096177 270.141178 
L 383.508082 270.141178 
" style="fill:none;stroke:#262626;stroke-linecap:square;stroke-linejoin:miter;stroke-width:1.25;"/>
   </g>
   <g id="patch_6">
    <path d="M 51.096177 22.74751 
L 383.508082 22.74751 
" style="fill:none;stroke:#262626;stroke-linecap:square;stroke-linejoin:miter;stroke-width:1.25;"/>
   </g>
   <g id="text_14">
    <!-- a -->
    <g style="fill:#262626;" transform="translate(213.93666 16.74751)scale(0.138 -0.138)">
     <defs>
      <path d="M 2304 1653 
C 2304 2072 2304 2294 2035 2543 
C 1798 2752 1523 2816 1306 2816 
C 800 2816 435 2407 435 1971 
C 435 1728 627 1728 666 1728 
C 749 1728 896 1778 896 1954 
C 896 2112 774 2181 666 2181 
C 640 2181 608 2174 589 2168 
C 723 2592 1069 2714 1293 2714 
C 1613 2714 1965 2429 1965 1885 
L 1965 1600 
C 1587 1600 1133 1549 774 1357 
C 371 1133 256 813 256 570 
C 256 77 832 -64 1171 -64 
C 1523 -64 1850 139 1990 511 
C 2003 233 2182 -18 2464 -18 
C 2598 -18 2938 70 2938 567 
L 2938 920 
L 2822 920 
L 2822 562 
C 2822 178 2650 128 2566 128 
C 2304 128 2304 458 2304 738 
L 2304 1653 
z
M 1965 870 
C 1965 317 1568 38 1216 38 
C 896 38 646 275 646 570 
C 646 761 730 1100 1101 1305 
C 1408 1478 1760 1504 1965 1504 
L 1965 870 
z
" id="CMR17-61" transform="scale(0.015625)"/>
     </defs>
     <use transform="scale(0.996264)" xlink:href="#CMR17-61"/>
    </g>
   </g>
   <g id="legend_1">
    <g id="patch_7">
     <path d="M 57.800217 83.800914 
L 262.286555 83.800914 
Q 264.201995 83.800914 264.201995 81.885474 
L 264.201995 29.45155 
Q 264.201995 27.53611 262.286555 27.53611 
L 57.800217 27.53611 
Q 55.884777 27.53611 55.884777 29.45155 
L 55.884777 81.885474 
Q 55.884777 83.800914 57.800217 83.800914 
z
" style="fill:#ffffff;opacity:0.8;stroke:#cccccc;stroke-linejoin:miter;"/>
    </g>
    <g id="line2d_25"/>
    <g id="line2d_26">
     <g>
      <use style="fill:#ffd700;stroke:#ffd700;" x="69.292857" xlink:href="#m61357eeca1" y="34.71901"/>
     </g>
    </g>
    <g id="text_15">
     <!-- LHS, $\boldsymbol{\Sigma}$ is not SPD, $\mathbf{X}$ is not orhtogonal -->
     <g style="fill:#262626;" transform="translate(86.531817 38.07103)scale(0.095772 -0.095772)">
      <defs>
       <path d="M 3590 3905 
C 3590 4192 3661 4192 4102 4192 
L 4102 4352 
C 3917 4352 3578 4352 3379 4352 
C 3181 4352 2842 4352 2656 4352 
L 2656 4192 
C 3098 4192 3168 4192 3168 3904 
L 3168 2341 
L 1261 2341 
L 1261 3904 
C 1261 4192 1331 4192 1773 4192 
L 1773 4352 
C 1587 4352 1248 4352 1050 4352 
C 851 4352 512 4352 326 4352 
L 326 4192 
C 768 4192 838 4192 838 3905 
L 838 447 
C 838 160 768 160 326 160 
L 326 0 
C 512 0 851 0 1050 0 
C 1248 0 1587 0 1773 0 
L 1773 160 
C 1331 160 1261 160 1261 446 
L 1261 2176 
L 3168 2176 
L 3168 446 
C 3168 160 3098 160 2656 160 
L 2656 0 
C 2842 0 3181 0 3379 0 
C 3578 0 3917 0 4102 0 
L 4102 160 
C 3661 160 3590 160 3590 447 
L 3590 3905 
z
" id="CMR17-48" transform="scale(0.015625)"/>
       <path d="M 2803 4290 
C 2803 4404 2797 4411 2758 4411 
C 2720 4411 2707 4385 2682 4328 
L 2490 3907 
C 2246 4257 1875 4416 1472 4416 
C 819 4416 294 3901 294 3253 
C 294 3056 339 2776 557 2510 
C 794 2218 1018 2167 1530 2033 
C 1722 1982 2042 1899 2106 1874 
C 2470 1722 2662 1341 2662 985 
C 2662 527 2336 38 1779 38 
C 1094 38 454 419 410 1311 
C 403 1413 397 1419 352 1419 
C 301 1419 294 1413 294 1285 
L 294 -1 
C 294 -115 301 -122 339 -122 
C 384 -122 397 -90 486 108 
C 493 127 493 140 614 381 
C 934 -39 1472 -128 1779 -128 
C 2477 -128 2970 451 2970 1124 
C 2970 1454 2848 1708 2778 1823 
C 2509 2230 2221 2306 1914 2382 
C 1869 2402 1856 2402 1498 2490 
C 1152 2579 1005 2624 845 2796 
C 666 2992 602 3196 602 3399 
C 602 3812 934 4263 1478 4263 
C 2157 4263 2579 3786 2675 2993 
C 2694 2878 2701 2872 2746 2872 
C 2803 2872 2803 2891 2803 2999 
L 2803 4290 
z
" id="CMR17-53" transform="scale(0.015625)"/>
       <path d="M 1011 102 
C 1024 45 1024 25 1024 -77 
C 1024 -463 896 -817 627 -1139 
C 595 -1170 595 -1183 595 -1197 
C 595 -1222 621 -1248 646 -1248 
C 685 -1248 1126 -799 1126 -87 
C 1126 124 1101 522 800 522 
C 659 522 538 427 538 261 
C 538 96 659 0 800 0 
C 877 0 960 32 1011 102 
z
" id="CMR17-2c" transform="scale(0.015625)"/>
       <path d="M 2944 2077 
C 2995 2129 3014 2141 3014 2186 
C 3014 2205 3014 2218 2963 2281 
L 1523 4096 
L 2886 4096 
C 3814 4096 4390 3937 4525 2861 
L 4794 2861 
L 4608 4371 
L 582 4371 
C 403 4371 397 4346 397 4166 
L 2246 1836 
L 467 204 
C 442 178 397 133 397 96 
C 397 0 499 0 582 0 
L 4608 0 
L 4794 1620 
L 4525 1620 
C 4397 517 3770 384 2861 384 
L 1094 384 
L 2944 2077 
z
" id="CMBX12-6" transform="scale(0.015625)"/>
       <path d="M 992 3909 
C 992 4049 877 4170 730 4170 
C 589 4170 467 4056 467 3909 
C 467 3769 582 3648 730 3648 
C 870 3648 992 3763 992 3909 
z
M 243 2706 
L 243 2541 
C 602 2541 653 2502 653 2197 
L 653 427 
C 653 184 627 153 218 153 
L 218 -13 
C 371 0 646 0 806 0 
C 960 0 1222 0 1370 -13 
L 1370 153 
C 992 153 979 191 979 420 
L 979 2776 
L 243 2706 
z
" id="CMR17-69" transform="scale(0.015625)"/>
       <path d="M 2656 1933 
C 2656 2259 2592 2790 1837 2790 
C 1331 2790 1069 2400 973 2144 
L 966 2144 
L 966 2790 
L 211 2720 
L 211 2554 
C 589 2554 646 2515 646 2208 
L 646 428 
C 646 184 621 153 211 153 
L 211 -13 
C 365 0 646 0 813 0 
C 979 0 1267 0 1421 -13 
L 1421 153 
C 1011 153 986 178 986 428 
L 986 1658 
C 986 2247 1344 2688 1792 2688 
C 2266 2688 2317 2266 2317 1958 
L 2317 428 
C 2317 184 2291 153 1882 153 
L 1882 -13 
C 2035 0 2317 0 2483 0 
C 2650 0 2938 0 3091 -13 
L 3091 153 
C 2682 153 2656 178 2656 428 
L 2656 1933 
z
" id="CMR17-6e" transform="scale(0.015625)"/>
       <path d="M 2758 1356 
C 2758 2176 2163 2816 1466 2816 
C 768 2816 173 2176 173 1356 
C 173 551 768 -64 1466 -64 
C 2163 -64 2758 551 2758 1356 
z
M 1466 51 
C 1165 51 909 230 762 480 
C 602 767 582 1126 582 1408 
C 582 1677 595 2010 762 2298 
C 890 2509 1139 2714 1466 2714 
C 1754 2714 1997 2554 2150 2330 
C 2349 2029 2349 1607 2349 1408 
C 2349 1158 2336 775 2163 467 
C 1984 173 1709 51 1466 51 
z
" id="CMR17-6f" transform="scale(0.015625)"/>
       <path d="M 966 2560 
L 1862 2560 
L 1862 2725 
L 966 2725 
L 966 3904 
L 851 3904 
C 838 3245 614 2668 70 2668 
L 70 2560 
L 627 2560 
L 627 771 
C 627 650 627 -64 1370 -64 
C 1747 -64 1965 306 1965 777 
L 1965 1140 
L 1850 1140 
L 1850 783 
C 1850 344 1677 51 1408 51 
C 1222 51 966 178 966 758 
L 966 2560 
z
" id="CMR17-74" transform="scale(0.015625)"/>
       <path d="M 333 4352 
L 333 4186 
C 774 4186 845 4186 845 3900 
L 845 452 
C 845 166 774 166 333 166 
L 333 0 
L 2368 0 
C 3398 0 4224 943 4224 2141 
C 4224 3346 3411 4352 2368 4352 
L 333 4352 
z
M 1523 166 
C 1267 166 1254 197 1254 414 
L 1254 3938 
C 1254 4155 1267 4186 1523 4186 
L 2240 4186 
C 2771 4186 3750 3874 3750 2141 
C 3750 1242 3488 879 3366 707 
C 3213 510 2848 166 2240 166 
L 1523 166 
z
" id="CMR17-44" transform="scale(0.015625)"/>
       <path d="M 3008 2514 
L 4090 3957 
C 4154 4040 4179 4053 4390 4072 
C 4557 4091 4582 4091 4768 4091 
L 4934 4091 
L 4934 4365 
C 4787 4352 4275 4352 4096 4352 
C 3898 4352 3341 4352 3181 4365 
L 3181 4091 
C 3258 4091 3571 4091 3763 4014 
L 2829 2763 
L 1875 4091 
L 2406 4091 
L 2406 4352 
C 2176 4352 1574 4352 1312 4352 
C 1094 4352 461 4352 288 4365 
L 288 4091 
L 909 4091 
L 2330 2105 
L 1043 388 
C 986 311 966 292 742 272 
C 582 260 550 260 371 260 
L 198 260 
L 198 -13 
C 346 0 864 0 1043 0 
C 1242 0 1792 0 1952 -13 
L 1952 260 
C 1882 260 1555 260 1370 337 
L 2509 1856 
L 3661 260 
L 3130 260 
L 3130 0 
C 3334 0 3974 0 4218 0 
C 4422 0 5082 0 5242 -13 
L 5242 260 
L 4627 260 
L 3008 2514 
z
" id="CMBX12-58" transform="scale(0.015625)"/>
       <path d="M 960 1497 
C 960 2112 1222 2688 1702 2688 
C 1747 2688 1792 2682 1837 2662 
C 1837 2662 1696 2617 1696 2452 
C 1696 2298 1818 2234 1914 2234 
C 1990 2234 2131 2279 2131 2458 
C 2131 2663 1926 2790 1709 2790 
C 1222 2790 1011 2317 947 2093 
L 941 2093 
L 941 2790 
L 198 2720 
L 198 2554 
C 576 2554 634 2515 634 2208 
L 634 428 
C 634 184 608 153 198 153 
L 198 -13 
C 352 0 646 0 813 0 
C 998 0 1325 0 1498 -13 
L 1498 153 
C 1037 153 960 153 960 440 
L 960 1497 
z
" id="CMR17-72" transform="scale(0.015625)"/>
       <path d="M 2656 1933 
C 2656 2259 2592 2790 1837 2790 
C 1312 2790 1056 2368 979 2157 
L 973 2157 
L 973 4396 
L 211 4326 
L 211 4160 
C 589 4160 646 4122 646 3817 
L 646 426 
C 646 184 621 153 211 153 
L 211 -13 
C 365 0 646 0 813 0 
C 979 0 1267 0 1421 -13 
L 1421 153 
C 1011 153 986 178 986 428 
L 986 1658 
C 986 2247 1344 2688 1792 2688 
C 2266 2688 2317 2266 2317 1958 
L 2317 428 
C 2317 184 2291 153 1882 153 
L 1882 -13 
C 2035 0 2317 0 2483 0 
C 2650 0 2938 0 3091 -13 
L 3091 153 
C 2682 153 2656 178 2656 428 
L 2656 1933 
z
" id="CMR17-68" transform="scale(0.015625)"/>
       <path d="M 710 1164 
C 832 1068 1043 960 1299 960 
C 1805 960 2240 1357 2240 1888 
C 2240 2054 2189 2310 1997 2509 
C 2176 2692 2438 2752 2586 2752 
C 2611 2752 2650 2752 2682 2734 
C 2656 2728 2598 2703 2598 2605 
C 2598 2527 2656 2471 2739 2471 
C 2835 2471 2886 2533 2886 2614 
C 2886 2731 2790 2854 2586 2854 
C 2330 2854 2106 2738 1926 2580 
C 1734 2753 1504 2816 1299 2816 
C 794 2816 358 2419 358 1888 
C 358 1522 570 1292 634 1228 
C 442 1004 442 743 442 711 
C 442 545 506 302 723 168 
C 390 85 128 -169 128 -486 
C 128 -943 736 -1280 1466 -1280 
C 2170 -1280 2803 -956 2803 -479 
C 2803 384 1856 384 1363 384 
C 1216 384 954 384 922 391 
C 723 423 589 602 589 826 
C 589 883 589 1024 710 1164 
z
M 1299 1068 
C 736 1068 736 1760 736 1889 
C 736 2016 736 2708 1299 2708 
C 1862 2708 1862 2016 1862 1889 
C 1862 1760 1862 1068 1299 1068 
z
M 1466 -1171 
C 826 -1171 384 -835 384 -486 
C 384 -289 493 -105 634 -4 
C 794 104 858 104 1293 104 
C 1818 104 2547 104 2547 -486 
C 2547 -835 2106 -1171 1466 -1171 
z
" id="CMR17-67" transform="scale(0.015625)"/>
       <path d="M 979 4396 
L 218 4326 
L 218 4160 
C 595 4160 653 4122 653 3817 
L 653 426 
C 653 184 627 153 218 153 
L 218 -13 
C 371 0 653 0 813 0 
C 979 0 1261 0 1414 -13 
L 1414 153 
C 1005 153 979 178 979 426 
L 979 4396 
z
" id="CMR17-6c" transform="scale(0.015625)"/>
      </defs>
      <use transform="scale(0.996264)" xlink:href="#CMR17-4c"/>
      <use transform="translate(57.381408 0)scale(0.996264)" xlink:href="#CMR17-48"/>
      <use transform="translate(126.453838 0)scale(0.996264)" xlink:href="#CMR17-53"/>
      <use transform="translate(177.349207 0)scale(0.996264)" xlink:href="#CMR17-2c"/>
      <use transform="translate(232.296232 0)scale(0.996264)" xlink:href="#CMBX12-6"/>
      <use transform="translate(343.318649 0)scale(0.996264)" xlink:href="#CMR17-69"/>
      <use transform="translate(368.189708 0)scale(0.996264)" xlink:href="#CMR17-73"/>
      <use transform="translate(434.067012 0)scale(0.996264)" xlink:href="#CMR17-6e"/>
      <use transform="translate(484.962382 0)scale(0.996264)" xlink:href="#CMR17-6f"/>
      <use transform="translate(530.652859 0)scale(0.996264)" xlink:href="#CMR17-74"/>
      <use transform="translate(596.009593 0)scale(0.996264)" xlink:href="#CMR17-53"/>
      <use transform="translate(646.904963 0)scale(0.996264)" xlink:href="#CMR17-50"/>
      <use transform="translate(709.491263 0)scale(0.996264)" xlink:href="#CMR17-44"/>
      <use transform="translate(779.884819 0)scale(0.996264)" xlink:href="#CMR17-2c"/>
      <use transform="translate(834.831844 0)scale(0.996264)" xlink:href="#CMBX12-58"/>
      <use transform="translate(949.544205 0)scale(0.996264)" xlink:href="#CMR17-69"/>
      <use transform="translate(974.415263 0)scale(0.996264)" xlink:href="#CMR17-73"/>
      <use transform="translate(1040.292567 0)scale(0.996264)" xlink:href="#CMR17-6e"/>
      <use transform="translate(1091.187937 0)scale(0.996264)" xlink:href="#CMR17-6f"/>
      <use transform="translate(1136.878414 0)scale(0.996264)" xlink:href="#CMR17-74"/>
      <use transform="translate(1202.235148 0)scale(0.996264)" xlink:href="#CMR17-6f"/>
      <use transform="translate(1247.925626 0)scale(0.996264)" xlink:href="#CMR17-72"/>
      <use transform="translate(1283.206393 0)scale(0.996264)" xlink:href="#CMR17-68"/>
      <use transform="translate(1331.499309 0)scale(0.996264)" xlink:href="#CMR17-74"/>
      <use transform="translate(1366.780077 0)scale(0.996264)" xlink:href="#CMR17-6f"/>
      <use transform="translate(1412.470554 0)scale(0.996264)" xlink:href="#CMR17-67"/>
      <use transform="translate(1458.161031 0)scale(0.996264)" xlink:href="#CMR17-6f"/>
      <use transform="translate(1503.851508 0)scale(0.996264)" xlink:href="#CMR17-6e"/>
      <use transform="translate(1554.746878 0)scale(0.996264)" xlink:href="#CMR17-61"/>
      <use transform="translate(1600.437355 0)scale(0.996264)" xlink:href="#CMR17-6c"/>
     </g>
    </g>
    <g id="line2d_27"/>
    <g id="line2d_28">
     <g>
      <use style="fill:#9acd32;stroke:#9acd32;" x="69.292857" xlink:href="#m1b76210db0" y="48.066921"/>
     </g>
    </g>
    <g id="text_16">
     <!-- LHS, $\boldsymbol{\Sigma}$ is SPD, $\mathbf{X}$ is not orhtogonal -->
     <g style="fill:#262626;" transform="translate(86.531817 51.418941)scale(0.095772 -0.095772)">
      <use transform="scale(0.996264)" xlink:href="#CMR17-4c"/>
      <use transform="translate(57.381408 0)scale(0.996264)" xlink:href="#CMR17-48"/>
      <use transform="translate(126.453838 0)scale(0.996264)" xlink:href="#CMR17-53"/>
      <use transform="translate(177.349207 0)scale(0.996264)" xlink:href="#CMR17-2c"/>
      <use transform="translate(232.296232 0)scale(0.996264)" xlink:href="#CMBX12-6"/>
      <use transform="translate(343.318649 0)scale(0.996264)" xlink:href="#CMR17-69"/>
      <use transform="translate(368.189708 0)scale(0.996264)" xlink:href="#CMR17-73"/>
      <use transform="translate(434.067012 0)scale(0.996264)" xlink:href="#CMR17-53"/>
      <use transform="translate(484.962382 0)scale(0.996264)" xlink:href="#CMR17-50"/>
      <use transform="translate(547.548682 0)scale(0.996264)" xlink:href="#CMR17-44"/>
      <use transform="translate(617.942238 0)scale(0.996264)" xlink:href="#CMR17-2c"/>
      <use transform="translate(672.889263 0)scale(0.996264)" xlink:href="#CMBX12-58"/>
      <use transform="translate(787.601624 0)scale(0.996264)" xlink:href="#CMR17-69"/>
      <use transform="translate(812.472682 0)scale(0.996264)" xlink:href="#CMR17-73"/>
      <use transform="translate(878.349986 0)scale(0.996264)" xlink:href="#CMR17-6e"/>
      <use transform="translate(929.245356 0)scale(0.996264)" xlink:href="#CMR17-6f"/>
      <use transform="translate(974.935833 0)scale(0.996264)" xlink:href="#CMR17-74"/>
      <use transform="translate(1040.292567 0)scale(0.996264)" xlink:href="#CMR17-6f"/>
      <use transform="translate(1085.983045 0)scale(0.996264)" xlink:href="#CMR17-72"/>
      <use transform="translate(1121.263812 0)scale(0.996264)" xlink:href="#CMR17-68"/>
      <use transform="translate(1169.556728 0)scale(0.996264)" xlink:href="#CMR17-74"/>
      <use transform="translate(1204.837496 0)scale(0.996264)" xlink:href="#CMR17-6f"/>
      <use transform="translate(1250.527973 0)scale(0.996264)" xlink:href="#CMR17-67"/>
      <use transform="translate(1296.21845 0)scale(0.996264)" xlink:href="#CMR17-6f"/>
      <use transform="translate(1341.908927 0)scale(0.996264)" xlink:href="#CMR17-6e"/>
      <use transform="translate(1392.804297 0)scale(0.996264)" xlink:href="#CMR17-61"/>
      <use transform="translate(1438.494774 0)scale(0.996264)" xlink:href="#CMR17-6c"/>
     </g>
    </g>
    <g id="line2d_29"/>
    <g id="line2d_30">
     <g>
      <use style="fill:#cd5c5c;stroke:#cd5c5c;" x="69.292857" xlink:href="#m09c59b5431" y="61.414832"/>
     </g>
    </g>
    <g id="text_17">
     <!-- RHS, $\mathbf{X}$ is not orthogonal -->
     <g style="fill:#262626;" transform="translate(86.531817 64.766852)scale(0.095772 -0.095772)">
      <defs>
       <path d="M 2509 2146 
C 3117 2268 3629 2676 3629 3186 
C 3629 3785 2950 4326 2054 4326 
L 333 4326 
L 333 4160 
C 774 4160 845 4160 845 3873 
L 845 415 
C 845 128 774 128 333 128 
L 333 -26 
C 518 -26 851 -26 1050 -26 
C 1248 -26 1581 -26 1766 -26 
L 1766 128 
C 1325 128 1254 128 1254 417 
L 1254 2112 
L 2003 2112 
C 2368 2112 2573 1964 2662 1881 
C 2918 1632 2918 1459 2918 1024 
C 2918 595 2918 377 3110 160 
C 3354 -102 3680 -128 3821 -128 
C 4294 -128 4365 396 4365 503 
C 4365 540 4365 585 4307 585 
C 4256 585 4250 547 4250 522 
C 4218 112 4032 -26 3834 -26 
C 3482 -26 3443 375 3405 764 
C 3386 898 3373 993 3360 1133 
C 3322 1452 3270 1917 2509 2146 
z
M 1984 2214 
L 1254 2214 
L 1254 3913 
C 1254 4129 1267 4160 1523 4160 
L 1990 4160 
C 2522 4160 3142 3977 3142 3190 
C 3142 2372 2464 2214 1984 2214 
z
" id="CMR17-52" transform="scale(0.015625)"/>
      </defs>
      <use transform="scale(0.996264)" xlink:href="#CMR17-52"/>
      <use transform="translate(67.791102 0)scale(0.996264)" xlink:href="#CMR17-48"/>
      <use transform="translate(136.863532 0)scale(0.996264)" xlink:href="#CMR17-53"/>
      <use transform="translate(187.758902 0)scale(0.996264)" xlink:href="#CMR17-2c"/>
      <use transform="translate(242.705926 0)scale(0.996264)" xlink:href="#CMBX12-58"/>
      <use transform="translate(357.418287 0)scale(0.996264)" xlink:href="#CMR17-69"/>
      <use transform="translate(382.289346 0)scale(0.996264)" xlink:href="#CMR17-73"/>
      <use transform="translate(448.16665 0)scale(0.996264)" xlink:href="#CMR17-6e"/>
      <use transform="translate(499.06202 0)scale(0.996264)" xlink:href="#CMR17-6f"/>
      <use transform="translate(544.752497 0)scale(0.996264)" xlink:href="#CMR17-74"/>
      <use transform="translate(610.109231 0)scale(0.996264)" xlink:href="#CMR17-6f"/>
      <use transform="translate(655.799708 0)scale(0.996264)" xlink:href="#CMR17-72"/>
      <use transform="translate(691.080476 0)scale(0.996264)" xlink:href="#CMR17-74"/>
      <use transform="translate(726.361244 0)scale(0.996264)" xlink:href="#CMR17-68"/>
      <use transform="translate(777.256613 0)scale(0.996264)" xlink:href="#CMR17-6f"/>
      <use transform="translate(822.947091 0)scale(0.996264)" xlink:href="#CMR17-67"/>
      <use transform="translate(868.637568 0)scale(0.996264)" xlink:href="#CMR17-6f"/>
      <use transform="translate(914.328045 0)scale(0.996264)" xlink:href="#CMR17-6e"/>
      <use transform="translate(965.223415 0)scale(0.996264)" xlink:href="#CMR17-61"/>
      <use transform="translate(1010.913892 0)scale(0.996264)" xlink:href="#CMR17-6c"/>
     </g>
    </g>
    <g id="line2d_31"/>
    <g id="line2d_32">
     <g>
      <use style="fill:#800000;stroke:#800000;" x="69.292857" xlink:href="#me473d0ae43" y="74.762743"/>
     </g>
    </g>
    <g id="text_18">
     <!-- RHS, $\mathbf{X}$ is orthogonal -->
     <g style="fill:#262626;" transform="translate(86.531817 78.114763)scale(0.095772 -0.095772)">
      <use transform="scale(0.996264)" xlink:href="#CMR17-52"/>
      <use transform="translate(67.791102 0)scale(0.996264)" xlink:href="#CMR17-48"/>
      <use transform="translate(136.863532 0)scale(0.996264)" xlink:href="#CMR17-53"/>
      <use transform="translate(187.758902 0)scale(0.996264)" xlink:href="#CMR17-2c"/>
      <use transform="translate(242.705926 0)scale(0.996264)" xlink:href="#CMBX12-58"/>
      <use transform="translate(357.418287 0)scale(0.996264)" xlink:href="#CMR17-69"/>
      <use transform="translate(382.289346 0)scale(0.996264)" xlink:href="#CMR17-73"/>
      <use transform="translate(448.16665 0)scale(0.996264)" xlink:href="#CMR17-6f"/>
      <use transform="translate(493.857127 0)scale(0.996264)" xlink:href="#CMR17-72"/>
      <use transform="translate(529.137895 0)scale(0.996264)" xlink:href="#CMR17-74"/>
      <use transform="translate(564.418663 0)scale(0.996264)" xlink:href="#CMR17-68"/>
      <use transform="translate(615.314032 0)scale(0.996264)" xlink:href="#CMR17-6f"/>
      <use transform="translate(661.004509 0)scale(0.996264)" xlink:href="#CMR17-67"/>
      <use transform="translate(706.694987 0)scale(0.996264)" xlink:href="#CMR17-6f"/>
      <use transform="translate(752.385464 0)scale(0.996264)" xlink:href="#CMR17-6e"/>
      <use transform="translate(803.280833 0)scale(0.996264)" xlink:href="#CMR17-61"/>
      <use transform="translate(848.971311 0)scale(0.996264)" xlink:href="#CMR17-6c"/>
     </g>
    </g>
   </g>
  </g>
 </g>
 <defs>
  <clipPath id="p3b636962d9">
   <rect height="247.393668" width="332.411905" x="51.096177" y="22.74751"/>
  </clipPath>
 </defs>
</svg>
